<?xml version="1.0" encoding="utf-8" standalone="no"?>
<!DOCTYPE svg PUBLIC "-//W3C//DTD SVG 1.1//EN"
  "http://www.w3.org/Graphics/SVG/1.1/DTD/svg11.dtd">
<!-- Created with matplotlib (http://matplotlib.org/) -->
<svg height="450pt" version="1.1" viewBox="0 0 2108 450" width="2108pt" xmlns="http://www.w3.org/2000/svg" xmlns:xlink="http://www.w3.org/1999/xlink">
 <defs>
  <style type="text/css">
*{stroke-linecap:butt;stroke-linejoin:round;}
  </style>
 </defs>
 <g id="figure_1">
  <g id="patch_1">
   <path d="M 0 450.607187 
L 2108.219495 450.607187 
L 2108.219495 0 
L 0 0 
z
" style="fill:#ffffff;"/>
  </g>
  <g id="axes_1">
   <g id="patch_2">
    <path d="M 65.35 390.86 
L 503.460304 390.86 
L 503.460304 29.7 
L 65.35 29.7 
z
" style="fill:#ffffff;"/>
   </g>
   <g id="matplotlib.axis_1">
    <g id="xtick_1">
     <g id="line2d_1"/>
     <g id="text_1">
      <!-- 5,25 -->
      <defs>
       <path d="M 11.28125 37.203125 
L 14.59375 71.09375 
L 49.265625 71.09375 
L 49.265625 68.5 
L 17 68.5 
L 14.109375 39.984375 
Q 16.65625 42.09375 20.828125 43.40625 
Q 25 44.734375 29 44.734375 
Q 38.578125 44.734375 44.28125 38.671875 
Q 50 32.625 50 22.65625 
Q 50 11.078125 44.828125 5.046875 
Q 39.65625 -0.984375 29.984375 -0.984375 
Q 20.84375 -0.984375 15.234375 4.234375 
Q 9.625 9.46875 8.890625 18.703125 
L 11.578125 18.703125 
Q 12.359375 10.359375 17.046875 6 
Q 21.734375 1.65625 29.984375 1.65625 
Q 38.765625 1.65625 43.03125 6.953125 
Q 47.3125 12.25 47.3125 22.5625 
Q 47.3125 31.453125 42.359375 36.765625 
Q 37.40625 42.09375 29.046875 42.09375 
Q 23.921875 42.09375 20.109375 40.71875 
Q 16.3125 39.359375 13.28125 36.421875 
z
" id="Roboto-Thin-35"/>
       <path d="M 6.296875 -12.453125 
L 4.5 -10.890625 
Q 8.453125 -5.8125 8.796875 -0.390625 
L 8.84375 7.765625 
L 11.46875 7.765625 
L 11.46875 0.640625 
Q 11.28125 -7.125 6.296875 -12.453125 
z
" id="Roboto-Thin-2c"/>
       <path d="M 50 0 
L 7.46875 0 
L 7.46875 2.640625 
L 31.734375 30.609375 
Q 37.703125 37.59375 40.59375 43.015625 
Q 43.5 48.4375 43.5 52.984375 
Q 43.5 60.796875 38.953125 65.109375 
Q 34.421875 69.4375 26.171875 69.4375 
Q 21.1875 69.4375 17.078125 67.046875 
Q 12.984375 64.65625 10.65625 60.421875 
Q 8.34375 56.203125 8.34375 51.03125 
L 5.71875 51.03125 
Q 5.71875 56.734375 8.34375 61.609375 
Q 10.984375 66.5 15.671875 69.28125 
Q 20.359375 72.078125 26.171875 72.078125 
Q 35.640625 72.078125 40.90625 67.046875 
Q 46.1875 62.015625 46.1875 52.984375 
Q 46.1875 44.671875 36.859375 33.109375 
L 32.421875 27.6875 
L 10.9375 2.640625 
L 50 2.640625 
z
" id="Roboto-Thin-32"/>
      </defs>
      <g style="fill:#262626;" transform="translate(120.077759 412.86)scale(0.2 -0.2)">
       <use xlink:href="#Roboto-Thin-35"/>
       <use x="54.736328" xlink:href="#Roboto-Thin-2c"/>
       <use x="73.4375" xlink:href="#Roboto-Thin-32"/>
       <use x="128.173828" xlink:href="#Roboto-Thin-35"/>
      </g>
     </g>
    </g>
    <g id="xtick_2">
     <g id="line2d_2"/>
     <g id="text_2">
      <!-- 25,35 -->
      <defs>
       <path d="M 20.359375 37.59375 
L 26.3125 37.59375 
Q 34.671875 37.75 39.8125 42.046875 
Q 44.96875 46.34375 44.96875 52.984375 
Q 44.96875 60.546875 40.359375 64.984375 
Q 35.75 69.4375 27.546875 69.4375 
Q 19.53125 69.4375 14.359375 64.75 
Q 9.1875 60.0625 9.1875 52.4375 
L 6.546875 52.4375 
Q 6.546875 58.109375 9.28125 62.59375 
Q 12.015625 67.09375 16.84375 69.578125 
Q 21.6875 72.078125 27.546875 72.078125 
Q 36.765625 72.078125 42.1875 66.875 
Q 47.609375 61.671875 47.609375 52.78125 
Q 47.609375 47.125 44.015625 42.671875 
Q 40.4375 38.234375 34.328125 36.375 
Q 41.3125 34.765625 45.234375 30.3125 
Q 49.171875 25.875 49.171875 18.84375 
Q 49.171875 9.765625 43.359375 4.390625 
Q 37.546875 -0.984375 27.984375 -0.984375 
Q 21.53125 -0.984375 16.0625 1.796875 
Q 10.59375 4.59375 7.8125 9.171875 
Q 5.03125 13.765625 5.03125 19.78125 
L 7.671875 19.78125 
Q 7.671875 11.96875 13.421875 6.8125 
Q 19.1875 1.65625 27.984375 1.65625 
Q 36.71875 1.65625 41.625 6.171875 
Q 46.53125 10.6875 46.53125 18.65625 
Q 46.53125 26.515625 41.28125 30.65625 
Q 36.03125 34.8125 25.921875 34.859375 
L 20.359375 34.859375 
z
" id="Roboto-Thin-33"/>
      </defs>
      <g style="fill:#262626;" transform="translate(260.641089 412.86)scale(0.2 -0.2)">
       <use xlink:href="#Roboto-Thin-32"/>
       <use x="54.736328" xlink:href="#Roboto-Thin-35"/>
       <use x="109.472656" xlink:href="#Roboto-Thin-2c"/>
       <use x="128.173828" xlink:href="#Roboto-Thin-33"/>
       <use x="182.910156" xlink:href="#Roboto-Thin-35"/>
      </g>
     </g>
    </g>
    <g id="xtick_3">
     <g id="line2d_3"/>
     <g id="text_3">
      <!-- 60, 120 -->
      <defs>
       <path d="M 41.015625 72.078125 
L 41.015625 69.4375 
Q 26.078125 69.4375 17.828125 60.59375 
Q 9.578125 51.765625 8.9375 35.796875 
Q 11.765625 40.828125 17.140625 43.78125 
Q 22.515625 46.734375 28.90625 46.734375 
Q 38.28125 46.734375 43.875 40.328125 
Q 49.46875 33.9375 49.46875 23.4375 
Q 49.46875 16.65625 46.921875 11.03125 
Q 44.390625 5.421875 39.75 2.21875 
Q 35.109375 -0.984375 29.390625 -0.984375 
Q 22.859375 -0.984375 17.578125 2.046875 
Q 12.3125 5.078125 9.328125 10.6875 
Q 6.34375 16.3125 6.25 23.484375 
L 6.25 32.234375 
Q 6.25 51.171875 15.1875 61.625 
Q 24.125 72.078125 41.015625 72.078125 
z
M 28.5625 44.09375 
Q 21.734375 44.09375 16.046875 40.15625 
Q 10.359375 36.234375 8.890625 30.328125 
L 8.890625 24.078125 
Q 8.890625 14.015625 14.59375 7.8125 
Q 20.3125 1.609375 29.390625 1.609375 
Q 36.96875 1.609375 41.890625 7.9375 
Q 46.828125 14.265625 46.828125 23.4375 
Q 46.828125 32.90625 41.9375 38.5 
Q 37.0625 44.09375 28.5625 44.09375 
z
" id="Roboto-Thin-36"/>
       <path d="M 48.640625 29 
Q 48.640625 14.703125 43.0625 6.859375 
Q 37.5 -0.984375 27.4375 -0.984375 
Q 17.4375 -0.984375 11.765625 6.921875 
Q 6.109375 14.84375 6.109375 29.203125 
L 6.109375 42.09375 
Q 6.109375 56.25 11.6875 64.1875 
Q 17.28125 72.125 27.34375 72.125 
Q 37.453125 72.125 43.046875 64.1875 
Q 48.640625 56.25 48.640625 41.890625 
z
M 46 42.09375 
Q 46 55.03125 41.140625 62.25 
Q 36.28125 69.484375 27.34375 69.484375 
Q 18.359375 69.484375 13.546875 62.234375 
Q 8.734375 54.984375 8.734375 41.84375 
L 8.734375 29.109375 
Q 8.734375 16.21875 13.671875 8.9375 
Q 18.609375 1.65625 27.4375 1.65625 
Q 36.328125 1.65625 41.15625 8.9375 
Q 46 16.21875 46 29.34375 
z
" id="Roboto-Thin-30"/>
       <path id="Roboto-Thin-20"/>
       <path d="M 32.171875 0 
L 29.546875 0 
L 29.546875 67.78125 
L 9.125 60.109375 
L 9.125 62.984375 
L 31.640625 71.296875 
L 32.171875 71.296875 
z
" id="Roboto-Thin-31"/>
      </defs>
      <g style="fill:#262626;" transform="translate(398.812232 412.86)scale(0.2 -0.2)">
       <use xlink:href="#Roboto-Thin-36"/>
       <use x="54.736328" xlink:href="#Roboto-Thin-30"/>
       <use x="109.472656" xlink:href="#Roboto-Thin-2c"/>
       <use x="128.173828" xlink:href="#Roboto-Thin-20"/>
       <use x="152.099609" xlink:href="#Roboto-Thin-31"/>
       <use x="206.835938" xlink:href="#Roboto-Thin-32"/>
       <use x="261.572266" xlink:href="#Roboto-Thin-30"/>
      </g>
     </g>
    </g>
    <g id="text_4">
     <!-- Message creation interval (s) -->
     <defs>
      <path d="M 13.53125 71.09375 
L 42.78125 3.859375 
L 72.125 71.09375 
L 75.984375 71.09375 
L 75.984375 0 
L 73.34375 0 
L 73.34375 67.1875 
L 43.84375 0 
L 41.75 0 
L 12.40625 66.84375 
L 12.40625 0 
L 9.765625 0 
L 9.765625 71.09375 
z
" id="Roboto-Thin-4d"/>
      <path d="M 27.390625 -0.984375 
Q 21 -0.984375 15.640625 2.453125 
Q 10.296875 5.90625 7.265625 11.90625 
Q 4.25 17.921875 4.25 25.25 
L 4.25 27.4375 
Q 4.25 34.765625 7.171875 40.859375 
Q 10.109375 46.96875 15.234375 50.390625 
Q 20.359375 53.8125 26.421875 53.8125 
Q 35.25 53.8125 40.859375 47.515625 
Q 46.484375 41.21875 46.484375 30.953125 
L 46.484375 28.171875 
L 6.890625 28.171875 
L 6.890625 25.296875 
Q 6.890625 18.84375 9.59375 13.34375 
Q 12.3125 7.859375 17.0625 4.734375 
Q 21.828125 1.609375 27.390625 1.609375 
Q 32.71875 1.609375 36.453125 3.390625 
Q 40.1875 5.171875 43.0625 8.890625 
L 44.921875 7.5625 
Q 39.015625 -0.984375 27.390625 -0.984375 
z
M 26.421875 51.171875 
Q 18.703125 51.171875 13.328125 45.4375 
Q 7.953125 39.703125 7.03125 30.8125 
L 43.84375 30.8125 
L 43.84375 31.453125 
Q 43.84375 36.8125 41.578125 41.421875 
Q 39.3125 46.046875 35.328125 48.609375 
Q 31.34375 51.171875 26.421875 51.171875 
z
" id="Roboto-Thin-65"/>
      <path d="M 40.96875 12.9375 
Q 40.96875 22.5625 24.5625 26.03125 
Q 14.703125 28.125 10.84375 31.421875 
Q 6.984375 34.71875 6.984375 40.484375 
Q 6.984375 46.296875 11.890625 50.046875 
Q 16.796875 53.8125 24.65625 53.8125 
Q 33.203125 53.8125 38.375 49.734375 
Q 43.5625 45.65625 43.5625 38.71875 
L 40.875 38.71875 
Q 40.875 44.046875 36.375 47.609375 
Q 31.890625 51.171875 24.65625 51.171875 
Q 17.71875 51.171875 13.671875 48.140625 
Q 9.625 45.125 9.625 40.578125 
Q 9.625 37.015625 11.125 34.984375 
Q 12.640625 32.953125 16.0625 31.3125 
Q 19.484375 29.6875 26.015625 28.171875 
Q 32.5625 26.65625 36.375 24.609375 
Q 40.1875 22.5625 41.890625 19.75 
Q 43.609375 16.9375 43.609375 12.890625 
Q 43.609375 6.640625 38.46875 2.828125 
Q 33.34375 -0.984375 25.046875 -0.984375 
Q 16.15625 -0.984375 10.71875 3.046875 
Q 5.28125 7.078125 5.28125 13.421875 
L 7.90625 13.421875 
Q 8.296875 7.859375 12.8125 4.75 
Q 17.328125 1.65625 25.046875 1.65625 
Q 32.125 1.65625 36.546875 4.953125 
Q 40.96875 8.25 40.96875 12.9375 
z
" id="Roboto-Thin-73"/>
      <path d="M 42.53125 0 
Q 41.546875 3.375 41.546875 9.671875 
Q 38.421875 4.59375 33 1.796875 
Q 27.59375 -0.984375 20.75 -0.984375 
Q 13.421875 -0.984375 8.953125 3 
Q 4.5 6.984375 4.5 13.375 
Q 4.5 20.65625 11.0625 25.015625 
Q 17.625 29.390625 28.515625 29.5 
L 41.546875 29.5 
L 41.546875 37.203125 
Q 41.546875 43.84375 37.375 47.5 
Q 33.203125 51.171875 25.4375 51.171875 
Q 18.21875 51.171875 13.375 47.453125 
Q 8.546875 43.75 8.546875 38.28125 
L 5.90625 38.375 
Q 5.90625 44.828125 11.5625 49.3125 
Q 17.234375 53.8125 25.4375 53.8125 
Q 33.984375 53.8125 39.015625 49.53125 
Q 44.046875 45.265625 44.1875 37.5 
L 44.1875 12.25 
Q 44.1875 3.5625 45.5625 0.4375 
L 45.5625 0 
z
M 20.75 1.609375 
Q 28.171875 1.609375 33.515625 4.921875 
Q 38.875 8.25 41.546875 14.265625 
L 41.546875 26.8125 
L 29.34375 26.8125 
Q 18.015625 26.8125 12.015625 22.3125 
Q 7.125 18.65625 7.125 13.1875 
Q 7.125 8.34375 10.984375 4.96875 
Q 14.84375 1.609375 20.75 1.609375 
z
" id="Roboto-Thin-61"/>
      <path d="M 5.90625 26.953125 
Q 5.90625 39.59375 11.21875 46.703125 
Q 16.546875 53.8125 25.828125 53.8125 
Q 31.734375 53.8125 36.328125 51.09375 
Q 40.921875 48.390625 43.703125 43.171875 
L 43.703125 52.828125 
L 46.390625 52.828125 
L 46.390625 0.921875 
Q 46.390625 -9.515625 41.015625 -15.40625 
Q 35.640625 -21.296875 26.421875 -21.296875 
Q 21.09375 -21.296875 16.671875 -19 
Q 12.25 -16.703125 9.125 -12.40625 
L 10.984375 -10.640625 
Q 14.0625 -14.546875 17.71875 -16.625 
Q 21.390625 -18.703125 26.3125 -18.703125 
Q 34.46875 -18.703125 39.015625 -13.75 
Q 43.5625 -8.796875 43.703125 0.25 
L 43.703125 8.34375 
Q 40.96875 3.859375 36.296875 1.4375 
Q 31.640625 -0.984375 25.734375 -0.984375 
Q 16.546875 -0.984375 11.21875 6.296875 
Q 5.90625 13.578125 5.90625 26.265625 
z
M 8.59375 25.921875 
Q 8.59375 14.59375 13.078125 8.125 
Q 17.578125 1.65625 25.6875 1.65625 
Q 32.375 1.65625 37.0625 4.75 
Q 41.75 7.859375 43.703125 13.484375 
L 43.703125 37.453125 
Q 39.40625 51.171875 25.78125 51.171875 
Q 17.625 51.171875 13.109375 44.765625 
Q 8.59375 38.375 8.59375 25.921875 
z
" id="Roboto-Thin-67"/>
      <path d="M 26.3125 1.65625 
Q 33.5 1.65625 38.15625 5.46875 
Q 42.828125 9.28125 43.265625 16.015625 
L 45.90625 16.015625 
Q 45.515625 8.34375 39.984375 3.671875 
Q 34.46875 -0.984375 26.3125 -0.984375 
Q 16.40625 -0.984375 10.5625 6.1875 
Q 4.734375 13.375 4.734375 25.6875 
L 4.734375 27.4375 
Q 4.734375 39.453125 10.5625 46.625 
Q 16.40625 53.8125 26.21875 53.8125 
Q 34.625 53.8125 40.09375 48.78125 
Q 45.5625 43.75 45.90625 35.40625 
L 43.265625 35.40625 
Q 42.921875 42.53125 38.25 46.84375 
Q 33.59375 51.171875 26.21875 51.171875 
Q 17.390625 51.171875 12.375 44.796875 
Q 7.375 38.421875 7.375 27.09375 
L 7.375 25.390625 
Q 7.375 14.3125 12.421875 7.984375 
Q 17.484375 1.65625 26.3125 1.65625 
z
" id="Roboto-Thin-63"/>
      <path d="M 31.6875 50.921875 
L 28.265625 51.21875 
Q 21.53125 51.21875 16.984375 46.84375 
Q 12.453125 42.484375 11.03125 34.625 
L 11.03125 0 
L 8.40625 0 
L 8.40625 52.828125 
L 11.03125 52.828125 
L 11.03125 41.84375 
Q 13.1875 47.359375 17.484375 50.578125 
Q 21.78125 53.8125 28.265625 53.8125 
Q 30.5625 53.8125 31.984375 53.265625 
z
" id="Roboto-Thin-72"/>
      <path d="M 14.3125 67.09375 
L 14.3125 52.828125 
L 26.3125 52.828125 
L 26.3125 50.140625 
L 14.3125 50.140625 
L 14.3125 12.640625 
Q 14.3125 7.03125 16.140625 4.34375 
Q 17.96875 1.65625 22.265625 1.65625 
Q 24.421875 1.65625 27.484375 2.09375 
L 27.9375 -0.390625 
Q 26.3125 -0.984375 22.40625 -0.984375 
Q 16.65625 -0.984375 14.15625 2.21875 
Q 11.671875 5.421875 11.625 12.3125 
L 11.625 50.140625 
L 1.859375 50.140625 
L 1.859375 52.828125 
L 11.625 52.828125 
L 11.625 67.09375 
z
" id="Roboto-Thin-74"/>
      <path d="M 11.671875 0 
L 9.03125 0 
L 9.03125 52.828125 
L 11.671875 52.828125 
z
M 7.671875 69.34375 
Q 7.671875 70.453125 8.453125 71.265625 
Q 9.234375 72.078125 10.34375 72.078125 
Q 11.46875 72.078125 12.28125 71.265625 
Q 13.09375 70.453125 13.09375 69.328125 
Q 13.09375 68.21875 12.28125 67.4375 
Q 11.46875 66.65625 10.34375 66.65625 
Q 9.234375 66.65625 8.453125 67.4375 
Q 7.671875 68.21875 7.671875 69.34375 
z
" id="Roboto-Thin-69"/>
      <path d="M 4.390625 27.4375 
Q 4.390625 35.015625 7.296875 41.046875 
Q 10.203125 47.078125 15.5 50.4375 
Q 20.796875 53.8125 27.484375 53.8125 
Q 34.125 53.8125 39.390625 50.53125 
Q 44.671875 47.265625 47.625 41.25 
Q 50.59375 35.25 50.640625 27.734375 
L 50.640625 25.390625 
Q 50.640625 17.78125 47.75 11.765625 
Q 44.875 5.765625 39.578125 2.390625 
Q 34.28125 -0.984375 27.59375 -0.984375 
Q 20.90625 -0.984375 15.59375 2.34375 
Q 10.296875 5.671875 7.359375 11.640625 
Q 4.4375 17.625 4.390625 25.09375 
z
M 7.03125 25.390625 
Q 7.03125 18.796875 9.640625 13.296875 
Q 12.25 7.8125 16.90625 4.734375 
Q 21.578125 1.65625 27.59375 1.65625 
Q 36.625 1.65625 42.3125 8.4375 
Q 48 15.234375 48 25.921875 
L 48 27.4375 
Q 48 33.9375 45.359375 39.453125 
Q 42.71875 44.96875 38.0625 48.0625 
Q 33.40625 51.171875 27.484375 51.171875 
Q 18.453125 51.171875 12.734375 44.28125 
Q 7.03125 37.40625 7.03125 26.953125 
z
" id="Roboto-Thin-6f"/>
      <path d="M 11.03125 40.53125 
Q 13.625 46.6875 18.65625 50.25 
Q 23.6875 53.8125 29.78125 53.8125 
Q 38.28125 53.8125 42.40625 49 
Q 46.53125 44.1875 46.578125 34.46875 
L 46.578125 0 
L 43.953125 0 
L 43.953125 34.578125 
Q 43.890625 43.0625 40.46875 47.140625 
Q 37.0625 51.21875 29.640625 51.21875 
Q 22.796875 51.21875 17.796875 46.359375 
Q 12.796875 41.5 11.03125 33.84375 
L 11.03125 0 
L 8.40625 0 
L 8.40625 52.828125 
L 11.03125 52.828125 
z
" id="Roboto-Thin-6e"/>
      <path d="M 23.921875 4.203125 
L 42.921875 52.828125 
L 45.75 52.828125 
L 25.203125 0 
L 22.609375 0 
L 2.09375 52.828125 
L 4.9375 52.828125 
z
" id="Roboto-Thin-76"/>
      <path d="M 11.671875 0 
L 9.03125 0 
L 9.03125 75 
L 11.671875 75 
z
" id="Roboto-Thin-6c"/>
      <path d="M 7.234375 28.609375 
Q 7.234375 39.15625 9.8125 49.359375 
Q 12.40625 59.578125 17.15625 67.671875 
Q 21.921875 75.78125 27.4375 79.25 
L 28.375 77.15625 
Q 23.578125 73.96875 19.328125 66.546875 
Q 15.09375 59.125 12.546875 49.359375 
Q 10.015625 39.59375 9.859375 30.078125 
L 9.859375 27.546875 
Q 9.859375 17.875 12.296875 7.9375 
Q 14.75 -2 19.09375 -9.78125 
Q 23.4375 -17.578125 28.375 -20.84375 
L 27.4375 -22.953125 
Q 21.78125 -19.390625 17.109375 -11.640625 
Q 12.453125 -3.90625 9.84375 6.375 
Q 7.234375 16.65625 7.234375 28.609375 
z
" id="Roboto-Thin-28"/>
      <path d="M 22.515625 27.640625 
Q 22.515625 16.65625 19.890625 6.375 
Q 17.28125 -3.90625 12.609375 -11.640625 
Q 7.953125 -19.390625 2.296875 -22.953125 
L 1.375 -20.84375 
Q 6.453125 -17.4375 10.796875 -9.515625 
Q 15.140625 -1.609375 17.5 8.15625 
Q 19.875 17.921875 19.875 28.8125 
Q 19.875 38.671875 17.375 48.609375 
Q 14.890625 58.546875 10.5625 66.234375 
Q 6.25 73.921875 1.375 77.15625 
L 2.296875 79.25 
Q 7.8125 75.78125 12.5625 67.671875 
Q 17.328125 59.578125 19.921875 49.359375 
Q 22.515625 39.15625 22.515625 27.640625 
z
" id="Roboto-Thin-29"/>
     </defs>
     <g style="fill:#262626;" transform="translate(148.383277 438.3575)scale(0.22 -0.22)">
      <use xlink:href="#Roboto-Thin-4d"/>
      <use x="85.742188" xlink:href="#Roboto-Thin-65"/>
      <use x="136.132812" xlink:href="#Roboto-Thin-73"/>
      <use x="185.888672" xlink:href="#Roboto-Thin-73"/>
      <use x="235.644531" xlink:href="#Roboto-Thin-61"/>
      <use x="288.427734" xlink:href="#Roboto-Thin-67"/>
      <use x="343.261719" xlink:href="#Roboto-Thin-65"/>
      <use x="393.652344" xlink:href="#Roboto-Thin-20"/>
      <use x="417.578125" xlink:href="#Roboto-Thin-63"/>
      <use x="468.310547" xlink:href="#Roboto-Thin-72"/>
      <use x="501.757812" xlink:href="#Roboto-Thin-65"/>
      <use x="552.148438" xlink:href="#Roboto-Thin-61"/>
      <use x="604.931641" xlink:href="#Roboto-Thin-74"/>
      <use x="636.572266" xlink:href="#Roboto-Thin-69"/>
      <use x="657.177734" xlink:href="#Roboto-Thin-6f"/>
      <use x="712.207031" xlink:href="#Roboto-Thin-6e"/>
      <use x="766.943359" xlink:href="#Roboto-Thin-20"/>
      <use x="790.869141" xlink:href="#Roboto-Thin-69"/>
      <use x="811.474609" xlink:href="#Roboto-Thin-6e"/>
      <use x="866.210938" xlink:href="#Roboto-Thin-74"/>
      <use x="897.851562" xlink:href="#Roboto-Thin-65"/>
      <use x="948.242188" xlink:href="#Roboto-Thin-72"/>
      <use x="981.689453" xlink:href="#Roboto-Thin-76"/>
      <use x="1029.443359" xlink:href="#Roboto-Thin-61"/>
      <use x="1082.226562" xlink:href="#Roboto-Thin-6c"/>
      <use x="1102.832031" xlink:href="#Roboto-Thin-20"/>
      <use x="1126.757812" xlink:href="#Roboto-Thin-28"/>
      <use x="1156.396484" xlink:href="#Roboto-Thin-73"/>
      <use x="1206.152344" xlink:href="#Roboto-Thin-29"/>
     </g>
    </g>
   </g>
   <g id="matplotlib.axis_2">
    <g id="ytick_1">
     <g id="line2d_4">
      <path clip-path="url(#pce5222b5cd)" d="M 65.35 381.120488 
L 503.460304 381.120488 
" style="fill:none;stroke:#cccccc;stroke-linecap:round;"/>
     </g>
     <g id="line2d_5"/>
     <g id="text_5">
      <!-- 0.2 -->
      <defs>
       <path d="M 7.171875 2.390625 
Q 7.171875 3.515625 7.953125 4.3125 
Q 8.734375 5.125 9.859375 5.125 
Q 10.984375 5.125 11.78125 4.3125 
Q 12.59375 3.515625 12.59375 2.390625 
Q 12.59375 1.265625 11.78125 0.484375 
Q 10.984375 -0.296875 9.859375 -0.296875 
Q 8.734375 -0.296875 7.953125 0.484375 
Q 7.171875 1.265625 7.171875 2.390625 
z
" id="Roboto-Thin-2e"/>
      </defs>
      <g style="fill:#262626;" transform="translate(32.16875 388.620488)scale(0.2 -0.2)">
       <use xlink:href="#Roboto-Thin-30"/>
       <use x="54.736328" xlink:href="#Roboto-Thin-2e"/>
       <use x="76.171875" xlink:href="#Roboto-Thin-32"/>
      </g>
     </g>
    </g>
    <g id="ytick_2">
     <g id="line2d_6">
      <path clip-path="url(#pce5222b5cd)" d="M 65.35 332.70172 
L 503.460304 332.70172 
" style="fill:none;stroke:#cccccc;stroke-linecap:round;"/>
     </g>
     <g id="line2d_7"/>
     <g id="text_6">
      <!-- 0.3 -->
      <g style="fill:#262626;" transform="translate(32.16875 340.20172)scale(0.2 -0.2)">
       <use xlink:href="#Roboto-Thin-30"/>
       <use x="54.736328" xlink:href="#Roboto-Thin-2e"/>
       <use x="76.171875" xlink:href="#Roboto-Thin-33"/>
      </g>
     </g>
    </g>
    <g id="ytick_3">
     <g id="line2d_8">
      <path clip-path="url(#pce5222b5cd)" d="M 65.35 284.282952 
L 503.460304 284.282952 
" style="fill:none;stroke:#cccccc;stroke-linecap:round;"/>
     </g>
     <g id="line2d_9"/>
     <g id="text_7">
      <!-- 0.4 -->
      <defs>
       <path d="M 41.109375 22.015625 
L 53.421875 22.015625 
L 53.421875 19.390625 
L 41.109375 19.390625 
L 41.109375 0 
L 38.484375 0 
L 38.484375 19.390625 
L 4 19.390625 
L 4 20.84375 
L 37.9375 71.09375 
L 41.109375 71.09375 
z
M 8.109375 22.015625 
L 38.484375 22.015625 
L 38.484375 67.921875 
L 34.375 61.1875 
z
" id="Roboto-Thin-34"/>
      </defs>
      <g style="fill:#262626;" transform="translate(32.16875 291.782952)scale(0.2 -0.2)">
       <use xlink:href="#Roboto-Thin-30"/>
       <use x="54.736328" xlink:href="#Roboto-Thin-2e"/>
       <use x="76.171875" xlink:href="#Roboto-Thin-34"/>
      </g>
     </g>
    </g>
    <g id="ytick_4">
     <g id="line2d_10">
      <path clip-path="url(#pce5222b5cd)" d="M 65.35 235.864184 
L 503.460304 235.864184 
" style="fill:none;stroke:#cccccc;stroke-linecap:round;"/>
     </g>
     <g id="line2d_11"/>
     <g id="text_8">
      <!-- 0.5 -->
      <g style="fill:#262626;" transform="translate(32.16875 243.364184)scale(0.2 -0.2)">
       <use xlink:href="#Roboto-Thin-30"/>
       <use x="54.736328" xlink:href="#Roboto-Thin-2e"/>
       <use x="76.171875" xlink:href="#Roboto-Thin-35"/>
      </g>
     </g>
    </g>
    <g id="ytick_5">
     <g id="line2d_12">
      <path clip-path="url(#pce5222b5cd)" d="M 65.35 187.445416 
L 503.460304 187.445416 
" style="fill:none;stroke:#cccccc;stroke-linecap:round;"/>
     </g>
     <g id="line2d_13"/>
     <g id="text_9">
      <!-- 0.6 -->
      <g style="fill:#262626;" transform="translate(32.16875 194.945416)scale(0.2 -0.2)">
       <use xlink:href="#Roboto-Thin-30"/>
       <use x="54.736328" xlink:href="#Roboto-Thin-2e"/>
       <use x="76.171875" xlink:href="#Roboto-Thin-36"/>
      </g>
     </g>
    </g>
    <g id="ytick_6">
     <g id="line2d_14">
      <path clip-path="url(#pce5222b5cd)" d="M 65.35 139.026648 
L 503.460304 139.026648 
" style="fill:none;stroke:#cccccc;stroke-linecap:round;"/>
     </g>
     <g id="line2d_15"/>
     <g id="text_10">
      <!-- 0.7 -->
      <defs>
       <path d="M 49.171875 69.4375 
L 17.875 0 
L 15.1875 0 
L 46.140625 68.453125 
L 3.765625 68.453125 
L 3.765625 71.09375 
L 49.171875 71.09375 
z
" id="Roboto-Thin-37"/>
      </defs>
      <g style="fill:#262626;" transform="translate(32.16875 146.526648)scale(0.2 -0.2)">
       <use xlink:href="#Roboto-Thin-30"/>
       <use x="54.736328" xlink:href="#Roboto-Thin-2e"/>
       <use x="76.171875" xlink:href="#Roboto-Thin-37"/>
      </g>
     </g>
    </g>
    <g id="ytick_7">
     <g id="line2d_16">
      <path clip-path="url(#pce5222b5cd)" d="M 65.35 90.60788 
L 503.460304 90.60788 
" style="fill:none;stroke:#cccccc;stroke-linecap:round;"/>
     </g>
     <g id="line2d_17"/>
     <g id="text_11">
      <!-- 0.8 -->
      <defs>
       <path d="M 48.140625 53.03125 
Q 48.140625 47.078125 44.453125 42.609375 
Q 40.765625 38.140625 34.90625 36.375 
Q 41.890625 34.515625 46.046875 29.625 
Q 50.203125 24.75 50.203125 18.5 
Q 50.203125 9.46875 44.015625 4.234375 
Q 37.84375 -0.984375 27.59375 -0.984375 
Q 17.140625 -0.984375 11.015625 4.234375 
Q 4.890625 9.46875 4.890625 18.5 
Q 4.890625 24.8125 8.90625 29.65625 
Q 12.9375 34.515625 19.921875 36.375 
Q 14.0625 38.140625 10.46875 42.609375 
Q 6.890625 47.078125 6.890625 53.03125 
Q 6.890625 61.8125 12.53125 66.9375 
Q 18.171875 72.078125 27.390625 72.078125 
Q 36.671875 72.078125 42.40625 66.84375 
Q 48.140625 61.625 48.140625 53.03125 
z
M 47.515625 18.265625 
Q 47.515625 25.59375 41.890625 30.328125 
Q 36.28125 35.0625 27.484375 35.0625 
Q 18.65625 35.0625 13.078125 30.34375 
Q 7.515625 25.640625 7.515625 18.265625 
Q 7.515625 10.75 12.953125 6.203125 
Q 18.40625 1.65625 27.59375 1.65625 
Q 36.578125 1.65625 42.046875 6.21875 
Q 47.515625 10.796875 47.515625 18.265625 
z
M 45.515625 53.265625 
Q 45.515625 60.203125 40.28125 64.8125 
Q 35.0625 69.4375 27.390625 69.4375 
Q 19.53125 69.4375 14.515625 64.984375 
Q 9.515625 60.546875 9.515625 53.265625 
Q 9.515625 46.34375 14.5 42.015625 
Q 19.484375 37.703125 27.484375 37.703125 
Q 35.40625 37.703125 40.453125 42.0625 
Q 45.515625 46.4375 45.515625 53.265625 
z
" id="Roboto-Thin-38"/>
      </defs>
      <g style="fill:#262626;" transform="translate(32.16875 98.10788)scale(0.2 -0.2)">
       <use xlink:href="#Roboto-Thin-30"/>
       <use x="54.736328" xlink:href="#Roboto-Thin-2e"/>
       <use x="76.171875" xlink:href="#Roboto-Thin-38"/>
      </g>
     </g>
    </g>
    <g id="ytick_8">
     <g id="line2d_18">
      <path clip-path="url(#pce5222b5cd)" d="M 65.35 42.189112 
L 503.460304 42.189112 
" style="fill:none;stroke:#cccccc;stroke-linecap:round;"/>
     </g>
     <g id="line2d_19"/>
     <g id="text_12">
      <!-- 0.9 -->
      <defs>
       <path d="M 45.84375 35.359375 
Q 43.265625 29.734375 37.8125 26.296875 
Q 32.375 22.859375 25.53125 22.859375 
Q 19.671875 22.859375 14.984375 26 
Q 10.296875 29.15625 7.65625 34.671875 
Q 5.03125 40.1875 5.03125 46.78125 
Q 5.03125 53.765625 7.71875 59.59375 
Q 10.40625 65.4375 15.234375 68.75 
Q 20.0625 72.078125 25.921875 72.078125 
Q 36.921875 72.078125 42.671875 64.921875 
Q 48.4375 57.765625 48.484375 44.28125 
L 48.484375 36.140625 
Q 48.484375 18.109375 40.46875 8.65625 
Q 32.46875 -0.78125 16.890625 -0.984375 
L 14.546875 -0.984375 
L 14.65625 1.65625 
L 16.75 1.65625 
Q 31 1.8125 38.421875 10.34375 
Q 45.84375 18.890625 45.84375 35.359375 
z
M 25.53125 25.484375 
Q 32.765625 25.484375 38.328125 29.734375 
Q 43.890625 33.984375 45.84375 41.015625 
L 45.84375 44.046875 
Q 45.84375 56.390625 40.734375 62.90625 
Q 35.640625 69.4375 26.125 69.4375 
Q 20.90625 69.4375 16.65625 66.359375 
Q 12.40625 63.28125 10.03125 57.984375 
Q 7.671875 52.6875 7.671875 46.78125 
Q 7.671875 40.96875 9.953125 36.015625 
Q 12.25 31.0625 16.296875 28.265625 
Q 20.359375 25.484375 25.53125 25.484375 
z
" id="Roboto-Thin-39"/>
      </defs>
      <g style="fill:#262626;" transform="translate(32.16875 49.689112)scale(0.2 -0.2)">
       <use xlink:href="#Roboto-Thin-30"/>
       <use x="54.736328" xlink:href="#Roboto-Thin-2e"/>
       <use x="76.171875" xlink:href="#Roboto-Thin-39"/>
      </g>
     </g>
    </g>
    <g id="text_13">
     <!-- PDR -->
     <defs>
      <path d="M 12.40625 30.03125 
L 12.40625 0 
L 9.765625 0 
L 9.765625 71.09375 
L 31.984375 71.09375 
Q 42.875 71.09375 48.90625 65.59375 
Q 54.9375 60.109375 54.9375 50.34375 
Q 54.9375 40.671875 49.046875 35.390625 
Q 43.171875 30.125 32.328125 30.03125 
z
M 12.40625 32.671875 
L 31.984375 32.671875 
Q 41.609375 32.671875 46.953125 37.296875 
Q 52.296875 41.9375 52.296875 50.25 
Q 52.296875 58.84375 46.953125 63.640625 
Q 41.609375 68.453125 31.984375 68.453125 
L 12.40625 68.453125 
z
" id="Roboto-Thin-50"/>
      <path d="M 9.765625 0 
L 9.765625 71.09375 
L 29.4375 71.09375 
Q 37.703125 71.09375 44.390625 67.1875 
Q 51.078125 63.28125 54.875 56.21875 
Q 58.6875 49.171875 58.796875 40.4375 
L 58.796875 31.203125 
Q 58.796875 22.3125 55.046875 15.1875 
Q 51.3125 8.0625 44.625 4.046875 
Q 37.9375 0.046875 29.6875 0 
z
M 12.40625 68.453125 
L 12.40625 2.640625 
L 29.4375 2.640625 
Q 36.921875 2.640625 43.046875 6.265625 
Q 49.171875 9.90625 52.640625 16.421875 
Q 56.109375 22.953125 56.15625 30.90625 
L 56.15625 40.046875 
Q 56.15625 48 52.75 54.484375 
Q 49.359375 60.984375 43.28125 64.671875 
Q 37.203125 68.359375 29.828125 68.453125 
z
" id="Roboto-Thin-44"/>
      <path d="M 36.8125 30.421875 
L 12.15625 30.421875 
L 12.15625 0 
L 9.515625 0 
L 9.515625 71.09375 
L 32.171875 71.09375 
Q 42.875 71.09375 49.1875 65.578125 
Q 55.515625 60.0625 55.515625 50.59375 
Q 55.515625 43.3125 51 37.859375 
Q 46.484375 32.421875 39.5 31.109375 
L 58.5 0.6875 
L 58.5 0 
L 55.71875 0 
z
M 12.15625 33.0625 
L 34.578125 33.0625 
Q 42.78125 33.0625 47.828125 38.03125 
Q 52.875 43.015625 52.875 50.59375 
Q 52.875 58.890625 47.28125 63.671875 
Q 41.703125 68.453125 31.984375 68.453125 
L 12.15625 68.453125 
z
" id="Roboto-Thin-52"/>
     </defs>
     <g style="fill:#262626;" transform="translate(23.7 231.283125)rotate(-90)scale(0.22 -0.22)">
      <use xlink:href="#Roboto-Thin-50"/>
      <use x="60.058594" xlink:href="#Roboto-Thin-44"/>
      <use x="125.488281" xlink:href="#Roboto-Thin-52"/>
     </g>
    </g>
   </g>
   <g id="PathCollection_1">
    <defs>
     <path d="M 0 5 
C 1.326016 5 2.597899 4.473168 3.535534 3.535534 
C 4.473168 2.597899 5 1.326016 5 0 
C 5 -1.326016 4.473168 -2.597899 3.535534 -3.535534 
C 2.597899 -4.473168 1.326016 -5 0 -5 
C -1.326016 -5 -2.597899 -4.473168 -3.535534 -3.535534 
C -4.473168 -2.597899 -5 -1.326016 -5 0 
C -5 1.326016 -4.473168 2.597899 -3.535534 3.535534 
C -2.597899 4.473168 -1.326016 5 0 5 
z
" id="C0_0_89e9ba385b"/>
    </defs>
    <g clip-path="url(#pce5222b5cd)">
     <use style="fill:#4c72b0;stroke:#4c72b0;stroke-width:1.08;" x="138.368384" xlink:href="#C0_0_89e9ba385b" y="370.84312"/>
    </g>
    <g clip-path="url(#pce5222b5cd)">
     <use style="fill:#4c72b0;stroke:#4c72b0;stroke-width:1.08;" x="284.405152" xlink:href="#C0_0_89e9ba385b" y="349.888446"/>
    </g>
    <g clip-path="url(#pce5222b5cd)">
     <use style="fill:#4c72b0;stroke:#4c72b0;stroke-width:1.08;" x="430.44192" xlink:href="#C0_0_89e9ba385b" y="301.287623"/>
    </g>
   </g>
   <g id="line2d_20">
    <path clip-path="url(#pce5222b5cd)" d="M 138.368384 370.84312 
L 284.405152 349.888446 
L 430.44192 301.287623 
" style="fill:none;stroke:#4c72b0;stroke-linecap:round;stroke-width:1.44;"/>
   </g>
   <g id="line2d_21">
    <path clip-path="url(#pce5222b5cd)" d="M 138.368384 372.491367 
L 138.368384 369.03894 
" style="fill:none;stroke:#4c72b0;stroke-linecap:round;stroke-width:1.44;"/>
   </g>
   <g id="line2d_22">
    <path clip-path="url(#pce5222b5cd)" d="M 284.405152 351.83166 
L 284.405152 347.90301 
" style="fill:none;stroke:#4c72b0;stroke-linecap:round;stroke-width:1.44;"/>
   </g>
   <g id="line2d_23">
    <path clip-path="url(#pce5222b5cd)" d="M 430.44192 304.252716 
L 430.44192 298.244019 
" style="fill:none;stroke:#4c72b0;stroke-linecap:round;stroke-width:1.44;"/>
   </g>
   <g id="PathCollection_2">
    <path clip-path="url(#pce5222b5cd)" d="M 133.368384 351.84581 
L 143.368384 351.84581 
L 143.368384 341.84581 
L 133.368384 341.84581 
z
" style="fill:#55a868;stroke:#55a868;stroke-width:1.08;"/>
    <path clip-path="url(#pce5222b5cd)" d="M 279.405152 313.758639 
L 289.405152 313.758639 
L 289.405152 303.758639 
L 279.405152 303.758639 
z
" style="fill:#55a868;stroke:#55a868;stroke-width:1.08;"/>
    <path clip-path="url(#pce5222b5cd)" d="M 425.44192 273.516833 
L 435.44192 273.516833 
L 435.44192 263.516833 
L 425.44192 263.516833 
z
" style="fill:#55a868;stroke:#55a868;stroke-width:1.08;"/>
   </g>
   <g id="line2d_24">
    <path clip-path="url(#pce5222b5cd)" d="M 138.368384 346.84581 
L 284.405152 308.758639 
L 430.44192 268.516833 
" style="fill:none;stroke:#55a868;stroke-linecap:round;stroke-width:1.44;"/>
   </g>
   <g id="line2d_25">
    <path clip-path="url(#pce5222b5cd)" d="M 138.368384 348.655268 
L 138.368384 344.858631 
" style="fill:none;stroke:#55a868;stroke-linecap:round;stroke-width:1.44;"/>
   </g>
   <g id="line2d_26">
    <path clip-path="url(#pce5222b5cd)" d="M 284.405152 311.073758 
L 284.405152 306.31245 
" style="fill:none;stroke:#55a868;stroke-linecap:round;stroke-width:1.44;"/>
   </g>
   <g id="line2d_27">
    <path clip-path="url(#pce5222b5cd)" d="M 430.44192 272.277082 
L 430.44192 264.875765 
" style="fill:none;stroke:#55a868;stroke-linecap:round;stroke-width:1.44;"/>
   </g>
   <g id="patch_3">
    <path d="M 65.35 390.86 
L 65.35 29.7 
" style="fill:none;stroke:#cccccc;stroke-linecap:square;stroke-linejoin:miter;"/>
   </g>
   <g id="patch_4">
    <path d="M 65.35 390.86 
L 503.460304 390.86 
" style="fill:none;stroke:#cccccc;stroke-linecap:square;stroke-linejoin:miter;"/>
   </g>
   <g id="PathCollection_3">
    <path clip-path="url(#pce5222b5cd)" d="M 138.368384 367.842815 
L 133.368384 377.842815 
L 143.368384 377.842815 
z
" style="fill:#c44e52;stroke:#c44e52;stroke-width:1.08;"/>
    <path clip-path="url(#pce5222b5cd)" d="M 284.405152 344.793545 
L 279.405152 354.793545 
L 289.405152 354.793545 
z
" style="fill:#c44e52;stroke:#c44e52;stroke-width:1.08;"/>
    <path clip-path="url(#pce5222b5cd)" d="M 430.44192 300.255057 
L 425.44192 310.255057 
L 435.44192 310.255057 
z
" style="fill:#c44e52;stroke:#c44e52;stroke-width:1.08;"/>
   </g>
   <g id="line2d_28">
    <path clip-path="url(#pce5222b5cd)" d="M 138.368384 372.842815 
L 284.405152 349.793545 
L 430.44192 305.255057 
" style="fill:none;stroke:#c44e52;stroke-linecap:round;stroke-width:1.44;"/>
   </g>
   <g id="line2d_29">
    <path clip-path="url(#pce5222b5cd)" d="M 138.368384 374.443636 
L 138.368384 371.161473 
" style="fill:none;stroke:#c44e52;stroke-linecap:round;stroke-width:1.44;"/>
   </g>
   <g id="line2d_30">
    <path clip-path="url(#pce5222b5cd)" d="M 284.405152 352.441422 
L 284.405152 347.188567 
" style="fill:none;stroke:#c44e52;stroke-linecap:round;stroke-width:1.44;"/>
   </g>
   <g id="line2d_31">
    <path clip-path="url(#pce5222b5cd)" d="M 430.44192 309.015283 
L 430.44192 301.610116 
" style="fill:none;stroke:#c44e52;stroke-linecap:round;stroke-width:1.44;"/>
   </g>
   <g id="text_14">
    <!-- Nodes = 100 -->
    <defs>
     <path d="M 60.984375 0 
L 58.34375 0 
L 12.453125 66.609375 
L 12.453125 0 
L 9.765625 0 
L 9.765625 71.09375 
L 12.453125 71.09375 
L 58.34375 4.640625 
L 58.34375 71.09375 
L 60.984375 71.09375 
z
" id="Roboto-Thin-4e"/>
     <path d="M 5.953125 26.953125 
Q 5.953125 39.59375 11.28125 46.703125 
Q 16.609375 53.8125 25.875 53.8125 
Q 31.84375 53.8125 36.40625 51.125 
Q 40.96875 48.4375 43.796875 43.109375 
L 43.796875 75 
L 46.4375 75 
L 46.4375 0 
L 43.796875 0 
L 43.796875 8.453125 
Q 41.109375 3.953125 36.421875 1.484375 
Q 31.734375 -0.984375 25.78125 -0.984375 
Q 16.609375 -0.984375 11.28125 6.296875 
Q 5.953125 13.578125 5.953125 26.265625 
z
M 8.6875 25.921875 
Q 8.6875 14.703125 13.125 8.171875 
Q 17.578125 1.65625 25.734375 1.65625 
Q 32.28125 1.65625 36.90625 4.5625 
Q 41.546875 7.46875 43.796875 13.09375 
L 43.796875 37.84375 
Q 39.265625 51.171875 25.828125 51.171875 
Q 17.71875 51.171875 13.203125 44.765625 
Q 8.6875 38.375 8.6875 25.921875 
z
" id="Roboto-Thin-64"/>
     <path d="M 47.90625 41.15625 
L 7.171875 41.15625 
L 7.171875 43.796875 
L 47.90625 43.796875 
z
M 47.90625 21.296875 
L 7.171875 21.296875 
L 7.171875 23.921875 
L 47.90625 23.921875 
z
" id="Roboto-Thin-3d"/>
    </defs>
    <g style="fill:#262626;" transform="translate(224.073589 23.7)scale(0.22 -0.22)">
     <use xlink:href="#Roboto-Thin-4e"/>
     <use x="70.751953" xlink:href="#Roboto-Thin-6f"/>
     <use x="125.78125" xlink:href="#Roboto-Thin-64"/>
     <use x="180.517578" xlink:href="#Roboto-Thin-65"/>
     <use x="230.908203" xlink:href="#Roboto-Thin-73"/>
     <use x="280.664062" xlink:href="#Roboto-Thin-20"/>
     <use x="304.589844" xlink:href="#Roboto-Thin-3d"/>
     <use x="360.351562" xlink:href="#Roboto-Thin-20"/>
     <use x="384.277344" xlink:href="#Roboto-Thin-31"/>
     <use x="439.013672" xlink:href="#Roboto-Thin-30"/>
     <use x="493.75" xlink:href="#Roboto-Thin-30"/>
    </g>
   </g>
   <g id="PathCollection_4">
    <path clip-path="url(#pce5222b5cd)" d="M 138.368384 367.245884 
L 143.368384 357.245884 
L 133.368384 357.245884 
z
" style="fill:#8172b2;stroke:#8172b2;stroke-width:1.08;"/>
    <path clip-path="url(#pce5222b5cd)" d="M 284.405152 337.648459 
L 289.405152 327.648459 
L 279.405152 327.648459 
z
" style="fill:#8172b2;stroke:#8172b2;stroke-width:1.08;"/>
    <path clip-path="url(#pce5222b5cd)" d="M 430.44192 269.874773 
L 435.44192 259.874773 
L 425.44192 259.874773 
z
" style="fill:#8172b2;stroke:#8172b2;stroke-width:1.08;"/>
   </g>
   <g id="line2d_32">
    <path clip-path="url(#pce5222b5cd)" d="M 138.368384 362.245884 
L 284.405152 332.648459 
L 430.44192 264.874773 
" style="fill:none;stroke:#8172b2;stroke-linecap:round;stroke-width:1.44;"/>
   </g>
   <g id="line2d_33">
    <path clip-path="url(#pce5222b5cd)" d="M 138.368384 363.903669 
L 138.368384 360.538081 
" style="fill:none;stroke:#8172b2;stroke-linecap:round;stroke-width:1.44;"/>
   </g>
   <g id="line2d_34">
    <path clip-path="url(#pce5222b5cd)" d="M 284.405152 335.09535 
L 284.405152 330.476417 
" style="fill:none;stroke:#8172b2;stroke-linecap:round;stroke-width:1.44;"/>
   </g>
   <g id="line2d_35">
    <path clip-path="url(#pce5222b5cd)" d="M 430.44192 268.116845 
L 430.44192 261.469069 
" style="fill:none;stroke:#8172b2;stroke-linecap:round;stroke-width:1.44;"/>
   </g>
   <g id="PathCollection_5">
    <path clip-path="url(#pce5222b5cd)" d="M 133.368384 348.25867 
L 143.368384 353.25867 
L 143.368384 343.25867 
z
" style="fill:#ccb974;stroke:#ccb974;stroke-width:1.08;"/>
    <path clip-path="url(#pce5222b5cd)" d="M 279.405152 312.562417 
L 289.405152 317.562417 
L 289.405152 307.562417 
z
" style="fill:#ccb974;stroke:#ccb974;stroke-width:1.08;"/>
    <path clip-path="url(#pce5222b5cd)" d="M 425.44192 241.306453 
L 435.44192 246.306453 
L 435.44192 236.306453 
z
" style="fill:#ccb974;stroke:#ccb974;stroke-width:1.08;"/>
   </g>
   <g id="line2d_36">
    <path clip-path="url(#pce5222b5cd)" d="M 138.368384 348.25867 
L 284.405152 312.562417 
L 430.44192 241.306453 
" style="fill:none;stroke:#ccb974;stroke-linecap:round;stroke-width:1.44;"/>
   </g>
   <g id="line2d_37">
    <path clip-path="url(#pce5222b5cd)" d="M 138.368384 350.260834 
L 138.368384 346.326979 
" style="fill:none;stroke:#ccb974;stroke-linecap:round;stroke-width:1.44;"/>
   </g>
   <g id="line2d_38">
    <path clip-path="url(#pce5222b5cd)" d="M 284.405152 314.802584 
L 284.405152 310.142157 
" style="fill:none;stroke:#ccb974;stroke-linecap:round;stroke-width:1.44;"/>
   </g>
   <g id="line2d_39">
    <path clip-path="url(#pce5222b5cd)" d="M 430.44192 244.987272 
L 430.44192 237.624666 
" style="fill:none;stroke:#ccb974;stroke-linecap:round;stroke-width:1.44;"/>
   </g>
  </g>
  <g id="axes_2">
   <g id="patch_5">
    <path d="M 529.325564 390.86 
L 967.435867 390.86 
L 967.435867 29.7 
L 529.325564 29.7 
z
" style="fill:#ffffff;"/>
   </g>
   <g id="matplotlib.axis_3">
    <g id="xtick_4">
     <g id="line2d_40"/>
     <g id="text_15">
      <!-- 5,25 -->
      <g style="fill:#262626;" transform="translate(584.053323 412.86)scale(0.2 -0.2)">
       <use xlink:href="#Roboto-Thin-35"/>
       <use x="54.736328" xlink:href="#Roboto-Thin-2c"/>
       <use x="73.4375" xlink:href="#Roboto-Thin-32"/>
       <use x="128.173828" xlink:href="#Roboto-Thin-35"/>
      </g>
     </g>
    </g>
    <g id="xtick_5">
     <g id="line2d_41"/>
     <g id="text_16">
      <!-- 25,35 -->
      <g style="fill:#262626;" transform="translate(724.616653 412.86)scale(0.2 -0.2)">
       <use xlink:href="#Roboto-Thin-32"/>
       <use x="54.736328" xlink:href="#Roboto-Thin-35"/>
       <use x="109.472656" xlink:href="#Roboto-Thin-2c"/>
       <use x="128.173828" xlink:href="#Roboto-Thin-33"/>
       <use x="182.910156" xlink:href="#Roboto-Thin-35"/>
      </g>
     </g>
    </g>
    <g id="xtick_6">
     <g id="line2d_42"/>
     <g id="text_17">
      <!-- 60, 120 -->
      <g style="fill:#262626;" transform="translate(862.787796 412.86)scale(0.2 -0.2)">
       <use xlink:href="#Roboto-Thin-36"/>
       <use x="54.736328" xlink:href="#Roboto-Thin-30"/>
       <use x="109.472656" xlink:href="#Roboto-Thin-2c"/>
       <use x="128.173828" xlink:href="#Roboto-Thin-20"/>
       <use x="152.099609" xlink:href="#Roboto-Thin-31"/>
       <use x="206.835938" xlink:href="#Roboto-Thin-32"/>
       <use x="261.572266" xlink:href="#Roboto-Thin-30"/>
      </g>
     </g>
    </g>
    <g id="text_18">
     <!-- Message creation interval (s) -->
     <g style="fill:#262626;" transform="translate(612.35884 438.3575)scale(0.22 -0.22)">
      <use xlink:href="#Roboto-Thin-4d"/>
      <use x="85.742188" xlink:href="#Roboto-Thin-65"/>
      <use x="136.132812" xlink:href="#Roboto-Thin-73"/>
      <use x="185.888672" xlink:href="#Roboto-Thin-73"/>
      <use x="235.644531" xlink:href="#Roboto-Thin-61"/>
      <use x="288.427734" xlink:href="#Roboto-Thin-67"/>
      <use x="343.261719" xlink:href="#Roboto-Thin-65"/>
      <use x="393.652344" xlink:href="#Roboto-Thin-20"/>
      <use x="417.578125" xlink:href="#Roboto-Thin-63"/>
      <use x="468.310547" xlink:href="#Roboto-Thin-72"/>
      <use x="501.757812" xlink:href="#Roboto-Thin-65"/>
      <use x="552.148438" xlink:href="#Roboto-Thin-61"/>
      <use x="604.931641" xlink:href="#Roboto-Thin-74"/>
      <use x="636.572266" xlink:href="#Roboto-Thin-69"/>
      <use x="657.177734" xlink:href="#Roboto-Thin-6f"/>
      <use x="712.207031" xlink:href="#Roboto-Thin-6e"/>
      <use x="766.943359" xlink:href="#Roboto-Thin-20"/>
      <use x="790.869141" xlink:href="#Roboto-Thin-69"/>
      <use x="811.474609" xlink:href="#Roboto-Thin-6e"/>
      <use x="866.210938" xlink:href="#Roboto-Thin-74"/>
      <use x="897.851562" xlink:href="#Roboto-Thin-65"/>
      <use x="948.242188" xlink:href="#Roboto-Thin-72"/>
      <use x="981.689453" xlink:href="#Roboto-Thin-76"/>
      <use x="1029.443359" xlink:href="#Roboto-Thin-61"/>
      <use x="1082.226562" xlink:href="#Roboto-Thin-6c"/>
      <use x="1102.832031" xlink:href="#Roboto-Thin-20"/>
      <use x="1126.757812" xlink:href="#Roboto-Thin-28"/>
      <use x="1156.396484" xlink:href="#Roboto-Thin-73"/>
      <use x="1206.152344" xlink:href="#Roboto-Thin-29"/>
     </g>
    </g>
   </g>
   <g id="matplotlib.axis_4">
    <g id="ytick_9">
     <g id="line2d_43">
      <path clip-path="url(#pce34765deb)" d="M 529.325564 381.120488 
L 967.435867 381.120488 
" style="fill:none;stroke:#cccccc;stroke-linecap:round;"/>
     </g>
     <g id="line2d_44"/>
    </g>
    <g id="ytick_10">
     <g id="line2d_45">
      <path clip-path="url(#pce34765deb)" d="M 529.325564 332.70172 
L 967.435867 332.70172 
" style="fill:none;stroke:#cccccc;stroke-linecap:round;"/>
     </g>
     <g id="line2d_46"/>
    </g>
    <g id="ytick_11">
     <g id="line2d_47">
      <path clip-path="url(#pce34765deb)" d="M 529.325564 284.282952 
L 967.435867 284.282952 
" style="fill:none;stroke:#cccccc;stroke-linecap:round;"/>
     </g>
     <g id="line2d_48"/>
    </g>
    <g id="ytick_12">
     <g id="line2d_49">
      <path clip-path="url(#pce34765deb)" d="M 529.325564 235.864184 
L 967.435867 235.864184 
" style="fill:none;stroke:#cccccc;stroke-linecap:round;"/>
     </g>
     <g id="line2d_50"/>
    </g>
    <g id="ytick_13">
     <g id="line2d_51">
      <path clip-path="url(#pce34765deb)" d="M 529.325564 187.445416 
L 967.435867 187.445416 
" style="fill:none;stroke:#cccccc;stroke-linecap:round;"/>
     </g>
     <g id="line2d_52"/>
    </g>
    <g id="ytick_14">
     <g id="line2d_53">
      <path clip-path="url(#pce34765deb)" d="M 529.325564 139.026648 
L 967.435867 139.026648 
" style="fill:none;stroke:#cccccc;stroke-linecap:round;"/>
     </g>
     <g id="line2d_54"/>
    </g>
    <g id="ytick_15">
     <g id="line2d_55">
      <path clip-path="url(#pce34765deb)" d="M 529.325564 90.60788 
L 967.435867 90.60788 
" style="fill:none;stroke:#cccccc;stroke-linecap:round;"/>
     </g>
     <g id="line2d_56"/>
    </g>
    <g id="ytick_16">
     <g id="line2d_57">
      <path clip-path="url(#pce34765deb)" d="M 529.325564 42.189112 
L 967.435867 42.189112 
" style="fill:none;stroke:#cccccc;stroke-linecap:round;"/>
     </g>
     <g id="line2d_58"/>
    </g>
   </g>
   <g id="PathCollection_6">
    <defs>
     <path d="M 0 5 
C 1.326016 5 2.597899 4.473168 3.535534 3.535534 
C 4.473168 2.597899 5 1.326016 5 0 
C 5 -1.326016 4.473168 -2.597899 3.535534 -3.535534 
C 2.597899 -4.473168 1.326016 -5 0 -5 
C -1.326016 -5 -2.597899 -4.473168 -3.535534 -3.535534 
C -4.473168 -2.597899 -5 -1.326016 -5 0 
C -5 1.326016 -4.473168 2.597899 -3.535534 3.535534 
C -2.597899 4.473168 -1.326016 5 0 5 
z
" id="C1_0_4145084488"/>
    </defs>
    <g clip-path="url(#pce34765deb)">
     <use style="fill:#4c72b0;stroke:#4c72b0;stroke-width:1.08;" x="602.343948" xlink:href="#C1_0_4145084488" y="324.650647"/>
    </g>
    <g clip-path="url(#pce34765deb)">
     <use style="fill:#4c72b0;stroke:#4c72b0;stroke-width:1.08;" x="748.380715" xlink:href="#C1_0_4145084488" y="298.555836"/>
    </g>
    <g clip-path="url(#pce34765deb)">
     <use style="fill:#4c72b0;stroke:#4c72b0;stroke-width:1.08;" x="894.417483" xlink:href="#C1_0_4145084488" y="230.455807"/>
    </g>
   </g>
   <g id="line2d_59">
    <path clip-path="url(#pce34765deb)" d="M 602.343948 324.650647 
L 748.380715 298.555836 
L 894.417483 230.455807 
" style="fill:none;stroke:#4c72b0;stroke-linecap:round;stroke-width:1.44;"/>
   </g>
   <g id="line2d_60">
    <path clip-path="url(#pce34765deb)" d="M 602.343948 326.121609 
L 602.343948 323.186076 
" style="fill:none;stroke:#4c72b0;stroke-linecap:round;stroke-width:1.44;"/>
   </g>
   <g id="line2d_61">
    <path clip-path="url(#pce34765deb)" d="M 748.380715 300.349558 
L 748.380715 296.618069 
" style="fill:none;stroke:#4c72b0;stroke-linecap:round;stroke-width:1.44;"/>
   </g>
   <g id="line2d_62">
    <path clip-path="url(#pce34765deb)" d="M 894.417483 232.877714 
L 894.417483 227.83151 
" style="fill:none;stroke:#4c72b0;stroke-linecap:round;stroke-width:1.44;"/>
   </g>
   <g id="PathCollection_7">
    <path clip-path="url(#pce34765deb)" d="M 597.343948 251.772932 
L 607.343948 251.772932 
L 607.343948 241.772932 
L 597.343948 241.772932 
z
" style="fill:#55a868;stroke:#55a868;stroke-width:1.08;"/>
    <path clip-path="url(#pce34765deb)" d="M 743.380715 246.275465 
L 753.380715 246.275465 
L 753.380715 236.275465 
L 743.380715 236.275465 
z
" style="fill:#55a868;stroke:#55a868;stroke-width:1.08;"/>
    <path clip-path="url(#pce34765deb)" d="M 889.417483 243.929092 
L 899.417483 243.929092 
L 899.417483 233.929092 
L 889.417483 233.929092 
z
" style="fill:#55a868;stroke:#55a868;stroke-width:1.08;"/>
   </g>
   <g id="line2d_63">
    <path clip-path="url(#pce34765deb)" d="M 602.343948 246.772932 
L 748.380715 241.275465 
L 894.417483 238.929092 
" style="fill:none;stroke:#55a868;stroke-linecap:round;stroke-width:1.44;"/>
   </g>
   <g id="line2d_64">
    <path clip-path="url(#pce34765deb)" d="M 602.343948 248.539515 
L 602.343948 245.084715 
" style="fill:none;stroke:#55a868;stroke-linecap:round;stroke-width:1.44;"/>
   </g>
   <g id="line2d_65">
    <path clip-path="url(#pce34765deb)" d="M 748.380715 243.999699 
L 748.380715 238.756406 
" style="fill:none;stroke:#55a868;stroke-linecap:round;stroke-width:1.44;"/>
   </g>
   <g id="line2d_66">
    <path clip-path="url(#pce34765deb)" d="M 894.417483 242.521789 
L 894.417483 235.214452 
" style="fill:none;stroke:#55a868;stroke-linecap:round;stroke-width:1.44;"/>
   </g>
   <g id="patch_6">
    <path d="M 529.325564 390.86 
L 529.325564 29.7 
" style="fill:none;stroke:#cccccc;stroke-linecap:square;stroke-linejoin:miter;"/>
   </g>
   <g id="patch_7">
    <path d="M 529.325564 390.86 
L 967.435867 390.86 
" style="fill:none;stroke:#cccccc;stroke-linecap:square;stroke-linejoin:miter;"/>
   </g>
   <g id="PathCollection_8">
    <path clip-path="url(#pce34765deb)" d="M 602.343948 310.097624 
L 597.343948 320.097624 
L 607.343948 320.097624 
z
" style="fill:#c44e52;stroke:#c44e52;stroke-width:1.08;"/>
    <path clip-path="url(#pce34765deb)" d="M 748.380715 285.87662 
L 743.380715 295.87662 
L 753.380715 295.87662 
z
" style="fill:#c44e52;stroke:#c44e52;stroke-width:1.08;"/>
    <path clip-path="url(#pce34765deb)" d="M 894.417483 234.819997 
L 889.417483 244.819997 
L 899.417483 244.819997 
z
" style="fill:#c44e52;stroke:#c44e52;stroke-width:1.08;"/>
   </g>
   <g id="line2d_67">
    <path clip-path="url(#pce34765deb)" d="M 602.343948 315.097624 
L 748.380715 290.87662 
L 894.417483 239.819997 
" style="fill:none;stroke:#c44e52;stroke-linecap:round;stroke-width:1.44;"/>
   </g>
   <g id="line2d_68">
    <path clip-path="url(#pce34765deb)" d="M 602.343948 316.540528 
L 602.343948 313.839269 
" style="fill:none;stroke:#c44e52;stroke-linecap:round;stroke-width:1.44;"/>
   </g>
   <g id="line2d_69">
    <path clip-path="url(#pce34765deb)" d="M 748.380715 292.864379 
L 748.380715 288.954346 
" style="fill:none;stroke:#c44e52;stroke-linecap:round;stroke-width:1.44;"/>
   </g>
   <g id="line2d_70">
    <path clip-path="url(#pce34765deb)" d="M 894.417483 242.321359 
L 894.417483 237.076566 
" style="fill:none;stroke:#c44e52;stroke-linecap:round;stroke-width:1.44;"/>
   </g>
   <g id="text_19">
    <!-- Nodes = 200 -->
    <g style="fill:#262626;" transform="translate(688.049153 23.7)scale(0.22 -0.22)">
     <use xlink:href="#Roboto-Thin-4e"/>
     <use x="70.751953" xlink:href="#Roboto-Thin-6f"/>
     <use x="125.78125" xlink:href="#Roboto-Thin-64"/>
     <use x="180.517578" xlink:href="#Roboto-Thin-65"/>
     <use x="230.908203" xlink:href="#Roboto-Thin-73"/>
     <use x="280.664062" xlink:href="#Roboto-Thin-20"/>
     <use x="304.589844" xlink:href="#Roboto-Thin-3d"/>
     <use x="360.351562" xlink:href="#Roboto-Thin-20"/>
     <use x="384.277344" xlink:href="#Roboto-Thin-32"/>
     <use x="439.013672" xlink:href="#Roboto-Thin-30"/>
     <use x="493.75" xlink:href="#Roboto-Thin-30"/>
    </g>
   </g>
   <g id="PathCollection_9">
    <path clip-path="url(#pce34765deb)" d="M 602.343948 298.930875 
L 607.343948 288.930875 
L 597.343948 288.930875 
z
" style="fill:#8172b2;stroke:#8172b2;stroke-width:1.08;"/>
    <path clip-path="url(#pce34765deb)" d="M 748.380715 256.608999 
L 753.380715 246.608999 
L 743.380715 246.608999 
z
" style="fill:#8172b2;stroke:#8172b2;stroke-width:1.08;"/>
    <path clip-path="url(#pce34765deb)" d="M 894.417483 173.56016 
L 899.417483 163.56016 
L 889.417483 163.56016 
z
" style="fill:#8172b2;stroke:#8172b2;stroke-width:1.08;"/>
   </g>
   <g id="line2d_71">
    <path clip-path="url(#pce34765deb)" d="M 602.343948 293.930875 
L 748.380715 251.608999 
L 894.417483 168.56016 
" style="fill:none;stroke:#8172b2;stroke-linecap:round;stroke-width:1.44;"/>
   </g>
   <g id="line2d_72">
    <path clip-path="url(#pce34765deb)" d="M 602.343948 295.730262 
L 602.343948 292.123863 
" style="fill:none;stroke:#8172b2;stroke-linecap:round;stroke-width:1.44;"/>
   </g>
   <g id="line2d_73">
    <path clip-path="url(#pce34765deb)" d="M 748.380715 253.402091 
L 748.380715 249.816149 
" style="fill:none;stroke:#8172b2;stroke-linecap:round;stroke-width:1.44;"/>
   </g>
   <g id="line2d_74">
    <path clip-path="url(#pce34765deb)" d="M 894.417483 171.750908 
L 894.417483 165.369339 
" style="fill:none;stroke:#8172b2;stroke-linecap:round;stroke-width:1.44;"/>
   </g>
   <g id="PathCollection_10">
    <path clip-path="url(#pce34765deb)" d="M 597.343948 234.973278 
L 607.343948 239.973278 
L 607.343948 229.973278 
z
" style="fill:#ccb974;stroke:#ccb974;stroke-width:1.08;"/>
    <path clip-path="url(#pce34765deb)" d="M 743.380715 193.295371 
L 753.380715 198.295371 
L 753.380715 188.295371 
z
" style="fill:#ccb974;stroke:#ccb974;stroke-width:1.08;"/>
    <path clip-path="url(#pce34765deb)" d="M 889.417483 134.145068 
L 899.417483 139.145068 
L 899.417483 129.145068 
z
" style="fill:#ccb974;stroke:#ccb974;stroke-width:1.08;"/>
   </g>
   <g id="line2d_75">
    <path clip-path="url(#pce34765deb)" d="M 602.343948 234.973278 
L 748.380715 193.295371 
L 894.417483 134.145068 
" style="fill:none;stroke:#ccb974;stroke-linecap:round;stroke-width:1.44;"/>
   </g>
   <g id="line2d_76">
    <path clip-path="url(#pce34765deb)" d="M 602.343948 236.813046 
L 602.343948 233.212627 
" style="fill:none;stroke:#ccb974;stroke-linecap:round;stroke-width:1.44;"/>
   </g>
   <g id="line2d_77">
    <path clip-path="url(#pce34765deb)" d="M 748.380715 195.539315 
L 748.380715 191.252777 
" style="fill:none;stroke:#ccb974;stroke-linecap:round;stroke-width:1.44;"/>
   </g>
   <g id="line2d_78">
    <path clip-path="url(#pce34765deb)" d="M 894.417483 137.012403 
L 894.417483 131.322084 
" style="fill:none;stroke:#ccb974;stroke-linecap:round;stroke-width:1.44;"/>
   </g>
  </g>
  <g id="axes_3">
   <g id="patch_8">
    <path d="M 993.301127 390.86 
L 1431.411431 390.86 
L 1431.411431 29.7 
L 993.301127 29.7 
z
" style="fill:#ffffff;"/>
   </g>
   <g id="matplotlib.axis_5">
    <g id="xtick_7">
     <g id="line2d_79"/>
     <g id="text_20">
      <!-- 5,25 -->
      <g style="fill:#262626;" transform="translate(1048.028886 412.86)scale(0.2 -0.2)">
       <use xlink:href="#Roboto-Thin-35"/>
       <use x="54.736328" xlink:href="#Roboto-Thin-2c"/>
       <use x="73.4375" xlink:href="#Roboto-Thin-32"/>
       <use x="128.173828" xlink:href="#Roboto-Thin-35"/>
      </g>
     </g>
    </g>
    <g id="xtick_8">
     <g id="line2d_80"/>
     <g id="text_21">
      <!-- 25,35 -->
      <g style="fill:#262626;" transform="translate(1188.592217 412.86)scale(0.2 -0.2)">
       <use xlink:href="#Roboto-Thin-32"/>
       <use x="54.736328" xlink:href="#Roboto-Thin-35"/>
       <use x="109.472656" xlink:href="#Roboto-Thin-2c"/>
       <use x="128.173828" xlink:href="#Roboto-Thin-33"/>
       <use x="182.910156" xlink:href="#Roboto-Thin-35"/>
      </g>
     </g>
    </g>
    <g id="xtick_9">
     <g id="line2d_81"/>
     <g id="text_22">
      <!-- 60, 120 -->
      <g style="fill:#262626;" transform="translate(1326.76336 412.86)scale(0.2 -0.2)">
       <use xlink:href="#Roboto-Thin-36"/>
       <use x="54.736328" xlink:href="#Roboto-Thin-30"/>
       <use x="109.472656" xlink:href="#Roboto-Thin-2c"/>
       <use x="128.173828" xlink:href="#Roboto-Thin-20"/>
       <use x="152.099609" xlink:href="#Roboto-Thin-31"/>
       <use x="206.835938" xlink:href="#Roboto-Thin-32"/>
       <use x="261.572266" xlink:href="#Roboto-Thin-30"/>
      </g>
     </g>
    </g>
    <g id="text_23">
     <!-- Message creation interval (s) -->
     <g style="fill:#262626;" transform="translate(1076.334404 438.3575)scale(0.22 -0.22)">
      <use xlink:href="#Roboto-Thin-4d"/>
      <use x="85.742188" xlink:href="#Roboto-Thin-65"/>
      <use x="136.132812" xlink:href="#Roboto-Thin-73"/>
      <use x="185.888672" xlink:href="#Roboto-Thin-73"/>
      <use x="235.644531" xlink:href="#Roboto-Thin-61"/>
      <use x="288.427734" xlink:href="#Roboto-Thin-67"/>
      <use x="343.261719" xlink:href="#Roboto-Thin-65"/>
      <use x="393.652344" xlink:href="#Roboto-Thin-20"/>
      <use x="417.578125" xlink:href="#Roboto-Thin-63"/>
      <use x="468.310547" xlink:href="#Roboto-Thin-72"/>
      <use x="501.757812" xlink:href="#Roboto-Thin-65"/>
      <use x="552.148438" xlink:href="#Roboto-Thin-61"/>
      <use x="604.931641" xlink:href="#Roboto-Thin-74"/>
      <use x="636.572266" xlink:href="#Roboto-Thin-69"/>
      <use x="657.177734" xlink:href="#Roboto-Thin-6f"/>
      <use x="712.207031" xlink:href="#Roboto-Thin-6e"/>
      <use x="766.943359" xlink:href="#Roboto-Thin-20"/>
      <use x="790.869141" xlink:href="#Roboto-Thin-69"/>
      <use x="811.474609" xlink:href="#Roboto-Thin-6e"/>
      <use x="866.210938" xlink:href="#Roboto-Thin-74"/>
      <use x="897.851562" xlink:href="#Roboto-Thin-65"/>
      <use x="948.242188" xlink:href="#Roboto-Thin-72"/>
      <use x="981.689453" xlink:href="#Roboto-Thin-76"/>
      <use x="1029.443359" xlink:href="#Roboto-Thin-61"/>
      <use x="1082.226562" xlink:href="#Roboto-Thin-6c"/>
      <use x="1102.832031" xlink:href="#Roboto-Thin-20"/>
      <use x="1126.757812" xlink:href="#Roboto-Thin-28"/>
      <use x="1156.396484" xlink:href="#Roboto-Thin-73"/>
      <use x="1206.152344" xlink:href="#Roboto-Thin-29"/>
     </g>
    </g>
   </g>
   <g id="matplotlib.axis_6">
    <g id="ytick_17">
     <g id="line2d_82">
      <path clip-path="url(#pb3b03923b3)" d="M 993.301127 381.120488 
L 1431.411431 381.120488 
" style="fill:none;stroke:#cccccc;stroke-linecap:round;"/>
     </g>
     <g id="line2d_83"/>
    </g>
    <g id="ytick_18">
     <g id="line2d_84">
      <path clip-path="url(#pb3b03923b3)" d="M 993.301127 332.70172 
L 1431.411431 332.70172 
" style="fill:none;stroke:#cccccc;stroke-linecap:round;"/>
     </g>
     <g id="line2d_85"/>
    </g>
    <g id="ytick_19">
     <g id="line2d_86">
      <path clip-path="url(#pb3b03923b3)" d="M 993.301127 284.282952 
L 1431.411431 284.282952 
" style="fill:none;stroke:#cccccc;stroke-linecap:round;"/>
     </g>
     <g id="line2d_87"/>
    </g>
    <g id="ytick_20">
     <g id="line2d_88">
      <path clip-path="url(#pb3b03923b3)" d="M 993.301127 235.864184 
L 1431.411431 235.864184 
" style="fill:none;stroke:#cccccc;stroke-linecap:round;"/>
     </g>
     <g id="line2d_89"/>
    </g>
    <g id="ytick_21">
     <g id="line2d_90">
      <path clip-path="url(#pb3b03923b3)" d="M 993.301127 187.445416 
L 1431.411431 187.445416 
" style="fill:none;stroke:#cccccc;stroke-linecap:round;"/>
     </g>
     <g id="line2d_91"/>
    </g>
    <g id="ytick_22">
     <g id="line2d_92">
      <path clip-path="url(#pb3b03923b3)" d="M 993.301127 139.026648 
L 1431.411431 139.026648 
" style="fill:none;stroke:#cccccc;stroke-linecap:round;"/>
     </g>
     <g id="line2d_93"/>
    </g>
    <g id="ytick_23">
     <g id="line2d_94">
      <path clip-path="url(#pb3b03923b3)" d="M 993.301127 90.60788 
L 1431.411431 90.60788 
" style="fill:none;stroke:#cccccc;stroke-linecap:round;"/>
     </g>
     <g id="line2d_95"/>
    </g>
    <g id="ytick_24">
     <g id="line2d_96">
      <path clip-path="url(#pb3b03923b3)" d="M 993.301127 42.189112 
L 1431.411431 42.189112 
" style="fill:none;stroke:#cccccc;stroke-linecap:round;"/>
     </g>
     <g id="line2d_97"/>
    </g>
   </g>
   <g id="PathCollection_11">
    <defs>
     <path d="M 0 5 
C 1.326016 5 2.597899 4.473168 3.535534 3.535534 
C 4.473168 2.597899 5 1.326016 5 0 
C 5 -1.326016 4.473168 -2.597899 3.535534 -3.535534 
C 2.597899 -4.473168 1.326016 -5 0 -5 
C -1.326016 -5 -2.597899 -4.473168 -3.535534 -3.535534 
C -4.473168 -2.597899 -5 -1.326016 -5 0 
C -5 1.326016 -4.473168 2.597899 -3.535534 3.535534 
C -2.597899 4.473168 -1.326016 5 0 5 
z
" id="C2_0_8831215003"/>
    </defs>
    <g clip-path="url(#pb3b03923b3)">
     <use style="fill:#4c72b0;stroke:#4c72b0;stroke-width:1.08;" x="1066.319511" xlink:href="#C2_0_8831215003" y="274.793842"/>
    </g>
    <g clip-path="url(#pb3b03923b3)">
     <use style="fill:#4c72b0;stroke:#4c72b0;stroke-width:1.08;" x="1212.356279" xlink:href="#C2_0_8831215003" y="240.65861"/>
    </g>
    <g clip-path="url(#pb3b03923b3)">
     <use style="fill:#4c72b0;stroke:#4c72b0;stroke-width:1.08;" x="1358.393047" xlink:href="#C2_0_8831215003" y="139.881723"/>
    </g>
   </g>
   <g id="line2d_98">
    <path clip-path="url(#pb3b03923b3)" d="M 1066.319511 274.793842 
L 1212.356279 240.65861 
L 1358.393047 139.881723 
" style="fill:none;stroke:#4c72b0;stroke-linecap:round;stroke-width:1.44;"/>
   </g>
   <g id="line2d_99">
    <path clip-path="url(#pb3b03923b3)" d="M 1066.319511 275.779769 
L 1066.319511 273.894899 
" style="fill:none;stroke:#4c72b0;stroke-linecap:round;stroke-width:1.44;"/>
   </g>
   <g id="line2d_100">
    <path clip-path="url(#pb3b03923b3)" d="M 1212.356279 242.028183 
L 1212.356279 239.236987 
" style="fill:none;stroke:#4c72b0;stroke-linecap:round;stroke-width:1.44;"/>
   </g>
   <g id="line2d_101">
    <path clip-path="url(#pb3b03923b3)" d="M 1358.393047 142.132276 
L 1358.393047 137.59338 
" style="fill:none;stroke:#4c72b0;stroke-linecap:round;stroke-width:1.44;"/>
   </g>
   <g id="PathCollection_12">
    <path clip-path="url(#pb3b03923b3)" d="M 1061.319511 232.561333 
L 1071.319511 232.561333 
L 1071.319511 222.561333 
L 1061.319511 222.561333 
z
" style="fill:#55a868;stroke:#55a868;stroke-width:1.08;"/>
    <path clip-path="url(#pb3b03923b3)" d="M 1207.356279 232.90898 
L 1217.356279 232.90898 
L 1217.356279 222.90898 
L 1207.356279 222.90898 
z
" style="fill:#55a868;stroke:#55a868;stroke-width:1.08;"/>
    <path clip-path="url(#pb3b03923b3)" d="M 1353.393047 235.280531 
L 1363.393047 235.280531 
L 1363.393047 225.280531 
L 1353.393047 225.280531 
z
" style="fill:#55a868;stroke:#55a868;stroke-width:1.08;"/>
   </g>
   <g id="line2d_102">
    <path clip-path="url(#pb3b03923b3)" d="M 1066.319511 227.561333 
L 1212.356279 227.90898 
L 1358.393047 230.280531 
" style="fill:none;stroke:#55a868;stroke-linecap:round;stroke-width:1.44;"/>
   </g>
   <g id="line2d_103">
    <path clip-path="url(#pb3b03923b3)" d="M 1066.319511 229.101244 
L 1066.319511 225.920397 
" style="fill:none;stroke:#55a868;stroke-linecap:round;stroke-width:1.44;"/>
   </g>
   <g id="line2d_104">
    <path clip-path="url(#pb3b03923b3)" d="M 1212.356279 230.33769 
L 1212.356279 225.398273 
" style="fill:none;stroke:#55a868;stroke-linecap:round;stroke-width:1.44;"/>
   </g>
   <g id="line2d_105">
    <path clip-path="url(#pb3b03923b3)" d="M 1358.393047 234.704022 
L 1358.393047 225.740715 
" style="fill:none;stroke:#55a868;stroke-linecap:round;stroke-width:1.44;"/>
   </g>
   <g id="patch_9">
    <path d="M 993.301127 390.86 
L 993.301127 29.7 
" style="fill:none;stroke:#cccccc;stroke-linecap:square;stroke-linejoin:miter;"/>
   </g>
   <g id="patch_10">
    <path d="M 993.301127 390.86 
L 1431.411431 390.86 
" style="fill:none;stroke:#cccccc;stroke-linecap:square;stroke-linejoin:miter;"/>
   </g>
   <g id="PathCollection_13">
    <path clip-path="url(#pb3b03923b3)" d="M 1066.319511 274.067282 
L 1061.319511 284.067282 
L 1071.319511 284.067282 
z
" style="fill:#c44e52;stroke:#c44e52;stroke-width:1.08;"/>
    <path clip-path="url(#pb3b03923b3)" d="M 1212.356279 240.000805 
L 1207.356279 250.000805 
L 1217.356279 250.000805 
z
" style="fill:#c44e52;stroke:#c44e52;stroke-width:1.08;"/>
    <path clip-path="url(#pb3b03923b3)" d="M 1358.393047 159.49492 
L 1353.393047 169.49492 
L 1363.393047 169.49492 
z
" style="fill:#c44e52;stroke:#c44e52;stroke-width:1.08;"/>
   </g>
   <g id="line2d_106">
    <path clip-path="url(#pb3b03923b3)" d="M 1066.319511 279.067282 
L 1212.356279 245.000805 
L 1358.393047 164.49492 
" style="fill:none;stroke:#c44e52;stroke-linecap:round;stroke-width:1.44;"/>
   </g>
   <g id="line2d_107">
    <path clip-path="url(#pb3b03923b3)" d="M 1066.319511 280.625059 
L 1066.319511 277.4913 
" style="fill:none;stroke:#c44e52;stroke-linecap:round;stroke-width:1.44;"/>
   </g>
   <g id="line2d_108">
    <path clip-path="url(#pb3b03923b3)" d="M 1212.356279 246.911797 
L 1212.356279 242.99697 
" style="fill:none;stroke:#c44e52;stroke-linecap:round;stroke-width:1.44;"/>
   </g>
   <g id="line2d_109">
    <path clip-path="url(#pb3b03923b3)" d="M 1358.393047 167.066828 
L 1358.393047 161.799011 
" style="fill:none;stroke:#c44e52;stroke-linecap:round;stroke-width:1.44;"/>
   </g>
   <g id="text_24">
    <!-- Nodes = 400 -->
    <g style="fill:#262626;" transform="translate(1152.024717 23.7)scale(0.22 -0.22)">
     <use xlink:href="#Roboto-Thin-4e"/>
     <use x="70.751953" xlink:href="#Roboto-Thin-6f"/>
     <use x="125.78125" xlink:href="#Roboto-Thin-64"/>
     <use x="180.517578" xlink:href="#Roboto-Thin-65"/>
     <use x="230.908203" xlink:href="#Roboto-Thin-73"/>
     <use x="280.664062" xlink:href="#Roboto-Thin-20"/>
     <use x="304.589844" xlink:href="#Roboto-Thin-3d"/>
     <use x="360.351562" xlink:href="#Roboto-Thin-20"/>
     <use x="384.277344" xlink:href="#Roboto-Thin-34"/>
     <use x="439.013672" xlink:href="#Roboto-Thin-30"/>
     <use x="493.75" xlink:href="#Roboto-Thin-30"/>
    </g>
   </g>
   <g id="PathCollection_14">
    <path clip-path="url(#pb3b03923b3)" d="M 1066.319511 215.812313 
L 1071.319511 205.812313 
L 1061.319511 205.812313 
z
" style="fill:#8172b2;stroke:#8172b2;stroke-width:1.08;"/>
    <path clip-path="url(#pb3b03923b3)" d="M 1212.356279 165.506182 
L 1217.356279 155.506182 
L 1207.356279 155.506182 
z
" style="fill:#8172b2;stroke:#8172b2;stroke-width:1.08;"/>
    <path clip-path="url(#pb3b03923b3)" d="M 1358.393047 92.272795 
L 1363.393047 82.272795 
L 1353.393047 82.272795 
z
" style="fill:#8172b2;stroke:#8172b2;stroke-width:1.08;"/>
   </g>
   <g id="line2d_110">
    <path clip-path="url(#pb3b03923b3)" d="M 1066.319511 210.812313 
L 1212.356279 160.506182 
L 1358.393047 87.272795 
" style="fill:none;stroke:#8172b2;stroke-linecap:round;stroke-width:1.44;"/>
   </g>
   <g id="line2d_111">
    <path clip-path="url(#pb3b03923b3)" d="M 1066.319511 212.411222 
L 1066.319511 209.271628 
" style="fill:none;stroke:#8172b2;stroke-linecap:round;stroke-width:1.44;"/>
   </g>
   <g id="line2d_112">
    <path clip-path="url(#pb3b03923b3)" d="M 1212.356279 162.30092 
L 1212.356279 158.523917 
" style="fill:none;stroke:#8172b2;stroke-linecap:round;stroke-width:1.44;"/>
   </g>
   <g id="line2d_113">
    <path clip-path="url(#pb3b03923b3)" d="M 1358.393047 88.843427 
L 1358.393047 85.546134 
" style="fill:none;stroke:#8172b2;stroke-linecap:round;stroke-width:1.44;"/>
   </g>
   <g id="PathCollection_15">
    <path clip-path="url(#pb3b03923b3)" d="M 1061.319511 120.299237 
L 1071.319511 125.299237 
L 1071.319511 115.299237 
z
" style="fill:#ccb974;stroke:#ccb974;stroke-width:1.08;"/>
    <path clip-path="url(#pb3b03923b3)" d="M 1207.356279 94.884226 
L 1217.356279 99.884226 
L 1217.356279 89.884226 
z
" style="fill:#ccb974;stroke:#ccb974;stroke-width:1.08;"/>
    <path clip-path="url(#pb3b03923b3)" d="M 1353.393047 67.463709 
L 1363.393047 72.463709 
L 1363.393047 62.463709 
z
" style="fill:#ccb974;stroke:#ccb974;stroke-width:1.08;"/>
   </g>
   <g id="line2d_114">
    <path clip-path="url(#pb3b03923b3)" d="M 1066.319511 120.299237 
L 1212.356279 94.884226 
L 1358.393047 67.463709 
" style="fill:none;stroke:#ccb974;stroke-linecap:round;stroke-width:1.44;"/>
   </g>
   <g id="line2d_115">
    <path clip-path="url(#pb3b03923b3)" d="M 1066.319511 121.553477 
L 1066.319511 119.068165 
" style="fill:none;stroke:#ccb974;stroke-linecap:round;stroke-width:1.44;"/>
   </g>
   <g id="line2d_116">
    <path clip-path="url(#pb3b03923b3)" d="M 1212.356279 96.148851 
L 1212.356279 93.67562 
" style="fill:none;stroke:#ccb974;stroke-linecap:round;stroke-width:1.44;"/>
   </g>
   <g id="line2d_117">
    <path clip-path="url(#pb3b03923b3)" d="M 1358.393047 68.872719 
L 1358.393047 66.056611 
" style="fill:none;stroke:#ccb974;stroke-linecap:round;stroke-width:1.44;"/>
   </g>
  </g>
  <g id="axes_4">
   <g id="patch_11">
    <path d="M 1457.276691 390.86 
L 1895.386995 390.86 
L 1895.386995 29.7 
L 1457.276691 29.7 
z
" style="fill:#ffffff;"/>
   </g>
   <g id="matplotlib.axis_7">
    <g id="xtick_10">
     <g id="line2d_118"/>
     <g id="text_25">
      <!-- 5,25 -->
      <g style="fill:#262626;" transform="translate(1512.00445 412.86)scale(0.2 -0.2)">
       <use xlink:href="#Roboto-Thin-35"/>
       <use x="54.736328" xlink:href="#Roboto-Thin-2c"/>
       <use x="73.4375" xlink:href="#Roboto-Thin-32"/>
       <use x="128.173828" xlink:href="#Roboto-Thin-35"/>
      </g>
     </g>
    </g>
    <g id="xtick_11">
     <g id="line2d_119"/>
     <g id="text_26">
      <!-- 25,35 -->
      <g style="fill:#262626;" transform="translate(1652.56778 412.86)scale(0.2 -0.2)">
       <use xlink:href="#Roboto-Thin-32"/>
       <use x="54.736328" xlink:href="#Roboto-Thin-35"/>
       <use x="109.472656" xlink:href="#Roboto-Thin-2c"/>
       <use x="128.173828" xlink:href="#Roboto-Thin-33"/>
       <use x="182.910156" xlink:href="#Roboto-Thin-35"/>
      </g>
     </g>
    </g>
    <g id="xtick_12">
     <g id="line2d_120"/>
     <g id="text_27">
      <!-- 60, 120 -->
      <g style="fill:#262626;" transform="translate(1790.738923 412.86)scale(0.2 -0.2)">
       <use xlink:href="#Roboto-Thin-36"/>
       <use x="54.736328" xlink:href="#Roboto-Thin-30"/>
       <use x="109.472656" xlink:href="#Roboto-Thin-2c"/>
       <use x="128.173828" xlink:href="#Roboto-Thin-20"/>
       <use x="152.099609" xlink:href="#Roboto-Thin-31"/>
       <use x="206.835938" xlink:href="#Roboto-Thin-32"/>
       <use x="261.572266" xlink:href="#Roboto-Thin-30"/>
      </g>
     </g>
    </g>
    <g id="text_28">
     <!-- Message creation interval (s) -->
     <g style="fill:#262626;" transform="translate(1540.309968 438.3575)scale(0.22 -0.22)">
      <use xlink:href="#Roboto-Thin-4d"/>
      <use x="85.742188" xlink:href="#Roboto-Thin-65"/>
      <use x="136.132812" xlink:href="#Roboto-Thin-73"/>
      <use x="185.888672" xlink:href="#Roboto-Thin-73"/>
      <use x="235.644531" xlink:href="#Roboto-Thin-61"/>
      <use x="288.427734" xlink:href="#Roboto-Thin-67"/>
      <use x="343.261719" xlink:href="#Roboto-Thin-65"/>
      <use x="393.652344" xlink:href="#Roboto-Thin-20"/>
      <use x="417.578125" xlink:href="#Roboto-Thin-63"/>
      <use x="468.310547" xlink:href="#Roboto-Thin-72"/>
      <use x="501.757812" xlink:href="#Roboto-Thin-65"/>
      <use x="552.148438" xlink:href="#Roboto-Thin-61"/>
      <use x="604.931641" xlink:href="#Roboto-Thin-74"/>
      <use x="636.572266" xlink:href="#Roboto-Thin-69"/>
      <use x="657.177734" xlink:href="#Roboto-Thin-6f"/>
      <use x="712.207031" xlink:href="#Roboto-Thin-6e"/>
      <use x="766.943359" xlink:href="#Roboto-Thin-20"/>
      <use x="790.869141" xlink:href="#Roboto-Thin-69"/>
      <use x="811.474609" xlink:href="#Roboto-Thin-6e"/>
      <use x="866.210938" xlink:href="#Roboto-Thin-74"/>
      <use x="897.851562" xlink:href="#Roboto-Thin-65"/>
      <use x="948.242188" xlink:href="#Roboto-Thin-72"/>
      <use x="981.689453" xlink:href="#Roboto-Thin-76"/>
      <use x="1029.443359" xlink:href="#Roboto-Thin-61"/>
      <use x="1082.226562" xlink:href="#Roboto-Thin-6c"/>
      <use x="1102.832031" xlink:href="#Roboto-Thin-20"/>
      <use x="1126.757812" xlink:href="#Roboto-Thin-28"/>
      <use x="1156.396484" xlink:href="#Roboto-Thin-73"/>
      <use x="1206.152344" xlink:href="#Roboto-Thin-29"/>
     </g>
    </g>
   </g>
   <g id="matplotlib.axis_8">
    <g id="ytick_25">
     <g id="line2d_121">
      <path clip-path="url(#p7490276e53)" d="M 1457.276691 381.120488 
L 1895.386995 381.120488 
" style="fill:none;stroke:#cccccc;stroke-linecap:round;"/>
     </g>
     <g id="line2d_122"/>
    </g>
    <g id="ytick_26">
     <g id="line2d_123">
      <path clip-path="url(#p7490276e53)" d="M 1457.276691 332.70172 
L 1895.386995 332.70172 
" style="fill:none;stroke:#cccccc;stroke-linecap:round;"/>
     </g>
     <g id="line2d_124"/>
    </g>
    <g id="ytick_27">
     <g id="line2d_125">
      <path clip-path="url(#p7490276e53)" d="M 1457.276691 284.282952 
L 1895.386995 284.282952 
" style="fill:none;stroke:#cccccc;stroke-linecap:round;"/>
     </g>
     <g id="line2d_126"/>
    </g>
    <g id="ytick_28">
     <g id="line2d_127">
      <path clip-path="url(#p7490276e53)" d="M 1457.276691 235.864184 
L 1895.386995 235.864184 
" style="fill:none;stroke:#cccccc;stroke-linecap:round;"/>
     </g>
     <g id="line2d_128"/>
    </g>
    <g id="ytick_29">
     <g id="line2d_129">
      <path clip-path="url(#p7490276e53)" d="M 1457.276691 187.445416 
L 1895.386995 187.445416 
" style="fill:none;stroke:#cccccc;stroke-linecap:round;"/>
     </g>
     <g id="line2d_130"/>
    </g>
    <g id="ytick_30">
     <g id="line2d_131">
      <path clip-path="url(#p7490276e53)" d="M 1457.276691 139.026648 
L 1895.386995 139.026648 
" style="fill:none;stroke:#cccccc;stroke-linecap:round;"/>
     </g>
     <g id="line2d_132"/>
    </g>
    <g id="ytick_31">
     <g id="line2d_133">
      <path clip-path="url(#p7490276e53)" d="M 1457.276691 90.60788 
L 1895.386995 90.60788 
" style="fill:none;stroke:#cccccc;stroke-linecap:round;"/>
     </g>
     <g id="line2d_134"/>
    </g>
    <g id="ytick_32">
     <g id="line2d_135">
      <path clip-path="url(#p7490276e53)" d="M 1457.276691 42.189112 
L 1895.386995 42.189112 
" style="fill:none;stroke:#cccccc;stroke-linecap:round;"/>
     </g>
     <g id="line2d_136"/>
    </g>
   </g>
   <g id="PathCollection_16">
    <defs>
     <path d="M 0 5 
C 1.326016 5 2.597899 4.473168 3.535534 3.535534 
C 4.473168 2.597899 5 1.326016 5 0 
C 5 -1.326016 4.473168 -2.597899 3.535534 -3.535534 
C 2.597899 -4.473168 1.326016 -5 0 -5 
C -1.326016 -5 -2.597899 -4.473168 -3.535534 -3.535534 
C -4.473168 -2.597899 -5 -1.326016 -5 0 
C -5 1.326016 -4.473168 2.597899 -3.535534 3.535534 
C -2.597899 4.473168 -1.326016 5 0 5 
z
" id="C3_0_de773f66c0"/>
    </defs>
    <g clip-path="url(#p7490276e53)">
     <use style="fill:#4c72b0;stroke:#4c72b0;stroke-width:1.08;" x="1530.295075" xlink:href="#C3_0_de773f66c0" y="252.787512"/>
    </g>
    <g clip-path="url(#p7490276e53)">
     <use style="fill:#4c72b0;stroke:#4c72b0;stroke-width:1.08;" x="1676.331843" xlink:href="#C3_0_de773f66c0" y="210.216762"/>
    </g>
    <g clip-path="url(#p7490276e53)">
     <use style="fill:#4c72b0;stroke:#4c72b0;stroke-width:1.08;" x="1822.368611" xlink:href="#C3_0_de773f66c0" y="80.802111"/>
    </g>
   </g>
   <g id="line2d_137">
    <path clip-path="url(#p7490276e53)" d="M 1530.295075 252.787512 
L 1676.331843 210.216762 
L 1822.368611 80.802111 
" style="fill:none;stroke:#4c72b0;stroke-linecap:round;stroke-width:1.44;"/>
   </g>
   <g id="line2d_138">
    <path clip-path="url(#p7490276e53)" d="M 1530.295075 253.999361 
L 1530.295075 251.5324 
" style="fill:none;stroke:#4c72b0;stroke-linecap:round;stroke-width:1.44;"/>
   </g>
   <g id="line2d_139">
    <path clip-path="url(#p7490276e53)" d="M 1676.331843 211.439143 
L 1676.331843 208.991719 
" style="fill:none;stroke:#4c72b0;stroke-linecap:round;stroke-width:1.44;"/>
   </g>
   <g id="line2d_140">
    <path clip-path="url(#p7490276e53)" d="M 1822.368611 82.385356 
L 1822.368611 79.341777 
" style="fill:none;stroke:#4c72b0;stroke-linecap:round;stroke-width:1.44;"/>
   </g>
   <g id="PathCollection_17">
    <path clip-path="url(#p7490276e53)" d="M 1525.295075 229.148779 
L 1535.295075 229.148779 
L 1535.295075 219.148779 
L 1525.295075 219.148779 
z
" style="fill:#55a868;stroke:#55a868;stroke-width:1.08;"/>
    <path clip-path="url(#p7490276e53)" d="M 1671.331843 230.128775 
L 1681.331843 230.128775 
L 1681.331843 220.128775 
L 1671.331843 220.128775 
z
" style="fill:#55a868;stroke:#55a868;stroke-width:1.08;"/>
    <path clip-path="url(#p7490276e53)" d="M 1817.368611 230.896696 
L 1827.368611 230.896696 
L 1827.368611 220.896696 
L 1817.368611 220.896696 
z
" style="fill:#55a868;stroke:#55a868;stroke-width:1.08;"/>
   </g>
   <g id="line2d_141">
    <path clip-path="url(#p7490276e53)" d="M 1530.295075 224.148779 
L 1676.331843 225.128775 
L 1822.368611 225.896696 
" style="fill:none;stroke:#55a868;stroke-linecap:round;stroke-width:1.44;"/>
   </g>
   <g id="line2d_142">
    <path clip-path="url(#p7490276e53)" d="M 1530.295075 225.528738 
L 1530.295075 222.752793 
" style="fill:none;stroke:#55a868;stroke-linecap:round;stroke-width:1.44;"/>
   </g>
   <g id="line2d_143">
    <path clip-path="url(#p7490276e53)" d="M 1676.331843 227.218165 
L 1676.331843 222.909573 
" style="fill:none;stroke:#55a868;stroke-linecap:round;stroke-width:1.44;"/>
   </g>
   <g id="line2d_144">
    <path clip-path="url(#p7490276e53)" d="M 1822.368611 229.418847 
L 1822.368611 222.332058 
" style="fill:none;stroke:#55a868;stroke-linecap:round;stroke-width:1.44;"/>
   </g>
   <g id="patch_12">
    <path d="M 1457.276691 390.86 
L 1457.276691 29.7 
" style="fill:none;stroke:#cccccc;stroke-linecap:square;stroke-linejoin:miter;"/>
   </g>
   <g id="patch_13">
    <path d="M 1457.276691 390.86 
L 1895.386995 390.86 
" style="fill:none;stroke:#cccccc;stroke-linecap:square;stroke-linejoin:miter;"/>
   </g>
   <g id="PathCollection_18">
    <path clip-path="url(#p7490276e53)" d="M 1530.295075 241.430127 
L 1525.295075 251.430127 
L 1535.295075 251.430127 
z
" style="fill:#c44e52;stroke:#c44e52;stroke-width:1.08;"/>
    <path clip-path="url(#p7490276e53)" d="M 1676.331843 199.020128 
L 1671.331843 209.020128 
L 1681.331843 209.020128 
z
" style="fill:#c44e52;stroke:#c44e52;stroke-width:1.08;"/>
    <path clip-path="url(#p7490276e53)" d="M 1822.368611 113.07972 
L 1817.368611 123.07972 
L 1827.368611 123.07972 
z
" style="fill:#c44e52;stroke:#c44e52;stroke-width:1.08;"/>
   </g>
   <g id="line2d_145">
    <path clip-path="url(#p7490276e53)" d="M 1530.295075 246.430127 
L 1676.331843 204.020128 
L 1822.368611 118.07972 
" style="fill:none;stroke:#c44e52;stroke-linecap:round;stroke-width:1.44;"/>
   </g>
   <g id="line2d_146">
    <path clip-path="url(#p7490276e53)" d="M 1530.295075 247.98558 
L 1530.295075 244.680491 
" style="fill:none;stroke:#c44e52;stroke-linecap:round;stroke-width:1.44;"/>
   </g>
   <g id="line2d_147">
    <path clip-path="url(#p7490276e53)" d="M 1676.331843 205.477969 
L 1676.331843 202.705704 
" style="fill:none;stroke:#c44e52;stroke-linecap:round;stroke-width:1.44;"/>
   </g>
   <g id="line2d_148">
    <path clip-path="url(#p7490276e53)" d="M 1822.368611 119.903171 
L 1822.368611 116.094527 
" style="fill:none;stroke:#c44e52;stroke-linecap:round;stroke-width:1.44;"/>
   </g>
   <g id="text_29">
    <!-- Nodes = 600 -->
    <g style="fill:#262626;" transform="translate(1616.00028 23.7)scale(0.22 -0.22)">
     <use xlink:href="#Roboto-Thin-4e"/>
     <use x="70.751953" xlink:href="#Roboto-Thin-6f"/>
     <use x="125.78125" xlink:href="#Roboto-Thin-64"/>
     <use x="180.517578" xlink:href="#Roboto-Thin-65"/>
     <use x="230.908203" xlink:href="#Roboto-Thin-73"/>
     <use x="280.664062" xlink:href="#Roboto-Thin-20"/>
     <use x="304.589844" xlink:href="#Roboto-Thin-3d"/>
     <use x="360.351562" xlink:href="#Roboto-Thin-20"/>
     <use x="384.277344" xlink:href="#Roboto-Thin-36"/>
     <use x="439.013672" xlink:href="#Roboto-Thin-30"/>
     <use x="493.75" xlink:href="#Roboto-Thin-30"/>
    </g>
   </g>
   <g id="PathCollection_19">
    <path clip-path="url(#p7490276e53)" d="M 1530.295075 168.929389 
L 1535.295075 158.929389 
L 1525.295075 158.929389 
z
" style="fill:#8172b2;stroke:#8172b2;stroke-width:1.08;"/>
    <path clip-path="url(#p7490276e53)" d="M 1676.331843 120.311135 
L 1681.331843 110.311135 
L 1671.331843 110.311135 
z
" style="fill:#8172b2;stroke:#8172b2;stroke-width:1.08;"/>
    <path clip-path="url(#p7490276e53)" d="M 1822.368611 63.434577 
L 1827.368611 53.434577 
L 1817.368611 53.434577 
z
" style="fill:#8172b2;stroke:#8172b2;stroke-width:1.08;"/>
   </g>
   <g id="line2d_149">
    <path clip-path="url(#p7490276e53)" d="M 1530.295075 163.929389 
L 1676.331843 115.311135 
L 1822.368611 58.434577 
" style="fill:none;stroke:#8172b2;stroke-linecap:round;stroke-width:1.44;"/>
   </g>
   <g id="line2d_150">
    <path clip-path="url(#p7490276e53)" d="M 1530.295075 165.28998 
L 1530.295075 162.589544 
" style="fill:none;stroke:#8172b2;stroke-linecap:round;stroke-width:1.44;"/>
   </g>
   <g id="line2d_151">
    <path clip-path="url(#p7490276e53)" d="M 1676.331843 116.852862 
L 1676.331843 113.925027 
" style="fill:none;stroke:#8172b2;stroke-linecap:round;stroke-width:1.44;"/>
   </g>
   <g id="line2d_152">
    <path clip-path="url(#p7490276e53)" d="M 1822.368611 59.811655 
L 1822.368611 57.01782 
" style="fill:none;stroke:#8172b2;stroke-linecap:round;stroke-width:1.44;"/>
   </g>
   <g id="PathCollection_20">
    <path clip-path="url(#p7490276e53)" d="M 1525.295075 76.109364 
L 1535.295075 81.109364 
L 1535.295075 71.109364 
z
" style="fill:#ccb974;stroke:#ccb974;stroke-width:1.08;"/>
    <path clip-path="url(#p7490276e53)" d="M 1671.331843 64.453998 
L 1681.331843 69.453998 
L 1681.331843 59.453998 
z
" style="fill:#ccb974;stroke:#ccb974;stroke-width:1.08;"/>
    <path clip-path="url(#p7490276e53)" d="M 1817.368611 47.741776 
L 1827.368611 52.741776 
L 1827.368611 42.741776 
z
" style="fill:#ccb974;stroke:#ccb974;stroke-width:1.08;"/>
   </g>
   <g id="line2d_153">
    <path clip-path="url(#p7490276e53)" d="M 1530.295075 76.109364 
L 1676.331843 64.453998 
L 1822.368611 47.741776 
" style="fill:none;stroke:#ccb974;stroke-linecap:round;stroke-width:1.44;"/>
   </g>
   <g id="line2d_154">
    <path clip-path="url(#p7490276e53)" d="M 1530.295075 77.077037 
L 1530.295075 75.291619 
" style="fill:none;stroke:#ccb974;stroke-linecap:round;stroke-width:1.44;"/>
   </g>
   <g id="line2d_155">
    <path clip-path="url(#p7490276e53)" d="M 1676.331843 65.475053 
L 1676.331843 63.474825 
" style="fill:none;stroke:#ccb974;stroke-linecap:round;stroke-width:1.44;"/>
   </g>
   <g id="line2d_156">
    <path clip-path="url(#p7490276e53)" d="M 1822.368611 49.076198 
L 1822.368611 46.40537 
" style="fill:none;stroke:#ccb974;stroke-linecap:round;stroke-width:1.44;"/>
   </g>
  </g>
  <g id="legend_1">
   <g id="text_30">
    <!-- Algorithm -->
    <defs>
     <path d="M 47.21875 21.234375 
L 12.40625 21.234375 
L 4.5 0 
L 1.609375 0 
L 28.21875 71.09375 
L 31.453125 71.09375 
L 58.0625 0 
L 55.171875 0 
z
M 13.375 23.875 
L 46.234375 23.875 
L 29.828125 67.921875 
z
" id="Roboto-Thin-41"/>
     <path d="M 11.03125 40.53125 
Q 13.625 46.6875 18.65625 50.25 
Q 23.6875 53.8125 29.78125 53.8125 
Q 38.28125 53.8125 42.40625 49 
Q 46.53125 44.1875 46.578125 34.46875 
L 46.578125 0 
L 43.953125 0 
L 43.953125 34.578125 
Q 43.890625 43.0625 40.46875 47.140625 
Q 37.0625 51.21875 29.640625 51.21875 
Q 22.796875 51.21875 17.796875 46.359375 
Q 12.796875 41.5 11.03125 33.84375 
L 11.03125 0 
L 8.40625 0 
L 8.40625 75 
L 11.03125 75 
z
" id="Roboto-Thin-68"/>
     <path d="M 46.1875 0 
L 43.5625 0 
L 43.5625 35.5 
Q 43.5 43.453125 40.0625 47.328125 
Q 36.625 51.21875 29.109375 51.21875 
Q 20.40625 51.21875 14.890625 43.5625 
Q 11.625 38.96875 10.546875 33.40625 
L 10.546875 0 
L 7.859375 0 
L 7.859375 52.828125 
L 10.546875 52.828125 
L 10.546875 40.328125 
Q 13.234375 46.78125 18.203125 50.296875 
Q 23.1875 53.8125 29.25 53.8125 
Q 35.890625 53.8125 40.109375 50.875 
Q 44.34375 47.953125 45.65625 41.3125 
Q 48 47.015625 53.265625 50.40625 
Q 58.546875 53.8125 65.09375 53.8125 
Q 73.640625 53.8125 77.8125 48.96875 
Q 81.984375 44.140625 82.03125 34.46875 
L 82.03125 0 
L 79.390625 0 
L 79.390625 34.28125 
Q 79.390625 42.96875 75.890625 47.140625 
Q 72.40625 51.3125 64.9375 51.21875 
Q 55.328125 51.078125 49.703125 43.5625 
Q 46.484375 39.203125 46.1875 35.15625 
z
" id="Roboto-Thin-6d"/>
    </defs>
    <g style="fill:#262626;" transform="translate(1961.659135 157.565461)scale(0.187 -0.187)">
     <use xlink:href="#Roboto-Thin-41"/>
     <use x="59.716797" xlink:href="#Roboto-Thin-6c"/>
     <use x="80.322266" xlink:href="#Roboto-Thin-67"/>
     <use x="135.15625" xlink:href="#Roboto-Thin-6f"/>
     <use x="190.185547" xlink:href="#Roboto-Thin-72"/>
     <use x="223.632812" xlink:href="#Roboto-Thin-69"/>
     <use x="244.238281" xlink:href="#Roboto-Thin-74"/>
     <use x="275.878906" xlink:href="#Roboto-Thin-68"/>
     <use x="330.615234" xlink:href="#Roboto-Thin-6d"/>
    </g>
   </g>
   <g id="PathCollection_21">
    <path d="M 1931.69137 186.712294 
C 1933.127263 186.712294 1934.50454 186.141807 1935.51987 185.126477 
C 1936.5352 184.111147 1937.105687 182.73387 1937.105687 181.297977 
C 1937.105687 179.862083 1936.5352 178.484806 1935.51987 177.469476 
C 1934.50454 176.454146 1933.127263 175.883659 1931.69137 175.883659 
C 1930.255476 175.883659 1928.878199 176.454146 1927.862869 177.469476 
C 1926.847539 178.484806 1926.277053 179.862083 1926.277053 181.297977 
C 1926.277053 182.73387 1926.847539 184.111147 1927.862869 185.126477 
C 1928.878199 186.141807 1930.255476 186.712294 1931.69137 186.712294 
z
" style="fill:#4c72b0;stroke:#4c72b0;stroke-width:1.08;"/>
   </g>
   <g id="text_31">
    <!-- Epidemic -->
    <defs>
     <path d="M 48.046875 35.25 
L 12.40625 35.25 
L 12.40625 2.640625 
L 53.03125 2.640625 
L 53.03125 0 
L 9.765625 0 
L 9.765625 71.09375 
L 53.03125 71.09375 
L 53.03125 68.453125 
L 12.40625 68.453125 
L 12.40625 37.890625 
L 48.046875 37.890625 
z
" id="Roboto-Thin-45"/>
     <path d="M 48.78125 25.921875 
Q 48.78125 13.578125 43.453125 6.296875 
Q 38.140625 -0.984375 28.953125 -0.984375 
Q 22.953125 -0.984375 18.265625 1.453125 
Q 13.578125 3.90625 10.9375 8.203125 
L 10.9375 -20.3125 
L 8.296875 -20.3125 
L 8.296875 52.828125 
L 10.9375 52.828125 
L 10.9375 43.40625 
Q 13.671875 48.4375 18.3125 51.125 
Q 22.953125 53.8125 28.859375 53.8125 
Q 38.140625 53.8125 43.453125 46.703125 
Q 48.78125 39.59375 48.78125 26.765625 
z
M 46.09375 26.953125 
Q 46.09375 38.328125 41.578125 44.75 
Q 37.0625 51.171875 28.90625 51.171875 
Q 22.265625 51.171875 17.625 47.71875 
Q 12.984375 44.28125 10.9375 37.84375 
L 10.9375 13.140625 
Q 12.984375 7.671875 17.640625 4.65625 
Q 22.3125 1.65625 29 1.65625 
Q 37.109375 1.65625 41.59375 8.09375 
Q 46.09375 14.546875 46.09375 26.953125 
z
" id="Roboto-Thin-70"/>
    </defs>
    <g style="fill:#262626;" transform="translate(1967.69137 186.547977)scale(0.2 -0.2)">
     <use xlink:href="#Roboto-Thin-45"/>
     <use x="56.933594" xlink:href="#Roboto-Thin-70"/>
     <use x="111.669922" xlink:href="#Roboto-Thin-69"/>
     <use x="132.275391" xlink:href="#Roboto-Thin-64"/>
     <use x="187.011719" xlink:href="#Roboto-Thin-65"/>
     <use x="237.402344" xlink:href="#Roboto-Thin-6d"/>
     <use x="327.050781" xlink:href="#Roboto-Thin-69"/>
     <use x="347.65625" xlink:href="#Roboto-Thin-63"/>
    </g>
   </g>
   <g id="PathCollection_22">
    <path d="M 1926.277053 215.774794 
L 1937.105687 215.774794 
L 1937.105687 204.946159 
L 1926.277053 204.946159 
z
" style="fill:#55a868;stroke:#55a868;stroke-width:1.08;"/>
   </g>
   <g id="text_32">
    <!-- SprayAndWait -->
    <defs>
     <path d="M 52.34375 17.046875 
Q 52.34375 21.578125 50.21875 24.71875 
Q 48.09375 27.875 43.53125 30.296875 
Q 38.96875 32.71875 29.734375 35.25 
Q 20.515625 37.796875 15.890625 40.375 
Q 11.28125 42.96875 9.125 46.390625 
Q 6.984375 49.8125 6.984375 54.6875 
Q 6.984375 62.453125 13.515625 67.265625 
Q 20.0625 72.078125 30.5625 72.078125 
Q 37.40625 72.078125 42.84375 69.40625 
Q 48.296875 66.75 51.265625 61.9375 
Q 54.25 57.125 54.25 51.078125 
L 51.609375 51.078125 
Q 51.609375 59.03125 45.75 64.234375 
Q 39.890625 69.4375 30.5625 69.4375 
Q 21.1875 69.4375 15.40625 65.25 
Q 9.625 61.078125 9.625 54.78125 
Q 9.625 48.390625 14.640625 44.484375 
Q 19.671875 40.578125 31.25 37.578125 
Q 42.828125 34.578125 48.1875 30.609375 
Q 55.03125 25.59375 55.03125 17.140625 
Q 55.03125 11.765625 52 7.640625 
Q 48.96875 3.515625 43.40625 1.265625 
Q 37.84375 -0.984375 30.90625 -0.984375 
Q 23.1875 -0.984375 17.03125 1.578125 
Q 10.890625 4.15625 7.78125 8.890625 
Q 4.6875 13.625 4.6875 20.0625 
L 7.328125 20.0625 
Q 7.328125 11.328125 13.859375 6.484375 
Q 20.40625 1.65625 30.90625 1.65625 
Q 40.234375 1.65625 46.28125 5.921875 
Q 52.34375 10.203125 52.34375 17.046875 
z
" id="Roboto-Thin-53"/>
     <path d="M 24.5625 4.109375 
L 24.90625 5.078125 
L 43.171875 52.828125 
L 46.09375 52.828125 
L 22.46875 -9.1875 
L 21.296875 -12.109375 
Q 17.484375 -21.34375 8.6875 -21.34375 
Q 5.859375 -21.34375 4.78125 -20.796875 
L 4.734375 -18.3125 
Q 6.296875 -18.75 8.296875 -18.75 
Q 12.453125 -18.75 15.1875 -16.328125 
Q 17.921875 -13.921875 19.921875 -8.453125 
L 23.140625 0.296875 
L 2.09375 52.828125 
L 4.984375 52.828125 
z
" id="Roboto-Thin-79"/>
     <path d="M 23.875 4.390625 
L 27.09375 16.109375 
L 43.890625 71.09375 
L 46.828125 71.09375 
L 63.53125 16.109375 
L 66.703125 4.390625 
L 70.015625 16.109375 
L 84.671875 71.09375 
L 87.546875 71.09375 
L 68.40625 0 
L 65.4375 0 
L 47.796875 59.28125 
L 45.3125 66.796875 
L 42.921875 59.28125 
L 25.140625 0 
L 22.171875 0 
L 2.984375 71.09375 
L 5.90625 71.09375 
L 20.65625 16.109375 
z
" id="Roboto-Thin-57"/>
    </defs>
    <g style="fill:#262626;" transform="translate(1967.69137 215.610477)scale(0.2 -0.2)">
     <use xlink:href="#Roboto-Thin-53"/>
     <use x="59.130859" xlink:href="#Roboto-Thin-70"/>
     <use x="113.867188" xlink:href="#Roboto-Thin-72"/>
     <use x="147.314453" xlink:href="#Roboto-Thin-61"/>
     <use x="200.097656" xlink:href="#Roboto-Thin-79"/>
     <use x="247.851562" xlink:href="#Roboto-Thin-41"/>
     <use x="307.568359" xlink:href="#Roboto-Thin-6e"/>
     <use x="362.304688" xlink:href="#Roboto-Thin-64"/>
     <use x="417.041016" xlink:href="#Roboto-Thin-57"/>
     <use x="507.617188" xlink:href="#Roboto-Thin-61"/>
     <use x="560.400391" xlink:href="#Roboto-Thin-69"/>
     <use x="581.005859" xlink:href="#Roboto-Thin-74"/>
    </g>
   </g>
   <g id="PathCollection_23">
    <path d="M 1931.69137 234.214909 
L 1926.277053 245.043544 
L 1937.105687 245.043544 
z
" style="fill:#c44e52;stroke:#c44e52;stroke-width:1.08;"/>
   </g>
   <g id="text_33">
    <!-- Prophet -->
    <g style="fill:#262626;" transform="translate(1967.69137 244.879227)scale(0.2 -0.2)">
     <use xlink:href="#Roboto-Thin-50"/>
     <use x="60.058594" xlink:href="#Roboto-Thin-72"/>
     <use x="93.505859" xlink:href="#Roboto-Thin-6f"/>
     <use x="148.535156" xlink:href="#Roboto-Thin-70"/>
     <use x="203.271484" xlink:href="#Roboto-Thin-68"/>
     <use x="258.007812" xlink:href="#Roboto-Thin-65"/>
     <use x="308.398438" xlink:href="#Roboto-Thin-74"/>
    </g>
   </g>
   <g id="PathCollection_24">
    <path d="M 1931.69137 274.106044 
L 1937.105687 263.277409 
L 1926.277053 263.277409 
z
" style="fill:#8172b2;stroke:#8172b2;stroke-width:1.08;"/>
   </g>
   <g id="text_34">
    <!-- Seer -->
    <g style="fill:#262626;" transform="translate(1967.69137 273.941727)scale(0.2 -0.2)">
     <use xlink:href="#Roboto-Thin-53"/>
     <use x="59.130859" xlink:href="#Roboto-Thin-65"/>
     <use x="109.521484" xlink:href="#Roboto-Thin-65"/>
     <use x="159.912109" xlink:href="#Roboto-Thin-72"/>
    </g>
   </g>
   <g id="PathCollection_25">
    <path d="M 1926.277053 297.754227 
L 1937.105687 303.168544 
L 1937.105687 292.339909 
z
" style="fill:#ccb974;stroke:#ccb974;stroke-width:1.08;"/>
   </g>
   <g id="text_35">
    <!-- BFGMP -->
    <defs>
     <path d="M 9.765625 0 
L 9.765625 71.09375 
L 28.46875 71.09375 
Q 39.9375 71.09375 45.8125 66.421875 
Q 51.703125 61.765625 51.703125 52.875 
Q 51.703125 46.4375 48.4375 42.1875 
Q 45.171875 37.9375 39.203125 36.765625 
Q 45.953125 35.890625 50.4375 30.9375 
Q 54.9375 25.984375 54.9375 19.578125 
Q 54.9375 10.5 49.046875 5.25 
Q 43.171875 0 32.671875 0 
z
M 12.40625 35.109375 
L 12.40625 2.640625 
L 32.953125 2.640625 
Q 42 2.640625 47.140625 7.109375 
Q 52.296875 11.578125 52.296875 19.484375 
Q 52.296875 26.21875 47.3125 30.59375 
Q 42.328125 34.96875 33.984375 35.109375 
z
M 12.40625 37.75 
L 29.4375 37.75 
Q 39.15625 37.75 44.09375 41.484375 
Q 49.03125 45.21875 49.03125 53.078125 
Q 49.03125 68.21875 29.046875 68.453125 
L 12.40625 68.453125 
z
" id="Roboto-Thin-42"/>
     <path d="M 48.828125 34.96875 
L 12.40625 34.96875 
L 12.40625 0 
L 9.765625 0 
L 9.765625 71.09375 
L 53.8125 71.09375 
L 53.8125 68.453125 
L 12.40625 68.453125 
L 12.40625 37.703125 
L 48.828125 37.703125 
z
" id="Roboto-Thin-46"/>
     <path d="M 59.859375 7.625 
Q 57.171875 3.90625 50.4375 1.453125 
Q 43.703125 -0.984375 35.59375 -0.984375 
Q 27.6875 -0.984375 21.484375 2.875 
Q 15.28125 6.734375 11.78125 13.765625 
Q 8.296875 20.796875 8.203125 29.6875 
L 8.203125 41.890625 
Q 8.203125 50.640625 11.5625 57.5625 
Q 14.9375 64.5 21.046875 68.28125 
Q 27.15625 72.078125 34.765625 72.078125 
Q 45.359375 72.078125 52.015625 66.65625 
Q 58.6875 61.234375 59.765625 51.859375 
L 57.125 51.859375 
Q 55.8125 60.359375 50.046875 64.890625 
Q 44.28125 69.4375 34.765625 69.4375 
Q 24.03125 69.4375 17.4375 61.765625 
Q 10.84375 54.109375 10.84375 41.609375 
L 10.84375 30.28125 
Q 10.84375 21.921875 13.9375 15.375 
Q 17.046875 8.84375 22.6875 5.25 
Q 28.328125 1.65625 35.59375 1.65625 
Q 42.71875 1.65625 48.828125 3.75 
Q 54.9375 5.859375 57.234375 8.84375 
L 57.234375 29.546875 
L 35.5 29.546875 
L 35.5 32.234375 
L 59.859375 32.234375 
z
" id="Roboto-Thin-47"/>
    </defs>
    <g style="fill:#262626;" transform="translate(1967.69137 303.004227)scale(0.2 -0.2)">
     <use xlink:href="#Roboto-Thin-42"/>
     <use x="60.302734" xlink:href="#Roboto-Thin-46"/>
     <use x="117.529297" xlink:href="#Roboto-Thin-47"/>
     <use x="186.181641" xlink:href="#Roboto-Thin-4d"/>
     <use x="271.923828" xlink:href="#Roboto-Thin-50"/>
    </g>
   </g>
  </g>
 </g>
 <defs>
  <clipPath id="pce5222b5cd">
   <rect height="361.16" width="438.110304" x="65.35" y="29.7"/>
  </clipPath>
  <clipPath id="pce34765deb">
   <rect height="361.16" width="438.110304" x="529.325564" y="29.7"/>
  </clipPath>
  <clipPath id="pb3b03923b3">
   <rect height="361.16" width="438.110304" x="993.301127" y="29.7"/>
  </clipPath>
  <clipPath id="p7490276e53">
   <rect height="361.16" width="438.110304" x="1457.276691" y="29.7"/>
  </clipPath>
 </defs>
</svg>
