<?xml version="1.0" encoding="utf-8" standalone="no"?>
<!DOCTYPE svg PUBLIC "-//W3C//DTD SVG 1.1//EN"
  "http://www.w3.org/Graphics/SVG/1.1/DTD/svg11.dtd">
<!-- Created with matplotlib (http://matplotlib.org/) -->
<svg height="450pt" version="1.1" viewBox="0 0 2107 450" width="2107pt" xmlns="http://www.w3.org/2000/svg" xmlns:xlink="http://www.w3.org/1999/xlink">
 <defs>
  <style type="text/css">
*{stroke-linecap:butt;stroke-linejoin:round;}
  </style>
 </defs>
 <g id="figure_1">
  <g id="patch_1">
   <path d="M 0 450.607187 
L 2107.45439 450.607187 
L 2107.45439 0 
L 0 0 
z
" style="fill:#ffffff;"/>
  </g>
  <g id="axes_1">
   <g id="patch_2">
    <path d="M 72.009375 390.86 
L 508.270887 390.86 
L 508.270887 29.7 
L 72.009375 29.7 
z
" style="fill:#ffffff;"/>
   </g>
   <g id="matplotlib.axis_1">
    <g id="xtick_1">
     <g id="line2d_1"/>
     <g id="text_1">
      <!-- 5,25 -->
      <defs>
       <path d="M 11.28125 37.203125 
L 14.59375 71.09375 
L 49.265625 71.09375 
L 49.265625 68.5 
L 17 68.5 
L 14.109375 39.984375 
Q 16.65625 42.09375 20.828125 43.40625 
Q 25 44.734375 29 44.734375 
Q 38.578125 44.734375 44.28125 38.671875 
Q 50 32.625 50 22.65625 
Q 50 11.078125 44.828125 5.046875 
Q 39.65625 -0.984375 29.984375 -0.984375 
Q 20.84375 -0.984375 15.234375 4.234375 
Q 9.625 9.46875 8.890625 18.703125 
L 11.578125 18.703125 
Q 12.359375 10.359375 17.046875 6 
Q 21.734375 1.65625 29.984375 1.65625 
Q 38.765625 1.65625 43.03125 6.953125 
Q 47.3125 12.25 47.3125 22.5625 
Q 47.3125 31.453125 42.359375 36.765625 
Q 37.40625 42.09375 29.046875 42.09375 
Q 23.921875 42.09375 20.109375 40.71875 
Q 16.3125 39.359375 13.28125 36.421875 
z
" id="Roboto-Thin-35"/>
       <path d="M 6.296875 -12.453125 
L 4.5 -10.890625 
Q 8.453125 -5.8125 8.796875 -0.390625 
L 8.84375 7.765625 
L 11.46875 7.765625 
L 11.46875 0.640625 
Q 11.28125 -7.125 6.296875 -12.453125 
z
" id="Roboto-Thin-2c"/>
       <path d="M 50 0 
L 7.46875 0 
L 7.46875 2.640625 
L 31.734375 30.609375 
Q 37.703125 37.59375 40.59375 43.015625 
Q 43.5 48.4375 43.5 52.984375 
Q 43.5 60.796875 38.953125 65.109375 
Q 34.421875 69.4375 26.171875 69.4375 
Q 21.1875 69.4375 17.078125 67.046875 
Q 12.984375 64.65625 10.65625 60.421875 
Q 8.34375 56.203125 8.34375 51.03125 
L 5.71875 51.03125 
Q 5.71875 56.734375 8.34375 61.609375 
Q 10.984375 66.5 15.671875 69.28125 
Q 20.359375 72.078125 26.171875 72.078125 
Q 35.640625 72.078125 40.90625 67.046875 
Q 46.1875 62.015625 46.1875 52.984375 
Q 46.1875 44.671875 36.859375 33.109375 
L 32.421875 27.6875 
L 10.9375 2.640625 
L 50 2.640625 
z
" id="Roboto-Thin-32"/>
      </defs>
      <g style="fill:#262626;" transform="translate(108.251439 412.86)scale(0.2 -0.2)">
       <use xlink:href="#Roboto-Thin-35"/>
       <use x="54.736328" xlink:href="#Roboto-Thin-2c"/>
       <use x="73.4375" xlink:href="#Roboto-Thin-32"/>
       <use x="128.173828" xlink:href="#Roboto-Thin-35"/>
      </g>
     </g>
    </g>
    <g id="xtick_2">
     <g id="line2d_2"/>
     <g id="text_2">
      <!-- 25,35 -->
      <defs>
       <path d="M 20.359375 37.59375 
L 26.3125 37.59375 
Q 34.671875 37.75 39.8125 42.046875 
Q 44.96875 46.34375 44.96875 52.984375 
Q 44.96875 60.546875 40.359375 64.984375 
Q 35.75 69.4375 27.546875 69.4375 
Q 19.53125 69.4375 14.359375 64.75 
Q 9.1875 60.0625 9.1875 52.4375 
L 6.546875 52.4375 
Q 6.546875 58.109375 9.28125 62.59375 
Q 12.015625 67.09375 16.84375 69.578125 
Q 21.6875 72.078125 27.546875 72.078125 
Q 36.765625 72.078125 42.1875 66.875 
Q 47.609375 61.671875 47.609375 52.78125 
Q 47.609375 47.125 44.015625 42.671875 
Q 40.4375 38.234375 34.328125 36.375 
Q 41.3125 34.765625 45.234375 30.3125 
Q 49.171875 25.875 49.171875 18.84375 
Q 49.171875 9.765625 43.359375 4.390625 
Q 37.546875 -0.984375 27.984375 -0.984375 
Q 21.53125 -0.984375 16.0625 1.796875 
Q 10.59375 4.59375 7.8125 9.171875 
Q 5.03125 13.765625 5.03125 19.78125 
L 7.671875 19.78125 
Q 7.671875 11.96875 13.421875 6.8125 
Q 19.1875 1.65625 27.984375 1.65625 
Q 36.71875 1.65625 41.625 6.171875 
Q 46.53125 10.6875 46.53125 18.65625 
Q 46.53125 26.515625 41.28125 30.65625 
Q 36.03125 34.8125 25.921875 34.859375 
L 20.359375 34.859375 
z
" id="Roboto-Thin-33"/>
      </defs>
      <g style="fill:#262626;" transform="translate(211.843379 412.86)scale(0.2 -0.2)">
       <use xlink:href="#Roboto-Thin-32"/>
       <use x="54.736328" xlink:href="#Roboto-Thin-35"/>
       <use x="109.472656" xlink:href="#Roboto-Thin-2c"/>
       <use x="128.173828" xlink:href="#Roboto-Thin-33"/>
       <use x="182.910156" xlink:href="#Roboto-Thin-35"/>
      </g>
     </g>
    </g>
    <g id="xtick_3">
     <g id="line2d_3"/>
     <g id="text_3">
      <!-- 35,60 -->
      <defs>
       <path d="M 41.015625 72.078125 
L 41.015625 69.4375 
Q 26.078125 69.4375 17.828125 60.59375 
Q 9.578125 51.765625 8.9375 35.796875 
Q 11.765625 40.828125 17.140625 43.78125 
Q 22.515625 46.734375 28.90625 46.734375 
Q 38.28125 46.734375 43.875 40.328125 
Q 49.46875 33.9375 49.46875 23.4375 
Q 49.46875 16.65625 46.921875 11.03125 
Q 44.390625 5.421875 39.75 2.21875 
Q 35.109375 -0.984375 29.390625 -0.984375 
Q 22.859375 -0.984375 17.578125 2.046875 
Q 12.3125 5.078125 9.328125 10.6875 
Q 6.34375 16.3125 6.25 23.484375 
L 6.25 32.234375 
Q 6.25 51.171875 15.1875 61.625 
Q 24.125 72.078125 41.015625 72.078125 
z
M 28.5625 44.09375 
Q 21.734375 44.09375 16.046875 40.15625 
Q 10.359375 36.234375 8.890625 30.328125 
L 8.890625 24.078125 
Q 8.890625 14.015625 14.59375 7.8125 
Q 20.3125 1.609375 29.390625 1.609375 
Q 36.96875 1.609375 41.890625 7.9375 
Q 46.828125 14.265625 46.828125 23.4375 
Q 46.828125 32.90625 41.9375 38.5 
Q 37.0625 44.09375 28.5625 44.09375 
z
" id="Roboto-Thin-36"/>
       <path d="M 48.640625 29 
Q 48.640625 14.703125 43.0625 6.859375 
Q 37.5 -0.984375 27.4375 -0.984375 
Q 17.4375 -0.984375 11.765625 6.921875 
Q 6.109375 14.84375 6.109375 29.203125 
L 6.109375 42.09375 
Q 6.109375 56.25 11.6875 64.1875 
Q 17.28125 72.125 27.34375 72.125 
Q 37.453125 72.125 43.046875 64.1875 
Q 48.640625 56.25 48.640625 41.890625 
z
M 46 42.09375 
Q 46 55.03125 41.140625 62.25 
Q 36.28125 69.484375 27.34375 69.484375 
Q 18.359375 69.484375 13.546875 62.234375 
Q 8.734375 54.984375 8.734375 41.84375 
L 8.734375 29.109375 
Q 8.734375 16.21875 13.671875 8.9375 
Q 18.609375 1.65625 27.4375 1.65625 
Q 36.328125 1.65625 41.15625 8.9375 
Q 46 16.21875 46 29.34375 
z
" id="Roboto-Thin-30"/>
      </defs>
      <g style="fill:#262626;" transform="translate(320.908757 412.86)scale(0.2 -0.2)">
       <use xlink:href="#Roboto-Thin-33"/>
       <use x="54.736328" xlink:href="#Roboto-Thin-35"/>
       <use x="109.472656" xlink:href="#Roboto-Thin-2c"/>
       <use x="128.173828" xlink:href="#Roboto-Thin-36"/>
       <use x="182.910156" xlink:href="#Roboto-Thin-30"/>
      </g>
     </g>
    </g>
    <g id="xtick_4">
     <g id="line2d_4"/>
     <g id="text_4">
      <!-- 60, 120 -->
      <defs>
       <path id="Roboto-Thin-20"/>
       <path d="M 32.171875 0 
L 29.546875 0 
L 29.546875 67.78125 
L 9.125 60.109375 
L 9.125 62.984375 
L 31.640625 71.296875 
L 32.171875 71.296875 
z
" id="Roboto-Thin-31"/>
      </defs>
      <g style="fill:#262626;" transform="translate(422.10851 412.86)scale(0.2 -0.2)">
       <use xlink:href="#Roboto-Thin-36"/>
       <use x="54.736328" xlink:href="#Roboto-Thin-30"/>
       <use x="109.472656" xlink:href="#Roboto-Thin-2c"/>
       <use x="128.173828" xlink:href="#Roboto-Thin-20"/>
       <use x="152.099609" xlink:href="#Roboto-Thin-31"/>
       <use x="206.835938" xlink:href="#Roboto-Thin-32"/>
       <use x="261.572266" xlink:href="#Roboto-Thin-30"/>
      </g>
     </g>
    </g>
    <g id="text_5">
     <!-- Message creation interval (s) -->
     <defs>
      <path d="M 13.53125 71.09375 
L 42.78125 3.859375 
L 72.125 71.09375 
L 75.984375 71.09375 
L 75.984375 0 
L 73.34375 0 
L 73.34375 67.1875 
L 43.84375 0 
L 41.75 0 
L 12.40625 66.84375 
L 12.40625 0 
L 9.765625 0 
L 9.765625 71.09375 
z
" id="Roboto-Thin-4d"/>
      <path d="M 27.390625 -0.984375 
Q 21 -0.984375 15.640625 2.453125 
Q 10.296875 5.90625 7.265625 11.90625 
Q 4.25 17.921875 4.25 25.25 
L 4.25 27.4375 
Q 4.25 34.765625 7.171875 40.859375 
Q 10.109375 46.96875 15.234375 50.390625 
Q 20.359375 53.8125 26.421875 53.8125 
Q 35.25 53.8125 40.859375 47.515625 
Q 46.484375 41.21875 46.484375 30.953125 
L 46.484375 28.171875 
L 6.890625 28.171875 
L 6.890625 25.296875 
Q 6.890625 18.84375 9.59375 13.34375 
Q 12.3125 7.859375 17.0625 4.734375 
Q 21.828125 1.609375 27.390625 1.609375 
Q 32.71875 1.609375 36.453125 3.390625 
Q 40.1875 5.171875 43.0625 8.890625 
L 44.921875 7.5625 
Q 39.015625 -0.984375 27.390625 -0.984375 
z
M 26.421875 51.171875 
Q 18.703125 51.171875 13.328125 45.4375 
Q 7.953125 39.703125 7.03125 30.8125 
L 43.84375 30.8125 
L 43.84375 31.453125 
Q 43.84375 36.8125 41.578125 41.421875 
Q 39.3125 46.046875 35.328125 48.609375 
Q 31.34375 51.171875 26.421875 51.171875 
z
" id="Roboto-Thin-65"/>
      <path d="M 40.96875 12.9375 
Q 40.96875 22.5625 24.5625 26.03125 
Q 14.703125 28.125 10.84375 31.421875 
Q 6.984375 34.71875 6.984375 40.484375 
Q 6.984375 46.296875 11.890625 50.046875 
Q 16.796875 53.8125 24.65625 53.8125 
Q 33.203125 53.8125 38.375 49.734375 
Q 43.5625 45.65625 43.5625 38.71875 
L 40.875 38.71875 
Q 40.875 44.046875 36.375 47.609375 
Q 31.890625 51.171875 24.65625 51.171875 
Q 17.71875 51.171875 13.671875 48.140625 
Q 9.625 45.125 9.625 40.578125 
Q 9.625 37.015625 11.125 34.984375 
Q 12.640625 32.953125 16.0625 31.3125 
Q 19.484375 29.6875 26.015625 28.171875 
Q 32.5625 26.65625 36.375 24.609375 
Q 40.1875 22.5625 41.890625 19.75 
Q 43.609375 16.9375 43.609375 12.890625 
Q 43.609375 6.640625 38.46875 2.828125 
Q 33.34375 -0.984375 25.046875 -0.984375 
Q 16.15625 -0.984375 10.71875 3.046875 
Q 5.28125 7.078125 5.28125 13.421875 
L 7.90625 13.421875 
Q 8.296875 7.859375 12.8125 4.75 
Q 17.328125 1.65625 25.046875 1.65625 
Q 32.125 1.65625 36.546875 4.953125 
Q 40.96875 8.25 40.96875 12.9375 
z
" id="Roboto-Thin-73"/>
      <path d="M 42.53125 0 
Q 41.546875 3.375 41.546875 9.671875 
Q 38.421875 4.59375 33 1.796875 
Q 27.59375 -0.984375 20.75 -0.984375 
Q 13.421875 -0.984375 8.953125 3 
Q 4.5 6.984375 4.5 13.375 
Q 4.5 20.65625 11.0625 25.015625 
Q 17.625 29.390625 28.515625 29.5 
L 41.546875 29.5 
L 41.546875 37.203125 
Q 41.546875 43.84375 37.375 47.5 
Q 33.203125 51.171875 25.4375 51.171875 
Q 18.21875 51.171875 13.375 47.453125 
Q 8.546875 43.75 8.546875 38.28125 
L 5.90625 38.375 
Q 5.90625 44.828125 11.5625 49.3125 
Q 17.234375 53.8125 25.4375 53.8125 
Q 33.984375 53.8125 39.015625 49.53125 
Q 44.046875 45.265625 44.1875 37.5 
L 44.1875 12.25 
Q 44.1875 3.5625 45.5625 0.4375 
L 45.5625 0 
z
M 20.75 1.609375 
Q 28.171875 1.609375 33.515625 4.921875 
Q 38.875 8.25 41.546875 14.265625 
L 41.546875 26.8125 
L 29.34375 26.8125 
Q 18.015625 26.8125 12.015625 22.3125 
Q 7.125 18.65625 7.125 13.1875 
Q 7.125 8.34375 10.984375 4.96875 
Q 14.84375 1.609375 20.75 1.609375 
z
" id="Roboto-Thin-61"/>
      <path d="M 5.90625 26.953125 
Q 5.90625 39.59375 11.21875 46.703125 
Q 16.546875 53.8125 25.828125 53.8125 
Q 31.734375 53.8125 36.328125 51.09375 
Q 40.921875 48.390625 43.703125 43.171875 
L 43.703125 52.828125 
L 46.390625 52.828125 
L 46.390625 0.921875 
Q 46.390625 -9.515625 41.015625 -15.40625 
Q 35.640625 -21.296875 26.421875 -21.296875 
Q 21.09375 -21.296875 16.671875 -19 
Q 12.25 -16.703125 9.125 -12.40625 
L 10.984375 -10.640625 
Q 14.0625 -14.546875 17.71875 -16.625 
Q 21.390625 -18.703125 26.3125 -18.703125 
Q 34.46875 -18.703125 39.015625 -13.75 
Q 43.5625 -8.796875 43.703125 0.25 
L 43.703125 8.34375 
Q 40.96875 3.859375 36.296875 1.4375 
Q 31.640625 -0.984375 25.734375 -0.984375 
Q 16.546875 -0.984375 11.21875 6.296875 
Q 5.90625 13.578125 5.90625 26.265625 
z
M 8.59375 25.921875 
Q 8.59375 14.59375 13.078125 8.125 
Q 17.578125 1.65625 25.6875 1.65625 
Q 32.375 1.65625 37.0625 4.75 
Q 41.75 7.859375 43.703125 13.484375 
L 43.703125 37.453125 
Q 39.40625 51.171875 25.78125 51.171875 
Q 17.625 51.171875 13.109375 44.765625 
Q 8.59375 38.375 8.59375 25.921875 
z
" id="Roboto-Thin-67"/>
      <path d="M 26.3125 1.65625 
Q 33.5 1.65625 38.15625 5.46875 
Q 42.828125 9.28125 43.265625 16.015625 
L 45.90625 16.015625 
Q 45.515625 8.34375 39.984375 3.671875 
Q 34.46875 -0.984375 26.3125 -0.984375 
Q 16.40625 -0.984375 10.5625 6.1875 
Q 4.734375 13.375 4.734375 25.6875 
L 4.734375 27.4375 
Q 4.734375 39.453125 10.5625 46.625 
Q 16.40625 53.8125 26.21875 53.8125 
Q 34.625 53.8125 40.09375 48.78125 
Q 45.5625 43.75 45.90625 35.40625 
L 43.265625 35.40625 
Q 42.921875 42.53125 38.25 46.84375 
Q 33.59375 51.171875 26.21875 51.171875 
Q 17.390625 51.171875 12.375 44.796875 
Q 7.375 38.421875 7.375 27.09375 
L 7.375 25.390625 
Q 7.375 14.3125 12.421875 7.984375 
Q 17.484375 1.65625 26.3125 1.65625 
z
" id="Roboto-Thin-63"/>
      <path d="M 31.6875 50.921875 
L 28.265625 51.21875 
Q 21.53125 51.21875 16.984375 46.84375 
Q 12.453125 42.484375 11.03125 34.625 
L 11.03125 0 
L 8.40625 0 
L 8.40625 52.828125 
L 11.03125 52.828125 
L 11.03125 41.84375 
Q 13.1875 47.359375 17.484375 50.578125 
Q 21.78125 53.8125 28.265625 53.8125 
Q 30.5625 53.8125 31.984375 53.265625 
z
" id="Roboto-Thin-72"/>
      <path d="M 14.3125 67.09375 
L 14.3125 52.828125 
L 26.3125 52.828125 
L 26.3125 50.140625 
L 14.3125 50.140625 
L 14.3125 12.640625 
Q 14.3125 7.03125 16.140625 4.34375 
Q 17.96875 1.65625 22.265625 1.65625 
Q 24.421875 1.65625 27.484375 2.09375 
L 27.9375 -0.390625 
Q 26.3125 -0.984375 22.40625 -0.984375 
Q 16.65625 -0.984375 14.15625 2.21875 
Q 11.671875 5.421875 11.625 12.3125 
L 11.625 50.140625 
L 1.859375 50.140625 
L 1.859375 52.828125 
L 11.625 52.828125 
L 11.625 67.09375 
z
" id="Roboto-Thin-74"/>
      <path d="M 11.671875 0 
L 9.03125 0 
L 9.03125 52.828125 
L 11.671875 52.828125 
z
M 7.671875 69.34375 
Q 7.671875 70.453125 8.453125 71.265625 
Q 9.234375 72.078125 10.34375 72.078125 
Q 11.46875 72.078125 12.28125 71.265625 
Q 13.09375 70.453125 13.09375 69.328125 
Q 13.09375 68.21875 12.28125 67.4375 
Q 11.46875 66.65625 10.34375 66.65625 
Q 9.234375 66.65625 8.453125 67.4375 
Q 7.671875 68.21875 7.671875 69.34375 
z
" id="Roboto-Thin-69"/>
      <path d="M 4.390625 27.4375 
Q 4.390625 35.015625 7.296875 41.046875 
Q 10.203125 47.078125 15.5 50.4375 
Q 20.796875 53.8125 27.484375 53.8125 
Q 34.125 53.8125 39.390625 50.53125 
Q 44.671875 47.265625 47.625 41.25 
Q 50.59375 35.25 50.640625 27.734375 
L 50.640625 25.390625 
Q 50.640625 17.78125 47.75 11.765625 
Q 44.875 5.765625 39.578125 2.390625 
Q 34.28125 -0.984375 27.59375 -0.984375 
Q 20.90625 -0.984375 15.59375 2.34375 
Q 10.296875 5.671875 7.359375 11.640625 
Q 4.4375 17.625 4.390625 25.09375 
z
M 7.03125 25.390625 
Q 7.03125 18.796875 9.640625 13.296875 
Q 12.25 7.8125 16.90625 4.734375 
Q 21.578125 1.65625 27.59375 1.65625 
Q 36.625 1.65625 42.3125 8.4375 
Q 48 15.234375 48 25.921875 
L 48 27.4375 
Q 48 33.9375 45.359375 39.453125 
Q 42.71875 44.96875 38.0625 48.0625 
Q 33.40625 51.171875 27.484375 51.171875 
Q 18.453125 51.171875 12.734375 44.28125 
Q 7.03125 37.40625 7.03125 26.953125 
z
" id="Roboto-Thin-6f"/>
      <path d="M 11.03125 40.53125 
Q 13.625 46.6875 18.65625 50.25 
Q 23.6875 53.8125 29.78125 53.8125 
Q 38.28125 53.8125 42.40625 49 
Q 46.53125 44.1875 46.578125 34.46875 
L 46.578125 0 
L 43.953125 0 
L 43.953125 34.578125 
Q 43.890625 43.0625 40.46875 47.140625 
Q 37.0625 51.21875 29.640625 51.21875 
Q 22.796875 51.21875 17.796875 46.359375 
Q 12.796875 41.5 11.03125 33.84375 
L 11.03125 0 
L 8.40625 0 
L 8.40625 52.828125 
L 11.03125 52.828125 
z
" id="Roboto-Thin-6e"/>
      <path d="M 23.921875 4.203125 
L 42.921875 52.828125 
L 45.75 52.828125 
L 25.203125 0 
L 22.609375 0 
L 2.09375 52.828125 
L 4.9375 52.828125 
z
" id="Roboto-Thin-76"/>
      <path d="M 11.671875 0 
L 9.03125 0 
L 9.03125 75 
L 11.671875 75 
z
" id="Roboto-Thin-6c"/>
      <path d="M 7.234375 28.609375 
Q 7.234375 39.15625 9.8125 49.359375 
Q 12.40625 59.578125 17.15625 67.671875 
Q 21.921875 75.78125 27.4375 79.25 
L 28.375 77.15625 
Q 23.578125 73.96875 19.328125 66.546875 
Q 15.09375 59.125 12.546875 49.359375 
Q 10.015625 39.59375 9.859375 30.078125 
L 9.859375 27.546875 
Q 9.859375 17.875 12.296875 7.9375 
Q 14.75 -2 19.09375 -9.78125 
Q 23.4375 -17.578125 28.375 -20.84375 
L 27.4375 -22.953125 
Q 21.78125 -19.390625 17.109375 -11.640625 
Q 12.453125 -3.90625 9.84375 6.375 
Q 7.234375 16.65625 7.234375 28.609375 
z
" id="Roboto-Thin-28"/>
      <path d="M 22.515625 27.640625 
Q 22.515625 16.65625 19.890625 6.375 
Q 17.28125 -3.90625 12.609375 -11.640625 
Q 7.953125 -19.390625 2.296875 -22.953125 
L 1.375 -20.84375 
Q 6.453125 -17.4375 10.796875 -9.515625 
Q 15.140625 -1.609375 17.5 8.15625 
Q 19.875 17.921875 19.875 28.8125 
Q 19.875 38.671875 17.375 48.609375 
Q 14.890625 58.546875 10.5625 66.234375 
Q 6.25 73.921875 1.375 77.15625 
L 2.296875 79.25 
Q 7.8125 75.78125 12.5625 67.671875 
Q 17.328125 59.578125 19.921875 49.359375 
Q 22.515625 39.15625 22.515625 27.640625 
z
" id="Roboto-Thin-29"/>
     </defs>
     <g style="fill:#262626;" transform="translate(154.118256 438.3575)scale(0.22 -0.22)">
      <use xlink:href="#Roboto-Thin-4d"/>
      <use x="85.742188" xlink:href="#Roboto-Thin-65"/>
      <use x="136.132812" xlink:href="#Roboto-Thin-73"/>
      <use x="185.888672" xlink:href="#Roboto-Thin-73"/>
      <use x="235.644531" xlink:href="#Roboto-Thin-61"/>
      <use x="288.427734" xlink:href="#Roboto-Thin-67"/>
      <use x="343.261719" xlink:href="#Roboto-Thin-65"/>
      <use x="393.652344" xlink:href="#Roboto-Thin-20"/>
      <use x="417.578125" xlink:href="#Roboto-Thin-63"/>
      <use x="468.310547" xlink:href="#Roboto-Thin-72"/>
      <use x="501.757812" xlink:href="#Roboto-Thin-65"/>
      <use x="552.148438" xlink:href="#Roboto-Thin-61"/>
      <use x="604.931641" xlink:href="#Roboto-Thin-74"/>
      <use x="636.572266" xlink:href="#Roboto-Thin-69"/>
      <use x="657.177734" xlink:href="#Roboto-Thin-6f"/>
      <use x="712.207031" xlink:href="#Roboto-Thin-6e"/>
      <use x="766.943359" xlink:href="#Roboto-Thin-20"/>
      <use x="790.869141" xlink:href="#Roboto-Thin-69"/>
      <use x="811.474609" xlink:href="#Roboto-Thin-6e"/>
      <use x="866.210938" xlink:href="#Roboto-Thin-74"/>
      <use x="897.851562" xlink:href="#Roboto-Thin-65"/>
      <use x="948.242188" xlink:href="#Roboto-Thin-72"/>
      <use x="981.689453" xlink:href="#Roboto-Thin-76"/>
      <use x="1029.443359" xlink:href="#Roboto-Thin-61"/>
      <use x="1082.226562" xlink:href="#Roboto-Thin-6c"/>
      <use x="1102.832031" xlink:href="#Roboto-Thin-20"/>
      <use x="1126.757812" xlink:href="#Roboto-Thin-28"/>
      <use x="1156.396484" xlink:href="#Roboto-Thin-73"/>
      <use x="1206.152344" xlink:href="#Roboto-Thin-29"/>
     </g>
    </g>
   </g>
   <g id="matplotlib.axis_2">
    <g id="ytick_1">
     <g id="line2d_5">
      <path clip-path="url(#pd67f04fc86)" d="M 72.009375 380.064771 
L 508.270887 380.064771 
" style="fill:none;stroke:#cccccc;stroke-linecap:round;"/>
     </g>
     <g id="line2d_6"/>
     <g id="text_6">
      <!-- 0 -->
      <g style="fill:#262626;" transform="translate(54.0625 387.564771)scale(0.2 -0.2)">
       <use xlink:href="#Roboto-Thin-30"/>
      </g>
     </g>
    </g>
    <g id="ytick_2">
     <g id="line2d_7">
      <path clip-path="url(#pd67f04fc86)" d="M 72.009375 323.388312 
L 508.270887 323.388312 
" style="fill:none;stroke:#cccccc;stroke-linecap:round;"/>
     </g>
     <g id="line2d_8"/>
     <g id="text_7">
      <!-- 100 -->
      <g style="fill:#262626;" transform="translate(32.16875 330.888312)scale(0.2 -0.2)">
       <use xlink:href="#Roboto-Thin-31"/>
       <use x="54.736328" xlink:href="#Roboto-Thin-30"/>
       <use x="109.472656" xlink:href="#Roboto-Thin-30"/>
      </g>
     </g>
    </g>
    <g id="ytick_3">
     <g id="line2d_9">
      <path clip-path="url(#pd67f04fc86)" d="M 72.009375 266.711853 
L 508.270887 266.711853 
" style="fill:none;stroke:#cccccc;stroke-linecap:round;"/>
     </g>
     <g id="line2d_10"/>
     <g id="text_8">
      <!-- 200 -->
      <g style="fill:#262626;" transform="translate(32.16875 274.211853)scale(0.2 -0.2)">
       <use xlink:href="#Roboto-Thin-32"/>
       <use x="54.736328" xlink:href="#Roboto-Thin-30"/>
       <use x="109.472656" xlink:href="#Roboto-Thin-30"/>
      </g>
     </g>
    </g>
    <g id="ytick_4">
     <g id="line2d_11">
      <path clip-path="url(#pd67f04fc86)" d="M 72.009375 210.035394 
L 508.270887 210.035394 
" style="fill:none;stroke:#cccccc;stroke-linecap:round;"/>
     </g>
     <g id="line2d_12"/>
     <g id="text_9">
      <!-- 300 -->
      <g style="fill:#262626;" transform="translate(32.16875 217.535394)scale(0.2 -0.2)">
       <use xlink:href="#Roboto-Thin-33"/>
       <use x="54.736328" xlink:href="#Roboto-Thin-30"/>
       <use x="109.472656" xlink:href="#Roboto-Thin-30"/>
      </g>
     </g>
    </g>
    <g id="ytick_5">
     <g id="line2d_13">
      <path clip-path="url(#pd67f04fc86)" d="M 72.009375 153.358935 
L 508.270887 153.358935 
" style="fill:none;stroke:#cccccc;stroke-linecap:round;"/>
     </g>
     <g id="line2d_14"/>
     <g id="text_10">
      <!-- 400 -->
      <defs>
       <path d="M 41.109375 22.015625 
L 53.421875 22.015625 
L 53.421875 19.390625 
L 41.109375 19.390625 
L 41.109375 0 
L 38.484375 0 
L 38.484375 19.390625 
L 4 19.390625 
L 4 20.84375 
L 37.9375 71.09375 
L 41.109375 71.09375 
z
M 8.109375 22.015625 
L 38.484375 22.015625 
L 38.484375 67.921875 
L 34.375 61.1875 
z
" id="Roboto-Thin-34"/>
      </defs>
      <g style="fill:#262626;" transform="translate(32.16875 160.858935)scale(0.2 -0.2)">
       <use xlink:href="#Roboto-Thin-34"/>
       <use x="54.736328" xlink:href="#Roboto-Thin-30"/>
       <use x="109.472656" xlink:href="#Roboto-Thin-30"/>
      </g>
     </g>
    </g>
    <g id="ytick_6">
     <g id="line2d_15">
      <path clip-path="url(#pd67f04fc86)" d="M 72.009375 96.682475 
L 508.270887 96.682475 
" style="fill:none;stroke:#cccccc;stroke-linecap:round;"/>
     </g>
     <g id="line2d_16"/>
     <g id="text_11">
      <!-- 500 -->
      <g style="fill:#262626;" transform="translate(32.16875 104.182475)scale(0.2 -0.2)">
       <use xlink:href="#Roboto-Thin-35"/>
       <use x="54.736328" xlink:href="#Roboto-Thin-30"/>
       <use x="109.472656" xlink:href="#Roboto-Thin-30"/>
      </g>
     </g>
    </g>
    <g id="ytick_7">
     <g id="line2d_17">
      <path clip-path="url(#pd67f04fc86)" d="M 72.009375 40.006016 
L 508.270887 40.006016 
" style="fill:none;stroke:#cccccc;stroke-linecap:round;"/>
     </g>
     <g id="line2d_18"/>
     <g id="text_12">
      <!-- 600 -->
      <g style="fill:#262626;" transform="translate(32.16875 47.506016)scale(0.2 -0.2)">
       <use xlink:href="#Roboto-Thin-36"/>
       <use x="54.736328" xlink:href="#Roboto-Thin-30"/>
       <use x="109.472656" xlink:href="#Roboto-Thin-30"/>
      </g>
     </g>
    </g>
    <g id="text_13">
     <!-- Overhead ratio -->
     <defs>
      <path d="M 60.109375 30.21875 
Q 60.109375 21 56.8125 13.890625 
Q 53.515625 6.78125 47.40625 2.890625 
Q 41.3125 -0.984375 33.34375 -0.984375 
Q 21.34375 -0.984375 13.921875 7.5625 
Q 6.5 16.109375 6.5 30.609375 
L 6.5 40.875 
Q 6.5 50.046875 9.796875 57.171875 
Q 13.09375 64.3125 19.21875 68.1875 
Q 25.34375 72.078125 33.25 72.078125 
Q 41.21875 72.078125 47.34375 68.1875 
Q 53.46875 64.3125 56.78125 57.15625 
Q 60.109375 50 60.109375 40.875 
z
M 57.46875 40.96875 
Q 57.46875 53.859375 50.921875 61.640625 
Q 44.390625 69.4375 33.25 69.4375 
Q 22.265625 69.4375 15.71875 61.6875 
Q 9.1875 53.953125 9.1875 40.625 
L 9.1875 30.21875 
Q 9.1875 21.734375 12.140625 15.203125 
Q 15.09375 8.6875 20.5625 5.171875 
Q 26.03125 1.65625 33.34375 1.65625 
Q 44.484375 1.65625 50.96875 9.421875 
Q 57.46875 17.1875 57.46875 30.609375 
z
" id="Roboto-Thin-4f"/>
      <path d="M 11.03125 40.53125 
Q 13.625 46.6875 18.65625 50.25 
Q 23.6875 53.8125 29.78125 53.8125 
Q 38.28125 53.8125 42.40625 49 
Q 46.53125 44.1875 46.578125 34.46875 
L 46.578125 0 
L 43.953125 0 
L 43.953125 34.578125 
Q 43.890625 43.0625 40.46875 47.140625 
Q 37.0625 51.21875 29.640625 51.21875 
Q 22.796875 51.21875 17.796875 46.359375 
Q 12.796875 41.5 11.03125 33.84375 
L 11.03125 0 
L 8.40625 0 
L 8.40625 75 
L 11.03125 75 
z
" id="Roboto-Thin-68"/>
      <path d="M 5.953125 26.953125 
Q 5.953125 39.59375 11.28125 46.703125 
Q 16.609375 53.8125 25.875 53.8125 
Q 31.84375 53.8125 36.40625 51.125 
Q 40.96875 48.4375 43.796875 43.109375 
L 43.796875 75 
L 46.4375 75 
L 46.4375 0 
L 43.796875 0 
L 43.796875 8.453125 
Q 41.109375 3.953125 36.421875 1.484375 
Q 31.734375 -0.984375 25.78125 -0.984375 
Q 16.609375 -0.984375 11.28125 6.296875 
Q 5.953125 13.578125 5.953125 26.265625 
z
M 8.6875 25.921875 
Q 8.6875 14.703125 13.125 8.171875 
Q 17.578125 1.65625 25.734375 1.65625 
Q 32.28125 1.65625 36.90625 4.5625 
Q 41.546875 7.46875 43.796875 13.09375 
L 43.796875 37.84375 
Q 39.265625 51.171875 25.828125 51.171875 
Q 17.71875 51.171875 13.203125 44.765625 
Q 8.6875 38.375 8.6875 25.921875 
z
" id="Roboto-Thin-64"/>
     </defs>
     <g style="fill:#262626;" transform="translate(23.7 279.390937)rotate(-90)scale(0.22 -0.22)">
      <use xlink:href="#Roboto-Thin-4f"/>
      <use x="66.601562" xlink:href="#Roboto-Thin-76"/>
      <use x="114.355469" xlink:href="#Roboto-Thin-65"/>
      <use x="164.746094" xlink:href="#Roboto-Thin-72"/>
      <use x="198.193359" xlink:href="#Roboto-Thin-68"/>
      <use x="252.929688" xlink:href="#Roboto-Thin-65"/>
      <use x="303.320312" xlink:href="#Roboto-Thin-61"/>
      <use x="356.103516" xlink:href="#Roboto-Thin-64"/>
      <use x="410.839844" xlink:href="#Roboto-Thin-20"/>
      <use x="434.765625" xlink:href="#Roboto-Thin-72"/>
      <use x="468.212891" xlink:href="#Roboto-Thin-61"/>
      <use x="520.996094" xlink:href="#Roboto-Thin-74"/>
      <use x="552.636719" xlink:href="#Roboto-Thin-69"/>
      <use x="573.242188" xlink:href="#Roboto-Thin-6f"/>
     </g>
    </g>
   </g>
   <g id="PathCollection_1">
    <defs>
     <path d="M 0 5 
C 1.326016 5 2.597899 4.473168 3.535534 3.535534 
C 4.473168 2.597899 5 1.326016 5 0 
C 5 -1.326016 4.473168 -2.597899 3.535534 -3.535534 
C 2.597899 -4.473168 1.326016 -5 0 -5 
C -1.326016 -5 -2.597899 -4.473168 -3.535534 -3.535534 
C -4.473168 -2.597899 -5 -1.326016 -5 0 
C -5 1.326016 -4.473168 2.597899 -3.535534 3.535534 
C -2.597899 4.473168 -1.326016 5 0 5 
z
" id="C0_0_bca9a8b8e4"/>
    </defs>
    <g clip-path="url(#pd67f04fc86)">
     <use style="fill:#4c72b0;stroke:#4c72b0;stroke-width:1.08;" x="126.542064" xlink:href="#C0_0_bca9a8b8e4" y="372.563126"/>
    </g>
    <g clip-path="url(#pd67f04fc86)">
     <use style="fill:#4c72b0;stroke:#4c72b0;stroke-width:1.08;" x="235.607442" xlink:href="#C0_0_bca9a8b8e4" y="368.885003"/>
    </g>
    <g clip-path="url(#pd67f04fc86)">
     <use style="fill:#4c72b0;stroke:#4c72b0;stroke-width:1.08;" x="344.67282" xlink:href="#C0_0_bca9a8b8e4" y="365.497969"/>
    </g>
    <g clip-path="url(#pd67f04fc86)">
     <use style="fill:#4c72b0;stroke:#4c72b0;stroke-width:1.08;" x="453.738198" xlink:href="#C0_0_bca9a8b8e4" y="358.623281"/>
    </g>
   </g>
   <g id="line2d_19">
    <path clip-path="url(#pd67f04fc86)" d="M 126.542064 372.563126 
L 235.607442 368.885003 
L 344.67282 365.497969 
L 453.738198 358.623281 
" style="fill:none;stroke:#4c72b0;stroke-linecap:round;stroke-width:1.44;"/>
   </g>
   <g id="line2d_20">
    <path clip-path="url(#pd67f04fc86)" d="M 126.542064 372.678057 
L 126.542064 372.448465 
" style="fill:none;stroke:#4c72b0;stroke-linecap:round;stroke-width:1.44;"/>
   </g>
   <g id="line2d_21">
    <path clip-path="url(#pd67f04fc86)" d="M 235.607442 369.061224 
L 235.607442 368.702298 
" style="fill:none;stroke:#4c72b0;stroke-linecap:round;stroke-width:1.44;"/>
   </g>
   <g id="line2d_22">
    <path clip-path="url(#pd67f04fc86)" d="M 344.67282 365.786929 
L 344.67282 365.189674 
" style="fill:none;stroke:#4c72b0;stroke-linecap:round;stroke-width:1.44;"/>
   </g>
   <g id="line2d_23">
    <path clip-path="url(#pd67f04fc86)" d="M 453.738198 358.997871 
L 453.738198 358.273981 
" style="fill:none;stroke:#4c72b0;stroke-linecap:round;stroke-width:1.44;"/>
   </g>
   <g id="PathCollection_2">
    <path clip-path="url(#pd67f04fc86)" d="M 121.542064 379.363604 
L 131.542064 379.363604 
L 131.542064 369.363604 
L 121.542064 369.363604 
z
" style="fill:#55a868;stroke:#55a868;stroke-width:1.08;"/>
    <path clip-path="url(#pd67f04fc86)" d="M 230.607442 378.137447 
L 240.607442 378.137447 
L 240.607442 368.137447 
L 230.607442 368.137447 
z
" style="fill:#55a868;stroke:#55a868;stroke-width:1.08;"/>
    <path clip-path="url(#pd67f04fc86)" d="M 339.67282 377.773418 
L 349.67282 377.773418 
L 349.67282 367.773418 
L 339.67282 367.773418 
z
" style="fill:#55a868;stroke:#55a868;stroke-width:1.08;"/>
    <path clip-path="url(#pd67f04fc86)" d="M 448.738198 377.465437 
L 458.738198 377.465437 
L 458.738198 367.465437 
L 448.738198 367.465437 
z
" style="fill:#55a868;stroke:#55a868;stroke-width:1.08;"/>
   </g>
   <g id="line2d_24">
    <path clip-path="url(#pd67f04fc86)" d="M 126.542064 374.363604 
L 235.607442 373.137447 
L 344.67282 372.773418 
L 453.738198 372.465437 
" style="fill:none;stroke:#55a868;stroke-linecap:round;stroke-width:1.44;"/>
   </g>
   <g id="line2d_25">
    <path clip-path="url(#pd67f04fc86)" d="M 126.542064 374.425921 
L 126.542064 374.298641 
" style="fill:none;stroke:#55a868;stroke-linecap:round;stroke-width:1.44;"/>
   </g>
   <g id="line2d_26">
    <path clip-path="url(#pd67f04fc86)" d="M 235.607442 373.216297 
L 235.607442 373.052947 
" style="fill:none;stroke:#55a868;stroke-linecap:round;stroke-width:1.44;"/>
   </g>
   <g id="line2d_27">
    <path clip-path="url(#pd67f04fc86)" d="M 344.67282 372.871526 
L 344.67282 372.681861 
" style="fill:none;stroke:#55a868;stroke-linecap:round;stroke-width:1.44;"/>
   </g>
   <g id="line2d_28">
    <path clip-path="url(#pd67f04fc86)" d="M 453.738198 372.598285 
L 453.738198 372.330251 
" style="fill:none;stroke:#55a868;stroke-linecap:round;stroke-width:1.44;"/>
   </g>
   <g id="patch_3">
    <path d="M 72.009375 390.86 
L 72.009375 29.7 
" style="fill:none;stroke:#cccccc;stroke-linecap:square;stroke-linejoin:miter;"/>
   </g>
   <g id="patch_4">
    <path d="M 72.009375 390.86 
L 508.270887 390.86 
" style="fill:none;stroke:#cccccc;stroke-linecap:square;stroke-linejoin:miter;"/>
   </g>
   <g id="PathCollection_3">
    <path clip-path="url(#pd67f04fc86)" d="M 126.542064 369.030384 
L 121.542064 379.030384 
L 131.542064 379.030384 
z
" style="fill:#c44e52;stroke:#c44e52;stroke-width:1.08;"/>
    <path clip-path="url(#pd67f04fc86)" d="M 235.607442 366.701512 
L 230.607442 376.701512 
L 240.607442 376.701512 
z
" style="fill:#c44e52;stroke:#c44e52;stroke-width:1.08;"/>
    <path clip-path="url(#pd67f04fc86)" d="M 344.67282 364.651393 
L 339.67282 374.651393 
L 349.67282 374.651393 
z
" style="fill:#c44e52;stroke:#c44e52;stroke-width:1.08;"/>
    <path clip-path="url(#pd67f04fc86)" d="M 453.738198 360.727901 
L 448.738198 370.727901 
L 458.738198 370.727901 
z
" style="fill:#c44e52;stroke:#c44e52;stroke-width:1.08;"/>
   </g>
   <g id="line2d_29">
    <path clip-path="url(#pd67f04fc86)" d="M 126.542064 374.030384 
L 235.607442 371.701512 
L 344.67282 369.651393 
L 453.738198 365.727901 
" style="fill:none;stroke:#c44e52;stroke-linecap:round;stroke-width:1.44;"/>
   </g>
   <g id="line2d_30">
    <path clip-path="url(#pd67f04fc86)" d="M 126.542064 374.126716 
L 126.542064 373.933102 
" style="fill:none;stroke:#c44e52;stroke-linecap:round;stroke-width:1.44;"/>
   </g>
   <g id="line2d_31">
    <path clip-path="url(#pd67f04fc86)" d="M 235.607442 371.864132 
L 235.607442 371.523012 
" style="fill:none;stroke:#c44e52;stroke-linecap:round;stroke-width:1.44;"/>
   </g>
   <g id="line2d_32">
    <path clip-path="url(#pd67f04fc86)" d="M 344.67282 369.854086 
L 344.67282 369.428588 
" style="fill:none;stroke:#c44e52;stroke-linecap:round;stroke-width:1.44;"/>
   </g>
   <g id="line2d_33">
    <path clip-path="url(#pd67f04fc86)" d="M 453.738198 366.067882 
L 453.738198 365.394829 
" style="fill:none;stroke:#c44e52;stroke-linecap:round;stroke-width:1.44;"/>
   </g>
   <g id="text_14">
    <!-- Nodes = 100 -->
    <defs>
     <path d="M 60.984375 0 
L 58.34375 0 
L 12.453125 66.609375 
L 12.453125 0 
L 9.765625 0 
L 9.765625 71.09375 
L 12.453125 71.09375 
L 58.34375 4.640625 
L 58.34375 71.09375 
L 60.984375 71.09375 
z
" id="Roboto-Thin-4e"/>
     <path d="M 47.90625 41.15625 
L 7.171875 41.15625 
L 7.171875 43.796875 
L 47.90625 43.796875 
z
M 47.90625 21.296875 
L 7.171875 21.296875 
L 7.171875 23.921875 
L 47.90625 23.921875 
z
" id="Roboto-Thin-3d"/>
    </defs>
    <g style="fill:#262626;" transform="translate(229.808568 23.7)scale(0.22 -0.22)">
     <use xlink:href="#Roboto-Thin-4e"/>
     <use x="70.751953" xlink:href="#Roboto-Thin-6f"/>
     <use x="125.78125" xlink:href="#Roboto-Thin-64"/>
     <use x="180.517578" xlink:href="#Roboto-Thin-65"/>
     <use x="230.908203" xlink:href="#Roboto-Thin-73"/>
     <use x="280.664062" xlink:href="#Roboto-Thin-20"/>
     <use x="304.589844" xlink:href="#Roboto-Thin-3d"/>
     <use x="360.351562" xlink:href="#Roboto-Thin-20"/>
     <use x="384.277344" xlink:href="#Roboto-Thin-31"/>
     <use x="439.013672" xlink:href="#Roboto-Thin-30"/>
     <use x="493.75" xlink:href="#Roboto-Thin-30"/>
    </g>
   </g>
   <g id="PathCollection_4">
    <path clip-path="url(#pd67f04fc86)" d="M 126.542064 378.461911 
L 131.542064 368.461911 
L 121.542064 368.461911 
z
" style="fill:#8172b2;stroke:#8172b2;stroke-width:1.08;"/>
    <path clip-path="url(#pd67f04fc86)" d="M 235.607442 376.097576 
L 240.607442 366.097576 
L 230.607442 366.097576 
z
" style="fill:#8172b2;stroke:#8172b2;stroke-width:1.08;"/>
    <path clip-path="url(#pd67f04fc86)" d="M 344.67282 374.242217 
L 349.67282 364.242217 
L 339.67282 364.242217 
z
" style="fill:#8172b2;stroke:#8172b2;stroke-width:1.08;"/>
    <path clip-path="url(#pd67f04fc86)" d="M 453.738198 370.631928 
L 458.738198 360.631928 
L 448.738198 360.631928 
z
" style="fill:#8172b2;stroke:#8172b2;stroke-width:1.08;"/>
   </g>
   <g id="line2d_34">
    <path clip-path="url(#pd67f04fc86)" d="M 126.542064 373.461911 
L 235.607442 371.097576 
L 344.67282 369.242217 
L 453.738198 365.631928 
" style="fill:none;stroke:#8172b2;stroke-linecap:round;stroke-width:1.44;"/>
   </g>
   <g id="line2d_35">
    <path clip-path="url(#pd67f04fc86)" d="M 126.542064 373.551033 
L 126.542064 373.357134 
" style="fill:none;stroke:#8172b2;stroke-linecap:round;stroke-width:1.44;"/>
   </g>
   <g id="line2d_36">
    <path clip-path="url(#pd67f04fc86)" d="M 235.607442 371.249783 
L 235.607442 370.948959 
" style="fill:none;stroke:#8172b2;stroke-linecap:round;stroke-width:1.44;"/>
   </g>
   <g id="line2d_37">
    <path clip-path="url(#pd67f04fc86)" d="M 344.67282 369.426369 
L 344.67282 369.041687 
" style="fill:none;stroke:#8172b2;stroke-linecap:round;stroke-width:1.44;"/>
   </g>
   <g id="line2d_38">
    <path clip-path="url(#pd67f04fc86)" d="M 453.738198 365.877098 
L 453.738198 365.408194 
" style="fill:none;stroke:#8172b2;stroke-linecap:round;stroke-width:1.44;"/>
   </g>
   <g id="PathCollection_5">
    <path clip-path="url(#pd67f04fc86)" d="M 121.542064 374.013913 
L 131.542064 379.013913 
L 131.542064 369.013913 
z
" style="fill:#ccb974;stroke:#ccb974;stroke-width:1.08;"/>
    <path clip-path="url(#pd67f04fc86)" d="M 230.607442 371.660619 
L 240.607442 376.660619 
L 240.607442 366.660619 
z
" style="fill:#ccb974;stroke:#ccb974;stroke-width:1.08;"/>
    <path clip-path="url(#pd67f04fc86)" d="M 339.67282 369.365235 
L 349.67282 374.365235 
L 349.67282 364.365235 
z
" style="fill:#ccb974;stroke:#ccb974;stroke-width:1.08;"/>
    <path clip-path="url(#pd67f04fc86)" d="M 448.738198 364.79754 
L 458.738198 369.79754 
L 458.738198 359.79754 
z
" style="fill:#ccb974;stroke:#ccb974;stroke-width:1.08;"/>
   </g>
   <g id="line2d_39">
    <path clip-path="url(#pd67f04fc86)" d="M 126.542064 374.013913 
L 235.607442 371.660619 
L 344.67282 369.365235 
L 453.738198 364.79754 
" style="fill:none;stroke:#ccb974;stroke-linecap:round;stroke-width:1.44;"/>
   </g>
   <g id="line2d_40">
    <path clip-path="url(#pd67f04fc86)" d="M 126.542064 374.097401 
L 126.542064 373.935557 
" style="fill:none;stroke:#ccb974;stroke-linecap:round;stroke-width:1.44;"/>
   </g>
   <g id="line2d_41">
    <path clip-path="url(#pd67f04fc86)" d="M 235.607442 371.77182 
L 235.607442 371.552358 
" style="fill:none;stroke:#ccb974;stroke-linecap:round;stroke-width:1.44;"/>
   </g>
   <g id="line2d_42">
    <path clip-path="url(#pd67f04fc86)" d="M 344.67282 369.51647 
L 344.67282 369.215377 
" style="fill:none;stroke:#ccb974;stroke-linecap:round;stroke-width:1.44;"/>
   </g>
   <g id="line2d_43">
    <path clip-path="url(#pd67f04fc86)" d="M 453.738198 365.020465 
L 453.738198 364.543342 
" style="fill:none;stroke:#ccb974;stroke-linecap:round;stroke-width:1.44;"/>
   </g>
  </g>
  <g id="axes_2">
   <g id="patch_5">
    <path d="M 534.126376 390.86 
L 970.387888 390.86 
L 970.387888 29.7 
L 534.126376 29.7 
z
" style="fill:#ffffff;"/>
   </g>
   <g id="matplotlib.axis_3">
    <g id="xtick_5">
     <g id="line2d_44"/>
     <g id="text_15">
      <!-- 5,25 -->
      <g style="fill:#262626;" transform="translate(570.36844 412.86)scale(0.2 -0.2)">
       <use xlink:href="#Roboto-Thin-35"/>
       <use x="54.736328" xlink:href="#Roboto-Thin-2c"/>
       <use x="73.4375" xlink:href="#Roboto-Thin-32"/>
       <use x="128.173828" xlink:href="#Roboto-Thin-35"/>
      </g>
     </g>
    </g>
    <g id="xtick_6">
     <g id="line2d_45"/>
     <g id="text_16">
      <!-- 25,35 -->
      <g style="fill:#262626;" transform="translate(673.960381 412.86)scale(0.2 -0.2)">
       <use xlink:href="#Roboto-Thin-32"/>
       <use x="54.736328" xlink:href="#Roboto-Thin-35"/>
       <use x="109.472656" xlink:href="#Roboto-Thin-2c"/>
       <use x="128.173828" xlink:href="#Roboto-Thin-33"/>
       <use x="182.910156" xlink:href="#Roboto-Thin-35"/>
      </g>
     </g>
    </g>
    <g id="xtick_7">
     <g id="line2d_46"/>
     <g id="text_17">
      <!-- 35,60 -->
      <g style="fill:#262626;" transform="translate(783.025759 412.86)scale(0.2 -0.2)">
       <use xlink:href="#Roboto-Thin-33"/>
       <use x="54.736328" xlink:href="#Roboto-Thin-35"/>
       <use x="109.472656" xlink:href="#Roboto-Thin-2c"/>
       <use x="128.173828" xlink:href="#Roboto-Thin-36"/>
       <use x="182.910156" xlink:href="#Roboto-Thin-30"/>
      </g>
     </g>
    </g>
    <g id="xtick_8">
     <g id="line2d_47"/>
     <g id="text_18">
      <!-- 60, 120 -->
      <g style="fill:#262626;" transform="translate(884.225511 412.86)scale(0.2 -0.2)">
       <use xlink:href="#Roboto-Thin-36"/>
       <use x="54.736328" xlink:href="#Roboto-Thin-30"/>
       <use x="109.472656" xlink:href="#Roboto-Thin-2c"/>
       <use x="128.173828" xlink:href="#Roboto-Thin-20"/>
       <use x="152.099609" xlink:href="#Roboto-Thin-31"/>
       <use x="206.835938" xlink:href="#Roboto-Thin-32"/>
       <use x="261.572266" xlink:href="#Roboto-Thin-30"/>
      </g>
     </g>
    </g>
    <g id="text_19">
     <!-- Message creation interval (s) -->
     <g style="fill:#262626;" transform="translate(616.235257 438.3575)scale(0.22 -0.22)">
      <use xlink:href="#Roboto-Thin-4d"/>
      <use x="85.742188" xlink:href="#Roboto-Thin-65"/>
      <use x="136.132812" xlink:href="#Roboto-Thin-73"/>
      <use x="185.888672" xlink:href="#Roboto-Thin-73"/>
      <use x="235.644531" xlink:href="#Roboto-Thin-61"/>
      <use x="288.427734" xlink:href="#Roboto-Thin-67"/>
      <use x="343.261719" xlink:href="#Roboto-Thin-65"/>
      <use x="393.652344" xlink:href="#Roboto-Thin-20"/>
      <use x="417.578125" xlink:href="#Roboto-Thin-63"/>
      <use x="468.310547" xlink:href="#Roboto-Thin-72"/>
      <use x="501.757812" xlink:href="#Roboto-Thin-65"/>
      <use x="552.148438" xlink:href="#Roboto-Thin-61"/>
      <use x="604.931641" xlink:href="#Roboto-Thin-74"/>
      <use x="636.572266" xlink:href="#Roboto-Thin-69"/>
      <use x="657.177734" xlink:href="#Roboto-Thin-6f"/>
      <use x="712.207031" xlink:href="#Roboto-Thin-6e"/>
      <use x="766.943359" xlink:href="#Roboto-Thin-20"/>
      <use x="790.869141" xlink:href="#Roboto-Thin-69"/>
      <use x="811.474609" xlink:href="#Roboto-Thin-6e"/>
      <use x="866.210938" xlink:href="#Roboto-Thin-74"/>
      <use x="897.851562" xlink:href="#Roboto-Thin-65"/>
      <use x="948.242188" xlink:href="#Roboto-Thin-72"/>
      <use x="981.689453" xlink:href="#Roboto-Thin-76"/>
      <use x="1029.443359" xlink:href="#Roboto-Thin-61"/>
      <use x="1082.226562" xlink:href="#Roboto-Thin-6c"/>
      <use x="1102.832031" xlink:href="#Roboto-Thin-20"/>
      <use x="1126.757812" xlink:href="#Roboto-Thin-28"/>
      <use x="1156.396484" xlink:href="#Roboto-Thin-73"/>
      <use x="1206.152344" xlink:href="#Roboto-Thin-29"/>
     </g>
    </g>
   </g>
   <g id="matplotlib.axis_4">
    <g id="ytick_8">
     <g id="line2d_48">
      <path clip-path="url(#p1eb4cc070e)" d="M 534.126376 380.064771 
L 970.387888 380.064771 
" style="fill:none;stroke:#cccccc;stroke-linecap:round;"/>
     </g>
     <g id="line2d_49"/>
    </g>
    <g id="ytick_9">
     <g id="line2d_50">
      <path clip-path="url(#p1eb4cc070e)" d="M 534.126376 323.388312 
L 970.387888 323.388312 
" style="fill:none;stroke:#cccccc;stroke-linecap:round;"/>
     </g>
     <g id="line2d_51"/>
    </g>
    <g id="ytick_10">
     <g id="line2d_52">
      <path clip-path="url(#p1eb4cc070e)" d="M 534.126376 266.711853 
L 970.387888 266.711853 
" style="fill:none;stroke:#cccccc;stroke-linecap:round;"/>
     </g>
     <g id="line2d_53"/>
    </g>
    <g id="ytick_11">
     <g id="line2d_54">
      <path clip-path="url(#p1eb4cc070e)" d="M 534.126376 210.035394 
L 970.387888 210.035394 
" style="fill:none;stroke:#cccccc;stroke-linecap:round;"/>
     </g>
     <g id="line2d_55"/>
    </g>
    <g id="ytick_12">
     <g id="line2d_56">
      <path clip-path="url(#p1eb4cc070e)" d="M 534.126376 153.358935 
L 970.387888 153.358935 
" style="fill:none;stroke:#cccccc;stroke-linecap:round;"/>
     </g>
     <g id="line2d_57"/>
    </g>
    <g id="ytick_13">
     <g id="line2d_58">
      <path clip-path="url(#p1eb4cc070e)" d="M 534.126376 96.682475 
L 970.387888 96.682475 
" style="fill:none;stroke:#cccccc;stroke-linecap:round;"/>
     </g>
     <g id="line2d_59"/>
    </g>
    <g id="ytick_14">
     <g id="line2d_60">
      <path clip-path="url(#p1eb4cc070e)" d="M 534.126376 40.006016 
L 970.387888 40.006016 
" style="fill:none;stroke:#cccccc;stroke-linecap:round;"/>
     </g>
     <g id="line2d_61"/>
    </g>
   </g>
   <g id="PathCollection_6">
    <defs>
     <path d="M 0 5 
C 1.326016 5 2.597899 4.473168 3.535534 3.535534 
C 4.473168 2.597899 5 1.326016 5 0 
C 5 -1.326016 4.473168 -2.597899 3.535534 -3.535534 
C 2.597899 -4.473168 1.326016 -5 0 -5 
C -1.326016 -5 -2.597899 -4.473168 -3.535534 -3.535534 
C -4.473168 -2.597899 -5 -1.326016 -5 0 
C -5 1.326016 -4.473168 2.597899 -3.535534 3.535534 
C -2.597899 4.473168 -1.326016 5 0 5 
z
" id="C1_0_d88a3f9baf"/>
    </defs>
    <g clip-path="url(#p1eb4cc070e)">
     <use style="fill:#4c72b0;stroke:#4c72b0;stroke-width:1.08;" x="588.659065" xlink:href="#C1_0_d88a3f9baf" y="357.861264"/>
    </g>
    <g clip-path="url(#p1eb4cc070e)">
     <use style="fill:#4c72b0;stroke:#4c72b0;stroke-width:1.08;" x="697.724443" xlink:href="#C1_0_d88a3f9baf" y="346.74488"/>
    </g>
    <g clip-path="url(#p1eb4cc070e)">
     <use style="fill:#4c72b0;stroke:#4c72b0;stroke-width:1.08;" x="806.789821" xlink:href="#C1_0_d88a3f9baf" y="336.153683"/>
    </g>
    <g clip-path="url(#p1eb4cc070e)">
     <use style="fill:#4c72b0;stroke:#4c72b0;stroke-width:1.08;" x="915.855199" xlink:href="#C1_0_d88a3f9baf" y="315.985082"/>
    </g>
   </g>
   <g id="line2d_62">
    <path clip-path="url(#p1eb4cc070e)" d="M 588.659065 357.861264 
L 697.724443 346.74488 
L 806.789821 336.153683 
L 915.855199 315.985082 
" style="fill:none;stroke:#4c72b0;stroke-linecap:round;stroke-width:1.44;"/>
   </g>
   <g id="line2d_63">
    <path clip-path="url(#p1eb4cc070e)" d="M 588.659065 358.048412 
L 588.659065 357.667784 
" style="fill:none;stroke:#4c72b0;stroke-linecap:round;stroke-width:1.44;"/>
   </g>
   <g id="line2d_64">
    <path clip-path="url(#p1eb4cc070e)" d="M 697.724443 347.116251 
L 697.724443 346.354509 
" style="fill:none;stroke:#4c72b0;stroke-linecap:round;stroke-width:1.44;"/>
   </g>
   <g id="line2d_65">
    <path clip-path="url(#p1eb4cc070e)" d="M 806.789821 336.730031 
L 806.789821 335.610902 
" style="fill:none;stroke:#4c72b0;stroke-linecap:round;stroke-width:1.44;"/>
   </g>
   <g id="line2d_66">
    <path clip-path="url(#p1eb4cc070e)" d="M 915.855199 316.745151 
L 915.855199 315.272274 
" style="fill:none;stroke:#4c72b0;stroke-linecap:round;stroke-width:1.44;"/>
   </g>
   <g id="PathCollection_7">
    <path clip-path="url(#p1eb4cc070e)" d="M 583.659065 377.57633 
L 593.659065 377.57633 
L 593.659065 367.57633 
L 583.659065 367.57633 
z
" style="fill:#55a868;stroke:#55a868;stroke-width:1.08;"/>
    <path clip-path="url(#p1eb4cc070e)" d="M 692.724443 377.593338 
L 702.724443 377.593338 
L 702.724443 367.593338 
L 692.724443 367.593338 
z
" style="fill:#55a868;stroke:#55a868;stroke-width:1.08;"/>
    <path clip-path="url(#p1eb4cc070e)" d="M 801.789821 377.595779 
L 811.789821 377.595779 
L 811.789821 367.595779 
L 801.789821 367.595779 
z
" style="fill:#55a868;stroke:#55a868;stroke-width:1.08;"/>
    <path clip-path="url(#p1eb4cc070e)" d="M 910.855199 377.579745 
L 920.855199 377.579745 
L 920.855199 367.579745 
L 910.855199 367.579745 
z
" style="fill:#55a868;stroke:#55a868;stroke-width:1.08;"/>
   </g>
   <g id="line2d_67">
    <path clip-path="url(#p1eb4cc070e)" d="M 588.659065 372.57633 
L 697.724443 372.593338 
L 806.789821 372.595779 
L 915.855199 372.579745 
" style="fill:none;stroke:#55a868;stroke-linecap:round;stroke-width:1.44;"/>
   </g>
   <g id="line2d_68">
    <path clip-path="url(#p1eb4cc070e)" d="M 588.659065 372.636546 
L 588.659065 372.51668 
" style="fill:none;stroke:#55a868;stroke-linecap:round;stroke-width:1.44;"/>
   </g>
   <g id="line2d_69">
    <path clip-path="url(#p1eb4cc070e)" d="M 697.724443 372.671957 
L 697.724443 372.512882 
" style="fill:none;stroke:#55a868;stroke-linecap:round;stroke-width:1.44;"/>
   </g>
   <g id="line2d_70">
    <path clip-path="url(#p1eb4cc070e)" d="M 806.789821 372.690934 
L 806.789821 372.493966 
" style="fill:none;stroke:#55a868;stroke-linecap:round;stroke-width:1.44;"/>
   </g>
   <g id="line2d_71">
    <path clip-path="url(#p1eb4cc070e)" d="M 915.855199 372.693739 
L 915.855199 372.463102 
" style="fill:none;stroke:#55a868;stroke-linecap:round;stroke-width:1.44;"/>
   </g>
   <g id="patch_6">
    <path d="M 534.126376 390.86 
L 534.126376 29.7 
" style="fill:none;stroke:#cccccc;stroke-linecap:square;stroke-linejoin:miter;"/>
   </g>
   <g id="patch_7">
    <path d="M 534.126376 390.86 
L 970.387888 390.86 
" style="fill:none;stroke:#cccccc;stroke-linecap:square;stroke-linejoin:miter;"/>
   </g>
   <g id="PathCollection_8">
    <path clip-path="url(#p1eb4cc070e)" d="M 588.659065 357.842762 
L 583.659065 367.842762 
L 593.659065 367.842762 
z
" style="fill:#c44e52;stroke:#c44e52;stroke-width:1.08;"/>
    <path clip-path="url(#p1eb4cc070e)" d="M 697.724443 349.865396 
L 692.724443 359.865396 
L 702.724443 359.865396 
z
" style="fill:#c44e52;stroke:#c44e52;stroke-width:1.08;"/>
    <path clip-path="url(#p1eb4cc070e)" d="M 806.789821 342.237174 
L 801.789821 352.237174 
L 811.789821 352.237174 
z
" style="fill:#c44e52;stroke:#c44e52;stroke-width:1.08;"/>
    <path clip-path="url(#p1eb4cc070e)" d="M 915.855199 327.3065 
L 910.855199 337.3065 
L 920.855199 337.3065 
z
" style="fill:#c44e52;stroke:#c44e52;stroke-width:1.08;"/>
   </g>
   <g id="line2d_72">
    <path clip-path="url(#p1eb4cc070e)" d="M 588.659065 362.842762 
L 697.724443 354.865396 
L 806.789821 347.237174 
L 915.855199 332.3065 
" style="fill:none;stroke:#c44e52;stroke-linecap:round;stroke-width:1.44;"/>
   </g>
   <g id="line2d_73">
    <path clip-path="url(#p1eb4cc070e)" d="M 588.659065 362.997388 
L 588.659065 362.688838 
" style="fill:none;stroke:#c44e52;stroke-linecap:round;stroke-width:1.44;"/>
   </g>
   <g id="line2d_74">
    <path clip-path="url(#p1eb4cc070e)" d="M 697.724443 355.123103 
L 697.724443 354.597415 
" style="fill:none;stroke:#c44e52;stroke-linecap:round;stroke-width:1.44;"/>
   </g>
   <g id="line2d_75">
    <path clip-path="url(#p1eb4cc070e)" d="M 806.789821 347.593359 
L 806.789821 346.845129 
" style="fill:none;stroke:#c44e52;stroke-linecap:round;stroke-width:1.44;"/>
   </g>
   <g id="line2d_76">
    <path clip-path="url(#p1eb4cc070e)" d="M 915.855199 332.983177 
L 915.855199 331.639577 
" style="fill:none;stroke:#c44e52;stroke-linecap:round;stroke-width:1.44;"/>
   </g>
   <g id="text_20">
    <!-- Nodes = 200 -->
    <g style="fill:#262626;" transform="translate(691.92557 23.7)scale(0.22 -0.22)">
     <use xlink:href="#Roboto-Thin-4e"/>
     <use x="70.751953" xlink:href="#Roboto-Thin-6f"/>
     <use x="125.78125" xlink:href="#Roboto-Thin-64"/>
     <use x="180.517578" xlink:href="#Roboto-Thin-65"/>
     <use x="230.908203" xlink:href="#Roboto-Thin-73"/>
     <use x="280.664062" xlink:href="#Roboto-Thin-20"/>
     <use x="304.589844" xlink:href="#Roboto-Thin-3d"/>
     <use x="360.351562" xlink:href="#Roboto-Thin-20"/>
     <use x="384.277344" xlink:href="#Roboto-Thin-32"/>
     <use x="439.013672" xlink:href="#Roboto-Thin-30"/>
     <use x="493.75" xlink:href="#Roboto-Thin-30"/>
    </g>
   </g>
   <g id="PathCollection_9">
    <path clip-path="url(#p1eb4cc070e)" d="M 588.659065 367.763653 
L 593.659065 357.763653 
L 583.659065 357.763653 
z
" style="fill:#8172b2;stroke:#8172b2;stroke-width:1.08;"/>
    <path clip-path="url(#p1eb4cc070e)" d="M 697.724443 361.276651 
L 702.724443 351.276651 
L 692.724443 351.276651 
z
" style="fill:#8172b2;stroke:#8172b2;stroke-width:1.08;"/>
    <path clip-path="url(#p1eb4cc070e)" d="M 806.789821 355.127306 
L 811.789821 345.127306 
L 801.789821 345.127306 
z
" style="fill:#8172b2;stroke:#8172b2;stroke-width:1.08;"/>
    <path clip-path="url(#p1eb4cc070e)" d="M 915.855199 342.414347 
L 920.855199 332.414347 
L 910.855199 332.414347 
z
" style="fill:#8172b2;stroke:#8172b2;stroke-width:1.08;"/>
   </g>
   <g id="line2d_77">
    <path clip-path="url(#p1eb4cc070e)" d="M 588.659065 362.763653 
L 697.724443 356.276651 
L 806.789821 350.127306 
L 915.855199 337.414347 
" style="fill:none;stroke:#8172b2;stroke-linecap:round;stroke-width:1.44;"/>
   </g>
   <g id="line2d_78">
    <path clip-path="url(#p1eb4cc070e)" d="M 588.659065 362.910732 
L 588.659065 362.609775 
" style="fill:none;stroke:#8172b2;stroke-linecap:round;stroke-width:1.44;"/>
   </g>
   <g id="line2d_79">
    <path clip-path="url(#p1eb4cc070e)" d="M 697.724443 356.480582 
L 697.724443 356.082371 
" style="fill:none;stroke:#8172b2;stroke-linecap:round;stroke-width:1.44;"/>
   </g>
   <g id="line2d_80">
    <path clip-path="url(#p1eb4cc070e)" d="M 806.789821 350.391479 
L 806.789821 349.849245 
" style="fill:none;stroke:#8172b2;stroke-linecap:round;stroke-width:1.44;"/>
   </g>
   <g id="line2d_81">
    <path clip-path="url(#p1eb4cc070e)" d="M 915.855199 337.910159 
L 915.855199 336.91026 
" style="fill:none;stroke:#8172b2;stroke-linecap:round;stroke-width:1.44;"/>
   </g>
   <g id="PathCollection_10">
    <path clip-path="url(#p1eb4cc070e)" d="M 583.659065 366.788717 
L 593.659065 371.788717 
L 593.659065 361.788717 
z
" style="fill:#ccb974;stroke:#ccb974;stroke-width:1.08;"/>
    <path clip-path="url(#p1eb4cc070e)" d="M 692.724443 360.563456 
L 702.724443 365.563456 
L 702.724443 355.563456 
z
" style="fill:#ccb974;stroke:#ccb974;stroke-width:1.08;"/>
    <path clip-path="url(#p1eb4cc070e)" d="M 801.789821 353.872737 
L 811.789821 358.872737 
L 811.789821 348.872737 
z
" style="fill:#ccb974;stroke:#ccb974;stroke-width:1.08;"/>
    <path clip-path="url(#p1eb4cc070e)" d="M 910.855199 341.026222 
L 920.855199 346.026222 
L 920.855199 336.026222 
z
" style="fill:#ccb974;stroke:#ccb974;stroke-width:1.08;"/>
   </g>
   <g id="line2d_82">
    <path clip-path="url(#p1eb4cc070e)" d="M 588.659065 366.788717 
L 697.724443 360.563456 
L 806.789821 353.872737 
L 915.855199 341.026222 
" style="fill:none;stroke:#ccb974;stroke-linecap:round;stroke-width:1.44;"/>
   </g>
   <g id="line2d_83">
    <path clip-path="url(#p1eb4cc070e)" d="M 588.659065 366.87099 
L 588.659065 366.705681 
" style="fill:none;stroke:#ccb974;stroke-linecap:round;stroke-width:1.44;"/>
   </g>
   <g id="line2d_84">
    <path clip-path="url(#p1eb4cc070e)" d="M 697.724443 360.684153 
L 697.724443 360.43416 
" style="fill:none;stroke:#ccb974;stroke-linecap:round;stroke-width:1.44;"/>
   </g>
   <g id="line2d_85">
    <path clip-path="url(#p1eb4cc070e)" d="M 806.789821 354.067749 
L 806.789821 353.665699 
" style="fill:none;stroke:#ccb974;stroke-linecap:round;stroke-width:1.44;"/>
   </g>
   <g id="line2d_86">
    <path clip-path="url(#p1eb4cc070e)" d="M 915.855199 341.446339 
L 915.855199 340.580342 
" style="fill:none;stroke:#ccb974;stroke-linecap:round;stroke-width:1.44;"/>
   </g>
  </g>
  <g id="axes_3">
   <g id="patch_8">
    <path d="M 996.243378 390.86 
L 1432.504889 390.86 
L 1432.504889 29.7 
L 996.243378 29.7 
z
" style="fill:#ffffff;"/>
   </g>
   <g id="matplotlib.axis_5">
    <g id="xtick_9">
     <g id="line2d_87"/>
     <g id="text_21">
      <!-- 5,25 -->
      <g style="fill:#262626;" transform="translate(1032.485441 412.86)scale(0.2 -0.2)">
       <use xlink:href="#Roboto-Thin-35"/>
       <use x="54.736328" xlink:href="#Roboto-Thin-2c"/>
       <use x="73.4375" xlink:href="#Roboto-Thin-32"/>
       <use x="128.173828" xlink:href="#Roboto-Thin-35"/>
      </g>
     </g>
    </g>
    <g id="xtick_10">
     <g id="line2d_88"/>
     <g id="text_22">
      <!-- 25,35 -->
      <g style="fill:#262626;" transform="translate(1136.077382 412.86)scale(0.2 -0.2)">
       <use xlink:href="#Roboto-Thin-32"/>
       <use x="54.736328" xlink:href="#Roboto-Thin-35"/>
       <use x="109.472656" xlink:href="#Roboto-Thin-2c"/>
       <use x="128.173828" xlink:href="#Roboto-Thin-33"/>
       <use x="182.910156" xlink:href="#Roboto-Thin-35"/>
      </g>
     </g>
    </g>
    <g id="xtick_11">
     <g id="line2d_89"/>
     <g id="text_23">
      <!-- 35,60 -->
      <g style="fill:#262626;" transform="translate(1245.14276 412.86)scale(0.2 -0.2)">
       <use xlink:href="#Roboto-Thin-33"/>
       <use x="54.736328" xlink:href="#Roboto-Thin-35"/>
       <use x="109.472656" xlink:href="#Roboto-Thin-2c"/>
       <use x="128.173828" xlink:href="#Roboto-Thin-36"/>
       <use x="182.910156" xlink:href="#Roboto-Thin-30"/>
      </g>
     </g>
    </g>
    <g id="xtick_12">
     <g id="line2d_90"/>
     <g id="text_24">
      <!-- 60, 120 -->
      <g style="fill:#262626;" transform="translate(1346.342513 412.86)scale(0.2 -0.2)">
       <use xlink:href="#Roboto-Thin-36"/>
       <use x="54.736328" xlink:href="#Roboto-Thin-30"/>
       <use x="109.472656" xlink:href="#Roboto-Thin-2c"/>
       <use x="128.173828" xlink:href="#Roboto-Thin-20"/>
       <use x="152.099609" xlink:href="#Roboto-Thin-31"/>
       <use x="206.835938" xlink:href="#Roboto-Thin-32"/>
       <use x="261.572266" xlink:href="#Roboto-Thin-30"/>
      </g>
     </g>
    </g>
    <g id="text_25">
     <!-- Message creation interval (s) -->
     <g style="fill:#262626;" transform="translate(1078.352258 438.3575)scale(0.22 -0.22)">
      <use xlink:href="#Roboto-Thin-4d"/>
      <use x="85.742188" xlink:href="#Roboto-Thin-65"/>
      <use x="136.132812" xlink:href="#Roboto-Thin-73"/>
      <use x="185.888672" xlink:href="#Roboto-Thin-73"/>
      <use x="235.644531" xlink:href="#Roboto-Thin-61"/>
      <use x="288.427734" xlink:href="#Roboto-Thin-67"/>
      <use x="343.261719" xlink:href="#Roboto-Thin-65"/>
      <use x="393.652344" xlink:href="#Roboto-Thin-20"/>
      <use x="417.578125" xlink:href="#Roboto-Thin-63"/>
      <use x="468.310547" xlink:href="#Roboto-Thin-72"/>
      <use x="501.757812" xlink:href="#Roboto-Thin-65"/>
      <use x="552.148438" xlink:href="#Roboto-Thin-61"/>
      <use x="604.931641" xlink:href="#Roboto-Thin-74"/>
      <use x="636.572266" xlink:href="#Roboto-Thin-69"/>
      <use x="657.177734" xlink:href="#Roboto-Thin-6f"/>
      <use x="712.207031" xlink:href="#Roboto-Thin-6e"/>
      <use x="766.943359" xlink:href="#Roboto-Thin-20"/>
      <use x="790.869141" xlink:href="#Roboto-Thin-69"/>
      <use x="811.474609" xlink:href="#Roboto-Thin-6e"/>
      <use x="866.210938" xlink:href="#Roboto-Thin-74"/>
      <use x="897.851562" xlink:href="#Roboto-Thin-65"/>
      <use x="948.242188" xlink:href="#Roboto-Thin-72"/>
      <use x="981.689453" xlink:href="#Roboto-Thin-76"/>
      <use x="1029.443359" xlink:href="#Roboto-Thin-61"/>
      <use x="1082.226562" xlink:href="#Roboto-Thin-6c"/>
      <use x="1102.832031" xlink:href="#Roboto-Thin-20"/>
      <use x="1126.757812" xlink:href="#Roboto-Thin-28"/>
      <use x="1156.396484" xlink:href="#Roboto-Thin-73"/>
      <use x="1206.152344" xlink:href="#Roboto-Thin-29"/>
     </g>
    </g>
   </g>
   <g id="matplotlib.axis_6">
    <g id="ytick_15">
     <g id="line2d_91">
      <path clip-path="url(#p0d78f96d50)" d="M 996.243378 380.064771 
L 1432.504889 380.064771 
" style="fill:none;stroke:#cccccc;stroke-linecap:round;"/>
     </g>
     <g id="line2d_92"/>
    </g>
    <g id="ytick_16">
     <g id="line2d_93">
      <path clip-path="url(#p0d78f96d50)" d="M 996.243378 323.388312 
L 1432.504889 323.388312 
" style="fill:none;stroke:#cccccc;stroke-linecap:round;"/>
     </g>
     <g id="line2d_94"/>
    </g>
    <g id="ytick_17">
     <g id="line2d_95">
      <path clip-path="url(#p0d78f96d50)" d="M 996.243378 266.711853 
L 1432.504889 266.711853 
" style="fill:none;stroke:#cccccc;stroke-linecap:round;"/>
     </g>
     <g id="line2d_96"/>
    </g>
    <g id="ytick_18">
     <g id="line2d_97">
      <path clip-path="url(#p0d78f96d50)" d="M 996.243378 210.035394 
L 1432.504889 210.035394 
" style="fill:none;stroke:#cccccc;stroke-linecap:round;"/>
     </g>
     <g id="line2d_98"/>
    </g>
    <g id="ytick_19">
     <g id="line2d_99">
      <path clip-path="url(#p0d78f96d50)" d="M 996.243378 153.358935 
L 1432.504889 153.358935 
" style="fill:none;stroke:#cccccc;stroke-linecap:round;"/>
     </g>
     <g id="line2d_100"/>
    </g>
    <g id="ytick_20">
     <g id="line2d_101">
      <path clip-path="url(#p0d78f96d50)" d="M 996.243378 96.682475 
L 1432.504889 96.682475 
" style="fill:none;stroke:#cccccc;stroke-linecap:round;"/>
     </g>
     <g id="line2d_102"/>
    </g>
    <g id="ytick_21">
     <g id="line2d_103">
      <path clip-path="url(#p0d78f96d50)" d="M 996.243378 40.006016 
L 1432.504889 40.006016 
" style="fill:none;stroke:#cccccc;stroke-linecap:round;"/>
     </g>
     <g id="line2d_104"/>
    </g>
   </g>
   <g id="PathCollection_11">
    <defs>
     <path d="M 0 5 
C 1.326016 5 2.597899 4.473168 3.535534 3.535534 
C 4.473168 2.597899 5 1.326016 5 0 
C 5 -1.326016 4.473168 -2.597899 3.535534 -3.535534 
C 2.597899 -4.473168 1.326016 -5 0 -5 
C -1.326016 -5 -2.597899 -4.473168 -3.535534 -3.535534 
C -4.473168 -2.597899 -5 -1.326016 -5 0 
C -5 1.326016 -4.473168 2.597899 -3.535534 3.535534 
C -2.597899 4.473168 -1.326016 5 0 5 
z
" id="C2_0_27cda1a935"/>
    </defs>
    <g clip-path="url(#p0d78f96d50)">
     <use style="fill:#4c72b0;stroke:#4c72b0;stroke-width:1.08;" x="1050.776066" xlink:href="#C2_0_27cda1a935" y="312.947852"/>
    </g>
    <g clip-path="url(#p0d78f96d50)">
     <use style="fill:#4c72b0;stroke:#4c72b0;stroke-width:1.08;" x="1159.841444" xlink:href="#C2_0_27cda1a935" y="279.487042"/>
    </g>
    <g clip-path="url(#p0d78f96d50)">
     <use style="fill:#4c72b0;stroke:#4c72b0;stroke-width:1.08;" x="1268.906822" xlink:href="#C2_0_27cda1a935" y="249.852691"/>
    </g>
    <g clip-path="url(#p0d78f96d50)">
     <use style="fill:#4c72b0;stroke:#4c72b0;stroke-width:1.08;" x="1377.9722" xlink:href="#C2_0_27cda1a935" y="196.609212"/>
    </g>
   </g>
   <g id="line2d_105">
    <path clip-path="url(#p0d78f96d50)" d="M 1050.776066 312.947852 
L 1159.841444 279.487042 
L 1268.906822 249.852691 
L 1377.9722 196.609212 
" style="fill:none;stroke:#4c72b0;stroke-linecap:round;stroke-width:1.44;"/>
   </g>
   <g id="line2d_106">
    <path clip-path="url(#p0d78f96d50)" d="M 1050.776066 313.303904 
L 1050.776066 312.570913 
" style="fill:none;stroke:#4c72b0;stroke-linecap:round;stroke-width:1.44;"/>
   </g>
   <g id="line2d_107">
    <path clip-path="url(#p0d78f96d50)" d="M 1159.841444 280.127867 
L 1159.841444 278.885605 
" style="fill:none;stroke:#4c72b0;stroke-linecap:round;stroke-width:1.44;"/>
   </g>
   <g id="line2d_108">
    <path clip-path="url(#p0d78f96d50)" d="M 1268.906822 250.71055 
L 1268.906822 249.015134 
" style="fill:none;stroke:#4c72b0;stroke-linecap:round;stroke-width:1.44;"/>
   </g>
   <g id="line2d_109">
    <path clip-path="url(#p0d78f96d50)" d="M 1377.9722 197.914974 
L 1377.9722 195.32076 
" style="fill:none;stroke:#4c72b0;stroke-linecap:round;stroke-width:1.44;"/>
   </g>
   <g id="PathCollection_12">
    <path clip-path="url(#p0d78f96d50)" d="M 1045.776066 377.698932 
L 1055.776066 377.698932 
L 1055.776066 367.698932 
L 1045.776066 367.698932 
z
" style="fill:#55a868;stroke:#55a868;stroke-width:1.08;"/>
    <path clip-path="url(#p0d78f96d50)" d="M 1154.841444 377.668414 
L 1164.841444 377.668414 
L 1164.841444 367.668414 
L 1154.841444 367.668414 
z
" style="fill:#55a868;stroke:#55a868;stroke-width:1.08;"/>
    <path clip-path="url(#p0d78f96d50)" d="M 1263.906822 377.569436 
L 1273.906822 377.569436 
L 1273.906822 367.569436 
L 1263.906822 367.569436 
z
" style="fill:#55a868;stroke:#55a868;stroke-width:1.08;"/>
    <path clip-path="url(#p0d78f96d50)" d="M 1372.9722 377.54412 
L 1382.9722 377.54412 
L 1382.9722 367.54412 
L 1372.9722 367.54412 
z
" style="fill:#55a868;stroke:#55a868;stroke-width:1.08;"/>
   </g>
   <g id="line2d_110">
    <path clip-path="url(#p0d78f96d50)" d="M 1050.776066 372.698932 
L 1159.841444 372.668414 
L 1268.906822 372.569436 
L 1377.9722 372.54412 
" style="fill:none;stroke:#55a868;stroke-linecap:round;stroke-width:1.44;"/>
   </g>
   <g id="line2d_111">
    <path clip-path="url(#p0d78f96d50)" d="M 1050.776066 372.74601 
L 1050.776066 372.652458 
" style="fill:none;stroke:#55a868;stroke-linecap:round;stroke-width:1.44;"/>
   </g>
   <g id="line2d_112">
    <path clip-path="url(#p0d78f96d50)" d="M 1159.841444 372.74436 
L 1159.841444 372.590674 
" style="fill:none;stroke:#55a868;stroke-linecap:round;stroke-width:1.44;"/>
   </g>
   <g id="line2d_113">
    <path clip-path="url(#p0d78f96d50)" d="M 1268.906822 372.637626 
L 1268.906822 372.496334 
" style="fill:none;stroke:#55a868;stroke-linecap:round;stroke-width:1.44;"/>
   </g>
   <g id="line2d_114">
    <path clip-path="url(#p0d78f96d50)" d="M 1377.9722 372.673645 
L 1377.9722 372.418105 
" style="fill:none;stroke:#55a868;stroke-linecap:round;stroke-width:1.44;"/>
   </g>
   <g id="patch_9">
    <path d="M 996.243378 390.86 
L 996.243378 29.7 
" style="fill:none;stroke:#cccccc;stroke-linecap:square;stroke-linejoin:miter;"/>
   </g>
   <g id="patch_10">
    <path d="M 996.243378 390.86 
L 1432.504889 390.86 
" style="fill:none;stroke:#cccccc;stroke-linecap:square;stroke-linejoin:miter;"/>
   </g>
   <g id="PathCollection_13">
    <path clip-path="url(#p0d78f96d50)" d="M 1050.776066 316.931163 
L 1045.776066 326.931163 
L 1055.776066 326.931163 
z
" style="fill:#c44e52;stroke:#c44e52;stroke-width:1.08;"/>
    <path clip-path="url(#p0d78f96d50)" d="M 1159.841444 291.086428 
L 1154.841444 301.086428 
L 1164.841444 301.086428 
z
" style="fill:#c44e52;stroke:#c44e52;stroke-width:1.08;"/>
    <path clip-path="url(#p0d78f96d50)" d="M 1268.906822 268.569393 
L 1263.906822 278.569393 
L 1273.906822 278.569393 
z
" style="fill:#c44e52;stroke:#c44e52;stroke-width:1.08;"/>
    <path clip-path="url(#p0d78f96d50)" d="M 1377.9722 231.804002 
L 1372.9722 241.804002 
L 1382.9722 241.804002 
z
" style="fill:#c44e52;stroke:#c44e52;stroke-width:1.08;"/>
   </g>
   <g id="line2d_115">
    <path clip-path="url(#p0d78f96d50)" d="M 1050.776066 321.931163 
L 1159.841444 296.086428 
L 1268.906822 273.569393 
L 1377.9722 236.804002 
" style="fill:none;stroke:#c44e52;stroke-linecap:round;stroke-width:1.44;"/>
   </g>
   <g id="line2d_116">
    <path clip-path="url(#p0d78f96d50)" d="M 1050.776066 322.34501 
L 1050.776066 321.495279 
" style="fill:none;stroke:#c44e52;stroke-linecap:round;stroke-width:1.44;"/>
   </g>
   <g id="line2d_117">
    <path clip-path="url(#p0d78f96d50)" d="M 1159.841444 296.830594 
L 1159.841444 295.369038 
" style="fill:none;stroke:#c44e52;stroke-linecap:round;stroke-width:1.44;"/>
   </g>
   <g id="line2d_118">
    <path clip-path="url(#p0d78f96d50)" d="M 1268.906822 274.39502 
L 1268.906822 272.670442 
" style="fill:none;stroke:#c44e52;stroke-linecap:round;stroke-width:1.44;"/>
   </g>
   <g id="line2d_119">
    <path clip-path="url(#p0d78f96d50)" d="M 1377.9722 238.063544 
L 1377.9722 235.376005 
" style="fill:none;stroke:#c44e52;stroke-linecap:round;stroke-width:1.44;"/>
   </g>
   <g id="text_26">
    <!-- Nodes = 400 -->
    <g style="fill:#262626;" transform="translate(1154.042571 23.7)scale(0.22 -0.22)">
     <use xlink:href="#Roboto-Thin-4e"/>
     <use x="70.751953" xlink:href="#Roboto-Thin-6f"/>
     <use x="125.78125" xlink:href="#Roboto-Thin-64"/>
     <use x="180.517578" xlink:href="#Roboto-Thin-65"/>
     <use x="230.908203" xlink:href="#Roboto-Thin-73"/>
     <use x="280.664062" xlink:href="#Roboto-Thin-20"/>
     <use x="304.589844" xlink:href="#Roboto-Thin-3d"/>
     <use x="360.351562" xlink:href="#Roboto-Thin-20"/>
     <use x="384.277344" xlink:href="#Roboto-Thin-34"/>
     <use x="439.013672" xlink:href="#Roboto-Thin-30"/>
     <use x="493.75" xlink:href="#Roboto-Thin-30"/>
    </g>
   </g>
   <g id="PathCollection_14">
    <path clip-path="url(#p0d78f96d50)" d="M 1050.776066 337.500361 
L 1055.776066 327.500361 
L 1045.776066 327.500361 
z
" style="fill:#8172b2;stroke:#8172b2;stroke-width:1.08;"/>
    <path clip-path="url(#p0d78f96d50)" d="M 1159.841444 317.094249 
L 1164.841444 307.094249 
L 1154.841444 307.094249 
z
" style="fill:#8172b2;stroke:#8172b2;stroke-width:1.08;"/>
    <path clip-path="url(#p0d78f96d50)" d="M 1268.906822 295.976107 
L 1273.906822 285.976107 
L 1263.906822 285.976107 
z
" style="fill:#8172b2;stroke:#8172b2;stroke-width:1.08;"/>
    <path clip-path="url(#p0d78f96d50)" d="M 1377.9722 253.193929 
L 1382.9722 243.193929 
L 1372.9722 243.193929 
z
" style="fill:#8172b2;stroke:#8172b2;stroke-width:1.08;"/>
   </g>
   <g id="line2d_120">
    <path clip-path="url(#p0d78f96d50)" d="M 1050.776066 332.500361 
L 1159.841444 312.094249 
L 1268.906822 290.976107 
L 1377.9722 248.193929 
" style="fill:none;stroke:#8172b2;stroke-linecap:round;stroke-width:1.44;"/>
   </g>
   <g id="line2d_121">
    <path clip-path="url(#p0d78f96d50)" d="M 1050.776066 332.775427 
L 1050.776066 332.231108 
" style="fill:none;stroke:#8172b2;stroke-linecap:round;stroke-width:1.44;"/>
   </g>
   <g id="line2d_122">
    <path clip-path="url(#p0d78f96d50)" d="M 1159.841444 312.501091 
L 1159.841444 311.69463 
" style="fill:none;stroke:#8172b2;stroke-linecap:round;stroke-width:1.44;"/>
   </g>
   <g id="line2d_123">
    <path clip-path="url(#p0d78f96d50)" d="M 1268.906822 291.467246 
L 1268.906822 290.481277 
" style="fill:none;stroke:#8172b2;stroke-linecap:round;stroke-width:1.44;"/>
   </g>
   <g id="line2d_124">
    <path clip-path="url(#p0d78f96d50)" d="M 1377.9722 248.849854 
L 1377.9722 247.538018 
" style="fill:none;stroke:#8172b2;stroke-linecap:round;stroke-width:1.44;"/>
   </g>
   <g id="PathCollection_15">
    <path clip-path="url(#p0d78f96d50)" d="M 1045.776066 344.159743 
L 1055.776066 349.159743 
L 1055.776066 339.159743 
z
" style="fill:#ccb974;stroke:#ccb974;stroke-width:1.08;"/>
    <path clip-path="url(#p0d78f96d50)" d="M 1154.841444 323.517578 
L 1164.841444 328.517578 
L 1164.841444 318.517578 
z
" style="fill:#ccb974;stroke:#ccb974;stroke-width:1.08;"/>
    <path clip-path="url(#p0d78f96d50)" d="M 1263.906822 302.847172 
L 1273.906822 307.847172 
L 1273.906822 297.847172 
z
" style="fill:#ccb974;stroke:#ccb974;stroke-width:1.08;"/>
    <path clip-path="url(#p0d78f96d50)" d="M 1372.9722 266.91578 
L 1382.9722 271.91578 
L 1382.9722 261.91578 
z
" style="fill:#ccb974;stroke:#ccb974;stroke-width:1.08;"/>
   </g>
   <g id="line2d_125">
    <path clip-path="url(#p0d78f96d50)" d="M 1050.776066 344.159743 
L 1159.841444 323.517578 
L 1268.906822 302.847172 
L 1377.9722 266.91578 
" style="fill:none;stroke:#ccb974;stroke-linecap:round;stroke-width:1.44;"/>
   </g>
   <g id="line2d_126">
    <path clip-path="url(#p0d78f96d50)" d="M 1050.776066 344.31944 
L 1050.776066 344.003727 
" style="fill:none;stroke:#ccb974;stroke-linecap:round;stroke-width:1.44;"/>
   </g>
   <g id="line2d_127">
    <path clip-path="url(#p0d78f96d50)" d="M 1159.841444 323.724103 
L 1159.841444 323.310327 
" style="fill:none;stroke:#ccb974;stroke-linecap:round;stroke-width:1.44;"/>
   </g>
   <g id="line2d_128">
    <path clip-path="url(#p0d78f96d50)" d="M 1268.906822 303.167671 
L 1268.906822 302.534875 
" style="fill:none;stroke:#ccb974;stroke-linecap:round;stroke-width:1.44;"/>
   </g>
   <g id="line2d_129">
    <path clip-path="url(#p0d78f96d50)" d="M 1377.9722 267.531851 
L 1377.9722 266.208305 
" style="fill:none;stroke:#ccb974;stroke-linecap:round;stroke-width:1.44;"/>
   </g>
  </g>
  <g id="axes_4">
   <g id="patch_11">
    <path d="M 1458.360379 390.86 
L 1894.62189 390.86 
L 1894.62189 29.7 
L 1458.360379 29.7 
z
" style="fill:#ffffff;"/>
   </g>
   <g id="matplotlib.axis_7">
    <g id="xtick_13">
     <g id="line2d_130"/>
     <g id="text_27">
      <!-- 5,25 -->
      <g style="fill:#262626;" transform="translate(1494.602443 412.86)scale(0.2 -0.2)">
       <use xlink:href="#Roboto-Thin-35"/>
       <use x="54.736328" xlink:href="#Roboto-Thin-2c"/>
       <use x="73.4375" xlink:href="#Roboto-Thin-32"/>
       <use x="128.173828" xlink:href="#Roboto-Thin-35"/>
      </g>
     </g>
    </g>
    <g id="xtick_14">
     <g id="line2d_131"/>
     <g id="text_28">
      <!-- 25,35 -->
      <g style="fill:#262626;" transform="translate(1598.194383 412.86)scale(0.2 -0.2)">
       <use xlink:href="#Roboto-Thin-32"/>
       <use x="54.736328" xlink:href="#Roboto-Thin-35"/>
       <use x="109.472656" xlink:href="#Roboto-Thin-2c"/>
       <use x="128.173828" xlink:href="#Roboto-Thin-33"/>
       <use x="182.910156" xlink:href="#Roboto-Thin-35"/>
      </g>
     </g>
    </g>
    <g id="xtick_15">
     <g id="line2d_132"/>
     <g id="text_29">
      <!-- 35,60 -->
      <g style="fill:#262626;" transform="translate(1707.259761 412.86)scale(0.2 -0.2)">
       <use xlink:href="#Roboto-Thin-33"/>
       <use x="54.736328" xlink:href="#Roboto-Thin-35"/>
       <use x="109.472656" xlink:href="#Roboto-Thin-2c"/>
       <use x="128.173828" xlink:href="#Roboto-Thin-36"/>
       <use x="182.910156" xlink:href="#Roboto-Thin-30"/>
      </g>
     </g>
    </g>
    <g id="xtick_16">
     <g id="line2d_133"/>
     <g id="text_30">
      <!-- 60, 120 -->
      <g style="fill:#262626;" transform="translate(1808.459514 412.86)scale(0.2 -0.2)">
       <use xlink:href="#Roboto-Thin-36"/>
       <use x="54.736328" xlink:href="#Roboto-Thin-30"/>
       <use x="109.472656" xlink:href="#Roboto-Thin-2c"/>
       <use x="128.173828" xlink:href="#Roboto-Thin-20"/>
       <use x="152.099609" xlink:href="#Roboto-Thin-31"/>
       <use x="206.835938" xlink:href="#Roboto-Thin-32"/>
       <use x="261.572266" xlink:href="#Roboto-Thin-30"/>
      </g>
     </g>
    </g>
    <g id="text_31">
     <!-- Message creation interval (s) -->
     <g style="fill:#262626;" transform="translate(1540.46926 438.3575)scale(0.22 -0.22)">
      <use xlink:href="#Roboto-Thin-4d"/>
      <use x="85.742188" xlink:href="#Roboto-Thin-65"/>
      <use x="136.132812" xlink:href="#Roboto-Thin-73"/>
      <use x="185.888672" xlink:href="#Roboto-Thin-73"/>
      <use x="235.644531" xlink:href="#Roboto-Thin-61"/>
      <use x="288.427734" xlink:href="#Roboto-Thin-67"/>
      <use x="343.261719" xlink:href="#Roboto-Thin-65"/>
      <use x="393.652344" xlink:href="#Roboto-Thin-20"/>
      <use x="417.578125" xlink:href="#Roboto-Thin-63"/>
      <use x="468.310547" xlink:href="#Roboto-Thin-72"/>
      <use x="501.757812" xlink:href="#Roboto-Thin-65"/>
      <use x="552.148438" xlink:href="#Roboto-Thin-61"/>
      <use x="604.931641" xlink:href="#Roboto-Thin-74"/>
      <use x="636.572266" xlink:href="#Roboto-Thin-69"/>
      <use x="657.177734" xlink:href="#Roboto-Thin-6f"/>
      <use x="712.207031" xlink:href="#Roboto-Thin-6e"/>
      <use x="766.943359" xlink:href="#Roboto-Thin-20"/>
      <use x="790.869141" xlink:href="#Roboto-Thin-69"/>
      <use x="811.474609" xlink:href="#Roboto-Thin-6e"/>
      <use x="866.210938" xlink:href="#Roboto-Thin-74"/>
      <use x="897.851562" xlink:href="#Roboto-Thin-65"/>
      <use x="948.242188" xlink:href="#Roboto-Thin-72"/>
      <use x="981.689453" xlink:href="#Roboto-Thin-76"/>
      <use x="1029.443359" xlink:href="#Roboto-Thin-61"/>
      <use x="1082.226562" xlink:href="#Roboto-Thin-6c"/>
      <use x="1102.832031" xlink:href="#Roboto-Thin-20"/>
      <use x="1126.757812" xlink:href="#Roboto-Thin-28"/>
      <use x="1156.396484" xlink:href="#Roboto-Thin-73"/>
      <use x="1206.152344" xlink:href="#Roboto-Thin-29"/>
     </g>
    </g>
   </g>
   <g id="matplotlib.axis_8">
    <g id="ytick_22">
     <g id="line2d_134">
      <path clip-path="url(#pa4c00e13fd)" d="M 1458.360379 380.064771 
L 1894.62189 380.064771 
" style="fill:none;stroke:#cccccc;stroke-linecap:round;"/>
     </g>
     <g id="line2d_135"/>
    </g>
    <g id="ytick_23">
     <g id="line2d_136">
      <path clip-path="url(#pa4c00e13fd)" d="M 1458.360379 323.388312 
L 1894.62189 323.388312 
" style="fill:none;stroke:#cccccc;stroke-linecap:round;"/>
     </g>
     <g id="line2d_137"/>
    </g>
    <g id="ytick_24">
     <g id="line2d_138">
      <path clip-path="url(#pa4c00e13fd)" d="M 1458.360379 266.711853 
L 1894.62189 266.711853 
" style="fill:none;stroke:#cccccc;stroke-linecap:round;"/>
     </g>
     <g id="line2d_139"/>
    </g>
    <g id="ytick_25">
     <g id="line2d_140">
      <path clip-path="url(#pa4c00e13fd)" d="M 1458.360379 210.035394 
L 1894.62189 210.035394 
" style="fill:none;stroke:#cccccc;stroke-linecap:round;"/>
     </g>
     <g id="line2d_141"/>
    </g>
    <g id="ytick_26">
     <g id="line2d_142">
      <path clip-path="url(#pa4c00e13fd)" d="M 1458.360379 153.358935 
L 1894.62189 153.358935 
" style="fill:none;stroke:#cccccc;stroke-linecap:round;"/>
     </g>
     <g id="line2d_143"/>
    </g>
    <g id="ytick_27">
     <g id="line2d_144">
      <path clip-path="url(#pa4c00e13fd)" d="M 1458.360379 96.682475 
L 1894.62189 96.682475 
" style="fill:none;stroke:#cccccc;stroke-linecap:round;"/>
     </g>
     <g id="line2d_145"/>
    </g>
    <g id="ytick_28">
     <g id="line2d_146">
      <path clip-path="url(#pa4c00e13fd)" d="M 1458.360379 40.006016 
L 1894.62189 40.006016 
" style="fill:none;stroke:#cccccc;stroke-linecap:round;"/>
     </g>
     <g id="line2d_147"/>
    </g>
   </g>
   <g id="PathCollection_16">
    <defs>
     <path d="M 0 5 
C 1.326016 5 2.597899 4.473168 3.535534 3.535534 
C 4.473168 2.597899 5 1.326016 5 0 
C 5 -1.326016 4.473168 -2.597899 3.535534 -3.535534 
C 2.597899 -4.473168 1.326016 -5 0 -5 
C -1.326016 -5 -2.597899 -4.473168 -3.535534 -3.535534 
C -4.473168 -2.597899 -5 -1.326016 -5 0 
C -5 1.326016 -4.473168 2.597899 -3.535534 3.535534 
C -2.597899 4.473168 -1.326016 5 0 5 
z
" id="C3_0_41c00483a4"/>
    </defs>
    <g clip-path="url(#pa4c00e13fd)">
     <use style="fill:#4c72b0;stroke:#4c72b0;stroke-width:1.08;" x="1512.893068" xlink:href="#C3_0_41c00483a4" y="248.380763"/>
    </g>
    <g clip-path="url(#pa4c00e13fd)">
     <use style="fill:#4c72b0;stroke:#4c72b0;stroke-width:1.08;" x="1621.958446" xlink:href="#C3_0_41c00483a4" y="183.720828"/>
    </g>
    <g clip-path="url(#pa4c00e13fd)">
     <use style="fill:#4c72b0;stroke:#4c72b0;stroke-width:1.08;" x="1731.023824" xlink:href="#C3_0_41c00483a4" y="131.269423"/>
    </g>
    <g clip-path="url(#pa4c00e13fd)">
     <use style="fill:#4c72b0;stroke:#4c72b0;stroke-width:1.08;" x="1840.089201" xlink:href="#C3_0_41c00483a4" y="47.741683"/>
    </g>
   </g>
   <g id="line2d_148">
    <path clip-path="url(#pa4c00e13fd)" d="M 1512.893068 248.380763 
L 1621.958446 183.720828 
L 1731.023824 131.269423 
L 1840.089201 47.741683 
" style="fill:none;stroke:#4c72b0;stroke-linecap:round;stroke-width:1.44;"/>
   </g>
   <g id="line2d_149">
    <path clip-path="url(#pa4c00e13fd)" d="M 1512.893068 249.099123 
L 1512.893068 247.696295 
" style="fill:none;stroke:#4c72b0;stroke-linecap:round;stroke-width:1.44;"/>
   </g>
   <g id="line2d_150">
    <path clip-path="url(#pa4c00e13fd)" d="M 1621.958446 184.642487 
L 1621.958446 182.780723 
" style="fill:none;stroke:#4c72b0;stroke-linecap:round;stroke-width:1.44;"/>
   </g>
   <g id="line2d_151">
    <path clip-path="url(#pa4c00e13fd)" d="M 1731.023824 132.992308 
L 1731.023824 129.467798 
" style="fill:none;stroke:#4c72b0;stroke-linecap:round;stroke-width:1.44;"/>
   </g>
   <g id="line2d_152">
    <path clip-path="url(#pa4c00e13fd)" d="M 1840.089201 49.002418 
L 1840.089201 46.424194 
" style="fill:none;stroke:#4c72b0;stroke-linecap:round;stroke-width:1.44;"/>
   </g>
   <g id="PathCollection_17">
    <path clip-path="url(#pa4c00e13fd)" d="M 1507.893068 377.682481 
L 1517.893068 377.682481 
L 1517.893068 367.682481 
L 1507.893068 367.682481 
z
" style="fill:#55a868;stroke:#55a868;stroke-width:1.08;"/>
    <path clip-path="url(#pa4c00e13fd)" d="M 1616.958446 377.659921 
L 1626.958446 377.659921 
L 1626.958446 367.659921 
L 1616.958446 367.659921 
z
" style="fill:#55a868;stroke:#55a868;stroke-width:1.08;"/>
    <path clip-path="url(#pa4c00e13fd)" d="M 1726.023824 377.558073 
L 1736.023824 377.558073 
L 1736.023824 367.558073 
L 1726.023824 367.558073 
z
" style="fill:#55a868;stroke:#55a868;stroke-width:1.08;"/>
    <path clip-path="url(#pa4c00e13fd)" d="M 1835.089201 377.646904 
L 1845.089201 377.646904 
L 1845.089201 367.646904 
L 1835.089201 367.646904 
z
" style="fill:#55a868;stroke:#55a868;stroke-width:1.08;"/>
   </g>
   <g id="line2d_153">
    <path clip-path="url(#pa4c00e13fd)" d="M 1512.893068 372.682481 
L 1621.958446 372.659921 
L 1731.023824 372.558073 
L 1840.089201 372.646904 
" style="fill:none;stroke:#55a868;stroke-linecap:round;stroke-width:1.44;"/>
   </g>
   <g id="line2d_154">
    <path clip-path="url(#pa4c00e13fd)" d="M 1512.893068 372.728238 
L 1512.893068 372.638274 
" style="fill:none;stroke:#55a868;stroke-linecap:round;stroke-width:1.44;"/>
   </g>
   <g id="line2d_155">
    <path clip-path="url(#pa4c00e13fd)" d="M 1621.958446 372.723659 
L 1621.958446 372.593766 
" style="fill:none;stroke:#55a868;stroke-linecap:round;stroke-width:1.44;"/>
   </g>
   <g id="line2d_156">
    <path clip-path="url(#pa4c00e13fd)" d="M 1731.023824 372.650754 
L 1731.023824 372.466372 
" style="fill:none;stroke:#55a868;stroke-linecap:round;stroke-width:1.44;"/>
   </g>
   <g id="line2d_157">
    <path clip-path="url(#pa4c00e13fd)" d="M 1840.089201 372.749016 
L 1840.089201 372.542897 
" style="fill:none;stroke:#55a868;stroke-linecap:round;stroke-width:1.44;"/>
   </g>
   <g id="patch_12">
    <path d="M 1458.360379 390.86 
L 1458.360379 29.7 
" style="fill:none;stroke:#cccccc;stroke-linecap:square;stroke-linejoin:miter;"/>
   </g>
   <g id="patch_13">
    <path d="M 1458.360379 390.86 
L 1894.62189 390.86 
" style="fill:none;stroke:#cccccc;stroke-linecap:square;stroke-linejoin:miter;"/>
   </g>
   <g id="PathCollection_18">
    <path clip-path="url(#pa4c00e13fd)" d="M 1512.893068 264.637342 
L 1507.893068 274.637342 
L 1517.893068 274.637342 
z
" style="fill:#c44e52;stroke:#c44e52;stroke-width:1.08;"/>
    <path clip-path="url(#pa4c00e13fd)" d="M 1621.958446 215.931165 
L 1616.958446 225.931165 
L 1626.958446 225.931165 
z
" style="fill:#c44e52;stroke:#c44e52;stroke-width:1.08;"/>
    <path clip-path="url(#pa4c00e13fd)" d="M 1731.023824 175.395797 
L 1726.023824 185.395797 
L 1736.023824 185.395797 
z
" style="fill:#c44e52;stroke:#c44e52;stroke-width:1.08;"/>
    <path clip-path="url(#pa4c00e13fd)" d="M 1840.089201 110.777753 
L 1835.089201 120.777753 
L 1845.089201 120.777753 
z
" style="fill:#c44e52;stroke:#c44e52;stroke-width:1.08;"/>
   </g>
   <g id="line2d_158">
    <path clip-path="url(#pa4c00e13fd)" d="M 1512.893068 269.637342 
L 1621.958446 220.931165 
L 1731.023824 180.395797 
L 1840.089201 115.777753 
" style="fill:none;stroke:#c44e52;stroke-linecap:round;stroke-width:1.44;"/>
   </g>
   <g id="line2d_159">
    <path clip-path="url(#pa4c00e13fd)" d="M 1512.893068 270.451671 
L 1512.893068 268.950916 
" style="fill:none;stroke:#c44e52;stroke-linecap:round;stroke-width:1.44;"/>
   </g>
   <g id="line2d_160">
    <path clip-path="url(#pa4c00e13fd)" d="M 1621.958446 221.801888 
L 1621.958446 220.085856 
" style="fill:none;stroke:#c44e52;stroke-linecap:round;stroke-width:1.44;"/>
   </g>
   <g id="line2d_161">
    <path clip-path="url(#pa4c00e13fd)" d="M 1731.023824 181.556151 
L 1731.023824 179.205669 
" style="fill:none;stroke:#c44e52;stroke-linecap:round;stroke-width:1.44;"/>
   </g>
   <g id="line2d_162">
    <path clip-path="url(#pa4c00e13fd)" d="M 1840.089201 117.131849 
L 1840.089201 114.438809 
" style="fill:none;stroke:#c44e52;stroke-linecap:round;stroke-width:1.44;"/>
   </g>
   <g id="text_32">
    <!-- Nodes = 600 -->
    <g style="fill:#262626;" transform="translate(1616.159572 23.7)scale(0.22 -0.22)">
     <use xlink:href="#Roboto-Thin-4e"/>
     <use x="70.751953" xlink:href="#Roboto-Thin-6f"/>
     <use x="125.78125" xlink:href="#Roboto-Thin-64"/>
     <use x="180.517578" xlink:href="#Roboto-Thin-65"/>
     <use x="230.908203" xlink:href="#Roboto-Thin-73"/>
     <use x="280.664062" xlink:href="#Roboto-Thin-20"/>
     <use x="304.589844" xlink:href="#Roboto-Thin-3d"/>
     <use x="360.351562" xlink:href="#Roboto-Thin-20"/>
     <use x="384.277344" xlink:href="#Roboto-Thin-36"/>
     <use x="439.013672" xlink:href="#Roboto-Thin-30"/>
     <use x="493.75" xlink:href="#Roboto-Thin-30"/>
    </g>
   </g>
   <g id="PathCollection_19">
    <path clip-path="url(#pa4c00e13fd)" d="M 1512.893068 297.49356 
L 1517.893068 287.49356 
L 1507.893068 287.49356 
z
" style="fill:#8172b2;stroke:#8172b2;stroke-width:1.08;"/>
    <path clip-path="url(#pa4c00e13fd)" d="M 1621.958446 254.764593 
L 1626.958446 244.764593 
L 1616.958446 244.764593 
z
" style="fill:#8172b2;stroke:#8172b2;stroke-width:1.08;"/>
    <path clip-path="url(#pa4c00e13fd)" d="M 1731.023824 212.108482 
L 1736.023824 202.108482 
L 1726.023824 202.108482 
z
" style="fill:#8172b2;stroke:#8172b2;stroke-width:1.08;"/>
    <path clip-path="url(#pa4c00e13fd)" d="M 1840.089201 129.599708 
L 1845.089201 119.599708 
L 1835.089201 119.599708 
z
" style="fill:#8172b2;stroke:#8172b2;stroke-width:1.08;"/>
   </g>
   <g id="line2d_163">
    <path clip-path="url(#pa4c00e13fd)" d="M 1512.893068 292.49356 
L 1621.958446 249.764593 
L 1731.023824 207.108482 
L 1840.089201 124.599708 
" style="fill:none;stroke:#8172b2;stroke-linecap:round;stroke-width:1.44;"/>
   </g>
   <g id="line2d_164">
    <path clip-path="url(#pa4c00e13fd)" d="M 1512.893068 292.894113 
L 1512.893068 292.12259 
" style="fill:none;stroke:#8172b2;stroke-linecap:round;stroke-width:1.44;"/>
   </g>
   <g id="line2d_165">
    <path clip-path="url(#pa4c00e13fd)" d="M 1621.958446 250.320769 
L 1621.958446 249.172137 
" style="fill:none;stroke:#8172b2;stroke-linecap:round;stroke-width:1.44;"/>
   </g>
   <g id="line2d_166">
    <path clip-path="url(#pa4c00e13fd)" d="M 1731.023824 207.773405 
L 1731.023824 206.378435 
" style="fill:none;stroke:#8172b2;stroke-linecap:round;stroke-width:1.44;"/>
   </g>
   <g id="line2d_167">
    <path clip-path="url(#pa4c00e13fd)" d="M 1840.089201 125.50043 
L 1840.089201 123.597407 
" style="fill:none;stroke:#8172b2;stroke-linecap:round;stroke-width:1.44;"/>
   </g>
   <g id="PathCollection_20">
    <path clip-path="url(#pa4c00e13fd)" d="M 1507.893068 310.419958 
L 1517.893068 315.419958 
L 1517.893068 305.419958 
z
" style="fill:#ccb974;stroke:#ccb974;stroke-width:1.08;"/>
    <path clip-path="url(#pa4c00e13fd)" d="M 1616.958446 265.855003 
L 1626.958446 270.855003 
L 1626.958446 260.855003 
z
" style="fill:#ccb974;stroke:#ccb974;stroke-width:1.08;"/>
    <path clip-path="url(#pa4c00e13fd)" d="M 1726.023824 225.614266 
L 1736.023824 230.614266 
L 1736.023824 220.614266 
z
" style="fill:#ccb974;stroke:#ccb974;stroke-width:1.08;"/>
    <path clip-path="url(#pa4c00e13fd)" d="M 1835.089201 169.749618 
L 1845.089201 174.749618 
L 1845.089201 164.749618 
z
" style="fill:#ccb974;stroke:#ccb974;stroke-width:1.08;"/>
   </g>
   <g id="line2d_168">
    <path clip-path="url(#pa4c00e13fd)" d="M 1512.893068 310.419958 
L 1621.958446 265.855003 
L 1731.023824 225.614266 
L 1840.089201 169.749618 
" style="fill:none;stroke:#ccb974;stroke-linecap:round;stroke-width:1.44;"/>
   </g>
   <g id="line2d_169">
    <path clip-path="url(#pa4c00e13fd)" d="M 1512.893068 310.631549 
L 1512.893068 310.213027 
" style="fill:none;stroke:#ccb974;stroke-linecap:round;stroke-width:1.44;"/>
   </g>
   <g id="line2d_170">
    <path clip-path="url(#pa4c00e13fd)" d="M 1621.958446 266.211947 
L 1621.958446 265.482097 
" style="fill:none;stroke:#ccb974;stroke-linecap:round;stroke-width:1.44;"/>
   </g>
   <g id="line2d_171">
    <path clip-path="url(#pa4c00e13fd)" d="M 1731.023824 226.210272 
L 1731.023824 225.023896 
" style="fill:none;stroke:#ccb974;stroke-linecap:round;stroke-width:1.44;"/>
   </g>
   <g id="line2d_172">
    <path clip-path="url(#pa4c00e13fd)" d="M 1840.089201 171.090565 
L 1840.089201 168.58011 
" style="fill:none;stroke:#ccb974;stroke-linecap:round;stroke-width:1.44;"/>
   </g>
  </g>
  <g id="legend_1">
   <g id="text_33">
    <!-- Algorithm -->
    <defs>
     <path d="M 47.21875 21.234375 
L 12.40625 21.234375 
L 4.5 0 
L 1.609375 0 
L 28.21875 71.09375 
L 31.453125 71.09375 
L 58.0625 0 
L 55.171875 0 
z
M 13.375 23.875 
L 46.234375 23.875 
L 29.828125 67.921875 
z
" id="Roboto-Thin-41"/>
     <path d="M 46.1875 0 
L 43.5625 0 
L 43.5625 35.5 
Q 43.5 43.453125 40.0625 47.328125 
Q 36.625 51.21875 29.109375 51.21875 
Q 20.40625 51.21875 14.890625 43.5625 
Q 11.625 38.96875 10.546875 33.40625 
L 10.546875 0 
L 7.859375 0 
L 7.859375 52.828125 
L 10.546875 52.828125 
L 10.546875 40.328125 
Q 13.234375 46.78125 18.203125 50.296875 
Q 23.1875 53.8125 29.25 53.8125 
Q 35.890625 53.8125 40.109375 50.875 
Q 44.34375 47.953125 45.65625 41.3125 
Q 48 47.015625 53.265625 50.40625 
Q 58.546875 53.8125 65.09375 53.8125 
Q 73.640625 53.8125 77.8125 48.96875 
Q 81.984375 44.140625 82.03125 34.46875 
L 82.03125 0 
L 79.390625 0 
L 79.390625 34.28125 
Q 79.390625 42.96875 75.890625 47.140625 
Q 72.40625 51.3125 64.9375 51.21875 
Q 55.328125 51.078125 49.703125 43.5625 
Q 46.484375 39.203125 46.1875 35.15625 
z
" id="Roboto-Thin-6d"/>
    </defs>
    <g style="fill:#262626;" transform="translate(1960.894031 157.565461)scale(0.187 -0.187)">
     <use xlink:href="#Roboto-Thin-41"/>
     <use x="59.716797" xlink:href="#Roboto-Thin-6c"/>
     <use x="80.322266" xlink:href="#Roboto-Thin-67"/>
     <use x="135.15625" xlink:href="#Roboto-Thin-6f"/>
     <use x="190.185547" xlink:href="#Roboto-Thin-72"/>
     <use x="223.632812" xlink:href="#Roboto-Thin-69"/>
     <use x="244.238281" xlink:href="#Roboto-Thin-74"/>
     <use x="275.878906" xlink:href="#Roboto-Thin-68"/>
     <use x="330.615234" xlink:href="#Roboto-Thin-6d"/>
    </g>
   </g>
   <g id="PathCollection_21">
    <path d="M 1930.926265 186.712294 
C 1932.362159 186.712294 1933.739436 186.141807 1934.754766 185.126477 
C 1935.770096 184.111147 1936.340583 182.73387 1936.340583 181.297977 
C 1936.340583 179.862083 1935.770096 178.484806 1934.754766 177.469476 
C 1933.739436 176.454146 1932.362159 175.883659 1930.926265 175.883659 
C 1929.490372 175.883659 1928.113095 176.454146 1927.097765 177.469476 
C 1926.082435 178.484806 1925.511948 179.862083 1925.511948 181.297977 
C 1925.511948 182.73387 1926.082435 184.111147 1927.097765 185.126477 
C 1928.113095 186.141807 1929.490372 186.712294 1930.926265 186.712294 
z
" style="fill:#4c72b0;stroke:#4c72b0;stroke-width:1.08;"/>
   </g>
   <g id="text_34">
    <!-- Epidemic -->
    <defs>
     <path d="M 48.046875 35.25 
L 12.40625 35.25 
L 12.40625 2.640625 
L 53.03125 2.640625 
L 53.03125 0 
L 9.765625 0 
L 9.765625 71.09375 
L 53.03125 71.09375 
L 53.03125 68.453125 
L 12.40625 68.453125 
L 12.40625 37.890625 
L 48.046875 37.890625 
z
" id="Roboto-Thin-45"/>
     <path d="M 48.78125 25.921875 
Q 48.78125 13.578125 43.453125 6.296875 
Q 38.140625 -0.984375 28.953125 -0.984375 
Q 22.953125 -0.984375 18.265625 1.453125 
Q 13.578125 3.90625 10.9375 8.203125 
L 10.9375 -20.3125 
L 8.296875 -20.3125 
L 8.296875 52.828125 
L 10.9375 52.828125 
L 10.9375 43.40625 
Q 13.671875 48.4375 18.3125 51.125 
Q 22.953125 53.8125 28.859375 53.8125 
Q 38.140625 53.8125 43.453125 46.703125 
Q 48.78125 39.59375 48.78125 26.765625 
z
M 46.09375 26.953125 
Q 46.09375 38.328125 41.578125 44.75 
Q 37.0625 51.171875 28.90625 51.171875 
Q 22.265625 51.171875 17.625 47.71875 
Q 12.984375 44.28125 10.9375 37.84375 
L 10.9375 13.140625 
Q 12.984375 7.671875 17.640625 4.65625 
Q 22.3125 1.65625 29 1.65625 
Q 37.109375 1.65625 41.59375 8.09375 
Q 46.09375 14.546875 46.09375 26.953125 
z
" id="Roboto-Thin-70"/>
    </defs>
    <g style="fill:#262626;" transform="translate(1966.926265 186.547977)scale(0.2 -0.2)">
     <use xlink:href="#Roboto-Thin-45"/>
     <use x="56.933594" xlink:href="#Roboto-Thin-70"/>
     <use x="111.669922" xlink:href="#Roboto-Thin-69"/>
     <use x="132.275391" xlink:href="#Roboto-Thin-64"/>
     <use x="187.011719" xlink:href="#Roboto-Thin-65"/>
     <use x="237.402344" xlink:href="#Roboto-Thin-6d"/>
     <use x="327.050781" xlink:href="#Roboto-Thin-69"/>
     <use x="347.65625" xlink:href="#Roboto-Thin-63"/>
    </g>
   </g>
   <g id="PathCollection_22">
    <path d="M 1925.511948 215.774794 
L 1936.340583 215.774794 
L 1936.340583 204.946159 
L 1925.511948 204.946159 
z
" style="fill:#55a868;stroke:#55a868;stroke-width:1.08;"/>
   </g>
   <g id="text_35">
    <!-- SprayAndWait -->
    <defs>
     <path d="M 52.34375 17.046875 
Q 52.34375 21.578125 50.21875 24.71875 
Q 48.09375 27.875 43.53125 30.296875 
Q 38.96875 32.71875 29.734375 35.25 
Q 20.515625 37.796875 15.890625 40.375 
Q 11.28125 42.96875 9.125 46.390625 
Q 6.984375 49.8125 6.984375 54.6875 
Q 6.984375 62.453125 13.515625 67.265625 
Q 20.0625 72.078125 30.5625 72.078125 
Q 37.40625 72.078125 42.84375 69.40625 
Q 48.296875 66.75 51.265625 61.9375 
Q 54.25 57.125 54.25 51.078125 
L 51.609375 51.078125 
Q 51.609375 59.03125 45.75 64.234375 
Q 39.890625 69.4375 30.5625 69.4375 
Q 21.1875 69.4375 15.40625 65.25 
Q 9.625 61.078125 9.625 54.78125 
Q 9.625 48.390625 14.640625 44.484375 
Q 19.671875 40.578125 31.25 37.578125 
Q 42.828125 34.578125 48.1875 30.609375 
Q 55.03125 25.59375 55.03125 17.140625 
Q 55.03125 11.765625 52 7.640625 
Q 48.96875 3.515625 43.40625 1.265625 
Q 37.84375 -0.984375 30.90625 -0.984375 
Q 23.1875 -0.984375 17.03125 1.578125 
Q 10.890625 4.15625 7.78125 8.890625 
Q 4.6875 13.625 4.6875 20.0625 
L 7.328125 20.0625 
Q 7.328125 11.328125 13.859375 6.484375 
Q 20.40625 1.65625 30.90625 1.65625 
Q 40.234375 1.65625 46.28125 5.921875 
Q 52.34375 10.203125 52.34375 17.046875 
z
" id="Roboto-Thin-53"/>
     <path d="M 24.5625 4.109375 
L 24.90625 5.078125 
L 43.171875 52.828125 
L 46.09375 52.828125 
L 22.46875 -9.1875 
L 21.296875 -12.109375 
Q 17.484375 -21.34375 8.6875 -21.34375 
Q 5.859375 -21.34375 4.78125 -20.796875 
L 4.734375 -18.3125 
Q 6.296875 -18.75 8.296875 -18.75 
Q 12.453125 -18.75 15.1875 -16.328125 
Q 17.921875 -13.921875 19.921875 -8.453125 
L 23.140625 0.296875 
L 2.09375 52.828125 
L 4.984375 52.828125 
z
" id="Roboto-Thin-79"/>
     <path d="M 23.875 4.390625 
L 27.09375 16.109375 
L 43.890625 71.09375 
L 46.828125 71.09375 
L 63.53125 16.109375 
L 66.703125 4.390625 
L 70.015625 16.109375 
L 84.671875 71.09375 
L 87.546875 71.09375 
L 68.40625 0 
L 65.4375 0 
L 47.796875 59.28125 
L 45.3125 66.796875 
L 42.921875 59.28125 
L 25.140625 0 
L 22.171875 0 
L 2.984375 71.09375 
L 5.90625 71.09375 
L 20.65625 16.109375 
z
" id="Roboto-Thin-57"/>
    </defs>
    <g style="fill:#262626;" transform="translate(1966.926265 215.610477)scale(0.2 -0.2)">
     <use xlink:href="#Roboto-Thin-53"/>
     <use x="59.130859" xlink:href="#Roboto-Thin-70"/>
     <use x="113.867188" xlink:href="#Roboto-Thin-72"/>
     <use x="147.314453" xlink:href="#Roboto-Thin-61"/>
     <use x="200.097656" xlink:href="#Roboto-Thin-79"/>
     <use x="247.851562" xlink:href="#Roboto-Thin-41"/>
     <use x="307.568359" xlink:href="#Roboto-Thin-6e"/>
     <use x="362.304688" xlink:href="#Roboto-Thin-64"/>
     <use x="417.041016" xlink:href="#Roboto-Thin-57"/>
     <use x="507.617188" xlink:href="#Roboto-Thin-61"/>
     <use x="560.400391" xlink:href="#Roboto-Thin-69"/>
     <use x="581.005859" xlink:href="#Roboto-Thin-74"/>
    </g>
   </g>
   <g id="PathCollection_23">
    <path d="M 1930.926265 234.214909 
L 1925.511948 245.043544 
L 1936.340583 245.043544 
z
" style="fill:#c44e52;stroke:#c44e52;stroke-width:1.08;"/>
   </g>
   <g id="text_36">
    <!-- Prophet -->
    <defs>
     <path d="M 12.40625 30.03125 
L 12.40625 0 
L 9.765625 0 
L 9.765625 71.09375 
L 31.984375 71.09375 
Q 42.875 71.09375 48.90625 65.59375 
Q 54.9375 60.109375 54.9375 50.34375 
Q 54.9375 40.671875 49.046875 35.390625 
Q 43.171875 30.125 32.328125 30.03125 
z
M 12.40625 32.671875 
L 31.984375 32.671875 
Q 41.609375 32.671875 46.953125 37.296875 
Q 52.296875 41.9375 52.296875 50.25 
Q 52.296875 58.84375 46.953125 63.640625 
Q 41.609375 68.453125 31.984375 68.453125 
L 12.40625 68.453125 
z
" id="Roboto-Thin-50"/>
    </defs>
    <g style="fill:#262626;" transform="translate(1966.926265 244.879227)scale(0.2 -0.2)">
     <use xlink:href="#Roboto-Thin-50"/>
     <use x="60.058594" xlink:href="#Roboto-Thin-72"/>
     <use x="93.505859" xlink:href="#Roboto-Thin-6f"/>
     <use x="148.535156" xlink:href="#Roboto-Thin-70"/>
     <use x="203.271484" xlink:href="#Roboto-Thin-68"/>
     <use x="258.007812" xlink:href="#Roboto-Thin-65"/>
     <use x="308.398438" xlink:href="#Roboto-Thin-74"/>
    </g>
   </g>
   <g id="PathCollection_24">
    <path d="M 1930.926265 274.106044 
L 1936.340583 263.277409 
L 1925.511948 263.277409 
z
" style="fill:#8172b2;stroke:#8172b2;stroke-width:1.08;"/>
   </g>
   <g id="text_37">
    <!-- Seer -->
    <g style="fill:#262626;" transform="translate(1966.926265 273.941727)scale(0.2 -0.2)">
     <use xlink:href="#Roboto-Thin-53"/>
     <use x="59.130859" xlink:href="#Roboto-Thin-65"/>
     <use x="109.521484" xlink:href="#Roboto-Thin-65"/>
     <use x="159.912109" xlink:href="#Roboto-Thin-72"/>
    </g>
   </g>
   <g id="PathCollection_25">
    <path d="M 1925.511948 297.754227 
L 1936.340583 303.168544 
L 1936.340583 292.339909 
z
" style="fill:#ccb974;stroke:#ccb974;stroke-width:1.08;"/>
   </g>
   <g id="text_38">
    <!-- BFGMP -->
    <defs>
     <path d="M 9.765625 0 
L 9.765625 71.09375 
L 28.46875 71.09375 
Q 39.9375 71.09375 45.8125 66.421875 
Q 51.703125 61.765625 51.703125 52.875 
Q 51.703125 46.4375 48.4375 42.1875 
Q 45.171875 37.9375 39.203125 36.765625 
Q 45.953125 35.890625 50.4375 30.9375 
Q 54.9375 25.984375 54.9375 19.578125 
Q 54.9375 10.5 49.046875 5.25 
Q 43.171875 0 32.671875 0 
z
M 12.40625 35.109375 
L 12.40625 2.640625 
L 32.953125 2.640625 
Q 42 2.640625 47.140625 7.109375 
Q 52.296875 11.578125 52.296875 19.484375 
Q 52.296875 26.21875 47.3125 30.59375 
Q 42.328125 34.96875 33.984375 35.109375 
z
M 12.40625 37.75 
L 29.4375 37.75 
Q 39.15625 37.75 44.09375 41.484375 
Q 49.03125 45.21875 49.03125 53.078125 
Q 49.03125 68.21875 29.046875 68.453125 
L 12.40625 68.453125 
z
" id="Roboto-Thin-42"/>
     <path d="M 48.828125 34.96875 
L 12.40625 34.96875 
L 12.40625 0 
L 9.765625 0 
L 9.765625 71.09375 
L 53.8125 71.09375 
L 53.8125 68.453125 
L 12.40625 68.453125 
L 12.40625 37.703125 
L 48.828125 37.703125 
z
" id="Roboto-Thin-46"/>
     <path d="M 59.859375 7.625 
Q 57.171875 3.90625 50.4375 1.453125 
Q 43.703125 -0.984375 35.59375 -0.984375 
Q 27.6875 -0.984375 21.484375 2.875 
Q 15.28125 6.734375 11.78125 13.765625 
Q 8.296875 20.796875 8.203125 29.6875 
L 8.203125 41.890625 
Q 8.203125 50.640625 11.5625 57.5625 
Q 14.9375 64.5 21.046875 68.28125 
Q 27.15625 72.078125 34.765625 72.078125 
Q 45.359375 72.078125 52.015625 66.65625 
Q 58.6875 61.234375 59.765625 51.859375 
L 57.125 51.859375 
Q 55.8125 60.359375 50.046875 64.890625 
Q 44.28125 69.4375 34.765625 69.4375 
Q 24.03125 69.4375 17.4375 61.765625 
Q 10.84375 54.109375 10.84375 41.609375 
L 10.84375 30.28125 
Q 10.84375 21.921875 13.9375 15.375 
Q 17.046875 8.84375 22.6875 5.25 
Q 28.328125 1.65625 35.59375 1.65625 
Q 42.71875 1.65625 48.828125 3.75 
Q 54.9375 5.859375 57.234375 8.84375 
L 57.234375 29.546875 
L 35.5 29.546875 
L 35.5 32.234375 
L 59.859375 32.234375 
z
" id="Roboto-Thin-47"/>
    </defs>
    <g style="fill:#262626;" transform="translate(1966.926265 303.004227)scale(0.2 -0.2)">
     <use xlink:href="#Roboto-Thin-42"/>
     <use x="60.302734" xlink:href="#Roboto-Thin-46"/>
     <use x="117.529297" xlink:href="#Roboto-Thin-47"/>
     <use x="186.181641" xlink:href="#Roboto-Thin-4d"/>
     <use x="271.923828" xlink:href="#Roboto-Thin-50"/>
    </g>
   </g>
  </g>
 </g>
 <defs>
  <clipPath id="pd67f04fc86">
   <rect height="361.16" width="436.261512" x="72.009375" y="29.7"/>
  </clipPath>
  <clipPath id="p1eb4cc070e">
   <rect height="361.16" width="436.261512" x="534.126376" y="29.7"/>
  </clipPath>
  <clipPath id="p0d78f96d50">
   <rect height="361.16" width="436.261512" x="996.243378" y="29.7"/>
  </clipPath>
  <clipPath id="pa4c00e13fd">
   <rect height="361.16" width="436.261512" x="1458.360379" y="29.7"/>
  </clipPath>
 </defs>
</svg>
