<?xml version="1.0" encoding="utf-8" standalone="no"?>
<!DOCTYPE svg PUBLIC "-//W3C//DTD SVG 1.1//EN"
  "http://www.w3.org/Graphics/SVG/1.1/DTD/svg11.dtd">
<!-- Created with matplotlib (http://matplotlib.org/) -->
<svg height="450pt" version="1.1" viewBox="0 0 1618 450" width="1618pt" xmlns="http://www.w3.org/2000/svg" xmlns:xlink="http://www.w3.org/1999/xlink">
 <defs>
  <style type="text/css">
*{stroke-linecap:butt;stroke-linejoin:round;}
  </style>
 </defs>
 <g id="figure_1">
  <g id="patch_1">
   <path d="M 0 450.02625 
L 1618.426062 450.02625 
L 1618.426062 0 
L 0 0 
z
" style="fill:#ffffff;"/>
  </g>
  <g id="axes_1">
   <g id="patch_2">
    <path d="M 72.009375 391.795 
L 500.912429 391.795 
L 500.912429 30.635 
L 72.009375 30.635 
z
" style="fill:#ffffff;"/>
   </g>
   <g id="matplotlib.axis_1">
    <g id="xtick_1">
     <g id="line2d_1"/>
     <g id="text_1">
      <!-- 100 -->
      <defs>
       <path d="M 32.171875 0 
L 29.546875 0 
L 29.546875 67.78125 
L 9.125 60.109375 
L 9.125 62.984375 
L 31.640625 71.296875 
L 32.171875 71.296875 
z
" id="Roboto-Thin-31"/>
       <path d="M 48.640625 29 
Q 48.640625 14.703125 43.0625 6.859375 
Q 37.5 -0.984375 27.4375 -0.984375 
Q 17.4375 -0.984375 11.765625 6.921875 
Q 6.109375 14.84375 6.109375 29.203125 
L 6.109375 42.09375 
Q 6.109375 56.25 11.6875 64.1875 
Q 17.28125 72.125 27.34375 72.125 
Q 37.453125 72.125 43.046875 64.1875 
Q 48.640625 56.25 48.640625 41.890625 
z
M 46 42.09375 
Q 46 55.03125 41.140625 62.25 
Q 36.28125 69.484375 27.34375 69.484375 
Q 18.359375 69.484375 13.546875 62.234375 
Q 8.734375 54.984375 8.734375 41.84375 
L 8.734375 29.109375 
Q 8.734375 16.21875 13.671875 8.9375 
Q 18.609375 1.65625 27.4375 1.65625 
Q 36.328125 1.65625 41.15625 8.9375 
Q 46 16.21875 46 29.34375 
z
" id="Roboto-Thin-30"/>
      </defs>
      <g style="fill:#262626;" transform="translate(109.201944 413.795)scale(0.2 -0.2)">
       <use xlink:href="#Roboto-Thin-31"/>
       <use x="54.736328" xlink:href="#Roboto-Thin-30"/>
       <use x="109.472656" xlink:href="#Roboto-Thin-30"/>
      </g>
     </g>
    </g>
    <g id="xtick_2">
     <g id="line2d_2"/>
     <g id="text_2">
      <!-- 200 -->
      <defs>
       <path d="M 50 0 
L 7.46875 0 
L 7.46875 2.640625 
L 31.734375 30.609375 
Q 37.703125 37.59375 40.59375 43.015625 
Q 43.5 48.4375 43.5 52.984375 
Q 43.5 60.796875 38.953125 65.109375 
Q 34.421875 69.4375 26.171875 69.4375 
Q 21.1875 69.4375 17.078125 67.046875 
Q 12.984375 64.65625 10.65625 60.421875 
Q 8.34375 56.203125 8.34375 51.03125 
L 5.71875 51.03125 
Q 5.71875 56.734375 8.34375 61.609375 
Q 10.984375 66.5 15.671875 69.28125 
Q 20.359375 72.078125 26.171875 72.078125 
Q 35.640625 72.078125 40.90625 67.046875 
Q 46.1875 62.015625 46.1875 52.984375 
Q 46.1875 44.671875 36.859375 33.109375 
L 32.421875 27.6875 
L 10.9375 2.640625 
L 50 2.640625 
z
" id="Roboto-Thin-32"/>
      </defs>
      <g style="fill:#262626;" transform="translate(216.427708 413.795)scale(0.2 -0.2)">
       <use xlink:href="#Roboto-Thin-32"/>
       <use x="54.736328" xlink:href="#Roboto-Thin-30"/>
       <use x="109.472656" xlink:href="#Roboto-Thin-30"/>
      </g>
     </g>
    </g>
    <g id="xtick_3">
     <g id="line2d_3"/>
     <g id="text_3">
      <!-- 400 -->
      <defs>
       <path d="M 41.109375 22.015625 
L 53.421875 22.015625 
L 53.421875 19.390625 
L 41.109375 19.390625 
L 41.109375 0 
L 38.484375 0 
L 38.484375 19.390625 
L 4 19.390625 
L 4 20.84375 
L 37.9375 71.09375 
L 41.109375 71.09375 
z
M 8.109375 22.015625 
L 38.484375 22.015625 
L 38.484375 67.921875 
L 34.375 61.1875 
z
" id="Roboto-Thin-34"/>
      </defs>
      <g style="fill:#262626;" transform="translate(323.653471 413.795)scale(0.2 -0.2)">
       <use xlink:href="#Roboto-Thin-34"/>
       <use x="54.736328" xlink:href="#Roboto-Thin-30"/>
       <use x="109.472656" xlink:href="#Roboto-Thin-30"/>
      </g>
     </g>
    </g>
    <g id="xtick_4">
     <g id="line2d_4"/>
     <g id="text_4">
      <!-- 600 -->
      <defs>
       <path d="M 41.015625 72.078125 
L 41.015625 69.4375 
Q 26.078125 69.4375 17.828125 60.59375 
Q 9.578125 51.765625 8.9375 35.796875 
Q 11.765625 40.828125 17.140625 43.78125 
Q 22.515625 46.734375 28.90625 46.734375 
Q 38.28125 46.734375 43.875 40.328125 
Q 49.46875 33.9375 49.46875 23.4375 
Q 49.46875 16.65625 46.921875 11.03125 
Q 44.390625 5.421875 39.75 2.21875 
Q 35.109375 -0.984375 29.390625 -0.984375 
Q 22.859375 -0.984375 17.578125 2.046875 
Q 12.3125 5.078125 9.328125 10.6875 
Q 6.34375 16.3125 6.25 23.484375 
L 6.25 32.234375 
Q 6.25 51.171875 15.1875 61.625 
Q 24.125 72.078125 41.015625 72.078125 
z
M 28.5625 44.09375 
Q 21.734375 44.09375 16.046875 40.15625 
Q 10.359375 36.234375 8.890625 30.328125 
L 8.890625 24.078125 
Q 8.890625 14.015625 14.59375 7.8125 
Q 20.3125 1.609375 29.390625 1.609375 
Q 36.96875 1.609375 41.890625 7.9375 
Q 46.828125 14.265625 46.828125 23.4375 
Q 46.828125 32.90625 41.9375 38.5 
Q 37.0625 44.09375 28.5625 44.09375 
z
" id="Roboto-Thin-36"/>
      </defs>
      <g style="fill:#262626;" transform="translate(430.879235 413.795)scale(0.2 -0.2)">
       <use xlink:href="#Roboto-Thin-36"/>
       <use x="54.736328" xlink:href="#Roboto-Thin-30"/>
       <use x="109.472656" xlink:href="#Roboto-Thin-30"/>
      </g>
     </g>
    </g>
    <g id="text_5">
     <!-- Nodes -->
     <defs>
      <path d="M 60.984375 0 
L 58.34375 0 
L 12.453125 66.609375 
L 12.453125 0 
L 9.765625 0 
L 9.765625 71.09375 
L 12.453125 71.09375 
L 58.34375 4.640625 
L 58.34375 71.09375 
L 60.984375 71.09375 
z
" id="Roboto-Thin-4e"/>
      <path d="M 4.390625 27.4375 
Q 4.390625 35.015625 7.296875 41.046875 
Q 10.203125 47.078125 15.5 50.4375 
Q 20.796875 53.8125 27.484375 53.8125 
Q 34.125 53.8125 39.390625 50.53125 
Q 44.671875 47.265625 47.625 41.25 
Q 50.59375 35.25 50.640625 27.734375 
L 50.640625 25.390625 
Q 50.640625 17.78125 47.75 11.765625 
Q 44.875 5.765625 39.578125 2.390625 
Q 34.28125 -0.984375 27.59375 -0.984375 
Q 20.90625 -0.984375 15.59375 2.34375 
Q 10.296875 5.671875 7.359375 11.640625 
Q 4.4375 17.625 4.390625 25.09375 
z
M 7.03125 25.390625 
Q 7.03125 18.796875 9.640625 13.296875 
Q 12.25 7.8125 16.90625 4.734375 
Q 21.578125 1.65625 27.59375 1.65625 
Q 36.625 1.65625 42.3125 8.4375 
Q 48 15.234375 48 25.921875 
L 48 27.4375 
Q 48 33.9375 45.359375 39.453125 
Q 42.71875 44.96875 38.0625 48.0625 
Q 33.40625 51.171875 27.484375 51.171875 
Q 18.453125 51.171875 12.734375 44.28125 
Q 7.03125 37.40625 7.03125 26.953125 
z
" id="Roboto-Thin-6f"/>
      <path d="M 5.953125 26.953125 
Q 5.953125 39.59375 11.28125 46.703125 
Q 16.609375 53.8125 25.875 53.8125 
Q 31.84375 53.8125 36.40625 51.125 
Q 40.96875 48.4375 43.796875 43.109375 
L 43.796875 75 
L 46.4375 75 
L 46.4375 0 
L 43.796875 0 
L 43.796875 8.453125 
Q 41.109375 3.953125 36.421875 1.484375 
Q 31.734375 -0.984375 25.78125 -0.984375 
Q 16.609375 -0.984375 11.28125 6.296875 
Q 5.953125 13.578125 5.953125 26.265625 
z
M 8.6875 25.921875 
Q 8.6875 14.703125 13.125 8.171875 
Q 17.578125 1.65625 25.734375 1.65625 
Q 32.28125 1.65625 36.90625 4.5625 
Q 41.546875 7.46875 43.796875 13.09375 
L 43.796875 37.84375 
Q 39.265625 51.171875 25.828125 51.171875 
Q 17.71875 51.171875 13.203125 44.765625 
Q 8.6875 38.375 8.6875 25.921875 
z
" id="Roboto-Thin-64"/>
      <path d="M 27.390625 -0.984375 
Q 21 -0.984375 15.640625 2.453125 
Q 10.296875 5.90625 7.265625 11.90625 
Q 4.25 17.921875 4.25 25.25 
L 4.25 27.4375 
Q 4.25 34.765625 7.171875 40.859375 
Q 10.109375 46.96875 15.234375 50.390625 
Q 20.359375 53.8125 26.421875 53.8125 
Q 35.25 53.8125 40.859375 47.515625 
Q 46.484375 41.21875 46.484375 30.953125 
L 46.484375 28.171875 
L 6.890625 28.171875 
L 6.890625 25.296875 
Q 6.890625 18.84375 9.59375 13.34375 
Q 12.3125 7.859375 17.0625 4.734375 
Q 21.828125 1.609375 27.390625 1.609375 
Q 32.71875 1.609375 36.453125 3.390625 
Q 40.1875 5.171875 43.0625 8.890625 
L 44.921875 7.5625 
Q 39.015625 -0.984375 27.390625 -0.984375 
z
M 26.421875 51.171875 
Q 18.703125 51.171875 13.328125 45.4375 
Q 7.953125 39.703125 7.03125 30.8125 
L 43.84375 30.8125 
L 43.84375 31.453125 
Q 43.84375 36.8125 41.578125 41.421875 
Q 39.3125 46.046875 35.328125 48.609375 
Q 31.34375 51.171875 26.421875 51.171875 
z
" id="Roboto-Thin-65"/>
      <path d="M 40.96875 12.9375 
Q 40.96875 22.5625 24.5625 26.03125 
Q 14.703125 28.125 10.84375 31.421875 
Q 6.984375 34.71875 6.984375 40.484375 
Q 6.984375 46.296875 11.890625 50.046875 
Q 16.796875 53.8125 24.65625 53.8125 
Q 33.203125 53.8125 38.375 49.734375 
Q 43.5625 45.65625 43.5625 38.71875 
L 40.875 38.71875 
Q 40.875 44.046875 36.375 47.609375 
Q 31.890625 51.171875 24.65625 51.171875 
Q 17.71875 51.171875 13.671875 48.140625 
Q 9.625 45.125 9.625 40.578125 
Q 9.625 37.015625 11.125 34.984375 
Q 12.640625 32.953125 16.0625 31.3125 
Q 19.484375 29.6875 26.015625 28.171875 
Q 32.5625 26.65625 36.375 24.609375 
Q 40.1875 22.5625 41.890625 19.75 
Q 43.609375 16.9375 43.609375 12.890625 
Q 43.609375 6.640625 38.46875 2.828125 
Q 33.34375 -0.984375 25.046875 -0.984375 
Q 16.15625 -0.984375 10.71875 3.046875 
Q 5.28125 7.078125 5.28125 13.421875 
L 7.90625 13.421875 
Q 8.296875 7.859375 12.8125 4.75 
Q 17.328125 1.65625 25.046875 1.65625 
Q 32.125 1.65625 36.546875 4.953125 
Q 40.96875 8.25 40.96875 12.9375 
z
" id="Roboto-Thin-73"/>
     </defs>
     <g style="fill:#262626;" transform="translate(255.588714 438.3575)scale(0.22 -0.22)">
      <use xlink:href="#Roboto-Thin-4e"/>
      <use x="70.751953" xlink:href="#Roboto-Thin-6f"/>
      <use x="125.78125" xlink:href="#Roboto-Thin-64"/>
      <use x="180.517578" xlink:href="#Roboto-Thin-65"/>
      <use x="230.908203" xlink:href="#Roboto-Thin-73"/>
     </g>
    </g>
   </g>
   <g id="matplotlib.axis_2">
    <g id="ytick_1">
     <g id="line2d_5">
      <path clip-path="url(#ped6c82b94d)" d="M 72.009375 377.13941 
L 500.912429 377.13941 
" style="fill:none;stroke:#cccccc;stroke-linecap:round;"/>
     </g>
     <g id="line2d_6"/>
     <g id="text_6">
      <!-- 0 -->
      <g style="fill:#262626;" transform="translate(54.0625 384.63941)scale(0.2 -0.2)">
       <use xlink:href="#Roboto-Thin-30"/>
      </g>
     </g>
    </g>
    <g id="ytick_2">
     <g id="line2d_7">
      <path clip-path="url(#ped6c82b94d)" d="M 72.009375 300.618398 
L 500.912429 300.618398 
" style="fill:none;stroke:#cccccc;stroke-linecap:round;"/>
     </g>
     <g id="line2d_8"/>
     <g id="text_7">
      <!-- 200 -->
      <g style="fill:#262626;" transform="translate(32.16875 308.118398)scale(0.2 -0.2)">
       <use xlink:href="#Roboto-Thin-32"/>
       <use x="54.736328" xlink:href="#Roboto-Thin-30"/>
       <use x="109.472656" xlink:href="#Roboto-Thin-30"/>
      </g>
     </g>
    </g>
    <g id="ytick_3">
     <g id="line2d_9">
      <path clip-path="url(#ped6c82b94d)" d="M 72.009375 224.097386 
L 500.912429 224.097386 
" style="fill:none;stroke:#cccccc;stroke-linecap:round;"/>
     </g>
     <g id="line2d_10"/>
     <g id="text_8">
      <!-- 400 -->
      <g style="fill:#262626;" transform="translate(32.16875 231.597386)scale(0.2 -0.2)">
       <use xlink:href="#Roboto-Thin-34"/>
       <use x="54.736328" xlink:href="#Roboto-Thin-30"/>
       <use x="109.472656" xlink:href="#Roboto-Thin-30"/>
      </g>
     </g>
    </g>
    <g id="ytick_4">
     <g id="line2d_11">
      <path clip-path="url(#ped6c82b94d)" d="M 72.009375 147.576375 
L 500.912429 147.576375 
" style="fill:none;stroke:#cccccc;stroke-linecap:round;"/>
     </g>
     <g id="line2d_12"/>
     <g id="text_9">
      <!-- 600 -->
      <g style="fill:#262626;" transform="translate(32.16875 155.076375)scale(0.2 -0.2)">
       <use xlink:href="#Roboto-Thin-36"/>
       <use x="54.736328" xlink:href="#Roboto-Thin-30"/>
       <use x="109.472656" xlink:href="#Roboto-Thin-30"/>
      </g>
     </g>
    </g>
    <g id="ytick_5">
     <g id="line2d_13">
      <path clip-path="url(#ped6c82b94d)" d="M 72.009375 71.055363 
L 500.912429 71.055363 
" style="fill:none;stroke:#cccccc;stroke-linecap:round;"/>
     </g>
     <g id="line2d_14"/>
     <g id="text_10">
      <!-- 800 -->
      <defs>
       <path d="M 48.140625 53.03125 
Q 48.140625 47.078125 44.453125 42.609375 
Q 40.765625 38.140625 34.90625 36.375 
Q 41.890625 34.515625 46.046875 29.625 
Q 50.203125 24.75 50.203125 18.5 
Q 50.203125 9.46875 44.015625 4.234375 
Q 37.84375 -0.984375 27.59375 -0.984375 
Q 17.140625 -0.984375 11.015625 4.234375 
Q 4.890625 9.46875 4.890625 18.5 
Q 4.890625 24.8125 8.90625 29.65625 
Q 12.9375 34.515625 19.921875 36.375 
Q 14.0625 38.140625 10.46875 42.609375 
Q 6.890625 47.078125 6.890625 53.03125 
Q 6.890625 61.8125 12.53125 66.9375 
Q 18.171875 72.078125 27.390625 72.078125 
Q 36.671875 72.078125 42.40625 66.84375 
Q 48.140625 61.625 48.140625 53.03125 
z
M 47.515625 18.265625 
Q 47.515625 25.59375 41.890625 30.328125 
Q 36.28125 35.0625 27.484375 35.0625 
Q 18.65625 35.0625 13.078125 30.34375 
Q 7.515625 25.640625 7.515625 18.265625 
Q 7.515625 10.75 12.953125 6.203125 
Q 18.40625 1.65625 27.59375 1.65625 
Q 36.578125 1.65625 42.046875 6.21875 
Q 47.515625 10.796875 47.515625 18.265625 
z
M 45.515625 53.265625 
Q 45.515625 60.203125 40.28125 64.8125 
Q 35.0625 69.4375 27.390625 69.4375 
Q 19.53125 69.4375 14.515625 64.984375 
Q 9.515625 60.546875 9.515625 53.265625 
Q 9.515625 46.34375 14.5 42.015625 
Q 19.484375 37.703125 27.484375 37.703125 
Q 35.40625 37.703125 40.453125 42.0625 
Q 45.515625 46.4375 45.515625 53.265625 
z
" id="Roboto-Thin-38"/>
      </defs>
      <g style="fill:#262626;" transform="translate(32.16875 78.555363)scale(0.2 -0.2)">
       <use xlink:href="#Roboto-Thin-38"/>
       <use x="54.736328" xlink:href="#Roboto-Thin-30"/>
       <use x="109.472656" xlink:href="#Roboto-Thin-30"/>
      </g>
     </g>
    </g>
    <g id="text_11">
     <!-- Overhead ratio -->
     <defs>
      <path d="M 60.109375 30.21875 
Q 60.109375 21 56.8125 13.890625 
Q 53.515625 6.78125 47.40625 2.890625 
Q 41.3125 -0.984375 33.34375 -0.984375 
Q 21.34375 -0.984375 13.921875 7.5625 
Q 6.5 16.109375 6.5 30.609375 
L 6.5 40.875 
Q 6.5 50.046875 9.796875 57.171875 
Q 13.09375 64.3125 19.21875 68.1875 
Q 25.34375 72.078125 33.25 72.078125 
Q 41.21875 72.078125 47.34375 68.1875 
Q 53.46875 64.3125 56.78125 57.15625 
Q 60.109375 50 60.109375 40.875 
z
M 57.46875 40.96875 
Q 57.46875 53.859375 50.921875 61.640625 
Q 44.390625 69.4375 33.25 69.4375 
Q 22.265625 69.4375 15.71875 61.6875 
Q 9.1875 53.953125 9.1875 40.625 
L 9.1875 30.21875 
Q 9.1875 21.734375 12.140625 15.203125 
Q 15.09375 8.6875 20.5625 5.171875 
Q 26.03125 1.65625 33.34375 1.65625 
Q 44.484375 1.65625 50.96875 9.421875 
Q 57.46875 17.1875 57.46875 30.609375 
z
" id="Roboto-Thin-4f"/>
      <path d="M 23.921875 4.203125 
L 42.921875 52.828125 
L 45.75 52.828125 
L 25.203125 0 
L 22.609375 0 
L 2.09375 52.828125 
L 4.9375 52.828125 
z
" id="Roboto-Thin-76"/>
      <path d="M 31.6875 50.921875 
L 28.265625 51.21875 
Q 21.53125 51.21875 16.984375 46.84375 
Q 12.453125 42.484375 11.03125 34.625 
L 11.03125 0 
L 8.40625 0 
L 8.40625 52.828125 
L 11.03125 52.828125 
L 11.03125 41.84375 
Q 13.1875 47.359375 17.484375 50.578125 
Q 21.78125 53.8125 28.265625 53.8125 
Q 30.5625 53.8125 31.984375 53.265625 
z
" id="Roboto-Thin-72"/>
      <path d="M 11.03125 40.53125 
Q 13.625 46.6875 18.65625 50.25 
Q 23.6875 53.8125 29.78125 53.8125 
Q 38.28125 53.8125 42.40625 49 
Q 46.53125 44.1875 46.578125 34.46875 
L 46.578125 0 
L 43.953125 0 
L 43.953125 34.578125 
Q 43.890625 43.0625 40.46875 47.140625 
Q 37.0625 51.21875 29.640625 51.21875 
Q 22.796875 51.21875 17.796875 46.359375 
Q 12.796875 41.5 11.03125 33.84375 
L 11.03125 0 
L 8.40625 0 
L 8.40625 75 
L 11.03125 75 
z
" id="Roboto-Thin-68"/>
      <path d="M 42.53125 0 
Q 41.546875 3.375 41.546875 9.671875 
Q 38.421875 4.59375 33 1.796875 
Q 27.59375 -0.984375 20.75 -0.984375 
Q 13.421875 -0.984375 8.953125 3 
Q 4.5 6.984375 4.5 13.375 
Q 4.5 20.65625 11.0625 25.015625 
Q 17.625 29.390625 28.515625 29.5 
L 41.546875 29.5 
L 41.546875 37.203125 
Q 41.546875 43.84375 37.375 47.5 
Q 33.203125 51.171875 25.4375 51.171875 
Q 18.21875 51.171875 13.375 47.453125 
Q 8.546875 43.75 8.546875 38.28125 
L 5.90625 38.375 
Q 5.90625 44.828125 11.5625 49.3125 
Q 17.234375 53.8125 25.4375 53.8125 
Q 33.984375 53.8125 39.015625 49.53125 
Q 44.046875 45.265625 44.1875 37.5 
L 44.1875 12.25 
Q 44.1875 3.5625 45.5625 0.4375 
L 45.5625 0 
z
M 20.75 1.609375 
Q 28.171875 1.609375 33.515625 4.921875 
Q 38.875 8.25 41.546875 14.265625 
L 41.546875 26.8125 
L 29.34375 26.8125 
Q 18.015625 26.8125 12.015625 22.3125 
Q 7.125 18.65625 7.125 13.1875 
Q 7.125 8.34375 10.984375 4.96875 
Q 14.84375 1.609375 20.75 1.609375 
z
" id="Roboto-Thin-61"/>
      <path id="Roboto-Thin-20"/>
      <path d="M 14.3125 67.09375 
L 14.3125 52.828125 
L 26.3125 52.828125 
L 26.3125 50.140625 
L 14.3125 50.140625 
L 14.3125 12.640625 
Q 14.3125 7.03125 16.140625 4.34375 
Q 17.96875 1.65625 22.265625 1.65625 
Q 24.421875 1.65625 27.484375 2.09375 
L 27.9375 -0.390625 
Q 26.3125 -0.984375 22.40625 -0.984375 
Q 16.65625 -0.984375 14.15625 2.21875 
Q 11.671875 5.421875 11.625 12.3125 
L 11.625 50.140625 
L 1.859375 50.140625 
L 1.859375 52.828125 
L 11.625 52.828125 
L 11.625 67.09375 
z
" id="Roboto-Thin-74"/>
      <path d="M 11.671875 0 
L 9.03125 0 
L 9.03125 52.828125 
L 11.671875 52.828125 
z
M 7.671875 69.34375 
Q 7.671875 70.453125 8.453125 71.265625 
Q 9.234375 72.078125 10.34375 72.078125 
Q 11.46875 72.078125 12.28125 71.265625 
Q 13.09375 70.453125 13.09375 69.328125 
Q 13.09375 68.21875 12.28125 67.4375 
Q 11.46875 66.65625 10.34375 66.65625 
Q 9.234375 66.65625 8.453125 67.4375 
Q 7.671875 68.21875 7.671875 69.34375 
z
" id="Roboto-Thin-69"/>
     </defs>
     <g style="fill:#262626;" transform="translate(23.7 280.325937)rotate(-90)scale(0.22 -0.22)">
      <use xlink:href="#Roboto-Thin-4f"/>
      <use x="66.601562" xlink:href="#Roboto-Thin-76"/>
      <use x="114.355469" xlink:href="#Roboto-Thin-65"/>
      <use x="164.746094" xlink:href="#Roboto-Thin-72"/>
      <use x="198.193359" xlink:href="#Roboto-Thin-68"/>
      <use x="252.929688" xlink:href="#Roboto-Thin-65"/>
      <use x="303.320312" xlink:href="#Roboto-Thin-61"/>
      <use x="356.103516" xlink:href="#Roboto-Thin-64"/>
      <use x="410.839844" xlink:href="#Roboto-Thin-20"/>
      <use x="434.765625" xlink:href="#Roboto-Thin-72"/>
      <use x="468.212891" xlink:href="#Roboto-Thin-61"/>
      <use x="520.996094" xlink:href="#Roboto-Thin-74"/>
      <use x="552.636719" xlink:href="#Roboto-Thin-69"/>
      <use x="573.242188" xlink:href="#Roboto-Thin-6f"/>
     </g>
    </g>
   </g>
   <g id="PathCollection_1">
    <defs>
     <path d="M 0 5 
C 1.326016 5 2.597899 4.473168 3.535534 3.535534 
C 4.473168 2.597899 5 1.326016 5 0 
C 5 -1.326016 4.473168 -2.597899 3.535534 -3.535534 
C 2.597899 -4.473168 1.326016 -5 0 -5 
C -1.326016 -5 -2.597899 -4.473168 -3.535534 -3.535534 
C -4.473168 -2.597899 -5 -1.326016 -5 0 
C -5 1.326016 -4.473168 2.597899 -3.535534 3.535534 
C -2.597899 4.473168 -1.326016 5 0 5 
z
" id="C0_0_ea451125ff"/>
    </defs>
    <g clip-path="url(#ped6c82b94d)">
     <use style="fill:#4c72b0;stroke:#4c72b0;stroke-width:1.08;" x="125.622257" xlink:href="#C0_0_ea451125ff" y="369.384969"/>
    </g>
    <g clip-path="url(#ped6c82b94d)">
     <use style="fill:#4c72b0;stroke:#4c72b0;stroke-width:1.08;" x="232.84802" xlink:href="#C0_0_ea451125ff" y="350.590775"/>
    </g>
    <g clip-path="url(#ped6c82b94d)">
     <use style="fill:#4c72b0;stroke:#4c72b0;stroke-width:1.08;" x="340.073784" xlink:href="#C0_0_ea451125ff" y="287.44181"/>
    </g>
    <g clip-path="url(#ped6c82b94d)">
     <use style="fill:#4c72b0;stroke:#4c72b0;stroke-width:1.08;" x="447.299547" xlink:href="#C0_0_ea451125ff" y="200.688606"/>
    </g>
   </g>
   <g id="line2d_15">
    <path clip-path="url(#ped6c82b94d)" d="M 125.622257 369.384969 
L 232.84802 350.590775 
L 340.073784 287.44181 
L 447.299547 200.688606 
" style="fill:none;stroke:#4c72b0;stroke-linecap:round;stroke-width:1.44;"/>
   </g>
   <g id="line2d_16">
    <path clip-path="url(#ped6c82b94d)" d="M 125.622257 369.460342 
L 125.622257 369.293505 
" style="fill:none;stroke:#4c72b0;stroke-linecap:round;stroke-width:1.44;"/>
   </g>
   <g id="line2d_17">
    <path clip-path="url(#ped6c82b94d)" d="M 232.84802 350.731947 
L 232.84802 350.437898 
" style="fill:none;stroke:#4c72b0;stroke-linecap:round;stroke-width:1.44;"/>
   </g>
   <g id="line2d_18">
    <path clip-path="url(#ped6c82b94d)" d="M 340.073784 287.886686 
L 340.073784 287.01876 
" style="fill:none;stroke:#4c72b0;stroke-linecap:round;stroke-width:1.44;"/>
   </g>
   <g id="line2d_19">
    <path clip-path="url(#ped6c82b94d)" d="M 447.299547 201.412363 
L 447.299547 199.882197 
" style="fill:none;stroke:#4c72b0;stroke-linecap:round;stroke-width:1.44;"/>
   </g>
   <g id="PathCollection_2">
    <path clip-path="url(#ped6c82b94d)" d="M 120.622257 378.84179 
L 130.622257 378.84179 
L 130.622257 368.84179 
L 120.622257 368.84179 
z
" style="fill:#55a868;stroke:#55a868;stroke-width:1.08;"/>
    <path clip-path="url(#ped6c82b94d)" d="M 227.84802 378.710685 
L 237.84802 378.710685 
L 237.84802 368.710685 
L 227.84802 368.710685 
z
" style="fill:#55a868;stroke:#55a868;stroke-width:1.08;"/>
    <path clip-path="url(#ped6c82b94d)" d="M 335.073784 378.677989 
L 345.073784 378.677989 
L 345.073784 368.677989 
L 335.073784 368.677989 
z
" style="fill:#55a868;stroke:#55a868;stroke-width:1.08;"/>
    <path clip-path="url(#ped6c82b94d)" d="M 442.299547 378.68241 
L 452.299547 378.68241 
L 452.299547 368.68241 
L 442.299547 368.68241 
z
" style="fill:#55a868;stroke:#55a868;stroke-width:1.08;"/>
   </g>
   <g id="line2d_20">
    <path clip-path="url(#ped6c82b94d)" d="M 125.622257 373.84179 
L 232.84802 373.710685 
L 340.073784 373.677989 
L 447.299547 373.68241 
" style="fill:none;stroke:#55a868;stroke-linecap:round;stroke-width:1.44;"/>
   </g>
   <g id="line2d_21">
    <path clip-path="url(#ped6c82b94d)" d="M 125.622257 373.856915 
L 125.622257 373.82599 
" style="fill:none;stroke:#55a868;stroke-linecap:round;stroke-width:1.44;"/>
   </g>
   <g id="line2d_22">
    <path clip-path="url(#ped6c82b94d)" d="M 232.84802 373.724784 
L 232.84802 373.697522 
" style="fill:none;stroke:#55a868;stroke-linecap:round;stroke-width:1.44;"/>
   </g>
   <g id="line2d_23">
    <path clip-path="url(#ped6c82b94d)" d="M 340.073784 373.690227 
L 340.073784 373.666724 
" style="fill:none;stroke:#55a868;stroke-linecap:round;stroke-width:1.44;"/>
   </g>
   <g id="line2d_24">
    <path clip-path="url(#ped6c82b94d)" d="M 447.299547 373.693912 
L 447.299547 373.66979 
" style="fill:none;stroke:#55a868;stroke-linecap:round;stroke-width:1.44;"/>
   </g>
   <g id="patch_3">
    <path d="M 72.009375 391.795 
L 72.009375 30.635 
" style="fill:none;stroke:#cccccc;stroke-linecap:square;stroke-linejoin:miter;"/>
   </g>
   <g id="patch_4">
    <path d="M 72.009375 391.795 
L 500.912429 391.795 
" style="fill:none;stroke:#cccccc;stroke-linecap:square;stroke-linejoin:miter;"/>
   </g>
   <g id="PathCollection_3">
    <path clip-path="url(#ped6c82b94d)" d="M 125.622257 365.6813 
L 120.622257 375.6813 
L 130.622257 375.6813 
z
" style="fill:#c44e52;stroke:#c44e52;stroke-width:1.08;"/>
    <path clip-path="url(#ped6c82b94d)" d="M 232.84802 349.22237 
L 227.84802 359.22237 
L 237.84802 359.22237 
z
" style="fill:#c44e52;stroke:#c44e52;stroke-width:1.08;"/>
    <path clip-path="url(#ped6c82b94d)" d="M 340.073784 291.914284 
L 335.073784 301.914284 
L 345.073784 301.914284 
z
" style="fill:#c44e52;stroke:#c44e52;stroke-width:1.08;"/>
    <path clip-path="url(#ped6c82b94d)" d="M 447.299547 208.802527 
L 442.299547 218.802527 
L 452.299547 218.802527 
z
" style="fill:#c44e52;stroke:#c44e52;stroke-width:1.08;"/>
   </g>
   <g id="line2d_25">
    <path clip-path="url(#ped6c82b94d)" d="M 125.622257 370.6813 
L 232.84802 354.22237 
L 340.073784 296.914284 
L 447.299547 213.802527 
" style="fill:none;stroke:#c44e52;stroke-linecap:round;stroke-width:1.44;"/>
   </g>
   <g id="line2d_26">
    <path clip-path="url(#ped6c82b94d)" d="M 125.622257 370.744917 
L 125.622257 370.609443 
" style="fill:none;stroke:#c44e52;stroke-linecap:round;stroke-width:1.44;"/>
   </g>
   <g id="line2d_27">
    <path clip-path="url(#ped6c82b94d)" d="M 232.84802 354.386327 
L 232.84802 354.060397 
" style="fill:none;stroke:#c44e52;stroke-linecap:round;stroke-width:1.44;"/>
   </g>
   <g id="line2d_28">
    <path clip-path="url(#ped6c82b94d)" d="M 340.073784 297.338733 
L 340.073784 296.453937 
" style="fill:none;stroke:#c44e52;stroke-linecap:round;stroke-width:1.44;"/>
   </g>
   <g id="line2d_29">
    <path clip-path="url(#ped6c82b94d)" d="M 447.299547 214.651102 
L 447.299547 212.785721 
" style="fill:none;stroke:#c44e52;stroke-linecap:round;stroke-width:1.44;"/>
   </g>
   <g id="text_12">
    <!-- Message creation interval (s) = 5,25 -->
    <defs>
     <path d="M 13.53125 71.09375 
L 42.78125 3.859375 
L 72.125 71.09375 
L 75.984375 71.09375 
L 75.984375 0 
L 73.34375 0 
L 73.34375 67.1875 
L 43.84375 0 
L 41.75 0 
L 12.40625 66.84375 
L 12.40625 0 
L 9.765625 0 
L 9.765625 71.09375 
z
" id="Roboto-Thin-4d"/>
     <path d="M 5.90625 26.953125 
Q 5.90625 39.59375 11.21875 46.703125 
Q 16.546875 53.8125 25.828125 53.8125 
Q 31.734375 53.8125 36.328125 51.09375 
Q 40.921875 48.390625 43.703125 43.171875 
L 43.703125 52.828125 
L 46.390625 52.828125 
L 46.390625 0.921875 
Q 46.390625 -9.515625 41.015625 -15.40625 
Q 35.640625 -21.296875 26.421875 -21.296875 
Q 21.09375 -21.296875 16.671875 -19 
Q 12.25 -16.703125 9.125 -12.40625 
L 10.984375 -10.640625 
Q 14.0625 -14.546875 17.71875 -16.625 
Q 21.390625 -18.703125 26.3125 -18.703125 
Q 34.46875 -18.703125 39.015625 -13.75 
Q 43.5625 -8.796875 43.703125 0.25 
L 43.703125 8.34375 
Q 40.96875 3.859375 36.296875 1.4375 
Q 31.640625 -0.984375 25.734375 -0.984375 
Q 16.546875 -0.984375 11.21875 6.296875 
Q 5.90625 13.578125 5.90625 26.265625 
z
M 8.59375 25.921875 
Q 8.59375 14.59375 13.078125 8.125 
Q 17.578125 1.65625 25.6875 1.65625 
Q 32.375 1.65625 37.0625 4.75 
Q 41.75 7.859375 43.703125 13.484375 
L 43.703125 37.453125 
Q 39.40625 51.171875 25.78125 51.171875 
Q 17.625 51.171875 13.109375 44.765625 
Q 8.59375 38.375 8.59375 25.921875 
z
" id="Roboto-Thin-67"/>
     <path d="M 26.3125 1.65625 
Q 33.5 1.65625 38.15625 5.46875 
Q 42.828125 9.28125 43.265625 16.015625 
L 45.90625 16.015625 
Q 45.515625 8.34375 39.984375 3.671875 
Q 34.46875 -0.984375 26.3125 -0.984375 
Q 16.40625 -0.984375 10.5625 6.1875 
Q 4.734375 13.375 4.734375 25.6875 
L 4.734375 27.4375 
Q 4.734375 39.453125 10.5625 46.625 
Q 16.40625 53.8125 26.21875 53.8125 
Q 34.625 53.8125 40.09375 48.78125 
Q 45.5625 43.75 45.90625 35.40625 
L 43.265625 35.40625 
Q 42.921875 42.53125 38.25 46.84375 
Q 33.59375 51.171875 26.21875 51.171875 
Q 17.390625 51.171875 12.375 44.796875 
Q 7.375 38.421875 7.375 27.09375 
L 7.375 25.390625 
Q 7.375 14.3125 12.421875 7.984375 
Q 17.484375 1.65625 26.3125 1.65625 
z
" id="Roboto-Thin-63"/>
     <path d="M 11.03125 40.53125 
Q 13.625 46.6875 18.65625 50.25 
Q 23.6875 53.8125 29.78125 53.8125 
Q 38.28125 53.8125 42.40625 49 
Q 46.53125 44.1875 46.578125 34.46875 
L 46.578125 0 
L 43.953125 0 
L 43.953125 34.578125 
Q 43.890625 43.0625 40.46875 47.140625 
Q 37.0625 51.21875 29.640625 51.21875 
Q 22.796875 51.21875 17.796875 46.359375 
Q 12.796875 41.5 11.03125 33.84375 
L 11.03125 0 
L 8.40625 0 
L 8.40625 52.828125 
L 11.03125 52.828125 
z
" id="Roboto-Thin-6e"/>
     <path d="M 11.671875 0 
L 9.03125 0 
L 9.03125 75 
L 11.671875 75 
z
" id="Roboto-Thin-6c"/>
     <path d="M 7.234375 28.609375 
Q 7.234375 39.15625 9.8125 49.359375 
Q 12.40625 59.578125 17.15625 67.671875 
Q 21.921875 75.78125 27.4375 79.25 
L 28.375 77.15625 
Q 23.578125 73.96875 19.328125 66.546875 
Q 15.09375 59.125 12.546875 49.359375 
Q 10.015625 39.59375 9.859375 30.078125 
L 9.859375 27.546875 
Q 9.859375 17.875 12.296875 7.9375 
Q 14.75 -2 19.09375 -9.78125 
Q 23.4375 -17.578125 28.375 -20.84375 
L 27.4375 -22.953125 
Q 21.78125 -19.390625 17.109375 -11.640625 
Q 12.453125 -3.90625 9.84375 6.375 
Q 7.234375 16.65625 7.234375 28.609375 
z
" id="Roboto-Thin-28"/>
     <path d="M 22.515625 27.640625 
Q 22.515625 16.65625 19.890625 6.375 
Q 17.28125 -3.90625 12.609375 -11.640625 
Q 7.953125 -19.390625 2.296875 -22.953125 
L 1.375 -20.84375 
Q 6.453125 -17.4375 10.796875 -9.515625 
Q 15.140625 -1.609375 17.5 8.15625 
Q 19.875 17.921875 19.875 28.8125 
Q 19.875 38.671875 17.375 48.609375 
Q 14.890625 58.546875 10.5625 66.234375 
Q 6.25 73.921875 1.375 77.15625 
L 2.296875 79.25 
Q 7.8125 75.78125 12.5625 67.671875 
Q 17.328125 59.578125 19.921875 49.359375 
Q 22.515625 39.15625 22.515625 27.640625 
z
" id="Roboto-Thin-29"/>
     <path d="M 47.90625 41.15625 
L 7.171875 41.15625 
L 7.171875 43.796875 
L 47.90625 43.796875 
z
M 47.90625 21.296875 
L 7.171875 21.296875 
L 7.171875 23.921875 
L 47.90625 23.921875 
z
" id="Roboto-Thin-3d"/>
     <path d="M 11.28125 37.203125 
L 14.59375 71.09375 
L 49.265625 71.09375 
L 49.265625 68.5 
L 17 68.5 
L 14.109375 39.984375 
Q 16.65625 42.09375 20.828125 43.40625 
Q 25 44.734375 29 44.734375 
Q 38.578125 44.734375 44.28125 38.671875 
Q 50 32.625 50 22.65625 
Q 50 11.078125 44.828125 5.046875 
Q 39.65625 -0.984375 29.984375 -0.984375 
Q 20.84375 -0.984375 15.234375 4.234375 
Q 9.625 9.46875 8.890625 18.703125 
L 11.578125 18.703125 
Q 12.359375 10.359375 17.046875 6 
Q 21.734375 1.65625 29.984375 1.65625 
Q 38.765625 1.65625 43.03125 6.953125 
Q 47.3125 12.25 47.3125 22.5625 
Q 47.3125 31.453125 42.359375 36.765625 
Q 37.40625 42.09375 29.046875 42.09375 
Q 23.921875 42.09375 20.109375 40.71875 
Q 16.3125 39.359375 13.28125 36.421875 
z
" id="Roboto-Thin-35"/>
     <path d="M 6.296875 -12.453125 
L 4.5 -10.890625 
Q 8.453125 -5.8125 8.796875 -0.390625 
L 8.84375 7.765625 
L 11.46875 7.765625 
L 11.46875 0.640625 
Q 11.28125 -7.125 6.296875 -12.453125 
z
" id="Roboto-Thin-2c"/>
    </defs>
    <g style="fill:#262626;" transform="translate(118.922308 24.635)scale(0.22 -0.22)">
     <use xlink:href="#Roboto-Thin-4d"/>
     <use x="85.742188" xlink:href="#Roboto-Thin-65"/>
     <use x="136.132812" xlink:href="#Roboto-Thin-73"/>
     <use x="185.888672" xlink:href="#Roboto-Thin-73"/>
     <use x="235.644531" xlink:href="#Roboto-Thin-61"/>
     <use x="288.427734" xlink:href="#Roboto-Thin-67"/>
     <use x="343.261719" xlink:href="#Roboto-Thin-65"/>
     <use x="393.652344" xlink:href="#Roboto-Thin-20"/>
     <use x="417.578125" xlink:href="#Roboto-Thin-63"/>
     <use x="468.310547" xlink:href="#Roboto-Thin-72"/>
     <use x="501.757812" xlink:href="#Roboto-Thin-65"/>
     <use x="552.148438" xlink:href="#Roboto-Thin-61"/>
     <use x="604.931641" xlink:href="#Roboto-Thin-74"/>
     <use x="636.572266" xlink:href="#Roboto-Thin-69"/>
     <use x="657.177734" xlink:href="#Roboto-Thin-6f"/>
     <use x="712.207031" xlink:href="#Roboto-Thin-6e"/>
     <use x="766.943359" xlink:href="#Roboto-Thin-20"/>
     <use x="790.869141" xlink:href="#Roboto-Thin-69"/>
     <use x="811.474609" xlink:href="#Roboto-Thin-6e"/>
     <use x="866.210938" xlink:href="#Roboto-Thin-74"/>
     <use x="897.851562" xlink:href="#Roboto-Thin-65"/>
     <use x="948.242188" xlink:href="#Roboto-Thin-72"/>
     <use x="981.689453" xlink:href="#Roboto-Thin-76"/>
     <use x="1029.443359" xlink:href="#Roboto-Thin-61"/>
     <use x="1082.226562" xlink:href="#Roboto-Thin-6c"/>
     <use x="1102.832031" xlink:href="#Roboto-Thin-20"/>
     <use x="1126.757812" xlink:href="#Roboto-Thin-28"/>
     <use x="1156.396484" xlink:href="#Roboto-Thin-73"/>
     <use x="1206.152344" xlink:href="#Roboto-Thin-29"/>
     <use x="1236.572266" xlink:href="#Roboto-Thin-20"/>
     <use x="1260.498047" xlink:href="#Roboto-Thin-3d"/>
     <use x="1316.259766" xlink:href="#Roboto-Thin-20"/>
     <use x="1340.185547" xlink:href="#Roboto-Thin-35"/>
     <use x="1394.921875" xlink:href="#Roboto-Thin-2c"/>
     <use x="1413.623047" xlink:href="#Roboto-Thin-32"/>
     <use x="1468.359375" xlink:href="#Roboto-Thin-35"/>
    </g>
   </g>
   <g id="PathCollection_4">
    <path clip-path="url(#ped6c82b94d)" d="M 125.622257 375.806494 
L 130.622257 365.806494 
L 120.622257 365.806494 
z
" style="fill:#8172b2;stroke:#8172b2;stroke-width:1.08;"/>
    <path clip-path="url(#ped6c82b94d)" d="M 232.84802 363.0264 
L 237.84802 353.0264 
L 227.84802 353.0264 
z
" style="fill:#8172b2;stroke:#8172b2;stroke-width:1.08;"/>
    <path clip-path="url(#ped6c82b94d)" d="M 340.073784 324.731929 
L 345.073784 314.731929 
L 335.073784 314.731929 
z
" style="fill:#8172b2;stroke:#8172b2;stroke-width:1.08;"/>
    <path clip-path="url(#ped6c82b94d)" d="M 447.299547 275.091157 
L 452.299547 265.091157 
L 442.299547 265.091157 
z
" style="fill:#8172b2;stroke:#8172b2;stroke-width:1.08;"/>
   </g>
   <g id="line2d_30">
    <path clip-path="url(#ped6c82b94d)" d="M 125.622257 370.806494 
L 232.84802 358.0264 
L 340.073784 319.731929 
L 447.299547 270.091157 
" style="fill:none;stroke:#8172b2;stroke-linecap:round;stroke-width:1.44;"/>
   </g>
   <g id="line2d_31">
    <path clip-path="url(#ped6c82b94d)" d="M 125.622257 370.864525 
L 125.622257 370.750305 
" style="fill:none;stroke:#8172b2;stroke-linecap:round;stroke-width:1.44;"/>
   </g>
   <g id="line2d_32">
    <path clip-path="url(#ped6c82b94d)" d="M 232.84802 358.12755 
L 232.84802 357.919765 
" style="fill:none;stroke:#8172b2;stroke-linecap:round;stroke-width:1.44;"/>
   </g>
   <g id="line2d_33">
    <path clip-path="url(#ped6c82b94d)" d="M 340.073784 319.924221 
L 340.073784 319.526413 
" style="fill:none;stroke:#8172b2;stroke-linecap:round;stroke-width:1.44;"/>
   </g>
   <g id="line2d_34">
    <path clip-path="url(#ped6c82b94d)" d="M 447.299547 270.324046 
L 447.299547 269.838787 
" style="fill:none;stroke:#8172b2;stroke-linecap:round;stroke-width:1.44;"/>
   </g>
   <g id="PathCollection_5">
    <path clip-path="url(#ped6c82b94d)" d="M 120.622257 371.872352 
L 130.622257 376.872352 
L 130.622257 366.872352 
z
" style="fill:#ccb974;stroke:#ccb974;stroke-width:1.08;"/>
    <path clip-path="url(#ped6c82b94d)" d="M 227.84802 360.485305 
L 237.84802 365.485305 
L 237.84802 355.485305 
z
" style="fill:#ccb974;stroke:#ccb974;stroke-width:1.08;"/>
    <path clip-path="url(#ped6c82b94d)" d="M 335.073784 322.032702 
L 345.073784 327.032702 
L 345.073784 317.032702 
z
" style="fill:#ccb974;stroke:#ccb974;stroke-width:1.08;"/>
    <path clip-path="url(#ped6c82b94d)" d="M 442.299547 269.969675 
L 452.299547 274.969675 
L 452.299547 264.969675 
z
" style="fill:#ccb974;stroke:#ccb974;stroke-width:1.08;"/>
   </g>
   <g id="line2d_35">
    <path clip-path="url(#ped6c82b94d)" d="M 125.622257 371.872352 
L 232.84802 360.485305 
L 340.073784 322.032702 
L 447.299547 269.969675 
" style="fill:none;stroke:#ccb974;stroke-linecap:round;stroke-width:1.44;"/>
   </g>
   <g id="line2d_36">
    <path clip-path="url(#ped6c82b94d)" d="M 125.622257 371.913369 
L 125.622257 371.826641 
" style="fill:none;stroke:#ccb974;stroke-linecap:round;stroke-width:1.44;"/>
   </g>
   <g id="line2d_37">
    <path clip-path="url(#ped6c82b94d)" d="M 232.84802 360.561916 
L 232.84802 360.402301 
" style="fill:none;stroke:#ccb974;stroke-linecap:round;stroke-width:1.44;"/>
   </g>
   <g id="line2d_38">
    <path clip-path="url(#ped6c82b94d)" d="M 340.073784 322.225298 
L 340.073784 321.835449 
" style="fill:none;stroke:#ccb974;stroke-linecap:round;stroke-width:1.44;"/>
   </g>
   <g id="line2d_39">
    <path clip-path="url(#ped6c82b94d)" d="M 447.299547 270.238398 
L 447.299547 269.70922 
" style="fill:none;stroke:#ccb974;stroke-linecap:round;stroke-width:1.44;"/>
   </g>
  </g>
  <g id="axes_2">
   <g id="patch_5">
    <path d="M 526.779942 391.795 
L 955.682996 391.795 
L 955.682996 30.635 
L 526.779942 30.635 
z
" style="fill:#ffffff;"/>
   </g>
   <g id="matplotlib.axis_3">
    <g id="xtick_5">
     <g id="line2d_40"/>
     <g id="text_13">
      <!-- 100 -->
      <g style="fill:#262626;" transform="translate(563.972511 413.795)scale(0.2 -0.2)">
       <use xlink:href="#Roboto-Thin-31"/>
       <use x="54.736328" xlink:href="#Roboto-Thin-30"/>
       <use x="109.472656" xlink:href="#Roboto-Thin-30"/>
      </g>
     </g>
    </g>
    <g id="xtick_6">
     <g id="line2d_41"/>
     <g id="text_14">
      <!-- 200 -->
      <g style="fill:#262626;" transform="translate(671.198274 413.795)scale(0.2 -0.2)">
       <use xlink:href="#Roboto-Thin-32"/>
       <use x="54.736328" xlink:href="#Roboto-Thin-30"/>
       <use x="109.472656" xlink:href="#Roboto-Thin-30"/>
      </g>
     </g>
    </g>
    <g id="xtick_7">
     <g id="line2d_42"/>
     <g id="text_15">
      <!-- 400 -->
      <g style="fill:#262626;" transform="translate(778.424038 413.795)scale(0.2 -0.2)">
       <use xlink:href="#Roboto-Thin-34"/>
       <use x="54.736328" xlink:href="#Roboto-Thin-30"/>
       <use x="109.472656" xlink:href="#Roboto-Thin-30"/>
      </g>
     </g>
    </g>
    <g id="xtick_8">
     <g id="line2d_43"/>
     <g id="text_16">
      <!-- 600 -->
      <g style="fill:#262626;" transform="translate(885.649801 413.795)scale(0.2 -0.2)">
       <use xlink:href="#Roboto-Thin-36"/>
       <use x="54.736328" xlink:href="#Roboto-Thin-30"/>
       <use x="109.472656" xlink:href="#Roboto-Thin-30"/>
      </g>
     </g>
    </g>
    <g id="text_17">
     <!-- Nodes -->
     <g style="fill:#262626;" transform="translate(710.359281 438.3575)scale(0.22 -0.22)">
      <use xlink:href="#Roboto-Thin-4e"/>
      <use x="70.751953" xlink:href="#Roboto-Thin-6f"/>
      <use x="125.78125" xlink:href="#Roboto-Thin-64"/>
      <use x="180.517578" xlink:href="#Roboto-Thin-65"/>
      <use x="230.908203" xlink:href="#Roboto-Thin-73"/>
     </g>
    </g>
   </g>
   <g id="matplotlib.axis_4">
    <g id="ytick_6">
     <g id="line2d_44">
      <path clip-path="url(#p5940b5b6c8)" d="M 526.779942 377.13941 
L 955.682996 377.13941 
" style="fill:none;stroke:#cccccc;stroke-linecap:round;"/>
     </g>
     <g id="line2d_45"/>
    </g>
    <g id="ytick_7">
     <g id="line2d_46">
      <path clip-path="url(#p5940b5b6c8)" d="M 526.779942 300.618398 
L 955.682996 300.618398 
" style="fill:none;stroke:#cccccc;stroke-linecap:round;"/>
     </g>
     <g id="line2d_47"/>
    </g>
    <g id="ytick_8">
     <g id="line2d_48">
      <path clip-path="url(#p5940b5b6c8)" d="M 526.779942 224.097386 
L 955.682996 224.097386 
" style="fill:none;stroke:#cccccc;stroke-linecap:round;"/>
     </g>
     <g id="line2d_49"/>
    </g>
    <g id="ytick_9">
     <g id="line2d_50">
      <path clip-path="url(#p5940b5b6c8)" d="M 526.779942 147.576375 
L 955.682996 147.576375 
" style="fill:none;stroke:#cccccc;stroke-linecap:round;"/>
     </g>
     <g id="line2d_51"/>
    </g>
    <g id="ytick_10">
     <g id="line2d_52">
      <path clip-path="url(#p5940b5b6c8)" d="M 526.779942 71.055363 
L 955.682996 71.055363 
" style="fill:none;stroke:#cccccc;stroke-linecap:round;"/>
     </g>
     <g id="line2d_53"/>
    </g>
   </g>
   <g id="PathCollection_6">
    <defs>
     <path d="M 0 5 
C 1.326016 5 2.597899 4.473168 3.535534 3.535534 
C 4.473168 2.597899 5 1.326016 5 0 
C 5 -1.326016 4.473168 -2.597899 3.535534 -3.535534 
C 2.597899 -4.473168 1.326016 -5 0 -5 
C -1.326016 -5 -2.597899 -4.473168 -3.535534 -3.535534 
C -4.473168 -2.597899 -5 -1.326016 -5 0 
C -5 1.326016 -4.473168 2.597899 -3.535534 3.535534 
C -2.597899 4.473168 -1.326016 5 0 5 
z
" id="C1_0_8c4821dffb"/>
    </defs>
    <g clip-path="url(#p5940b5b6c8)">
     <use style="fill:#4c72b0;stroke:#4c72b0;stroke-width:1.08;" x="580.392823" xlink:href="#C1_0_8c4821dffb" y="364.812234"/>
    </g>
    <g clip-path="url(#p5940b5b6c8)">
     <use style="fill:#4c72b0;stroke:#4c72b0;stroke-width:1.08;" x="687.618587" xlink:href="#C1_0_8c4821dffb" y="336.490157"/>
    </g>
    <g clip-path="url(#p5940b5b6c8)">
     <use style="fill:#4c72b0;stroke:#4c72b0;stroke-width:1.08;" x="794.84435" xlink:href="#C1_0_8c4821dffb" y="239.052983"/>
    </g>
    <g clip-path="url(#p5940b5b6c8)">
     <use style="fill:#4c72b0;stroke:#4c72b0;stroke-width:1.08;" x="902.070114" xlink:href="#C1_0_8c4821dffb" y="106.975706"/>
    </g>
   </g>
   <g id="line2d_54">
    <path clip-path="url(#p5940b5b6c8)" d="M 580.392823 364.812234 
L 687.618587 336.490157 
L 794.84435 239.052983 
L 902.070114 106.975706 
" style="fill:none;stroke:#4c72b0;stroke-linecap:round;stroke-width:1.44;"/>
   </g>
   <g id="line2d_55">
    <path clip-path="url(#p5940b5b6c8)" d="M 580.392823 364.93703 
L 580.392823 364.686122 
" style="fill:none;stroke:#4c72b0;stroke-linecap:round;stroke-width:1.44;"/>
   </g>
   <g id="line2d_56">
    <path clip-path="url(#p5940b5b6c8)" d="M 687.618587 336.7921 
L 687.618587 336.16585 
" style="fill:none;stroke:#4c72b0;stroke-linecap:round;stroke-width:1.44;"/>
   </g>
   <g id="line2d_57">
    <path clip-path="url(#p5940b5b6c8)" d="M 794.84435 239.900369 
L 794.84435 238.202962 
" style="fill:none;stroke:#4c72b0;stroke-linecap:round;stroke-width:1.44;"/>
   </g>
   <g id="line2d_58">
    <path clip-path="url(#p5940b5b6c8)" d="M 902.070114 108.284563 
L 902.070114 105.74182 
" style="fill:none;stroke:#4c72b0;stroke-linecap:round;stroke-width:1.44;"/>
   </g>
   <g id="PathCollection_7">
    <path clip-path="url(#p5940b5b6c8)" d="M 575.392823 378.777839 
L 585.392823 378.777839 
L 585.392823 368.777839 
L 575.392823 368.777839 
z
" style="fill:#55a868;stroke:#55a868;stroke-width:1.08;"/>
    <path clip-path="url(#p5940b5b6c8)" d="M 682.618587 378.722612 
L 692.618587 378.722612 
L 692.618587 368.722612 
L 682.618587 368.722612 
z
" style="fill:#55a868;stroke:#55a868;stroke-width:1.08;"/>
    <path clip-path="url(#p5940b5b6c8)" d="M 789.84435 378.67892 
L 799.84435 378.67892 
L 799.84435 368.67892 
L 789.84435 368.67892 
z
" style="fill:#55a868;stroke:#55a868;stroke-width:1.08;"/>
    <path clip-path="url(#p5940b5b6c8)" d="M 897.070114 378.65151 
L 907.070114 378.65151 
L 907.070114 368.65151 
L 897.070114 368.65151 
z
" style="fill:#55a868;stroke:#55a868;stroke-width:1.08;"/>
   </g>
   <g id="line2d_59">
    <path clip-path="url(#p5940b5b6c8)" d="M 580.392823 373.777839 
L 687.618587 373.722612 
L 794.84435 373.67892 
L 902.070114 373.65151 
" style="fill:none;stroke:#55a868;stroke-linecap:round;stroke-width:1.44;"/>
   </g>
   <g id="line2d_60">
    <path clip-path="url(#p5940b5b6c8)" d="M 580.392823 373.799406 
L 580.392823 373.759119 
" style="fill:none;stroke:#55a868;stroke-linecap:round;stroke-width:1.44;"/>
   </g>
   <g id="line2d_61">
    <path clip-path="url(#p5940b5b6c8)" d="M 687.618587 373.744015 
L 687.618587 373.702331 
" style="fill:none;stroke:#55a868;stroke-linecap:round;stroke-width:1.44;"/>
   </g>
   <g id="line2d_62">
    <path clip-path="url(#p5940b5b6c8)" d="M 794.84435 373.696477 
L 794.84435 373.662246 
" style="fill:none;stroke:#55a868;stroke-linecap:round;stroke-width:1.44;"/>
   </g>
   <g id="line2d_63">
    <path clip-path="url(#p5940b5b6c8)" d="M 902.070114 373.666759 
L 902.070114 373.6348 
" style="fill:none;stroke:#55a868;stroke-linecap:round;stroke-width:1.44;"/>
   </g>
   <g id="patch_6">
    <path d="M 526.779942 391.795 
L 526.779942 30.635 
" style="fill:none;stroke:#cccccc;stroke-linecap:square;stroke-linejoin:miter;"/>
   </g>
   <g id="patch_7">
    <path d="M 526.779942 391.795 
L 955.682996 391.795 
" style="fill:none;stroke:#cccccc;stroke-linecap:square;stroke-linejoin:miter;"/>
   </g>
   <g id="PathCollection_8">
    <path clip-path="url(#p5940b5b6c8)" d="M 580.392823 362.185908 
L 575.392823 372.185908 
L 585.392823 372.185908 
z
" style="fill:#c44e52;stroke:#c44e52;stroke-width:1.08;"/>
    <path clip-path="url(#p5940b5b6c8)" d="M 687.618587 338.098366 
L 682.618587 348.098366 
L 692.618587 348.098366 
z
" style="fill:#c44e52;stroke:#c44e52;stroke-width:1.08;"/>
    <path clip-path="url(#p5940b5b6c8)" d="M 794.84435 256.409648 
L 789.84435 266.409648 
L 799.84435 266.409648 
z
" style="fill:#c44e52;stroke:#c44e52;stroke-width:1.08;"/>
    <path clip-path="url(#p5940b5b6c8)" d="M 902.070114 138.395168 
L 897.070114 148.395168 
L 907.070114 148.395168 
z
" style="fill:#c44e52;stroke:#c44e52;stroke-width:1.08;"/>
   </g>
   <g id="line2d_64">
    <path clip-path="url(#p5940b5b6c8)" d="M 580.392823 367.185908 
L 687.618587 343.098366 
L 794.84435 261.409648 
L 902.070114 143.395168 
" style="fill:none;stroke:#c44e52;stroke-linecap:round;stroke-width:1.44;"/>
   </g>
   <g id="line2d_65">
    <path clip-path="url(#p5940b5b6c8)" d="M 580.392823 367.298471 
L 580.392823 367.082101 
" style="fill:none;stroke:#c44e52;stroke-linecap:round;stroke-width:1.44;"/>
   </g>
   <g id="line2d_66">
    <path clip-path="url(#p5940b5b6c8)" d="M 687.618587 343.38883 
L 687.618587 342.811667 
" style="fill:none;stroke:#c44e52;stroke-linecap:round;stroke-width:1.44;"/>
   </g>
   <g id="line2d_67">
    <path clip-path="url(#p5940b5b6c8)" d="M 794.84435 262.044146 
L 794.84435 260.795144 
" style="fill:none;stroke:#c44e52;stroke-linecap:round;stroke-width:1.44;"/>
   </g>
   <g id="line2d_68">
    <path clip-path="url(#p5940b5b6c8)" d="M 902.070114 144.7585 
L 902.070114 141.956522 
" style="fill:none;stroke:#c44e52;stroke-linecap:round;stroke-width:1.44;"/>
   </g>
   <g id="text_18">
    <!-- Message creation interval (s) = 25,35 -->
    <defs>
     <path d="M 20.359375 37.59375 
L 26.3125 37.59375 
Q 34.671875 37.75 39.8125 42.046875 
Q 44.96875 46.34375 44.96875 52.984375 
Q 44.96875 60.546875 40.359375 64.984375 
Q 35.75 69.4375 27.546875 69.4375 
Q 19.53125 69.4375 14.359375 64.75 
Q 9.1875 60.0625 9.1875 52.4375 
L 6.546875 52.4375 
Q 6.546875 58.109375 9.28125 62.59375 
Q 12.015625 67.09375 16.84375 69.578125 
Q 21.6875 72.078125 27.546875 72.078125 
Q 36.765625 72.078125 42.1875 66.875 
Q 47.609375 61.671875 47.609375 52.78125 
Q 47.609375 47.125 44.015625 42.671875 
Q 40.4375 38.234375 34.328125 36.375 
Q 41.3125 34.765625 45.234375 30.3125 
Q 49.171875 25.875 49.171875 18.84375 
Q 49.171875 9.765625 43.359375 4.390625 
Q 37.546875 -0.984375 27.984375 -0.984375 
Q 21.53125 -0.984375 16.0625 1.796875 
Q 10.59375 4.59375 7.8125 9.171875 
Q 5.03125 13.765625 5.03125 19.78125 
L 7.671875 19.78125 
Q 7.671875 11.96875 13.421875 6.8125 
Q 19.1875 1.65625 27.984375 1.65625 
Q 36.71875 1.65625 41.625 6.171875 
Q 46.53125 10.6875 46.53125 18.65625 
Q 46.53125 26.515625 41.28125 30.65625 
Q 36.03125 34.8125 25.921875 34.859375 
L 20.359375 34.859375 
z
" id="Roboto-Thin-33"/>
    </defs>
    <g style="fill:#262626;" transform="translate(567.672094 24.635)scale(0.22 -0.22)">
     <use xlink:href="#Roboto-Thin-4d"/>
     <use x="85.742188" xlink:href="#Roboto-Thin-65"/>
     <use x="136.132812" xlink:href="#Roboto-Thin-73"/>
     <use x="185.888672" xlink:href="#Roboto-Thin-73"/>
     <use x="235.644531" xlink:href="#Roboto-Thin-61"/>
     <use x="288.427734" xlink:href="#Roboto-Thin-67"/>
     <use x="343.261719" xlink:href="#Roboto-Thin-65"/>
     <use x="393.652344" xlink:href="#Roboto-Thin-20"/>
     <use x="417.578125" xlink:href="#Roboto-Thin-63"/>
     <use x="468.310547" xlink:href="#Roboto-Thin-72"/>
     <use x="501.757812" xlink:href="#Roboto-Thin-65"/>
     <use x="552.148438" xlink:href="#Roboto-Thin-61"/>
     <use x="604.931641" xlink:href="#Roboto-Thin-74"/>
     <use x="636.572266" xlink:href="#Roboto-Thin-69"/>
     <use x="657.177734" xlink:href="#Roboto-Thin-6f"/>
     <use x="712.207031" xlink:href="#Roboto-Thin-6e"/>
     <use x="766.943359" xlink:href="#Roboto-Thin-20"/>
     <use x="790.869141" xlink:href="#Roboto-Thin-69"/>
     <use x="811.474609" xlink:href="#Roboto-Thin-6e"/>
     <use x="866.210938" xlink:href="#Roboto-Thin-74"/>
     <use x="897.851562" xlink:href="#Roboto-Thin-65"/>
     <use x="948.242188" xlink:href="#Roboto-Thin-72"/>
     <use x="981.689453" xlink:href="#Roboto-Thin-76"/>
     <use x="1029.443359" xlink:href="#Roboto-Thin-61"/>
     <use x="1082.226562" xlink:href="#Roboto-Thin-6c"/>
     <use x="1102.832031" xlink:href="#Roboto-Thin-20"/>
     <use x="1126.757812" xlink:href="#Roboto-Thin-28"/>
     <use x="1156.396484" xlink:href="#Roboto-Thin-73"/>
     <use x="1206.152344" xlink:href="#Roboto-Thin-29"/>
     <use x="1236.572266" xlink:href="#Roboto-Thin-20"/>
     <use x="1260.498047" xlink:href="#Roboto-Thin-3d"/>
     <use x="1316.259766" xlink:href="#Roboto-Thin-20"/>
     <use x="1340.185547" xlink:href="#Roboto-Thin-32"/>
     <use x="1394.921875" xlink:href="#Roboto-Thin-35"/>
     <use x="1449.658203" xlink:href="#Roboto-Thin-2c"/>
     <use x="1468.359375" xlink:href="#Roboto-Thin-33"/>
     <use x="1523.095703" xlink:href="#Roboto-Thin-35"/>
    </g>
   </g>
   <g id="PathCollection_9">
    <path clip-path="url(#p5940b5b6c8)" d="M 580.392823 372.847837 
L 585.392823 362.847837 
L 575.392823 362.847837 
z
" style="fill:#8172b2;stroke:#8172b2;stroke-width:1.08;"/>
    <path clip-path="url(#p5940b5b6c8)" d="M 687.618587 353.278793 
L 692.618587 343.278793 
L 682.618587 343.278793 
z
" style="fill:#8172b2;stroke:#8172b2;stroke-width:1.08;"/>
    <path clip-path="url(#p5940b5b6c8)" d="M 794.84435 293.436243 
L 799.84435 283.436243 
L 789.84435 283.436243 
z
" style="fill:#8172b2;stroke:#8172b2;stroke-width:1.08;"/>
    <path clip-path="url(#p5940b5b6c8)" d="M 902.070114 216.275205 
L 907.070114 206.275205 
L 897.070114 206.275205 
z
" style="fill:#8172b2;stroke:#8172b2;stroke-width:1.08;"/>
   </g>
   <g id="line2d_69">
    <path clip-path="url(#p5940b5b6c8)" d="M 580.392823 367.847837 
L 687.618587 348.278793 
L 794.84435 288.436243 
L 902.070114 211.275205 
" style="fill:none;stroke:#8172b2;stroke-linecap:round;stroke-width:1.44;"/>
   </g>
   <g id="line2d_70">
    <path clip-path="url(#p5940b5b6c8)" d="M 580.392823 367.92826 
L 580.392823 367.766718 
" style="fill:none;stroke:#8172b2;stroke-linecap:round;stroke-width:1.44;"/>
   </g>
   <g id="line2d_71">
    <path clip-path="url(#p5940b5b6c8)" d="M 687.618587 348.465759 
L 687.618587 348.091043 
" style="fill:none;stroke:#8172b2;stroke-linecap:round;stroke-width:1.44;"/>
   </g>
   <g id="line2d_72">
    <path clip-path="url(#p5940b5b6c8)" d="M 794.84435 288.720196 
L 794.84435 288.154182 
" style="fill:none;stroke:#8172b2;stroke-linecap:round;stroke-width:1.44;"/>
   </g>
   <g id="line2d_73">
    <path clip-path="url(#p5940b5b6c8)" d="M 902.070114 211.716697 
L 902.070114 210.801461 
" style="fill:none;stroke:#8172b2;stroke-linecap:round;stroke-width:1.44;"/>
   </g>
   <g id="PathCollection_10">
    <path clip-path="url(#p5940b5b6c8)" d="M 575.392823 368.860822 
L 585.392823 373.860822 
L 585.392823 363.860822 
z
" style="fill:#ccb974;stroke:#ccb974;stroke-width:1.08;"/>
    <path clip-path="url(#p5940b5b6c8)" d="M 682.618587 350.301804 
L 692.618587 355.301804 
L 692.618587 345.301804 
z
" style="fill:#ccb974;stroke:#ccb974;stroke-width:1.08;"/>
    <path clip-path="url(#p5940b5b6c8)" d="M 789.84435 292.507032 
L 799.84435 297.507032 
L 799.84435 287.507032 
z
" style="fill:#ccb974;stroke:#ccb974;stroke-width:1.08;"/>
    <path clip-path="url(#p5940b5b6c8)" d="M 897.070114 222.25007 
L 907.070114 227.25007 
L 907.070114 217.25007 
z
" style="fill:#ccb974;stroke:#ccb974;stroke-width:1.08;"/>
   </g>
   <g id="line2d_74">
    <path clip-path="url(#p5940b5b6c8)" d="M 580.392823 368.860822 
L 687.618587 350.301804 
L 794.84435 292.507032 
L 902.070114 222.25007 
" style="fill:none;stroke:#ccb974;stroke-linecap:round;stroke-width:1.44;"/>
   </g>
   <g id="line2d_75">
    <path clip-path="url(#p5940b5b6c8)" d="M 580.392823 368.926397 
L 580.392823 368.795363 
" style="fill:none;stroke:#ccb974;stroke-linecap:round;stroke-width:1.44;"/>
   </g>
   <g id="line2d_76">
    <path clip-path="url(#p5940b5b6c8)" d="M 687.618587 350.468835 
L 687.618587 350.140261 
" style="fill:none;stroke:#ccb974;stroke-linecap:round;stroke-width:1.44;"/>
   </g>
   <g id="line2d_77">
    <path clip-path="url(#p5940b5b6c8)" d="M 794.84435 292.777528 
L 794.84435 292.221791 
" style="fill:none;stroke:#ccb974;stroke-linecap:round;stroke-width:1.44;"/>
   </g>
   <g id="line2d_78">
    <path clip-path="url(#p5940b5b6c8)" d="M 902.070114 222.646374 
L 902.070114 221.829378 
" style="fill:none;stroke:#ccb974;stroke-linecap:round;stroke-width:1.44;"/>
   </g>
  </g>
  <g id="axes_3">
   <g id="patch_8">
    <path d="M 981.550508 391.795 
L 1410.453562 391.795 
L 1410.453562 30.635 
L 981.550508 30.635 
z
" style="fill:#ffffff;"/>
   </g>
   <g id="matplotlib.axis_5">
    <g id="xtick_9">
     <g id="line2d_79"/>
     <g id="text_19">
      <!-- 100 -->
      <g style="fill:#262626;" transform="translate(1018.743078 413.795)scale(0.2 -0.2)">
       <use xlink:href="#Roboto-Thin-31"/>
       <use x="54.736328" xlink:href="#Roboto-Thin-30"/>
       <use x="109.472656" xlink:href="#Roboto-Thin-30"/>
      </g>
     </g>
    </g>
    <g id="xtick_10">
     <g id="line2d_80"/>
     <g id="text_20">
      <!-- 200 -->
      <g style="fill:#262626;" transform="translate(1125.968841 413.795)scale(0.2 -0.2)">
       <use xlink:href="#Roboto-Thin-32"/>
       <use x="54.736328" xlink:href="#Roboto-Thin-30"/>
       <use x="109.472656" xlink:href="#Roboto-Thin-30"/>
      </g>
     </g>
    </g>
    <g id="xtick_11">
     <g id="line2d_81"/>
     <g id="text_21">
      <!-- 400 -->
      <g style="fill:#262626;" transform="translate(1233.194605 413.795)scale(0.2 -0.2)">
       <use xlink:href="#Roboto-Thin-34"/>
       <use x="54.736328" xlink:href="#Roboto-Thin-30"/>
       <use x="109.472656" xlink:href="#Roboto-Thin-30"/>
      </g>
     </g>
    </g>
    <g id="xtick_12">
     <g id="line2d_82"/>
     <g id="text_22">
      <!-- 600 -->
      <g style="fill:#262626;" transform="translate(1340.420368 413.795)scale(0.2 -0.2)">
       <use xlink:href="#Roboto-Thin-36"/>
       <use x="54.736328" xlink:href="#Roboto-Thin-30"/>
       <use x="109.472656" xlink:href="#Roboto-Thin-30"/>
      </g>
     </g>
    </g>
    <g id="text_23">
     <!-- Nodes -->
     <g style="fill:#262626;" transform="translate(1165.129848 438.3575)scale(0.22 -0.22)">
      <use xlink:href="#Roboto-Thin-4e"/>
      <use x="70.751953" xlink:href="#Roboto-Thin-6f"/>
      <use x="125.78125" xlink:href="#Roboto-Thin-64"/>
      <use x="180.517578" xlink:href="#Roboto-Thin-65"/>
      <use x="230.908203" xlink:href="#Roboto-Thin-73"/>
     </g>
    </g>
   </g>
   <g id="matplotlib.axis_6">
    <g id="ytick_11">
     <g id="line2d_83">
      <path clip-path="url(#p6522bcd57d)" d="M 981.550508 377.13941 
L 1410.453562 377.13941 
" style="fill:none;stroke:#cccccc;stroke-linecap:round;"/>
     </g>
     <g id="line2d_84"/>
    </g>
    <g id="ytick_12">
     <g id="line2d_85">
      <path clip-path="url(#p6522bcd57d)" d="M 981.550508 300.618398 
L 1410.453562 300.618398 
" style="fill:none;stroke:#cccccc;stroke-linecap:round;"/>
     </g>
     <g id="line2d_86"/>
    </g>
    <g id="ytick_13">
     <g id="line2d_87">
      <path clip-path="url(#p6522bcd57d)" d="M 981.550508 224.097386 
L 1410.453562 224.097386 
" style="fill:none;stroke:#cccccc;stroke-linecap:round;"/>
     </g>
     <g id="line2d_88"/>
    </g>
    <g id="ytick_14">
     <g id="line2d_89">
      <path clip-path="url(#p6522bcd57d)" d="M 981.550508 147.576375 
L 1410.453562 147.576375 
" style="fill:none;stroke:#cccccc;stroke-linecap:round;"/>
     </g>
     <g id="line2d_90"/>
    </g>
    <g id="ytick_15">
     <g id="line2d_91">
      <path clip-path="url(#p6522bcd57d)" d="M 981.550508 71.055363 
L 1410.453562 71.055363 
" style="fill:none;stroke:#cccccc;stroke-linecap:round;"/>
     </g>
     <g id="line2d_92"/>
    </g>
   </g>
   <g id="PathCollection_11">
    <defs>
     <path d="M 0 5 
C 1.326016 5 2.597899 4.473168 3.535534 3.535534 
C 4.473168 2.597899 5 1.326016 5 0 
C 5 -1.326016 4.473168 -2.597899 3.535534 -3.535534 
C 2.597899 -4.473168 1.326016 -5 0 -5 
C -1.326016 -5 -2.597899 -4.473168 -3.535534 -3.535534 
C -4.473168 -2.597899 -5 -1.326016 -5 0 
C -5 1.326016 -4.473168 2.597899 -3.535534 3.535534 
C -2.597899 4.473168 -1.326016 5 0 5 
z
" id="C2_0_b4e6031af0"/>
    </defs>
    <g clip-path="url(#p6522bcd57d)">
     <use style="fill:#4c72b0;stroke:#4c72b0;stroke-width:1.08;" x="1035.16339" xlink:href="#C2_0_b4e6031af0" y="351.661776"/>
    </g>
    <g clip-path="url(#p6522bcd57d)">
     <use style="fill:#4c72b0;stroke:#4c72b0;stroke-width:1.08;" x="1142.389154" xlink:href="#C2_0_b4e6031af0" y="301.420976"/>
    </g>
    <g clip-path="url(#p6522bcd57d)">
     <use style="fill:#4c72b0;stroke:#4c72b0;stroke-width:1.08;" x="1249.614917" xlink:href="#C2_0_b4e6031af0" y="190.520631"/>
    </g>
    <g clip-path="url(#p6522bcd57d)">
     <use style="fill:#4c72b0;stroke:#4c72b0;stroke-width:1.08;" x="1356.84068" xlink:href="#C2_0_b4e6031af0" y="48.676482"/>
    </g>
   </g>
   <g id="line2d_93">
    <path clip-path="url(#p6522bcd57d)" d="M 1035.16339 351.661776 
L 1142.389154 301.420976 
L 1249.614917 190.520631 
L 1356.84068 48.676482 
" style="fill:none;stroke:#4c72b0;stroke-linecap:round;stroke-width:1.44;"/>
   </g>
   <g id="line2d_94">
    <path clip-path="url(#p6522bcd57d)" d="M 1035.16339 351.98205 
L 1035.16339 351.324813 
" style="fill:none;stroke:#4c72b0;stroke-linecap:round;stroke-width:1.44;"/>
   </g>
   <g id="line2d_95">
    <path clip-path="url(#p6522bcd57d)" d="M 1142.389154 301.850434 
L 1142.389154 301.008197 
" style="fill:none;stroke:#4c72b0;stroke-linecap:round;stroke-width:1.44;"/>
   </g>
   <g id="line2d_96">
    <path clip-path="url(#p6522bcd57d)" d="M 1249.614917 191.330904 
L 1249.614917 189.712563 
" style="fill:none;stroke:#4c72b0;stroke-linecap:round;stroke-width:1.44;"/>
   </g>
   <g id="line2d_97">
    <path clip-path="url(#p6522bcd57d)" d="M 1356.84068 50.275481 
L 1356.84068 47.132204 
" style="fill:none;stroke:#4c72b0;stroke-linecap:round;stroke-width:1.44;"/>
   </g>
   <g id="PathCollection_12">
    <path clip-path="url(#p6522bcd57d)" d="M 1030.16339 378.753118 
L 1040.16339 378.753118 
L 1040.16339 368.753118 
L 1030.16339 368.753118 
z
" style="fill:#55a868;stroke:#55a868;stroke-width:1.08;"/>
    <path clip-path="url(#p6522bcd57d)" d="M 1137.389154 378.664763 
L 1147.389154 378.664763 
L 1147.389154 368.664763 
L 1137.389154 368.664763 
z
" style="fill:#55a868;stroke:#55a868;stroke-width:1.08;"/>
    <path clip-path="url(#p6522bcd57d)" d="M 1244.614917 378.648089 
L 1254.614917 378.648089 
L 1254.614917 368.648089 
L 1244.614917 368.648089 
z
" style="fill:#55a868;stroke:#55a868;stroke-width:1.08;"/>
    <path clip-path="url(#p6522bcd57d)" d="M 1351.84068 378.635753 
L 1361.84068 378.635753 
L 1361.84068 368.635753 
L 1351.84068 368.635753 
z
" style="fill:#55a868;stroke:#55a868;stroke-width:1.08;"/>
   </g>
   <g id="line2d_98">
    <path clip-path="url(#p6522bcd57d)" d="M 1035.16339 373.753118 
L 1142.389154 373.664763 
L 1249.614917 373.648089 
L 1356.84068 373.635753 
" style="fill:none;stroke:#55a868;stroke-linecap:round;stroke-width:1.44;"/>
   </g>
   <g id="line2d_99">
    <path clip-path="url(#p6522bcd57d)" d="M 1035.16339 373.783257 
L 1035.16339 373.722138 
" style="fill:none;stroke:#55a868;stroke-linecap:round;stroke-width:1.44;"/>
   </g>
   <g id="line2d_100">
    <path clip-path="url(#p6522bcd57d)" d="M 1142.389154 373.689244 
L 1142.389154 373.637924 
" style="fill:none;stroke:#55a868;stroke-linecap:round;stroke-width:1.44;"/>
   </g>
   <g id="line2d_101">
    <path clip-path="url(#p6522bcd57d)" d="M 1249.614917 373.677599 
L 1249.614917 373.618842 
" style="fill:none;stroke:#55a868;stroke-linecap:round;stroke-width:1.44;"/>
   </g>
   <g id="line2d_102">
    <path clip-path="url(#p6522bcd57d)" d="M 1356.84068 373.661356 
L 1356.84068 373.61148 
" style="fill:none;stroke:#55a868;stroke-linecap:round;stroke-width:1.44;"/>
   </g>
   <g id="patch_9">
    <path d="M 981.550508 391.795 
L 981.550508 30.635 
" style="fill:none;stroke:#cccccc;stroke-linecap:square;stroke-linejoin:miter;"/>
   </g>
   <g id="patch_10">
    <path d="M 981.550508 391.795 
L 1410.453562 391.795 
" style="fill:none;stroke:#cccccc;stroke-linecap:square;stroke-linejoin:miter;"/>
   </g>
   <g id="PathCollection_13">
    <path clip-path="url(#p6522bcd57d)" d="M 1035.16339 352.947707 
L 1030.16339 362.947707 
L 1040.16339 362.947707 
z
" style="fill:#c44e52;stroke:#c44e52;stroke-width:1.08;"/>
    <path clip-path="url(#p6522bcd57d)" d="M 1142.389154 312.704584 
L 1137.389154 322.704584 
L 1147.389154 322.704584 
z
" style="fill:#c44e52;stroke:#c44e52;stroke-width:1.08;"/>
    <path clip-path="url(#p6522bcd57d)" d="M 1249.614917 212.651331 
L 1244.614917 222.651331 
L 1254.614917 222.651331 
z
" style="fill:#c44e52;stroke:#c44e52;stroke-width:1.08;"/>
    <path clip-path="url(#p6522bcd57d)" d="M 1356.84068 106.560418 
L 1351.84068 116.560418 
L 1361.84068 116.560418 
z
" style="fill:#c44e52;stroke:#c44e52;stroke-width:1.08;"/>
   </g>
   <g id="line2d_103">
    <path clip-path="url(#p6522bcd57d)" d="M 1035.16339 357.947707 
L 1142.389154 317.704584 
L 1249.614917 217.651331 
L 1356.84068 111.560418 
" style="fill:none;stroke:#c44e52;stroke-linecap:round;stroke-width:1.44;"/>
   </g>
   <g id="line2d_104">
    <path clip-path="url(#p6522bcd57d)" d="M 1035.16339 358.174523 
L 1035.16339 357.706033 
" style="fill:none;stroke:#c44e52;stroke-linecap:round;stroke-width:1.44;"/>
   </g>
   <g id="line2d_105">
    <path clip-path="url(#p6522bcd57d)" d="M 1142.389154 318.131561 
L 1142.389154 317.220846 
" style="fill:none;stroke:#c44e52;stroke-linecap:round;stroke-width:1.44;"/>
   </g>
   <g id="line2d_106">
    <path clip-path="url(#p6522bcd57d)" d="M 1249.614917 218.288278 
L 1249.614917 217.02368 
" style="fill:none;stroke:#c44e52;stroke-linecap:round;stroke-width:1.44;"/>
   </g>
   <g id="line2d_107">
    <path clip-path="url(#p6522bcd57d)" d="M 1356.84068 112.567785 
L 1356.84068 110.590735 
" style="fill:none;stroke:#c44e52;stroke-linecap:round;stroke-width:1.44;"/>
   </g>
   <g id="text_24">
    <!-- Message creation interval (s) = 60, 120 -->
    <g style="fill:#262626;" transform="translate(1013.790473 24.635)scale(0.22 -0.22)">
     <use xlink:href="#Roboto-Thin-4d"/>
     <use x="85.742188" xlink:href="#Roboto-Thin-65"/>
     <use x="136.132812" xlink:href="#Roboto-Thin-73"/>
     <use x="185.888672" xlink:href="#Roboto-Thin-73"/>
     <use x="235.644531" xlink:href="#Roboto-Thin-61"/>
     <use x="288.427734" xlink:href="#Roboto-Thin-67"/>
     <use x="343.261719" xlink:href="#Roboto-Thin-65"/>
     <use x="393.652344" xlink:href="#Roboto-Thin-20"/>
     <use x="417.578125" xlink:href="#Roboto-Thin-63"/>
     <use x="468.310547" xlink:href="#Roboto-Thin-72"/>
     <use x="501.757812" xlink:href="#Roboto-Thin-65"/>
     <use x="552.148438" xlink:href="#Roboto-Thin-61"/>
     <use x="604.931641" xlink:href="#Roboto-Thin-74"/>
     <use x="636.572266" xlink:href="#Roboto-Thin-69"/>
     <use x="657.177734" xlink:href="#Roboto-Thin-6f"/>
     <use x="712.207031" xlink:href="#Roboto-Thin-6e"/>
     <use x="766.943359" xlink:href="#Roboto-Thin-20"/>
     <use x="790.869141" xlink:href="#Roboto-Thin-69"/>
     <use x="811.474609" xlink:href="#Roboto-Thin-6e"/>
     <use x="866.210938" xlink:href="#Roboto-Thin-74"/>
     <use x="897.851562" xlink:href="#Roboto-Thin-65"/>
     <use x="948.242188" xlink:href="#Roboto-Thin-72"/>
     <use x="981.689453" xlink:href="#Roboto-Thin-76"/>
     <use x="1029.443359" xlink:href="#Roboto-Thin-61"/>
     <use x="1082.226562" xlink:href="#Roboto-Thin-6c"/>
     <use x="1102.832031" xlink:href="#Roboto-Thin-20"/>
     <use x="1126.757812" xlink:href="#Roboto-Thin-28"/>
     <use x="1156.396484" xlink:href="#Roboto-Thin-73"/>
     <use x="1206.152344" xlink:href="#Roboto-Thin-29"/>
     <use x="1236.572266" xlink:href="#Roboto-Thin-20"/>
     <use x="1260.498047" xlink:href="#Roboto-Thin-3d"/>
     <use x="1316.259766" xlink:href="#Roboto-Thin-20"/>
     <use x="1340.185547" xlink:href="#Roboto-Thin-36"/>
     <use x="1394.921875" xlink:href="#Roboto-Thin-30"/>
     <use x="1449.658203" xlink:href="#Roboto-Thin-2c"/>
     <use x="1468.359375" xlink:href="#Roboto-Thin-20"/>
     <use x="1492.285156" xlink:href="#Roboto-Thin-31"/>
     <use x="1547.021484" xlink:href="#Roboto-Thin-32"/>
     <use x="1601.757812" xlink:href="#Roboto-Thin-30"/>
    </g>
   </g>
   <g id="PathCollection_14">
    <path clip-path="url(#p6522bcd57d)" d="M 1035.16339 364.251775 
L 1040.16339 354.251775 
L 1030.16339 354.251775 
z
" style="fill:#8172b2;stroke:#8172b2;stroke-width:1.08;"/>
    <path clip-path="url(#p6522bcd57d)" d="M 1142.389154 325.586845 
L 1147.389154 315.586845 
L 1137.389154 315.586845 
z
" style="fill:#8172b2;stroke:#8172b2;stroke-width:1.08;"/>
    <path clip-path="url(#p6522bcd57d)" d="M 1249.614917 241.10785 
L 1254.614917 231.10785 
L 1244.614917 231.10785 
z
" style="fill:#8172b2;stroke:#8172b2;stroke-width:1.08;"/>
    <path clip-path="url(#p6522bcd57d)" d="M 1356.84068 161.209622 
L 1361.84068 151.209622 
L 1351.84068 151.209622 
z
" style="fill:#8172b2;stroke:#8172b2;stroke-width:1.08;"/>
   </g>
   <g id="line2d_108">
    <path clip-path="url(#p6522bcd57d)" d="M 1035.16339 359.251775 
L 1142.389154 320.586845 
L 1249.614917 236.10785 
L 1356.84068 156.209622 
" style="fill:none;stroke:#8172b2;stroke-linecap:round;stroke-width:1.44;"/>
   </g>
   <g id="line2d_109">
    <path clip-path="url(#p6522bcd57d)" d="M 1035.16339 359.465503 
L 1035.16339 359.051982 
" style="fill:none;stroke:#8172b2;stroke-linecap:round;stroke-width:1.44;"/>
   </g>
   <g id="line2d_110">
    <path clip-path="url(#p6522bcd57d)" d="M 1142.389154 320.872015 
L 1142.389154 320.298978 
" style="fill:none;stroke:#8172b2;stroke-linecap:round;stroke-width:1.44;"/>
   </g>
   <g id="line2d_111">
    <path clip-path="url(#p6522bcd57d)" d="M 1249.614917 236.574586 
L 1249.614917 235.635623 
" style="fill:none;stroke:#8172b2;stroke-linecap:round;stroke-width:1.44;"/>
   </g>
   <g id="line2d_112">
    <path clip-path="url(#p6522bcd57d)" d="M 1356.84068 156.804669 
L 1356.84068 155.599502 
" style="fill:none;stroke:#8172b2;stroke-linecap:round;stroke-width:1.44;"/>
   </g>
   <g id="PathCollection_15">
    <path clip-path="url(#p6522bcd57d)" d="M 1030.16339 360.236166 
L 1040.16339 365.236166 
L 1040.16339 355.236166 
z
" style="fill:#ccb974;stroke:#ccb974;stroke-width:1.08;"/>
    <path clip-path="url(#p6522bcd57d)" d="M 1137.389154 329.787746 
L 1147.389154 334.787746 
L 1147.389154 324.787746 
z
" style="fill:#ccb974;stroke:#ccb974;stroke-width:1.08;"/>
    <path clip-path="url(#p6522bcd57d)" d="M 1244.614917 261.989819 
L 1254.614917 266.989819 
L 1254.614917 256.989819 
z
" style="fill:#ccb974;stroke:#ccb974;stroke-width:1.08;"/>
    <path clip-path="url(#p6522bcd57d)" d="M 1351.84068 189.625705 
L 1361.84068 194.625705 
L 1361.84068 184.625705 
z
" style="fill:#ccb974;stroke:#ccb974;stroke-width:1.08;"/>
   </g>
   <g id="line2d_113">
    <path clip-path="url(#p6522bcd57d)" d="M 1035.16339 360.236166 
L 1142.389154 329.787746 
L 1249.614917 261.989819 
L 1356.84068 189.625705 
" style="fill:none;stroke:#ccb974;stroke-linecap:round;stroke-width:1.44;"/>
   </g>
   <g id="line2d_114">
    <path clip-path="url(#p6522bcd57d)" d="M 1035.16339 360.383805 
L 1035.16339 360.085607 
" style="fill:none;stroke:#ccb974;stroke-linecap:round;stroke-width:1.44;"/>
   </g>
   <g id="line2d_115">
    <path clip-path="url(#p6522bcd57d)" d="M 1142.389154 330.092534 
L 1142.389154 329.486884 
" style="fill:none;stroke:#ccb974;stroke-linecap:round;stroke-width:1.44;"/>
   </g>
   <g id="line2d_116">
    <path clip-path="url(#p6522bcd57d)" d="M 1249.614917 262.579599 
L 1249.614917 261.461194 
" style="fill:none;stroke:#ccb974;stroke-linecap:round;stroke-width:1.44;"/>
   </g>
   <g id="line2d_117">
    <path clip-path="url(#p6522bcd57d)" d="M 1356.84068 190.473613 
L 1356.84068 188.682351 
" style="fill:none;stroke:#ccb974;stroke-linecap:round;stroke-width:1.44;"/>
   </g>
  </g>
  <g id="legend_1">
   <g id="text_25">
    <!-- Algorithm -->
    <defs>
     <path d="M 47.21875 21.234375 
L 12.40625 21.234375 
L 4.5 0 
L 1.609375 0 
L 28.21875 71.09375 
L 31.453125 71.09375 
L 58.0625 0 
L 55.171875 0 
z
M 13.375 23.875 
L 46.234375 23.875 
L 29.828125 67.921875 
z
" id="Roboto-Thin-41"/>
     <path d="M 46.1875 0 
L 43.5625 0 
L 43.5625 35.5 
Q 43.5 43.453125 40.0625 47.328125 
Q 36.625 51.21875 29.109375 51.21875 
Q 20.40625 51.21875 14.890625 43.5625 
Q 11.625 38.96875 10.546875 33.40625 
L 10.546875 0 
L 7.859375 0 
L 7.859375 52.828125 
L 10.546875 52.828125 
L 10.546875 40.328125 
Q 13.234375 46.78125 18.203125 50.296875 
Q 23.1875 53.8125 29.25 53.8125 
Q 35.890625 53.8125 40.109375 50.875 
Q 44.34375 47.953125 45.65625 41.3125 
Q 48 47.015625 53.265625 50.40625 
Q 58.546875 53.8125 65.09375 53.8125 
Q 73.640625 53.8125 77.8125 48.96875 
Q 81.984375 44.140625 82.03125 34.46875 
L 82.03125 0 
L 79.390625 0 
L 79.390625 34.28125 
Q 79.390625 42.96875 75.890625 47.140625 
Q 72.40625 51.3125 64.9375 51.21875 
Q 55.328125 51.078125 49.703125 43.5625 
Q 46.484375 39.203125 46.1875 35.15625 
z
" id="Roboto-Thin-6d"/>
    </defs>
    <g style="fill:#262626;" transform="translate(1471.865703 157.274992)scale(0.187 -0.187)">
     <use xlink:href="#Roboto-Thin-41"/>
     <use x="59.716797" xlink:href="#Roboto-Thin-6c"/>
     <use x="80.322266" xlink:href="#Roboto-Thin-67"/>
     <use x="135.15625" xlink:href="#Roboto-Thin-6f"/>
     <use x="190.185547" xlink:href="#Roboto-Thin-72"/>
     <use x="223.632812" xlink:href="#Roboto-Thin-69"/>
     <use x="244.238281" xlink:href="#Roboto-Thin-74"/>
     <use x="275.878906" xlink:href="#Roboto-Thin-68"/>
     <use x="330.615234" xlink:href="#Roboto-Thin-6d"/>
    </g>
   </g>
   <g id="PathCollection_16">
    <path d="M 1441.897937 186.421825 
C 1443.333831 186.421825 1444.711107 185.851338 1445.726438 184.836008 
C 1446.741768 183.820678 1447.312254 182.443401 1447.312254 181.007508 
C 1447.312254 179.571614 1446.741768 178.194338 1445.726438 177.179007 
C 1444.711107 176.163677 1443.333831 175.593191 1441.897937 175.593191 
C 1440.462044 175.593191 1439.084767 176.163677 1438.069437 177.179007 
C 1437.054107 178.194338 1436.48362 179.571614 1436.48362 181.007508 
C 1436.48362 182.443401 1437.054107 183.820678 1438.069437 184.836008 
C 1439.084767 185.851338 1440.462044 186.421825 1441.897937 186.421825 
z
" style="fill:#4c72b0;stroke:#4c72b0;stroke-width:1.08;"/>
   </g>
   <g id="text_26">
    <!-- Epidemic -->
    <defs>
     <path d="M 48.046875 35.25 
L 12.40625 35.25 
L 12.40625 2.640625 
L 53.03125 2.640625 
L 53.03125 0 
L 9.765625 0 
L 9.765625 71.09375 
L 53.03125 71.09375 
L 53.03125 68.453125 
L 12.40625 68.453125 
L 12.40625 37.890625 
L 48.046875 37.890625 
z
" id="Roboto-Thin-45"/>
     <path d="M 48.78125 25.921875 
Q 48.78125 13.578125 43.453125 6.296875 
Q 38.140625 -0.984375 28.953125 -0.984375 
Q 22.953125 -0.984375 18.265625 1.453125 
Q 13.578125 3.90625 10.9375 8.203125 
L 10.9375 -20.3125 
L 8.296875 -20.3125 
L 8.296875 52.828125 
L 10.9375 52.828125 
L 10.9375 43.40625 
Q 13.671875 48.4375 18.3125 51.125 
Q 22.953125 53.8125 28.859375 53.8125 
Q 38.140625 53.8125 43.453125 46.703125 
Q 48.78125 39.59375 48.78125 26.765625 
z
M 46.09375 26.953125 
Q 46.09375 38.328125 41.578125 44.75 
Q 37.0625 51.171875 28.90625 51.171875 
Q 22.265625 51.171875 17.625 47.71875 
Q 12.984375 44.28125 10.9375 37.84375 
L 10.9375 13.140625 
Q 12.984375 7.671875 17.640625 4.65625 
Q 22.3125 1.65625 29 1.65625 
Q 37.109375 1.65625 41.59375 8.09375 
Q 46.09375 14.546875 46.09375 26.953125 
z
" id="Roboto-Thin-70"/>
    </defs>
    <g style="fill:#262626;" transform="translate(1477.897937 186.257508)scale(0.2 -0.2)">
     <use xlink:href="#Roboto-Thin-45"/>
     <use x="56.933594" xlink:href="#Roboto-Thin-70"/>
     <use x="111.669922" xlink:href="#Roboto-Thin-69"/>
     <use x="132.275391" xlink:href="#Roboto-Thin-64"/>
     <use x="187.011719" xlink:href="#Roboto-Thin-65"/>
     <use x="237.402344" xlink:href="#Roboto-Thin-6d"/>
     <use x="327.050781" xlink:href="#Roboto-Thin-69"/>
     <use x="347.65625" xlink:href="#Roboto-Thin-63"/>
    </g>
   </g>
   <g id="PathCollection_17">
    <path d="M 1436.48362 215.484325 
L 1447.312254 215.484325 
L 1447.312254 204.655691 
L 1436.48362 204.655691 
z
" style="fill:#55a868;stroke:#55a868;stroke-width:1.08;"/>
   </g>
   <g id="text_27">
    <!-- SprayAndWait -->
    <defs>
     <path d="M 52.34375 17.046875 
Q 52.34375 21.578125 50.21875 24.71875 
Q 48.09375 27.875 43.53125 30.296875 
Q 38.96875 32.71875 29.734375 35.25 
Q 20.515625 37.796875 15.890625 40.375 
Q 11.28125 42.96875 9.125 46.390625 
Q 6.984375 49.8125 6.984375 54.6875 
Q 6.984375 62.453125 13.515625 67.265625 
Q 20.0625 72.078125 30.5625 72.078125 
Q 37.40625 72.078125 42.84375 69.40625 
Q 48.296875 66.75 51.265625 61.9375 
Q 54.25 57.125 54.25 51.078125 
L 51.609375 51.078125 
Q 51.609375 59.03125 45.75 64.234375 
Q 39.890625 69.4375 30.5625 69.4375 
Q 21.1875 69.4375 15.40625 65.25 
Q 9.625 61.078125 9.625 54.78125 
Q 9.625 48.390625 14.640625 44.484375 
Q 19.671875 40.578125 31.25 37.578125 
Q 42.828125 34.578125 48.1875 30.609375 
Q 55.03125 25.59375 55.03125 17.140625 
Q 55.03125 11.765625 52 7.640625 
Q 48.96875 3.515625 43.40625 1.265625 
Q 37.84375 -0.984375 30.90625 -0.984375 
Q 23.1875 -0.984375 17.03125 1.578125 
Q 10.890625 4.15625 7.78125 8.890625 
Q 4.6875 13.625 4.6875 20.0625 
L 7.328125 20.0625 
Q 7.328125 11.328125 13.859375 6.484375 
Q 20.40625 1.65625 30.90625 1.65625 
Q 40.234375 1.65625 46.28125 5.921875 
Q 52.34375 10.203125 52.34375 17.046875 
z
" id="Roboto-Thin-53"/>
     <path d="M 24.5625 4.109375 
L 24.90625 5.078125 
L 43.171875 52.828125 
L 46.09375 52.828125 
L 22.46875 -9.1875 
L 21.296875 -12.109375 
Q 17.484375 -21.34375 8.6875 -21.34375 
Q 5.859375 -21.34375 4.78125 -20.796875 
L 4.734375 -18.3125 
Q 6.296875 -18.75 8.296875 -18.75 
Q 12.453125 -18.75 15.1875 -16.328125 
Q 17.921875 -13.921875 19.921875 -8.453125 
L 23.140625 0.296875 
L 2.09375 52.828125 
L 4.984375 52.828125 
z
" id="Roboto-Thin-79"/>
     <path d="M 23.875 4.390625 
L 27.09375 16.109375 
L 43.890625 71.09375 
L 46.828125 71.09375 
L 63.53125 16.109375 
L 66.703125 4.390625 
L 70.015625 16.109375 
L 84.671875 71.09375 
L 87.546875 71.09375 
L 68.40625 0 
L 65.4375 0 
L 47.796875 59.28125 
L 45.3125 66.796875 
L 42.921875 59.28125 
L 25.140625 0 
L 22.171875 0 
L 2.984375 71.09375 
L 5.90625 71.09375 
L 20.65625 16.109375 
z
" id="Roboto-Thin-57"/>
    </defs>
    <g style="fill:#262626;" transform="translate(1477.897937 215.320008)scale(0.2 -0.2)">
     <use xlink:href="#Roboto-Thin-53"/>
     <use x="59.130859" xlink:href="#Roboto-Thin-70"/>
     <use x="113.867188" xlink:href="#Roboto-Thin-72"/>
     <use x="147.314453" xlink:href="#Roboto-Thin-61"/>
     <use x="200.097656" xlink:href="#Roboto-Thin-79"/>
     <use x="247.851562" xlink:href="#Roboto-Thin-41"/>
     <use x="307.568359" xlink:href="#Roboto-Thin-6e"/>
     <use x="362.304688" xlink:href="#Roboto-Thin-64"/>
     <use x="417.041016" xlink:href="#Roboto-Thin-57"/>
     <use x="507.617188" xlink:href="#Roboto-Thin-61"/>
     <use x="560.400391" xlink:href="#Roboto-Thin-69"/>
     <use x="581.005859" xlink:href="#Roboto-Thin-74"/>
    </g>
   </g>
   <g id="PathCollection_18">
    <path d="M 1441.897937 233.924441 
L 1436.48362 244.753075 
L 1447.312254 244.753075 
z
" style="fill:#c44e52;stroke:#c44e52;stroke-width:1.08;"/>
   </g>
   <g id="text_28">
    <!-- Prophet -->
    <defs>
     <path d="M 12.40625 30.03125 
L 12.40625 0 
L 9.765625 0 
L 9.765625 71.09375 
L 31.984375 71.09375 
Q 42.875 71.09375 48.90625 65.59375 
Q 54.9375 60.109375 54.9375 50.34375 
Q 54.9375 40.671875 49.046875 35.390625 
Q 43.171875 30.125 32.328125 30.03125 
z
M 12.40625 32.671875 
L 31.984375 32.671875 
Q 41.609375 32.671875 46.953125 37.296875 
Q 52.296875 41.9375 52.296875 50.25 
Q 52.296875 58.84375 46.953125 63.640625 
Q 41.609375 68.453125 31.984375 68.453125 
L 12.40625 68.453125 
z
" id="Roboto-Thin-50"/>
    </defs>
    <g style="fill:#262626;" transform="translate(1477.897937 244.588758)scale(0.2 -0.2)">
     <use xlink:href="#Roboto-Thin-50"/>
     <use x="60.058594" xlink:href="#Roboto-Thin-72"/>
     <use x="93.505859" xlink:href="#Roboto-Thin-6f"/>
     <use x="148.535156" xlink:href="#Roboto-Thin-70"/>
     <use x="203.271484" xlink:href="#Roboto-Thin-68"/>
     <use x="258.007812" xlink:href="#Roboto-Thin-65"/>
     <use x="308.398438" xlink:href="#Roboto-Thin-74"/>
    </g>
   </g>
   <g id="PathCollection_19">
    <path d="M 1441.897937 273.815575 
L 1447.312254 262.986941 
L 1436.48362 262.986941 
z
" style="fill:#8172b2;stroke:#8172b2;stroke-width:1.08;"/>
   </g>
   <g id="text_29">
    <!-- Seer -->
    <g style="fill:#262626;" transform="translate(1477.897937 273.651258)scale(0.2 -0.2)">
     <use xlink:href="#Roboto-Thin-53"/>
     <use x="59.130859" xlink:href="#Roboto-Thin-65"/>
     <use x="109.521484" xlink:href="#Roboto-Thin-65"/>
     <use x="159.912109" xlink:href="#Roboto-Thin-72"/>
    </g>
   </g>
   <g id="PathCollection_20">
    <path d="M 1436.48362 297.463758 
L 1447.312254 302.878075 
L 1447.312254 292.049441 
z
" style="fill:#ccb974;stroke:#ccb974;stroke-width:1.08;"/>
   </g>
   <g id="text_30">
    <!-- BFGMP -->
    <defs>
     <path d="M 9.765625 0 
L 9.765625 71.09375 
L 28.46875 71.09375 
Q 39.9375 71.09375 45.8125 66.421875 
Q 51.703125 61.765625 51.703125 52.875 
Q 51.703125 46.4375 48.4375 42.1875 
Q 45.171875 37.9375 39.203125 36.765625 
Q 45.953125 35.890625 50.4375 30.9375 
Q 54.9375 25.984375 54.9375 19.578125 
Q 54.9375 10.5 49.046875 5.25 
Q 43.171875 0 32.671875 0 
z
M 12.40625 35.109375 
L 12.40625 2.640625 
L 32.953125 2.640625 
Q 42 2.640625 47.140625 7.109375 
Q 52.296875 11.578125 52.296875 19.484375 
Q 52.296875 26.21875 47.3125 30.59375 
Q 42.328125 34.96875 33.984375 35.109375 
z
M 12.40625 37.75 
L 29.4375 37.75 
Q 39.15625 37.75 44.09375 41.484375 
Q 49.03125 45.21875 49.03125 53.078125 
Q 49.03125 68.21875 29.046875 68.453125 
L 12.40625 68.453125 
z
" id="Roboto-Thin-42"/>
     <path d="M 48.828125 34.96875 
L 12.40625 34.96875 
L 12.40625 0 
L 9.765625 0 
L 9.765625 71.09375 
L 53.8125 71.09375 
L 53.8125 68.453125 
L 12.40625 68.453125 
L 12.40625 37.703125 
L 48.828125 37.703125 
z
" id="Roboto-Thin-46"/>
     <path d="M 59.859375 7.625 
Q 57.171875 3.90625 50.4375 1.453125 
Q 43.703125 -0.984375 35.59375 -0.984375 
Q 27.6875 -0.984375 21.484375 2.875 
Q 15.28125 6.734375 11.78125 13.765625 
Q 8.296875 20.796875 8.203125 29.6875 
L 8.203125 41.890625 
Q 8.203125 50.640625 11.5625 57.5625 
Q 14.9375 64.5 21.046875 68.28125 
Q 27.15625 72.078125 34.765625 72.078125 
Q 45.359375 72.078125 52.015625 66.65625 
Q 58.6875 61.234375 59.765625 51.859375 
L 57.125 51.859375 
Q 55.8125 60.359375 50.046875 64.890625 
Q 44.28125 69.4375 34.765625 69.4375 
Q 24.03125 69.4375 17.4375 61.765625 
Q 10.84375 54.109375 10.84375 41.609375 
L 10.84375 30.28125 
Q 10.84375 21.921875 13.9375 15.375 
Q 17.046875 8.84375 22.6875 5.25 
Q 28.328125 1.65625 35.59375 1.65625 
Q 42.71875 1.65625 48.828125 3.75 
Q 54.9375 5.859375 57.234375 8.84375 
L 57.234375 29.546875 
L 35.5 29.546875 
L 35.5 32.234375 
L 59.859375 32.234375 
z
" id="Roboto-Thin-47"/>
    </defs>
    <g style="fill:#262626;" transform="translate(1477.897937 302.713758)scale(0.2 -0.2)">
     <use xlink:href="#Roboto-Thin-42"/>
     <use x="60.302734" xlink:href="#Roboto-Thin-46"/>
     <use x="117.529297" xlink:href="#Roboto-Thin-47"/>
     <use x="186.181641" xlink:href="#Roboto-Thin-4d"/>
     <use x="271.923828" xlink:href="#Roboto-Thin-50"/>
    </g>
   </g>
  </g>
 </g>
 <defs>
  <clipPath id="ped6c82b94d">
   <rect height="361.16" width="428.903054" x="72.009375" y="30.635"/>
  </clipPath>
  <clipPath id="p5940b5b6c8">
   <rect height="361.16" width="428.903054" x="526.779942" y="30.635"/>
  </clipPath>
  <clipPath id="p6522bcd57d">
   <rect height="361.16" width="428.903054" x="981.550508" y="30.635"/>
  </clipPath>
 </defs>
</svg>
