<?xml version="1.0" encoding="utf-8" standalone="no"?>
<!DOCTYPE svg PUBLIC "-//W3C//DTD SVG 1.1//EN"
  "http://www.w3.org/Graphics/SVG/1.1/DTD/svg11.dtd">
<!-- Created with matplotlib (http://matplotlib.org/) -->
<svg height="450pt" version="1.1" viewBox="0 0 1618 450" width="1618pt" xmlns="http://www.w3.org/2000/svg" xmlns:xlink="http://www.w3.org/1999/xlink">
 <defs>
  <style type="text/css">
*{stroke-linecap:butt;stroke-linejoin:round;}
  </style>
 </defs>
 <g id="figure_1">
  <g id="patch_1">
   <path d="M 0 450.02625 
L 1618.42334 450.02625 
L 1618.42334 0 
L 0 0 
z
" style="fill:#ffffff;"/>
  </g>
  <g id="axes_1">
   <g id="patch_2">
    <path d="M 84.472188 391.795 
L 509.239391 391.795 
L 509.239391 30.635 
L 84.472188 30.635 
z
" style="fill:#ffffff;"/>
   </g>
   <g id="matplotlib.axis_1">
    <g id="xtick_1">
     <g id="line2d_1"/>
     <g id="text_1">
      <!-- 100 -->
      <defs>
       <path d="M 32.171875 0 
L 29.546875 0 
L 29.546875 67.78125 
L 9.125 60.109375 
L 9.125 62.984375 
L 31.640625 71.296875 
L 32.171875 71.296875 
z
" id="Roboto-Thin-31"/>
       <path d="M 48.640625 29 
Q 48.640625 14.703125 43.0625 6.859375 
Q 37.5 -0.984375 27.4375 -0.984375 
Q 17.4375 -0.984375 11.765625 6.921875 
Q 6.109375 14.84375 6.109375 29.203125 
L 6.109375 42.09375 
Q 6.109375 56.25 11.6875 64.1875 
Q 17.28125 72.125 27.34375 72.125 
Q 37.453125 72.125 43.046875 64.1875 
Q 48.640625 56.25 48.640625 41.890625 
z
M 46 42.09375 
Q 46 55.03125 41.140625 62.25 
Q 36.28125 69.484375 27.34375 69.484375 
Q 18.359375 69.484375 13.546875 62.234375 
Q 8.734375 54.984375 8.734375 41.84375 
L 8.734375 29.109375 
Q 8.734375 16.21875 13.671875 8.9375 
Q 18.609375 1.65625 27.4375 1.65625 
Q 36.328125 1.65625 41.15625 8.9375 
Q 46 16.21875 46 29.34375 
z
" id="Roboto-Thin-30"/>
      </defs>
      <g style="fill:#262626;" transform="translate(121.147775 413.795)scale(0.2 -0.2)">
       <use xlink:href="#Roboto-Thin-31"/>
       <use x="54.736328" xlink:href="#Roboto-Thin-30"/>
       <use x="109.472656" xlink:href="#Roboto-Thin-30"/>
      </g>
     </g>
    </g>
    <g id="xtick_2">
     <g id="line2d_2"/>
     <g id="text_2">
      <!-- 200 -->
      <defs>
       <path d="M 50 0 
L 7.46875 0 
L 7.46875 2.640625 
L 31.734375 30.609375 
Q 37.703125 37.59375 40.59375 43.015625 
Q 43.5 48.4375 43.5 52.984375 
Q 43.5 60.796875 38.953125 65.109375 
Q 34.421875 69.4375 26.171875 69.4375 
Q 21.1875 69.4375 17.078125 67.046875 
Q 12.984375 64.65625 10.65625 60.421875 
Q 8.34375 56.203125 8.34375 51.03125 
L 5.71875 51.03125 
Q 5.71875 56.734375 8.34375 61.609375 
Q 10.984375 66.5 15.671875 69.28125 
Q 20.359375 72.078125 26.171875 72.078125 
Q 35.640625 72.078125 40.90625 67.046875 
Q 46.1875 62.015625 46.1875 52.984375 
Q 46.1875 44.671875 36.859375 33.109375 
L 32.421875 27.6875 
L 10.9375 2.640625 
L 50 2.640625 
z
" id="Roboto-Thin-32"/>
      </defs>
      <g style="fill:#262626;" transform="translate(227.339576 413.795)scale(0.2 -0.2)">
       <use xlink:href="#Roboto-Thin-32"/>
       <use x="54.736328" xlink:href="#Roboto-Thin-30"/>
       <use x="109.472656" xlink:href="#Roboto-Thin-30"/>
      </g>
     </g>
    </g>
    <g id="xtick_3">
     <g id="line2d_3"/>
     <g id="text_3">
      <!-- 400 -->
      <defs>
       <path d="M 41.109375 22.015625 
L 53.421875 22.015625 
L 53.421875 19.390625 
L 41.109375 19.390625 
L 41.109375 0 
L 38.484375 0 
L 38.484375 19.390625 
L 4 19.390625 
L 4 20.84375 
L 37.9375 71.09375 
L 41.109375 71.09375 
z
M 8.109375 22.015625 
L 38.484375 22.015625 
L 38.484375 67.921875 
L 34.375 61.1875 
z
" id="Roboto-Thin-34"/>
      </defs>
      <g style="fill:#262626;" transform="translate(333.531377 413.795)scale(0.2 -0.2)">
       <use xlink:href="#Roboto-Thin-34"/>
       <use x="54.736328" xlink:href="#Roboto-Thin-30"/>
       <use x="109.472656" xlink:href="#Roboto-Thin-30"/>
      </g>
     </g>
    </g>
    <g id="xtick_4">
     <g id="line2d_4"/>
     <g id="text_4">
      <!-- 600 -->
      <defs>
       <path d="M 41.015625 72.078125 
L 41.015625 69.4375 
Q 26.078125 69.4375 17.828125 60.59375 
Q 9.578125 51.765625 8.9375 35.796875 
Q 11.765625 40.828125 17.140625 43.78125 
Q 22.515625 46.734375 28.90625 46.734375 
Q 38.28125 46.734375 43.875 40.328125 
Q 49.46875 33.9375 49.46875 23.4375 
Q 49.46875 16.65625 46.921875 11.03125 
Q 44.390625 5.421875 39.75 2.21875 
Q 35.109375 -0.984375 29.390625 -0.984375 
Q 22.859375 -0.984375 17.578125 2.046875 
Q 12.3125 5.078125 9.328125 10.6875 
Q 6.34375 16.3125 6.25 23.484375 
L 6.25 32.234375 
Q 6.25 51.171875 15.1875 61.625 
Q 24.125 72.078125 41.015625 72.078125 
z
M 28.5625 44.09375 
Q 21.734375 44.09375 16.046875 40.15625 
Q 10.359375 36.234375 8.890625 30.328125 
L 8.890625 24.078125 
Q 8.890625 14.015625 14.59375 7.8125 
Q 20.3125 1.609375 29.390625 1.609375 
Q 36.96875 1.609375 41.890625 7.9375 
Q 46.828125 14.265625 46.828125 23.4375 
Q 46.828125 32.90625 41.9375 38.5 
Q 37.0625 44.09375 28.5625 44.09375 
z
" id="Roboto-Thin-36"/>
      </defs>
      <g style="fill:#262626;" transform="translate(439.723178 413.795)scale(0.2 -0.2)">
       <use xlink:href="#Roboto-Thin-36"/>
       <use x="54.736328" xlink:href="#Roboto-Thin-30"/>
       <use x="109.472656" xlink:href="#Roboto-Thin-30"/>
      </g>
     </g>
    </g>
    <g id="text_5">
     <!-- Nodes -->
     <defs>
      <path d="M 60.984375 0 
L 58.34375 0 
L 12.453125 66.609375 
L 12.453125 0 
L 9.765625 0 
L 9.765625 71.09375 
L 12.453125 71.09375 
L 58.34375 4.640625 
L 58.34375 71.09375 
L 60.984375 71.09375 
z
" id="Roboto-Thin-4e"/>
      <path d="M 4.390625 27.4375 
Q 4.390625 35.015625 7.296875 41.046875 
Q 10.203125 47.078125 15.5 50.4375 
Q 20.796875 53.8125 27.484375 53.8125 
Q 34.125 53.8125 39.390625 50.53125 
Q 44.671875 47.265625 47.625 41.25 
Q 50.59375 35.25 50.640625 27.734375 
L 50.640625 25.390625 
Q 50.640625 17.78125 47.75 11.765625 
Q 44.875 5.765625 39.578125 2.390625 
Q 34.28125 -0.984375 27.59375 -0.984375 
Q 20.90625 -0.984375 15.59375 2.34375 
Q 10.296875 5.671875 7.359375 11.640625 
Q 4.4375 17.625 4.390625 25.09375 
z
M 7.03125 25.390625 
Q 7.03125 18.796875 9.640625 13.296875 
Q 12.25 7.8125 16.90625 4.734375 
Q 21.578125 1.65625 27.59375 1.65625 
Q 36.625 1.65625 42.3125 8.4375 
Q 48 15.234375 48 25.921875 
L 48 27.4375 
Q 48 33.9375 45.359375 39.453125 
Q 42.71875 44.96875 38.0625 48.0625 
Q 33.40625 51.171875 27.484375 51.171875 
Q 18.453125 51.171875 12.734375 44.28125 
Q 7.03125 37.40625 7.03125 26.953125 
z
" id="Roboto-Thin-6f"/>
      <path d="M 5.953125 26.953125 
Q 5.953125 39.59375 11.28125 46.703125 
Q 16.609375 53.8125 25.875 53.8125 
Q 31.84375 53.8125 36.40625 51.125 
Q 40.96875 48.4375 43.796875 43.109375 
L 43.796875 75 
L 46.4375 75 
L 46.4375 0 
L 43.796875 0 
L 43.796875 8.453125 
Q 41.109375 3.953125 36.421875 1.484375 
Q 31.734375 -0.984375 25.78125 -0.984375 
Q 16.609375 -0.984375 11.28125 6.296875 
Q 5.953125 13.578125 5.953125 26.265625 
z
M 8.6875 25.921875 
Q 8.6875 14.703125 13.125 8.171875 
Q 17.578125 1.65625 25.734375 1.65625 
Q 32.28125 1.65625 36.90625 4.5625 
Q 41.546875 7.46875 43.796875 13.09375 
L 43.796875 37.84375 
Q 39.265625 51.171875 25.828125 51.171875 
Q 17.71875 51.171875 13.203125 44.765625 
Q 8.6875 38.375 8.6875 25.921875 
z
" id="Roboto-Thin-64"/>
      <path d="M 27.390625 -0.984375 
Q 21 -0.984375 15.640625 2.453125 
Q 10.296875 5.90625 7.265625 11.90625 
Q 4.25 17.921875 4.25 25.25 
L 4.25 27.4375 
Q 4.25 34.765625 7.171875 40.859375 
Q 10.109375 46.96875 15.234375 50.390625 
Q 20.359375 53.8125 26.421875 53.8125 
Q 35.25 53.8125 40.859375 47.515625 
Q 46.484375 41.21875 46.484375 30.953125 
L 46.484375 28.171875 
L 6.890625 28.171875 
L 6.890625 25.296875 
Q 6.890625 18.84375 9.59375 13.34375 
Q 12.3125 7.859375 17.0625 4.734375 
Q 21.828125 1.609375 27.390625 1.609375 
Q 32.71875 1.609375 36.453125 3.390625 
Q 40.1875 5.171875 43.0625 8.890625 
L 44.921875 7.5625 
Q 39.015625 -0.984375 27.390625 -0.984375 
z
M 26.421875 51.171875 
Q 18.703125 51.171875 13.328125 45.4375 
Q 7.953125 39.703125 7.03125 30.8125 
L 43.84375 30.8125 
L 43.84375 31.453125 
Q 43.84375 36.8125 41.578125 41.421875 
Q 39.3125 46.046875 35.328125 48.609375 
Q 31.34375 51.171875 26.421875 51.171875 
z
" id="Roboto-Thin-65"/>
      <path d="M 40.96875 12.9375 
Q 40.96875 22.5625 24.5625 26.03125 
Q 14.703125 28.125 10.84375 31.421875 
Q 6.984375 34.71875 6.984375 40.484375 
Q 6.984375 46.296875 11.890625 50.046875 
Q 16.796875 53.8125 24.65625 53.8125 
Q 33.203125 53.8125 38.375 49.734375 
Q 43.5625 45.65625 43.5625 38.71875 
L 40.875 38.71875 
Q 40.875 44.046875 36.375 47.609375 
Q 31.890625 51.171875 24.65625 51.171875 
Q 17.71875 51.171875 13.671875 48.140625 
Q 9.625 45.125 9.625 40.578125 
Q 9.625 37.015625 11.125 34.984375 
Q 12.640625 32.953125 16.0625 31.3125 
Q 19.484375 29.6875 26.015625 28.171875 
Q 32.5625 26.65625 36.375 24.609375 
Q 40.1875 22.5625 41.890625 19.75 
Q 43.609375 16.9375 43.609375 12.890625 
Q 43.609375 6.640625 38.46875 2.828125 
Q 33.34375 -0.984375 25.046875 -0.984375 
Q 16.15625 -0.984375 10.71875 3.046875 
Q 5.28125 7.078125 5.28125 13.421875 
L 7.90625 13.421875 
Q 8.296875 7.859375 12.8125 4.75 
Q 17.328125 1.65625 25.046875 1.65625 
Q 32.125 1.65625 36.546875 4.953125 
Q 40.96875 8.25 40.96875 12.9375 
z
" id="Roboto-Thin-73"/>
     </defs>
     <g style="fill:#262626;" transform="translate(265.983602 438.3575)scale(0.22 -0.22)">
      <use xlink:href="#Roboto-Thin-4e"/>
      <use x="70.751953" xlink:href="#Roboto-Thin-6f"/>
      <use x="125.78125" xlink:href="#Roboto-Thin-64"/>
      <use x="180.517578" xlink:href="#Roboto-Thin-65"/>
      <use x="230.908203" xlink:href="#Roboto-Thin-73"/>
     </g>
    </g>
   </g>
   <g id="matplotlib.axis_2">
    <g id="ytick_1">
     <g id="line2d_5">
      <path clip-path="url(#pd68a6b4974)" d="M 84.472188 339.214 
L 509.239391 339.214 
" style="fill:none;stroke:#cccccc;stroke-linecap:round;"/>
     </g>
     <g id="line2d_6"/>
     <g id="text_6">
      <!-- 2000 -->
      <g style="fill:#262626;" transform="translate(33.684688 346.714)scale(0.2 -0.2)">
       <use xlink:href="#Roboto-Thin-32"/>
       <use x="54.736328" xlink:href="#Roboto-Thin-30"/>
       <use x="109.472656" xlink:href="#Roboto-Thin-30"/>
       <use x="164.208984" xlink:href="#Roboto-Thin-30"/>
      </g>
     </g>
    </g>
    <g id="ytick_2">
     <g id="line2d_7">
      <path clip-path="url(#pd68a6b4974)" d="M 84.472188 272.000171 
L 509.239391 272.000171 
" style="fill:none;stroke:#cccccc;stroke-linecap:round;"/>
     </g>
     <g id="line2d_8"/>
     <g id="text_7">
      <!-- 3000 -->
      <defs>
       <path d="M 20.359375 37.59375 
L 26.3125 37.59375 
Q 34.671875 37.75 39.8125 42.046875 
Q 44.96875 46.34375 44.96875 52.984375 
Q 44.96875 60.546875 40.359375 64.984375 
Q 35.75 69.4375 27.546875 69.4375 
Q 19.53125 69.4375 14.359375 64.75 
Q 9.1875 60.0625 9.1875 52.4375 
L 6.546875 52.4375 
Q 6.546875 58.109375 9.28125 62.59375 
Q 12.015625 67.09375 16.84375 69.578125 
Q 21.6875 72.078125 27.546875 72.078125 
Q 36.765625 72.078125 42.1875 66.875 
Q 47.609375 61.671875 47.609375 52.78125 
Q 47.609375 47.125 44.015625 42.671875 
Q 40.4375 38.234375 34.328125 36.375 
Q 41.3125 34.765625 45.234375 30.3125 
Q 49.171875 25.875 49.171875 18.84375 
Q 49.171875 9.765625 43.359375 4.390625 
Q 37.546875 -0.984375 27.984375 -0.984375 
Q 21.53125 -0.984375 16.0625 1.796875 
Q 10.59375 4.59375 7.8125 9.171875 
Q 5.03125 13.765625 5.03125 19.78125 
L 7.671875 19.78125 
Q 7.671875 11.96875 13.421875 6.8125 
Q 19.1875 1.65625 27.984375 1.65625 
Q 36.71875 1.65625 41.625 6.171875 
Q 46.53125 10.6875 46.53125 18.65625 
Q 46.53125 26.515625 41.28125 30.65625 
Q 36.03125 34.8125 25.921875 34.859375 
L 20.359375 34.859375 
z
" id="Roboto-Thin-33"/>
      </defs>
      <g style="fill:#262626;" transform="translate(33.684688 279.500171)scale(0.2 -0.2)">
       <use xlink:href="#Roboto-Thin-33"/>
       <use x="54.736328" xlink:href="#Roboto-Thin-30"/>
       <use x="109.472656" xlink:href="#Roboto-Thin-30"/>
       <use x="164.208984" xlink:href="#Roboto-Thin-30"/>
      </g>
     </g>
    </g>
    <g id="ytick_3">
     <g id="line2d_9">
      <path clip-path="url(#pd68a6b4974)" d="M 84.472188 204.786342 
L 509.239391 204.786342 
" style="fill:none;stroke:#cccccc;stroke-linecap:round;"/>
     </g>
     <g id="line2d_10"/>
     <g id="text_8">
      <!-- 4000 -->
      <g style="fill:#262626;" transform="translate(33.684688 212.286342)scale(0.2 -0.2)">
       <use xlink:href="#Roboto-Thin-34"/>
       <use x="54.736328" xlink:href="#Roboto-Thin-30"/>
       <use x="109.472656" xlink:href="#Roboto-Thin-30"/>
       <use x="164.208984" xlink:href="#Roboto-Thin-30"/>
      </g>
     </g>
    </g>
    <g id="ytick_4">
     <g id="line2d_11">
      <path clip-path="url(#pd68a6b4974)" d="M 84.472188 137.572513 
L 509.239391 137.572513 
" style="fill:none;stroke:#cccccc;stroke-linecap:round;"/>
     </g>
     <g id="line2d_12"/>
     <g id="text_9">
      <!-- 5000 -->
      <defs>
       <path d="M 11.28125 37.203125 
L 14.59375 71.09375 
L 49.265625 71.09375 
L 49.265625 68.5 
L 17 68.5 
L 14.109375 39.984375 
Q 16.65625 42.09375 20.828125 43.40625 
Q 25 44.734375 29 44.734375 
Q 38.578125 44.734375 44.28125 38.671875 
Q 50 32.625 50 22.65625 
Q 50 11.078125 44.828125 5.046875 
Q 39.65625 -0.984375 29.984375 -0.984375 
Q 20.84375 -0.984375 15.234375 4.234375 
Q 9.625 9.46875 8.890625 18.703125 
L 11.578125 18.703125 
Q 12.359375 10.359375 17.046875 6 
Q 21.734375 1.65625 29.984375 1.65625 
Q 38.765625 1.65625 43.03125 6.953125 
Q 47.3125 12.25 47.3125 22.5625 
Q 47.3125 31.453125 42.359375 36.765625 
Q 37.40625 42.09375 29.046875 42.09375 
Q 23.921875 42.09375 20.109375 40.71875 
Q 16.3125 39.359375 13.28125 36.421875 
z
" id="Roboto-Thin-35"/>
      </defs>
      <g style="fill:#262626;" transform="translate(33.684688 145.072513)scale(0.2 -0.2)">
       <use xlink:href="#Roboto-Thin-35"/>
       <use x="54.736328" xlink:href="#Roboto-Thin-30"/>
       <use x="109.472656" xlink:href="#Roboto-Thin-30"/>
       <use x="164.208984" xlink:href="#Roboto-Thin-30"/>
      </g>
     </g>
    </g>
    <g id="ytick_5">
     <g id="line2d_13">
      <path clip-path="url(#pd68a6b4974)" d="M 84.472188 70.358684 
L 509.239391 70.358684 
" style="fill:none;stroke:#cccccc;stroke-linecap:round;"/>
     </g>
     <g id="line2d_14"/>
     <g id="text_10">
      <!-- 6000 -->
      <g style="fill:#262626;" transform="translate(33.684688 77.858684)scale(0.2 -0.2)">
       <use xlink:href="#Roboto-Thin-36"/>
       <use x="54.736328" xlink:href="#Roboto-Thin-30"/>
       <use x="109.472656" xlink:href="#Roboto-Thin-30"/>
       <use x="164.208984" xlink:href="#Roboto-Thin-30"/>
      </g>
     </g>
    </g>
    <g id="text_11">
     <!-- Latency (s) -->
     <defs>
      <path d="M 12.453125 2.640625 
L 48.921875 2.640625 
L 48.921875 0 
L 9.765625 0 
L 9.765625 71.09375 
L 12.453125 71.09375 
z
" id="Roboto-Thin-4c"/>
      <path d="M 42.53125 0 
Q 41.546875 3.375 41.546875 9.671875 
Q 38.421875 4.59375 33 1.796875 
Q 27.59375 -0.984375 20.75 -0.984375 
Q 13.421875 -0.984375 8.953125 3 
Q 4.5 6.984375 4.5 13.375 
Q 4.5 20.65625 11.0625 25.015625 
Q 17.625 29.390625 28.515625 29.5 
L 41.546875 29.5 
L 41.546875 37.203125 
Q 41.546875 43.84375 37.375 47.5 
Q 33.203125 51.171875 25.4375 51.171875 
Q 18.21875 51.171875 13.375 47.453125 
Q 8.546875 43.75 8.546875 38.28125 
L 5.90625 38.375 
Q 5.90625 44.828125 11.5625 49.3125 
Q 17.234375 53.8125 25.4375 53.8125 
Q 33.984375 53.8125 39.015625 49.53125 
Q 44.046875 45.265625 44.1875 37.5 
L 44.1875 12.25 
Q 44.1875 3.5625 45.5625 0.4375 
L 45.5625 0 
z
M 20.75 1.609375 
Q 28.171875 1.609375 33.515625 4.921875 
Q 38.875 8.25 41.546875 14.265625 
L 41.546875 26.8125 
L 29.34375 26.8125 
Q 18.015625 26.8125 12.015625 22.3125 
Q 7.125 18.65625 7.125 13.1875 
Q 7.125 8.34375 10.984375 4.96875 
Q 14.84375 1.609375 20.75 1.609375 
z
" id="Roboto-Thin-61"/>
      <path d="M 14.3125 67.09375 
L 14.3125 52.828125 
L 26.3125 52.828125 
L 26.3125 50.140625 
L 14.3125 50.140625 
L 14.3125 12.640625 
Q 14.3125 7.03125 16.140625 4.34375 
Q 17.96875 1.65625 22.265625 1.65625 
Q 24.421875 1.65625 27.484375 2.09375 
L 27.9375 -0.390625 
Q 26.3125 -0.984375 22.40625 -0.984375 
Q 16.65625 -0.984375 14.15625 2.21875 
Q 11.671875 5.421875 11.625 12.3125 
L 11.625 50.140625 
L 1.859375 50.140625 
L 1.859375 52.828125 
L 11.625 52.828125 
L 11.625 67.09375 
z
" id="Roboto-Thin-74"/>
      <path d="M 11.03125 40.53125 
Q 13.625 46.6875 18.65625 50.25 
Q 23.6875 53.8125 29.78125 53.8125 
Q 38.28125 53.8125 42.40625 49 
Q 46.53125 44.1875 46.578125 34.46875 
L 46.578125 0 
L 43.953125 0 
L 43.953125 34.578125 
Q 43.890625 43.0625 40.46875 47.140625 
Q 37.0625 51.21875 29.640625 51.21875 
Q 22.796875 51.21875 17.796875 46.359375 
Q 12.796875 41.5 11.03125 33.84375 
L 11.03125 0 
L 8.40625 0 
L 8.40625 52.828125 
L 11.03125 52.828125 
z
" id="Roboto-Thin-6e"/>
      <path d="M 26.3125 1.65625 
Q 33.5 1.65625 38.15625 5.46875 
Q 42.828125 9.28125 43.265625 16.015625 
L 45.90625 16.015625 
Q 45.515625 8.34375 39.984375 3.671875 
Q 34.46875 -0.984375 26.3125 -0.984375 
Q 16.40625 -0.984375 10.5625 6.1875 
Q 4.734375 13.375 4.734375 25.6875 
L 4.734375 27.4375 
Q 4.734375 39.453125 10.5625 46.625 
Q 16.40625 53.8125 26.21875 53.8125 
Q 34.625 53.8125 40.09375 48.78125 
Q 45.5625 43.75 45.90625 35.40625 
L 43.265625 35.40625 
Q 42.921875 42.53125 38.25 46.84375 
Q 33.59375 51.171875 26.21875 51.171875 
Q 17.390625 51.171875 12.375 44.796875 
Q 7.375 38.421875 7.375 27.09375 
L 7.375 25.390625 
Q 7.375 14.3125 12.421875 7.984375 
Q 17.484375 1.65625 26.3125 1.65625 
z
" id="Roboto-Thin-63"/>
      <path d="M 24.5625 4.109375 
L 24.90625 5.078125 
L 43.171875 52.828125 
L 46.09375 52.828125 
L 22.46875 -9.1875 
L 21.296875 -12.109375 
Q 17.484375 -21.34375 8.6875 -21.34375 
Q 5.859375 -21.34375 4.78125 -20.796875 
L 4.734375 -18.3125 
Q 6.296875 -18.75 8.296875 -18.75 
Q 12.453125 -18.75 15.1875 -16.328125 
Q 17.921875 -13.921875 19.921875 -8.453125 
L 23.140625 0.296875 
L 2.09375 52.828125 
L 4.984375 52.828125 
z
" id="Roboto-Thin-79"/>
      <path id="Roboto-Thin-20"/>
      <path d="M 7.234375 28.609375 
Q 7.234375 39.15625 9.8125 49.359375 
Q 12.40625 59.578125 17.15625 67.671875 
Q 21.921875 75.78125 27.4375 79.25 
L 28.375 77.15625 
Q 23.578125 73.96875 19.328125 66.546875 
Q 15.09375 59.125 12.546875 49.359375 
Q 10.015625 39.59375 9.859375 30.078125 
L 9.859375 27.546875 
Q 9.859375 17.875 12.296875 7.9375 
Q 14.75 -2 19.09375 -9.78125 
Q 23.4375 -17.578125 28.375 -20.84375 
L 27.4375 -22.953125 
Q 21.78125 -19.390625 17.109375 -11.640625 
Q 12.453125 -3.90625 9.84375 6.375 
Q 7.234375 16.65625 7.234375 28.609375 
z
" id="Roboto-Thin-28"/>
      <path d="M 22.515625 27.640625 
Q 22.515625 16.65625 19.890625 6.375 
Q 17.28125 -3.90625 12.609375 -11.640625 
Q 7.953125 -19.390625 2.296875 -22.953125 
L 1.375 -20.84375 
Q 6.453125 -17.4375 10.796875 -9.515625 
Q 15.140625 -1.609375 17.5 8.15625 
Q 19.875 17.921875 19.875 28.8125 
Q 19.875 38.671875 17.375 48.609375 
Q 14.890625 58.546875 10.5625 66.234375 
Q 6.25 73.921875 1.375 77.15625 
L 2.296875 79.25 
Q 7.8125 75.78125 12.5625 67.671875 
Q 17.328125 59.578125 19.921875 49.359375 
Q 22.515625 39.15625 22.515625 27.640625 
z
" id="Roboto-Thin-29"/>
     </defs>
     <g style="fill:#262626;" transform="translate(24.635 263.28625)rotate(-90)scale(0.22 -0.22)">
      <use xlink:href="#Roboto-Thin-4c"/>
      <use x="51.611328" xlink:href="#Roboto-Thin-61"/>
      <use x="104.394531" xlink:href="#Roboto-Thin-74"/>
      <use x="136.035156" xlink:href="#Roboto-Thin-65"/>
      <use x="186.425781" xlink:href="#Roboto-Thin-6e"/>
      <use x="241.162109" xlink:href="#Roboto-Thin-63"/>
      <use x="291.894531" xlink:href="#Roboto-Thin-79"/>
      <use x="339.648438" xlink:href="#Roboto-Thin-20"/>
      <use x="363.574219" xlink:href="#Roboto-Thin-28"/>
      <use x="393.212891" xlink:href="#Roboto-Thin-73"/>
      <use x="442.96875" xlink:href="#Roboto-Thin-29"/>
     </g>
    </g>
   </g>
   <g id="PathCollection_1">
    <defs>
     <path d="M 0 5 
C 1.326016 5 2.597899 4.473168 3.535534 3.535534 
C 4.473168 2.597899 5 1.326016 5 0 
C 5 -1.326016 4.473168 -2.597899 3.535534 -3.535534 
C 2.597899 -4.473168 1.326016 -5 0 -5 
C -1.326016 -5 -2.597899 -4.473168 -3.535534 -3.535534 
C -4.473168 -2.597899 -5 -1.326016 -5 0 
C -5 1.326016 -4.473168 2.597899 -3.535534 3.535534 
C -2.597899 4.473168 -1.326016 5 0 5 
z
" id="C0_0_cd5e5d894f"/>
    </defs>
    <g clip-path="url(#pd68a6b4974)">
     <use style="fill:#4c72b0;stroke:#4c72b0;stroke-width:1.08;" x="137.568088" xlink:href="#C0_0_cd5e5d894f" y="54.96536"/>
    </g>
    <g clip-path="url(#pd68a6b4974)">
     <use style="fill:#4c72b0;stroke:#4c72b0;stroke-width:1.08;" x="243.759889" xlink:href="#C0_0_cd5e5d894f" y="113.167774"/>
    </g>
    <g clip-path="url(#pd68a6b4974)">
     <use style="fill:#4c72b0;stroke:#4c72b0;stroke-width:1.08;" x="349.95169" xlink:href="#C0_0_cd5e5d894f" y="166.781003"/>
    </g>
    <g clip-path="url(#pd68a6b4974)">
     <use style="fill:#4c72b0;stroke:#4c72b0;stroke-width:1.08;" x="456.143491" xlink:href="#C0_0_cd5e5d894f" y="186.172831"/>
    </g>
   </g>
   <g id="line2d_15">
    <path clip-path="url(#pd68a6b4974)" d="M 137.568088 54.96536 
L 243.759889 113.167774 
L 349.95169 166.781003 
L 456.143491 186.172831 
" style="fill:none;stroke:#4c72b0;stroke-linecap:round;stroke-width:1.44;"/>
   </g>
   <g id="line2d_16">
    <path clip-path="url(#pd68a6b4974)" d="M 137.568088 58.381068 
L 137.568088 51.754722 
" style="fill:none;stroke:#4c72b0;stroke-linecap:round;stroke-width:1.44;"/>
   </g>
   <g id="line2d_17">
    <path clip-path="url(#pd68a6b4974)" d="M 243.759889 115.791032 
L 243.759889 110.283119 
" style="fill:none;stroke:#4c72b0;stroke-linecap:round;stroke-width:1.44;"/>
   </g>
   <g id="line2d_18">
    <path clip-path="url(#pd68a6b4974)" d="M 349.95169 168.453338 
L 349.95169 164.930028 
" style="fill:none;stroke:#4c72b0;stroke-linecap:round;stroke-width:1.44;"/>
   </g>
   <g id="line2d_19">
    <path clip-path="url(#pd68a6b4974)" d="M 456.143491 187.687092 
L 456.143491 184.740276 
" style="fill:none;stroke:#4c72b0;stroke-linecap:round;stroke-width:1.44;"/>
   </g>
   <g id="PathCollection_2">
    <path clip-path="url(#pd68a6b4974)" d="M 132.568088 145.231025 
L 142.568088 145.231025 
L 142.568088 135.231025 
L 132.568088 135.231025 
z
" style="fill:#55a868;stroke:#55a868;stroke-width:1.08;"/>
    <path clip-path="url(#pd68a6b4974)" d="M 238.759889 195.972485 
L 248.759889 195.972485 
L 248.759889 185.972485 
L 238.759889 185.972485 
z
" style="fill:#55a868;stroke:#55a868;stroke-width:1.08;"/>
    <path clip-path="url(#pd68a6b4974)" d="M 344.95169 208.471663 
L 354.95169 208.471663 
L 354.95169 198.471663 
L 344.95169 198.471663 
z
" style="fill:#55a868;stroke:#55a868;stroke-width:1.08;"/>
    <path clip-path="url(#pd68a6b4974)" d="M 451.143491 214.009135 
L 461.143491 214.009135 
L 461.143491 204.009135 
L 451.143491 204.009135 
z
" style="fill:#55a868;stroke:#55a868;stroke-width:1.08;"/>
   </g>
   <g id="line2d_20">
    <path clip-path="url(#pd68a6b4974)" d="M 137.568088 140.231025 
L 243.759889 190.972485 
L 349.95169 203.471663 
L 456.143491 209.009135 
" style="fill:none;stroke:#55a868;stroke-linecap:round;stroke-width:1.44;"/>
   </g>
   <g id="line2d_21">
    <path clip-path="url(#pd68a6b4974)" d="M 137.568088 143.287075 
L 137.568088 137.228076 
" style="fill:none;stroke:#55a868;stroke-linecap:round;stroke-width:1.44;"/>
   </g>
   <g id="line2d_22">
    <path clip-path="url(#pd68a6b4974)" d="M 243.759889 193.25305 
L 243.759889 188.600565 
" style="fill:none;stroke:#55a868;stroke-linecap:round;stroke-width:1.44;"/>
   </g>
   <g id="line2d_23">
    <path clip-path="url(#pd68a6b4974)" d="M 349.95169 205.602964 
L 349.95169 201.349677 
" style="fill:none;stroke:#55a868;stroke-linecap:round;stroke-width:1.44;"/>
   </g>
   <g id="line2d_24">
    <path clip-path="url(#pd68a6b4974)" d="M 456.143491 210.730418 
L 456.143491 207.16497 
" style="fill:none;stroke:#55a868;stroke-linecap:round;stroke-width:1.44;"/>
   </g>
   <g id="patch_3">
    <path d="M 84.472188 391.795 
L 84.472188 30.635 
" style="fill:none;stroke:#cccccc;stroke-linecap:square;stroke-linejoin:miter;"/>
   </g>
   <g id="patch_4">
    <path d="M 84.472188 391.795 
L 509.239391 391.795 
" style="fill:none;stroke:#cccccc;stroke-linecap:square;stroke-linejoin:miter;"/>
   </g>
   <g id="PathCollection_3">
    <path clip-path="url(#pd68a6b4974)" d="M 137.568088 45.379286 
L 132.568088 55.379286 
L 142.568088 55.379286 
z
" style="fill:#c44e52;stroke:#c44e52;stroke-width:1.08;"/>
    <path clip-path="url(#pd68a6b4974)" d="M 243.759889 103.270519 
L 238.759889 113.270519 
L 248.759889 113.270519 
z
" style="fill:#c44e52;stroke:#c44e52;stroke-width:1.08;"/>
    <path clip-path="url(#pd68a6b4974)" d="M 349.95169 164.462523 
L 344.95169 174.462523 
L 354.95169 174.462523 
z
" style="fill:#c44e52;stroke:#c44e52;stroke-width:1.08;"/>
    <path clip-path="url(#pd68a6b4974)" d="M 456.143491 202.875603 
L 451.143491 212.875603 
L 461.143491 212.875603 
z
" style="fill:#c44e52;stroke:#c44e52;stroke-width:1.08;"/>
   </g>
   <g id="line2d_25">
    <path clip-path="url(#pd68a6b4974)" d="M 137.568088 50.379286 
L 243.759889 108.270519 
L 349.95169 169.462523 
L 456.143491 207.875603 
" style="fill:none;stroke:#c44e52;stroke-linecap:round;stroke-width:1.44;"/>
   </g>
   <g id="line2d_26">
    <path clip-path="url(#pd68a6b4974)" d="M 137.568088 53.634338 
L 137.568088 47.051364 
" style="fill:none;stroke:#c44e52;stroke-linecap:round;stroke-width:1.44;"/>
   </g>
   <g id="line2d_27">
    <path clip-path="url(#pd68a6b4974)" d="M 243.759889 111.506316 
L 243.759889 105.089823 
" style="fill:none;stroke:#c44e52;stroke-linecap:round;stroke-width:1.44;"/>
   </g>
   <g id="line2d_28">
    <path clip-path="url(#pd68a6b4974)" d="M 349.95169 171.158556 
L 349.95169 167.637224 
" style="fill:none;stroke:#c44e52;stroke-linecap:round;stroke-width:1.44;"/>
   </g>
   <g id="line2d_29">
    <path clip-path="url(#pd68a6b4974)" d="M 456.143491 209.939817 
L 456.143491 205.926711 
" style="fill:none;stroke:#c44e52;stroke-linecap:round;stroke-width:1.44;"/>
   </g>
   <g id="text_12">
    <!-- Message creation interval (s) = 5,25 -->
    <defs>
     <path d="M 13.53125 71.09375 
L 42.78125 3.859375 
L 72.125 71.09375 
L 75.984375 71.09375 
L 75.984375 0 
L 73.34375 0 
L 73.34375 67.1875 
L 43.84375 0 
L 41.75 0 
L 12.40625 66.84375 
L 12.40625 0 
L 9.765625 0 
L 9.765625 71.09375 
z
" id="Roboto-Thin-4d"/>
     <path d="M 5.90625 26.953125 
Q 5.90625 39.59375 11.21875 46.703125 
Q 16.546875 53.8125 25.828125 53.8125 
Q 31.734375 53.8125 36.328125 51.09375 
Q 40.921875 48.390625 43.703125 43.171875 
L 43.703125 52.828125 
L 46.390625 52.828125 
L 46.390625 0.921875 
Q 46.390625 -9.515625 41.015625 -15.40625 
Q 35.640625 -21.296875 26.421875 -21.296875 
Q 21.09375 -21.296875 16.671875 -19 
Q 12.25 -16.703125 9.125 -12.40625 
L 10.984375 -10.640625 
Q 14.0625 -14.546875 17.71875 -16.625 
Q 21.390625 -18.703125 26.3125 -18.703125 
Q 34.46875 -18.703125 39.015625 -13.75 
Q 43.5625 -8.796875 43.703125 0.25 
L 43.703125 8.34375 
Q 40.96875 3.859375 36.296875 1.4375 
Q 31.640625 -0.984375 25.734375 -0.984375 
Q 16.546875 -0.984375 11.21875 6.296875 
Q 5.90625 13.578125 5.90625 26.265625 
z
M 8.59375 25.921875 
Q 8.59375 14.59375 13.078125 8.125 
Q 17.578125 1.65625 25.6875 1.65625 
Q 32.375 1.65625 37.0625 4.75 
Q 41.75 7.859375 43.703125 13.484375 
L 43.703125 37.453125 
Q 39.40625 51.171875 25.78125 51.171875 
Q 17.625 51.171875 13.109375 44.765625 
Q 8.59375 38.375 8.59375 25.921875 
z
" id="Roboto-Thin-67"/>
     <path d="M 31.6875 50.921875 
L 28.265625 51.21875 
Q 21.53125 51.21875 16.984375 46.84375 
Q 12.453125 42.484375 11.03125 34.625 
L 11.03125 0 
L 8.40625 0 
L 8.40625 52.828125 
L 11.03125 52.828125 
L 11.03125 41.84375 
Q 13.1875 47.359375 17.484375 50.578125 
Q 21.78125 53.8125 28.265625 53.8125 
Q 30.5625 53.8125 31.984375 53.265625 
z
" id="Roboto-Thin-72"/>
     <path d="M 11.671875 0 
L 9.03125 0 
L 9.03125 52.828125 
L 11.671875 52.828125 
z
M 7.671875 69.34375 
Q 7.671875 70.453125 8.453125 71.265625 
Q 9.234375 72.078125 10.34375 72.078125 
Q 11.46875 72.078125 12.28125 71.265625 
Q 13.09375 70.453125 13.09375 69.328125 
Q 13.09375 68.21875 12.28125 67.4375 
Q 11.46875 66.65625 10.34375 66.65625 
Q 9.234375 66.65625 8.453125 67.4375 
Q 7.671875 68.21875 7.671875 69.34375 
z
" id="Roboto-Thin-69"/>
     <path d="M 23.921875 4.203125 
L 42.921875 52.828125 
L 45.75 52.828125 
L 25.203125 0 
L 22.609375 0 
L 2.09375 52.828125 
L 4.9375 52.828125 
z
" id="Roboto-Thin-76"/>
     <path d="M 11.671875 0 
L 9.03125 0 
L 9.03125 75 
L 11.671875 75 
z
" id="Roboto-Thin-6c"/>
     <path d="M 47.90625 41.15625 
L 7.171875 41.15625 
L 7.171875 43.796875 
L 47.90625 43.796875 
z
M 47.90625 21.296875 
L 7.171875 21.296875 
L 7.171875 23.921875 
L 47.90625 23.921875 
z
" id="Roboto-Thin-3d"/>
     <path d="M 6.296875 -12.453125 
L 4.5 -10.890625 
Q 8.453125 -5.8125 8.796875 -0.390625 
L 8.84375 7.765625 
L 11.46875 7.765625 
L 11.46875 0.640625 
Q 11.28125 -7.125 6.296875 -12.453125 
z
" id="Roboto-Thin-2c"/>
    </defs>
    <g style="fill:#262626;" transform="translate(129.317196 24.635)scale(0.22 -0.22)">
     <use xlink:href="#Roboto-Thin-4d"/>
     <use x="85.742188" xlink:href="#Roboto-Thin-65"/>
     <use x="136.132812" xlink:href="#Roboto-Thin-73"/>
     <use x="185.888672" xlink:href="#Roboto-Thin-73"/>
     <use x="235.644531" xlink:href="#Roboto-Thin-61"/>
     <use x="288.427734" xlink:href="#Roboto-Thin-67"/>
     <use x="343.261719" xlink:href="#Roboto-Thin-65"/>
     <use x="393.652344" xlink:href="#Roboto-Thin-20"/>
     <use x="417.578125" xlink:href="#Roboto-Thin-63"/>
     <use x="468.310547" xlink:href="#Roboto-Thin-72"/>
     <use x="501.757812" xlink:href="#Roboto-Thin-65"/>
     <use x="552.148438" xlink:href="#Roboto-Thin-61"/>
     <use x="604.931641" xlink:href="#Roboto-Thin-74"/>
     <use x="636.572266" xlink:href="#Roboto-Thin-69"/>
     <use x="657.177734" xlink:href="#Roboto-Thin-6f"/>
     <use x="712.207031" xlink:href="#Roboto-Thin-6e"/>
     <use x="766.943359" xlink:href="#Roboto-Thin-20"/>
     <use x="790.869141" xlink:href="#Roboto-Thin-69"/>
     <use x="811.474609" xlink:href="#Roboto-Thin-6e"/>
     <use x="866.210938" xlink:href="#Roboto-Thin-74"/>
     <use x="897.851562" xlink:href="#Roboto-Thin-65"/>
     <use x="948.242188" xlink:href="#Roboto-Thin-72"/>
     <use x="981.689453" xlink:href="#Roboto-Thin-76"/>
     <use x="1029.443359" xlink:href="#Roboto-Thin-61"/>
     <use x="1082.226562" xlink:href="#Roboto-Thin-6c"/>
     <use x="1102.832031" xlink:href="#Roboto-Thin-20"/>
     <use x="1126.757812" xlink:href="#Roboto-Thin-28"/>
     <use x="1156.396484" xlink:href="#Roboto-Thin-73"/>
     <use x="1206.152344" xlink:href="#Roboto-Thin-29"/>
     <use x="1236.572266" xlink:href="#Roboto-Thin-20"/>
     <use x="1260.498047" xlink:href="#Roboto-Thin-3d"/>
     <use x="1316.259766" xlink:href="#Roboto-Thin-20"/>
     <use x="1340.185547" xlink:href="#Roboto-Thin-35"/>
     <use x="1394.921875" xlink:href="#Roboto-Thin-2c"/>
     <use x="1413.623047" xlink:href="#Roboto-Thin-32"/>
     <use x="1468.359375" xlink:href="#Roboto-Thin-35"/>
    </g>
   </g>
   <g id="PathCollection_4">
    <path clip-path="url(#pd68a6b4974)" d="M 137.568088 108.744668 
L 142.568088 98.744668 
L 132.568088 98.744668 
z
" style="fill:#8172b2;stroke:#8172b2;stroke-width:1.08;"/>
    <path clip-path="url(#pd68a6b4974)" d="M 243.759889 185.24548 
L 248.759889 175.24548 
L 238.759889 175.24548 
z
" style="fill:#8172b2;stroke:#8172b2;stroke-width:1.08;"/>
    <path clip-path="url(#pd68a6b4974)" d="M 349.95169 272.520095 
L 354.95169 262.520095 
L 344.95169 262.520095 
z
" style="fill:#8172b2;stroke:#8172b2;stroke-width:1.08;"/>
    <path clip-path="url(#pd68a6b4974)" d="M 456.143491 316.24155 
L 461.143491 306.24155 
L 451.143491 306.24155 
z
" style="fill:#8172b2;stroke:#8172b2;stroke-width:1.08;"/>
   </g>
   <g id="line2d_30">
    <path clip-path="url(#pd68a6b4974)" d="M 137.568088 103.744668 
L 243.759889 180.24548 
L 349.95169 267.520095 
L 456.143491 311.24155 
" style="fill:none;stroke:#8172b2;stroke-linecap:round;stroke-width:1.44;"/>
   </g>
   <g id="line2d_31">
    <path clip-path="url(#pd68a6b4974)" d="M 137.568088 106.28303 
L 137.568088 100.901159 
" style="fill:none;stroke:#8172b2;stroke-linecap:round;stroke-width:1.44;"/>
   </g>
   <g id="line2d_32">
    <path clip-path="url(#pd68a6b4974)" d="M 243.759889 182.348599 
L 243.759889 178.189046 
" style="fill:none;stroke:#8172b2;stroke-linecap:round;stroke-width:1.44;"/>
   </g>
   <g id="line2d_33">
    <path clip-path="url(#pd68a6b4974)" d="M 349.95169 268.705602 
L 349.95169 266.385067 
" style="fill:none;stroke:#8172b2;stroke-linecap:round;stroke-width:1.44;"/>
   </g>
   <g id="line2d_34">
    <path clip-path="url(#pd68a6b4974)" d="M 456.143491 312.085036 
L 456.143491 310.417877 
" style="fill:none;stroke:#8172b2;stroke-linecap:round;stroke-width:1.44;"/>
   </g>
   <g id="PathCollection_5">
    <path clip-path="url(#pd68a6b4974)" d="M 132.568088 112.907618 
L 142.568088 117.907618 
L 142.568088 107.907618 
z
" style="fill:#ccb974;stroke:#ccb974;stroke-width:1.08;"/>
    <path clip-path="url(#pd68a6b4974)" d="M 238.759889 237.576493 
L 248.759889 242.576493 
L 248.759889 232.576493 
z
" style="fill:#ccb974;stroke:#ccb974;stroke-width:1.08;"/>
    <path clip-path="url(#pd68a6b4974)" d="M 344.95169 316.658692 
L 354.95169 321.658692 
L 354.95169 311.658692 
z
" style="fill:#ccb974;stroke:#ccb974;stroke-width:1.08;"/>
    <path clip-path="url(#pd68a6b4974)" d="M 451.143491 346.246649 
L 461.143491 351.246649 
L 461.143491 341.246649 
z
" style="fill:#ccb974;stroke:#ccb974;stroke-width:1.08;"/>
   </g>
   <g id="line2d_35">
    <path clip-path="url(#pd68a6b4974)" d="M 137.568088 112.907618 
L 243.759889 237.576493 
L 349.95169 316.658692 
L 456.143491 346.246649 
" style="fill:none;stroke:#ccb974;stroke-linecap:round;stroke-width:1.44;"/>
   </g>
   <g id="line2d_36">
    <path clip-path="url(#pd68a6b4974)" d="M 137.568088 115.663727 
L 137.568088 110.112924 
" style="fill:none;stroke:#ccb974;stroke-linecap:round;stroke-width:1.44;"/>
   </g>
   <g id="line2d_37">
    <path clip-path="url(#pd68a6b4974)" d="M 243.759889 239.364277 
L 243.759889 235.856141 
" style="fill:none;stroke:#ccb974;stroke-linecap:round;stroke-width:1.44;"/>
   </g>
   <g id="line2d_38">
    <path clip-path="url(#pd68a6b4974)" d="M 349.95169 317.651711 
L 349.95169 315.598853 
" style="fill:none;stroke:#ccb974;stroke-linecap:round;stroke-width:1.44;"/>
   </g>
   <g id="line2d_39">
    <path clip-path="url(#pd68a6b4974)" d="M 456.143491 346.849806 
L 456.143491 345.627866 
" style="fill:none;stroke:#ccb974;stroke-linecap:round;stroke-width:1.44;"/>
   </g>
  </g>
  <g id="axes_2">
   <g id="patch_5">
    <path d="M 535.077912 391.795 
L 959.845115 391.795 
L 959.845115 30.635 
L 535.077912 30.635 
z
" style="fill:#ffffff;"/>
   </g>
   <g id="matplotlib.axis_3">
    <g id="xtick_5">
     <g id="line2d_40"/>
     <g id="text_13">
      <!-- 100 -->
      <g style="fill:#262626;" transform="translate(571.7535 413.795)scale(0.2 -0.2)">
       <use xlink:href="#Roboto-Thin-31"/>
       <use x="54.736328" xlink:href="#Roboto-Thin-30"/>
       <use x="109.472656" xlink:href="#Roboto-Thin-30"/>
      </g>
     </g>
    </g>
    <g id="xtick_6">
     <g id="line2d_41"/>
     <g id="text_14">
      <!-- 200 -->
      <g style="fill:#262626;" transform="translate(677.945301 413.795)scale(0.2 -0.2)">
       <use xlink:href="#Roboto-Thin-32"/>
       <use x="54.736328" xlink:href="#Roboto-Thin-30"/>
       <use x="109.472656" xlink:href="#Roboto-Thin-30"/>
      </g>
     </g>
    </g>
    <g id="xtick_7">
     <g id="line2d_42"/>
     <g id="text_15">
      <!-- 400 -->
      <g style="fill:#262626;" transform="translate(784.137102 413.795)scale(0.2 -0.2)">
       <use xlink:href="#Roboto-Thin-34"/>
       <use x="54.736328" xlink:href="#Roboto-Thin-30"/>
       <use x="109.472656" xlink:href="#Roboto-Thin-30"/>
      </g>
     </g>
    </g>
    <g id="xtick_8">
     <g id="line2d_43"/>
     <g id="text_16">
      <!-- 600 -->
      <g style="fill:#262626;" transform="translate(890.328902 413.795)scale(0.2 -0.2)">
       <use xlink:href="#Roboto-Thin-36"/>
       <use x="54.736328" xlink:href="#Roboto-Thin-30"/>
       <use x="109.472656" xlink:href="#Roboto-Thin-30"/>
      </g>
     </g>
    </g>
    <g id="text_17">
     <!-- Nodes -->
     <g style="fill:#262626;" transform="translate(716.589326 438.3575)scale(0.22 -0.22)">
      <use xlink:href="#Roboto-Thin-4e"/>
      <use x="70.751953" xlink:href="#Roboto-Thin-6f"/>
      <use x="125.78125" xlink:href="#Roboto-Thin-64"/>
      <use x="180.517578" xlink:href="#Roboto-Thin-65"/>
      <use x="230.908203" xlink:href="#Roboto-Thin-73"/>
     </g>
    </g>
   </g>
   <g id="matplotlib.axis_4">
    <g id="ytick_6">
     <g id="line2d_44">
      <path clip-path="url(#p62d77db411)" d="M 535.077912 339.214 
L 959.845115 339.214 
" style="fill:none;stroke:#cccccc;stroke-linecap:round;"/>
     </g>
     <g id="line2d_45"/>
    </g>
    <g id="ytick_7">
     <g id="line2d_46">
      <path clip-path="url(#p62d77db411)" d="M 535.077912 272.000171 
L 959.845115 272.000171 
" style="fill:none;stroke:#cccccc;stroke-linecap:round;"/>
     </g>
     <g id="line2d_47"/>
    </g>
    <g id="ytick_8">
     <g id="line2d_48">
      <path clip-path="url(#p62d77db411)" d="M 535.077912 204.786342 
L 959.845115 204.786342 
" style="fill:none;stroke:#cccccc;stroke-linecap:round;"/>
     </g>
     <g id="line2d_49"/>
    </g>
    <g id="ytick_9">
     <g id="line2d_50">
      <path clip-path="url(#p62d77db411)" d="M 535.077912 137.572513 
L 959.845115 137.572513 
" style="fill:none;stroke:#cccccc;stroke-linecap:round;"/>
     </g>
     <g id="line2d_51"/>
    </g>
    <g id="ytick_10">
     <g id="line2d_52">
      <path clip-path="url(#p62d77db411)" d="M 535.077912 70.358684 
L 959.845115 70.358684 
" style="fill:none;stroke:#cccccc;stroke-linecap:round;"/>
     </g>
     <g id="line2d_53"/>
    </g>
   </g>
   <g id="PathCollection_6">
    <defs>
     <path d="M 0 5 
C 1.326016 5 2.597899 4.473168 3.535534 3.535534 
C 4.473168 2.597899 5 1.326016 5 0 
C 5 -1.326016 4.473168 -2.597899 3.535534 -3.535534 
C 2.597899 -4.473168 1.326016 -5 0 -5 
C -1.326016 -5 -2.597899 -4.473168 -3.535534 -3.535534 
C -4.473168 -2.597899 -5 -1.326016 -5 0 
C -5 1.326016 -4.473168 2.597899 -3.535534 3.535534 
C -2.597899 4.473168 -1.326016 5 0 5 
z
" id="C1_0_e44dbec6ae"/>
    </defs>
    <g clip-path="url(#p62d77db411)">
     <use style="fill:#4c72b0;stroke:#4c72b0;stroke-width:1.08;" x="588.173812" xlink:href="#C1_0_e44dbec6ae" y="81.845903"/>
    </g>
    <g clip-path="url(#p62d77db411)">
     <use style="fill:#4c72b0;stroke:#4c72b0;stroke-width:1.08;" x="694.365613" xlink:href="#C1_0_e44dbec6ae" y="152.048603"/>
    </g>
    <g clip-path="url(#p62d77db411)">
     <use style="fill:#4c72b0;stroke:#4c72b0;stroke-width:1.08;" x="800.557414" xlink:href="#C1_0_e44dbec6ae" y="226.986779"/>
    </g>
    <g clip-path="url(#p62d77db411)">
     <use style="fill:#4c72b0;stroke:#4c72b0;stroke-width:1.08;" x="906.749215" xlink:href="#C1_0_e44dbec6ae" y="248.752704"/>
    </g>
   </g>
   <g id="line2d_54">
    <path clip-path="url(#p62d77db411)" d="M 588.173812 81.845903 
L 694.365613 152.048603 
L 800.557414 226.986779 
L 906.749215 248.752704 
" style="fill:none;stroke:#4c72b0;stroke-linecap:round;stroke-width:1.44;"/>
   </g>
   <g id="line2d_55">
    <path clip-path="url(#p62d77db411)" d="M 588.173812 85.785582 
L 588.173812 77.797693 
" style="fill:none;stroke:#4c72b0;stroke-linecap:round;stroke-width:1.44;"/>
   </g>
   <g id="line2d_56">
    <path clip-path="url(#p62d77db411)" d="M 694.365613 154.75416 
L 694.365613 149.361234 
" style="fill:none;stroke:#4c72b0;stroke-linecap:round;stroke-width:1.44;"/>
   </g>
   <g id="line2d_57">
    <path clip-path="url(#p62d77db411)" d="M 800.557414 228.242457 
L 800.557414 225.566224 
" style="fill:none;stroke:#4c72b0;stroke-linecap:round;stroke-width:1.44;"/>
   </g>
   <g id="line2d_58">
    <path clip-path="url(#p62d77db411)" d="M 906.749215 250.187994 
L 906.749215 247.453281 
" style="fill:none;stroke:#4c72b0;stroke-linecap:round;stroke-width:1.44;"/>
   </g>
   <g id="PathCollection_7">
    <path clip-path="url(#p62d77db411)" d="M 583.173812 165.035285 
L 593.173812 165.035285 
L 593.173812 155.035285 
L 583.173812 155.035285 
z
" style="fill:#55a868;stroke:#55a868;stroke-width:1.08;"/>
    <path clip-path="url(#p62d77db411)" d="M 689.365613 197.924806 
L 699.365613 197.924806 
L 699.365613 187.924806 
L 689.365613 187.924806 
z
" style="fill:#55a868;stroke:#55a868;stroke-width:1.08;"/>
    <path clip-path="url(#p62d77db411)" d="M 795.557414 208.050292 
L 805.557414 208.050292 
L 805.557414 198.050292 
L 795.557414 198.050292 
z
" style="fill:#55a868;stroke:#55a868;stroke-width:1.08;"/>
    <path clip-path="url(#p62d77db411)" d="M 901.749215 212.217157 
L 911.749215 212.217157 
L 911.749215 202.217157 
L 901.749215 202.217157 
z
" style="fill:#55a868;stroke:#55a868;stroke-width:1.08;"/>
   </g>
   <g id="line2d_59">
    <path clip-path="url(#p62d77db411)" d="M 588.173812 160.035285 
L 694.365613 192.924806 
L 800.557414 203.050292 
L 906.749215 207.217157 
" style="fill:none;stroke:#55a868;stroke-linecap:round;stroke-width:1.44;"/>
   </g>
   <g id="line2d_60">
    <path clip-path="url(#p62d77db411)" d="M 588.173812 162.98175 
L 588.173812 157.360021 
" style="fill:none;stroke:#55a868;stroke-linecap:round;stroke-width:1.44;"/>
   </g>
   <g id="line2d_61">
    <path clip-path="url(#p62d77db411)" d="M 694.365613 196.058339 
L 694.365613 189.776769 
" style="fill:none;stroke:#55a868;stroke-linecap:round;stroke-width:1.44;"/>
   </g>
   <g id="line2d_62">
    <path clip-path="url(#p62d77db411)" d="M 800.557414 205.12018 
L 800.557414 201.067006 
" style="fill:none;stroke:#55a868;stroke-linecap:round;stroke-width:1.44;"/>
   </g>
   <g id="line2d_63">
    <path clip-path="url(#p62d77db411)" d="M 906.749215 209.82813 
L 906.749215 204.230227 
" style="fill:none;stroke:#55a868;stroke-linecap:round;stroke-width:1.44;"/>
   </g>
   <g id="patch_6">
    <path d="M 535.077912 391.795 
L 535.077912 30.635 
" style="fill:none;stroke:#cccccc;stroke-linecap:square;stroke-linejoin:miter;"/>
   </g>
   <g id="patch_7">
    <path d="M 535.077912 391.795 
L 959.845115 391.795 
" style="fill:none;stroke:#cccccc;stroke-linecap:square;stroke-linejoin:miter;"/>
   </g>
   <g id="PathCollection_8">
    <path clip-path="url(#p62d77db411)" d="M 588.173812 62.893423 
L 583.173812 72.893423 
L 593.173812 72.893423 
z
" style="fill:#c44e52;stroke:#c44e52;stroke-width:1.08;"/>
    <path clip-path="url(#p62d77db411)" d="M 694.365613 131.11554 
L 689.365613 141.11554 
L 699.365613 141.11554 
z
" style="fill:#c44e52;stroke:#c44e52;stroke-width:1.08;"/>
    <path clip-path="url(#p62d77db411)" d="M 800.557414 204.485275 
L 795.557414 214.485275 
L 805.557414 214.485275 
z
" style="fill:#c44e52;stroke:#c44e52;stroke-width:1.08;"/>
    <path clip-path="url(#p62d77db411)" d="M 906.749215 242.005368 
L 901.749215 252.005368 
L 911.749215 252.005368 
z
" style="fill:#c44e52;stroke:#c44e52;stroke-width:1.08;"/>
   </g>
   <g id="line2d_64">
    <path clip-path="url(#p62d77db411)" d="M 588.173812 67.893423 
L 694.365613 136.11554 
L 800.557414 209.485275 
L 906.749215 247.005368 
" style="fill:none;stroke:#c44e52;stroke-linecap:round;stroke-width:1.44;"/>
   </g>
   <g id="line2d_65">
    <path clip-path="url(#p62d77db411)" d="M 588.173812 72.434976 
L 588.173812 63.088418 
" style="fill:none;stroke:#c44e52;stroke-linecap:round;stroke-width:1.44;"/>
   </g>
   <g id="line2d_66">
    <path clip-path="url(#p62d77db411)" d="M 694.365613 138.978682 
L 694.365613 133.4809 
" style="fill:none;stroke:#c44e52;stroke-linecap:round;stroke-width:1.44;"/>
   </g>
   <g id="line2d_67">
    <path clip-path="url(#p62d77db411)" d="M 800.557414 210.860533 
L 800.557414 208.068976 
" style="fill:none;stroke:#c44e52;stroke-linecap:round;stroke-width:1.44;"/>
   </g>
   <g id="line2d_68">
    <path clip-path="url(#p62d77db411)" d="M 906.749215 248.863187 
L 906.749215 245.094786 
" style="fill:none;stroke:#c44e52;stroke-linecap:round;stroke-width:1.44;"/>
   </g>
   <g id="text_18">
    <!-- Message creation interval (s) = 25,35 -->
    <g style="fill:#262626;" transform="translate(573.902139 24.635)scale(0.22 -0.22)">
     <use xlink:href="#Roboto-Thin-4d"/>
     <use x="85.742188" xlink:href="#Roboto-Thin-65"/>
     <use x="136.132812" xlink:href="#Roboto-Thin-73"/>
     <use x="185.888672" xlink:href="#Roboto-Thin-73"/>
     <use x="235.644531" xlink:href="#Roboto-Thin-61"/>
     <use x="288.427734" xlink:href="#Roboto-Thin-67"/>
     <use x="343.261719" xlink:href="#Roboto-Thin-65"/>
     <use x="393.652344" xlink:href="#Roboto-Thin-20"/>
     <use x="417.578125" xlink:href="#Roboto-Thin-63"/>
     <use x="468.310547" xlink:href="#Roboto-Thin-72"/>
     <use x="501.757812" xlink:href="#Roboto-Thin-65"/>
     <use x="552.148438" xlink:href="#Roboto-Thin-61"/>
     <use x="604.931641" xlink:href="#Roboto-Thin-74"/>
     <use x="636.572266" xlink:href="#Roboto-Thin-69"/>
     <use x="657.177734" xlink:href="#Roboto-Thin-6f"/>
     <use x="712.207031" xlink:href="#Roboto-Thin-6e"/>
     <use x="766.943359" xlink:href="#Roboto-Thin-20"/>
     <use x="790.869141" xlink:href="#Roboto-Thin-69"/>
     <use x="811.474609" xlink:href="#Roboto-Thin-6e"/>
     <use x="866.210938" xlink:href="#Roboto-Thin-74"/>
     <use x="897.851562" xlink:href="#Roboto-Thin-65"/>
     <use x="948.242188" xlink:href="#Roboto-Thin-72"/>
     <use x="981.689453" xlink:href="#Roboto-Thin-76"/>
     <use x="1029.443359" xlink:href="#Roboto-Thin-61"/>
     <use x="1082.226562" xlink:href="#Roboto-Thin-6c"/>
     <use x="1102.832031" xlink:href="#Roboto-Thin-20"/>
     <use x="1126.757812" xlink:href="#Roboto-Thin-28"/>
     <use x="1156.396484" xlink:href="#Roboto-Thin-73"/>
     <use x="1206.152344" xlink:href="#Roboto-Thin-29"/>
     <use x="1236.572266" xlink:href="#Roboto-Thin-20"/>
     <use x="1260.498047" xlink:href="#Roboto-Thin-3d"/>
     <use x="1316.259766" xlink:href="#Roboto-Thin-20"/>
     <use x="1340.185547" xlink:href="#Roboto-Thin-32"/>
     <use x="1394.921875" xlink:href="#Roboto-Thin-35"/>
     <use x="1449.658203" xlink:href="#Roboto-Thin-2c"/>
     <use x="1468.359375" xlink:href="#Roboto-Thin-33"/>
     <use x="1523.095703" xlink:href="#Roboto-Thin-35"/>
    </g>
   </g>
   <g id="PathCollection_9">
    <path clip-path="url(#p62d77db411)" d="M 588.173812 135.192342 
L 593.173812 125.192342 
L 583.173812 125.192342 
z
" style="fill:#8172b2;stroke:#8172b2;stroke-width:1.08;"/>
    <path clip-path="url(#p62d77db411)" d="M 694.365613 225.574766 
L 699.365613 215.574766 
L 689.365613 215.574766 
z
" style="fill:#8172b2;stroke:#8172b2;stroke-width:1.08;"/>
    <path clip-path="url(#p62d77db411)" d="M 800.557414 312.24574 
L 805.557414 302.24574 
L 795.557414 302.24574 
z
" style="fill:#8172b2;stroke:#8172b2;stroke-width:1.08;"/>
    <path clip-path="url(#p62d77db411)" d="M 906.749215 349.65256 
L 911.749215 339.65256 
L 901.749215 339.65256 
z
" style="fill:#8172b2;stroke:#8172b2;stroke-width:1.08;"/>
   </g>
   <g id="line2d_69">
    <path clip-path="url(#p62d77db411)" d="M 588.173812 130.192342 
L 694.365613 220.574766 
L 800.557414 307.24574 
L 906.749215 344.65256 
" style="fill:none;stroke:#8172b2;stroke-linecap:round;stroke-width:1.44;"/>
   </g>
   <g id="line2d_70">
    <path clip-path="url(#p62d77db411)" d="M 588.173812 133.294721 
L 588.173812 127.157651 
" style="fill:none;stroke:#8172b2;stroke-linecap:round;stroke-width:1.44;"/>
   </g>
   <g id="line2d_71">
    <path clip-path="url(#p62d77db411)" d="M 694.365613 222.532971 
L 694.365613 218.443274 
" style="fill:none;stroke:#8172b2;stroke-linecap:round;stroke-width:1.44;"/>
   </g>
   <g id="line2d_72">
    <path clip-path="url(#p62d77db411)" d="M 800.557414 308.252367 
L 800.557414 306.299157 
" style="fill:none;stroke:#8172b2;stroke-linecap:round;stroke-width:1.44;"/>
   </g>
   <g id="line2d_73">
    <path clip-path="url(#p62d77db411)" d="M 906.749215 345.319218 
L 906.749215 343.905354 
" style="fill:none;stroke:#8172b2;stroke-linecap:round;stroke-width:1.44;"/>
   </g>
   <g id="PathCollection_10">
    <path clip-path="url(#p62d77db411)" d="M 583.173812 154.329135 
L 593.173812 159.329135 
L 593.173812 149.329135 
z
" style="fill:#ccb974;stroke:#ccb974;stroke-width:1.08;"/>
    <path clip-path="url(#p62d77db411)" d="M 689.365613 269.181465 
L 699.365613 274.181465 
L 699.365613 264.181465 
z
" style="fill:#ccb974;stroke:#ccb974;stroke-width:1.08;"/>
    <path clip-path="url(#p62d77db411)" d="M 795.557414 336.181266 
L 805.557414 341.181266 
L 805.557414 331.181266 
z
" style="fill:#ccb974;stroke:#ccb974;stroke-width:1.08;"/>
    <path clip-path="url(#p62d77db411)" d="M 901.749215 362.336234 
L 911.749215 367.336234 
L 911.749215 357.336234 
z
" style="fill:#ccb974;stroke:#ccb974;stroke-width:1.08;"/>
   </g>
   <g id="line2d_74">
    <path clip-path="url(#p62d77db411)" d="M 588.173812 154.329135 
L 694.365613 269.181465 
L 800.557414 336.181266 
L 906.749215 362.336234 
" style="fill:none;stroke:#ccb974;stroke-linecap:round;stroke-width:1.44;"/>
   </g>
   <g id="line2d_75">
    <path clip-path="url(#p62d77db411)" d="M 588.173812 157.438231 
L 588.173812 150.797419 
" style="fill:none;stroke:#ccb974;stroke-linecap:round;stroke-width:1.44;"/>
   </g>
   <g id="line2d_76">
    <path clip-path="url(#p62d77db411)" d="M 694.365613 270.922346 
L 694.365613 267.484188 
" style="fill:none;stroke:#ccb974;stroke-linecap:round;stroke-width:1.44;"/>
   </g>
   <g id="line2d_77">
    <path clip-path="url(#p62d77db411)" d="M 800.557414 337.156989 
L 800.557414 335.222099 
" style="fill:none;stroke:#ccb974;stroke-linecap:round;stroke-width:1.44;"/>
   </g>
   <g id="line2d_78">
    <path clip-path="url(#p62d77db411)" d="M 906.749215 362.91909 
L 906.749215 361.74691 
" style="fill:none;stroke:#ccb974;stroke-linecap:round;stroke-width:1.44;"/>
   </g>
  </g>
  <g id="axes_3">
   <g id="patch_8">
    <path d="M 985.683636 391.795 
L 1410.45084 391.795 
L 1410.45084 30.635 
L 985.683636 30.635 
z
" style="fill:#ffffff;"/>
   </g>
   <g id="matplotlib.axis_5">
    <g id="xtick_9">
     <g id="line2d_79"/>
     <g id="text_19">
      <!-- 100 -->
      <g style="fill:#262626;" transform="translate(1022.359224 413.795)scale(0.2 -0.2)">
       <use xlink:href="#Roboto-Thin-31"/>
       <use x="54.736328" xlink:href="#Roboto-Thin-30"/>
       <use x="109.472656" xlink:href="#Roboto-Thin-30"/>
      </g>
     </g>
    </g>
    <g id="xtick_10">
     <g id="line2d_80"/>
     <g id="text_20">
      <!-- 200 -->
      <g style="fill:#262626;" transform="translate(1128.551025 413.795)scale(0.2 -0.2)">
       <use xlink:href="#Roboto-Thin-32"/>
       <use x="54.736328" xlink:href="#Roboto-Thin-30"/>
       <use x="109.472656" xlink:href="#Roboto-Thin-30"/>
      </g>
     </g>
    </g>
    <g id="xtick_11">
     <g id="line2d_81"/>
     <g id="text_21">
      <!-- 400 -->
      <g style="fill:#262626;" transform="translate(1234.742826 413.795)scale(0.2 -0.2)">
       <use xlink:href="#Roboto-Thin-34"/>
       <use x="54.736328" xlink:href="#Roboto-Thin-30"/>
       <use x="109.472656" xlink:href="#Roboto-Thin-30"/>
      </g>
     </g>
    </g>
    <g id="xtick_12">
     <g id="line2d_82"/>
     <g id="text_22">
      <!-- 600 -->
      <g style="fill:#262626;" transform="translate(1340.934627 413.795)scale(0.2 -0.2)">
       <use xlink:href="#Roboto-Thin-36"/>
       <use x="54.736328" xlink:href="#Roboto-Thin-30"/>
       <use x="109.472656" xlink:href="#Roboto-Thin-30"/>
      </g>
     </g>
    </g>
    <g id="text_23">
     <!-- Nodes -->
     <g style="fill:#262626;" transform="translate(1167.19505 438.3575)scale(0.22 -0.22)">
      <use xlink:href="#Roboto-Thin-4e"/>
      <use x="70.751953" xlink:href="#Roboto-Thin-6f"/>
      <use x="125.78125" xlink:href="#Roboto-Thin-64"/>
      <use x="180.517578" xlink:href="#Roboto-Thin-65"/>
      <use x="230.908203" xlink:href="#Roboto-Thin-73"/>
     </g>
    </g>
   </g>
   <g id="matplotlib.axis_6">
    <g id="ytick_11">
     <g id="line2d_83">
      <path clip-path="url(#p57364a26f3)" d="M 985.683636 339.214 
L 1410.45084 339.214 
" style="fill:none;stroke:#cccccc;stroke-linecap:round;"/>
     </g>
     <g id="line2d_84"/>
    </g>
    <g id="ytick_12">
     <g id="line2d_85">
      <path clip-path="url(#p57364a26f3)" d="M 985.683636 272.000171 
L 1410.45084 272.000171 
" style="fill:none;stroke:#cccccc;stroke-linecap:round;"/>
     </g>
     <g id="line2d_86"/>
    </g>
    <g id="ytick_13">
     <g id="line2d_87">
      <path clip-path="url(#p57364a26f3)" d="M 985.683636 204.786342 
L 1410.45084 204.786342 
" style="fill:none;stroke:#cccccc;stroke-linecap:round;"/>
     </g>
     <g id="line2d_88"/>
    </g>
    <g id="ytick_14">
     <g id="line2d_89">
      <path clip-path="url(#p57364a26f3)" d="M 985.683636 137.572513 
L 1410.45084 137.572513 
" style="fill:none;stroke:#cccccc;stroke-linecap:round;"/>
     </g>
     <g id="line2d_90"/>
    </g>
    <g id="ytick_15">
     <g id="line2d_91">
      <path clip-path="url(#p57364a26f3)" d="M 985.683636 70.358684 
L 1410.45084 70.358684 
" style="fill:none;stroke:#cccccc;stroke-linecap:round;"/>
     </g>
     <g id="line2d_92"/>
    </g>
   </g>
   <g id="PathCollection_11">
    <defs>
     <path d="M 0 5 
C 1.326016 5 2.597899 4.473168 3.535534 3.535534 
C 4.473168 2.597899 5 1.326016 5 0 
C 5 -1.326016 4.473168 -2.597899 3.535534 -3.535534 
C 2.597899 -4.473168 1.326016 -5 0 -5 
C -1.326016 -5 -2.597899 -4.473168 -3.535534 -3.535534 
C -4.473168 -2.597899 -5 -1.326016 -5 0 
C -5 1.326016 -4.473168 2.597899 -3.535534 3.535534 
C -2.597899 4.473168 -1.326016 5 0 5 
z
" id="C2_0_c42913f890"/>
    </defs>
    <g clip-path="url(#p57364a26f3)">
     <use style="fill:#4c72b0;stroke:#4c72b0;stroke-width:1.08;" x="1038.779537" xlink:href="#C2_0_c42913f890" y="157.285092"/>
    </g>
    <g clip-path="url(#p57364a26f3)">
     <use style="fill:#4c72b0;stroke:#4c72b0;stroke-width:1.08;" x="1144.971337" xlink:href="#C2_0_c42913f890" y="266.103675"/>
    </g>
    <g clip-path="url(#p57364a26f3)">
     <use style="fill:#4c72b0;stroke:#4c72b0;stroke-width:1.08;" x="1251.163138" xlink:href="#C2_0_c42913f890" y="352.164363"/>
    </g>
    <g clip-path="url(#p57364a26f3)">
     <use style="fill:#4c72b0;stroke:#4c72b0;stroke-width:1.08;" x="1357.354939" xlink:href="#C2_0_c42913f890" y="372.124837"/>
    </g>
   </g>
   <g id="line2d_93">
    <path clip-path="url(#p57364a26f3)" d="M 1038.779537 157.285092 
L 1144.971337 266.103675 
L 1251.163138 352.164363 
L 1357.354939 372.124837 
" style="fill:none;stroke:#4c72b0;stroke-linecap:round;stroke-width:1.44;"/>
   </g>
   <g id="line2d_94">
    <path clip-path="url(#p57364a26f3)" d="M 1038.779537 161.774777 
L 1038.779537 152.52125 
" style="fill:none;stroke:#4c72b0;stroke-linecap:round;stroke-width:1.44;"/>
   </g>
   <g id="line2d_95">
    <path clip-path="url(#p57364a26f3)" d="M 1144.971337 268.390786 
L 1144.971337 263.963874 
" style="fill:none;stroke:#4c72b0;stroke-linecap:round;stroke-width:1.44;"/>
   </g>
   <g id="line2d_96">
    <path clip-path="url(#p57364a26f3)" d="M 1251.163138 353.328927 
L 1251.163138 350.987078 
" style="fill:none;stroke:#4c72b0;stroke-linecap:round;stroke-width:1.44;"/>
   </g>
   <g id="line2d_97">
    <path clip-path="url(#p57364a26f3)" d="M 1357.354939 373.003758 
L 1357.354939 371.219465 
" style="fill:none;stroke:#4c72b0;stroke-linecap:round;stroke-width:1.44;"/>
   </g>
   <g id="PathCollection_12">
    <path clip-path="url(#p57364a26f3)" d="M 1033.779537 177.423145 
L 1043.779537 177.423145 
L 1043.779537 167.423145 
L 1033.779537 167.423145 
z
" style="fill:#55a868;stroke:#55a868;stroke-width:1.08;"/>
    <path clip-path="url(#p57364a26f3)" d="M 1139.971337 195.287391 
L 1149.971337 195.287391 
L 1149.971337 185.287391 
L 1139.971337 185.287391 
z
" style="fill:#55a868;stroke:#55a868;stroke-width:1.08;"/>
    <path clip-path="url(#p57364a26f3)" d="M 1246.163138 213.395796 
L 1256.163138 213.395796 
L 1256.163138 203.395796 
L 1246.163138 203.395796 
z
" style="fill:#55a868;stroke:#55a868;stroke-width:1.08;"/>
    <path clip-path="url(#p57364a26f3)" d="M 1352.354939 211.320735 
L 1362.354939 211.320735 
L 1362.354939 201.320735 
L 1352.354939 201.320735 
z
" style="fill:#55a868;stroke:#55a868;stroke-width:1.08;"/>
   </g>
   <g id="line2d_98">
    <path clip-path="url(#p57364a26f3)" d="M 1038.779537 172.423145 
L 1144.971337 190.287391 
L 1251.163138 208.395796 
L 1357.354939 206.320735 
" style="fill:none;stroke:#55a868;stroke-linecap:round;stroke-width:1.44;"/>
   </g>
   <g id="line2d_99">
    <path clip-path="url(#p57364a26f3)" d="M 1038.779537 177.309812 
L 1038.779537 167.400776 
" style="fill:none;stroke:#55a868;stroke-linecap:round;stroke-width:1.44;"/>
   </g>
   <g id="line2d_100">
    <path clip-path="url(#p57364a26f3)" d="M 1144.971337 194.856242 
L 1144.971337 185.641208 
" style="fill:none;stroke:#55a868;stroke-linecap:round;stroke-width:1.44;"/>
   </g>
   <g id="line2d_101">
    <path clip-path="url(#p57364a26f3)" d="M 1251.163138 212.572521 
L 1251.163138 204.11718 
" style="fill:none;stroke:#55a868;stroke-linecap:round;stroke-width:1.44;"/>
   </g>
   <g id="line2d_102">
    <path clip-path="url(#p57364a26f3)" d="M 1357.354939 210.866258 
L 1357.354939 201.680911 
" style="fill:none;stroke:#55a868;stroke-linecap:round;stroke-width:1.44;"/>
   </g>
   <g id="patch_9">
    <path d="M 985.683636 391.795 
L 985.683636 30.635 
" style="fill:none;stroke:#cccccc;stroke-linecap:square;stroke-linejoin:miter;"/>
   </g>
   <g id="patch_10">
    <path d="M 985.683636 391.795 
L 1410.45084 391.795 
" style="fill:none;stroke:#cccccc;stroke-linecap:square;stroke-linejoin:miter;"/>
   </g>
   <g id="PathCollection_13">
    <path clip-path="url(#p57364a26f3)" d="M 1038.779537 109.39017 
L 1033.779537 119.39017 
L 1043.779537 119.39017 
z
" style="fill:#c44e52;stroke:#c44e52;stroke-width:1.08;"/>
    <path clip-path="url(#p57364a26f3)" d="M 1144.971337 201.202554 
L 1139.971337 211.202554 
L 1149.971337 211.202554 
z
" style="fill:#c44e52;stroke:#c44e52;stroke-width:1.08;"/>
    <path clip-path="url(#p57364a26f3)" d="M 1251.163138 289.032277 
L 1246.163138 299.032277 
L 1256.163138 299.032277 
z
" style="fill:#c44e52;stroke:#c44e52;stroke-width:1.08;"/>
    <path clip-path="url(#p57364a26f3)" d="M 1357.354939 329.744778 
L 1352.354939 339.744778 
L 1362.354939 339.744778 
z
" style="fill:#c44e52;stroke:#c44e52;stroke-width:1.08;"/>
   </g>
   <g id="line2d_103">
    <path clip-path="url(#p57364a26f3)" d="M 1038.779537 114.39017 
L 1144.971337 206.202554 
L 1251.163138 294.032277 
L 1357.354939 334.744778 
" style="fill:none;stroke:#c44e52;stroke-linecap:round;stroke-width:1.44;"/>
   </g>
   <g id="line2d_104">
    <path clip-path="url(#p57364a26f3)" d="M 1038.779537 118.928488 
L 1038.779537 109.797623 
" style="fill:none;stroke:#c44e52;stroke-linecap:round;stroke-width:1.44;"/>
   </g>
   <g id="line2d_105">
    <path clip-path="url(#p57364a26f3)" d="M 1144.971337 210.29133 
L 1144.971337 202.246357 
" style="fill:none;stroke:#c44e52;stroke-linecap:round;stroke-width:1.44;"/>
   </g>
   <g id="line2d_106">
    <path clip-path="url(#p57364a26f3)" d="M 1251.163138 295.954465 
L 1251.163138 292.328584 
" style="fill:none;stroke:#c44e52;stroke-linecap:round;stroke-width:1.44;"/>
   </g>
   <g id="line2d_107">
    <path clip-path="url(#p57364a26f3)" d="M 1357.354939 335.953742 
L 1357.354939 333.575542 
" style="fill:none;stroke:#c44e52;stroke-linecap:round;stroke-width:1.44;"/>
   </g>
   <g id="text_24">
    <!-- Message creation interval (s) = 60, 120 -->
    <g style="fill:#262626;" transform="translate(1015.855675 24.635)scale(0.22 -0.22)">
     <use xlink:href="#Roboto-Thin-4d"/>
     <use x="85.742188" xlink:href="#Roboto-Thin-65"/>
     <use x="136.132812" xlink:href="#Roboto-Thin-73"/>
     <use x="185.888672" xlink:href="#Roboto-Thin-73"/>
     <use x="235.644531" xlink:href="#Roboto-Thin-61"/>
     <use x="288.427734" xlink:href="#Roboto-Thin-67"/>
     <use x="343.261719" xlink:href="#Roboto-Thin-65"/>
     <use x="393.652344" xlink:href="#Roboto-Thin-20"/>
     <use x="417.578125" xlink:href="#Roboto-Thin-63"/>
     <use x="468.310547" xlink:href="#Roboto-Thin-72"/>
     <use x="501.757812" xlink:href="#Roboto-Thin-65"/>
     <use x="552.148438" xlink:href="#Roboto-Thin-61"/>
     <use x="604.931641" xlink:href="#Roboto-Thin-74"/>
     <use x="636.572266" xlink:href="#Roboto-Thin-69"/>
     <use x="657.177734" xlink:href="#Roboto-Thin-6f"/>
     <use x="712.207031" xlink:href="#Roboto-Thin-6e"/>
     <use x="766.943359" xlink:href="#Roboto-Thin-20"/>
     <use x="790.869141" xlink:href="#Roboto-Thin-69"/>
     <use x="811.474609" xlink:href="#Roboto-Thin-6e"/>
     <use x="866.210938" xlink:href="#Roboto-Thin-74"/>
     <use x="897.851562" xlink:href="#Roboto-Thin-65"/>
     <use x="948.242188" xlink:href="#Roboto-Thin-72"/>
     <use x="981.689453" xlink:href="#Roboto-Thin-76"/>
     <use x="1029.443359" xlink:href="#Roboto-Thin-61"/>
     <use x="1082.226562" xlink:href="#Roboto-Thin-6c"/>
     <use x="1102.832031" xlink:href="#Roboto-Thin-20"/>
     <use x="1126.757812" xlink:href="#Roboto-Thin-28"/>
     <use x="1156.396484" xlink:href="#Roboto-Thin-73"/>
     <use x="1206.152344" xlink:href="#Roboto-Thin-29"/>
     <use x="1236.572266" xlink:href="#Roboto-Thin-20"/>
     <use x="1260.498047" xlink:href="#Roboto-Thin-3d"/>
     <use x="1316.259766" xlink:href="#Roboto-Thin-20"/>
     <use x="1340.185547" xlink:href="#Roboto-Thin-36"/>
     <use x="1394.921875" xlink:href="#Roboto-Thin-30"/>
     <use x="1449.658203" xlink:href="#Roboto-Thin-2c"/>
     <use x="1468.359375" xlink:href="#Roboto-Thin-20"/>
     <use x="1492.285156" xlink:href="#Roboto-Thin-31"/>
     <use x="1547.021484" xlink:href="#Roboto-Thin-32"/>
     <use x="1601.757812" xlink:href="#Roboto-Thin-30"/>
    </g>
   </g>
   <g id="PathCollection_14">
    <path clip-path="url(#p57364a26f3)" d="M 1038.779537 203.613063 
L 1043.779537 193.613063 
L 1033.779537 193.613063 
z
" style="fill:#8172b2;stroke:#8172b2;stroke-width:1.08;"/>
    <path clip-path="url(#p57364a26f3)" d="M 1144.971337 300.975184 
L 1149.971337 290.975184 
L 1139.971337 290.975184 
z
" style="fill:#8172b2;stroke:#8172b2;stroke-width:1.08;"/>
    <path clip-path="url(#p57364a26f3)" d="M 1251.163138 359.598593 
L 1256.163138 349.598593 
L 1246.163138 349.598593 
z
" style="fill:#8172b2;stroke:#8172b2;stroke-width:1.08;"/>
    <path clip-path="url(#p57364a26f3)" d="M 1357.354939 378.755588 
L 1362.354939 368.755588 
L 1352.354939 368.755588 
z
" style="fill:#8172b2;stroke:#8172b2;stroke-width:1.08;"/>
   </g>
   <g id="line2d_108">
    <path clip-path="url(#p57364a26f3)" d="M 1038.779537 198.613063 
L 1144.971337 295.975184 
L 1251.163138 354.598593 
L 1357.354939 373.755588 
" style="fill:none;stroke:#8172b2;stroke-linecap:round;stroke-width:1.44;"/>
   </g>
   <g id="line2d_109">
    <path clip-path="url(#p57364a26f3)" d="M 1038.779537 202.228695 
L 1038.779537 194.866975 
" style="fill:none;stroke:#8172b2;stroke-linecap:round;stroke-width:1.44;"/>
   </g>
   <g id="line2d_110">
    <path clip-path="url(#p57364a26f3)" d="M 1144.971337 298.0904 
L 1144.971337 293.85531 
" style="fill:none;stroke:#8172b2;stroke-linecap:round;stroke-width:1.44;"/>
   </g>
   <g id="line2d_111">
    <path clip-path="url(#p57364a26f3)" d="M 1251.163138 355.814021 
L 1251.163138 353.316418 
" style="fill:none;stroke:#8172b2;stroke-linecap:round;stroke-width:1.44;"/>
   </g>
   <g id="line2d_112">
    <path clip-path="url(#p57364a26f3)" d="M 1357.354939 374.612386 
L 1357.354939 372.88974 
" style="fill:none;stroke:#8172b2;stroke-linecap:round;stroke-width:1.44;"/>
   </g>
   <g id="PathCollection_15">
    <path clip-path="url(#p57364a26f3)" d="M 1033.779537 222.037177 
L 1043.779537 227.037177 
L 1043.779537 217.037177 
z
" style="fill:#ccb974;stroke:#ccb974;stroke-width:1.08;"/>
    <path clip-path="url(#p57364a26f3)" d="M 1139.971337 307.364242 
L 1149.971337 312.364242 
L 1149.971337 302.364242 
z
" style="fill:#ccb974;stroke:#ccb974;stroke-width:1.08;"/>
    <path clip-path="url(#p57364a26f3)" d="M 1246.163138 355.92751 
L 1256.163138 360.92751 
L 1256.163138 350.92751 
z
" style="fill:#ccb974;stroke:#ccb974;stroke-width:1.08;"/>
    <path clip-path="url(#p57364a26f3)" d="M 1352.354939 372.929826 
L 1362.354939 377.929826 
L 1362.354939 367.929826 
z
" style="fill:#ccb974;stroke:#ccb974;stroke-width:1.08;"/>
   </g>
   <g id="line2d_113">
    <path clip-path="url(#p57364a26f3)" d="M 1038.779537 222.037177 
L 1144.971337 307.364242 
L 1251.163138 355.92751 
L 1357.354939 372.929826 
" style="fill:none;stroke:#ccb974;stroke-linecap:round;stroke-width:1.44;"/>
   </g>
   <g id="line2d_114">
    <path clip-path="url(#p57364a26f3)" d="M 1038.779537 225.186522 
L 1038.779537 218.786967 
" style="fill:none;stroke:#ccb974;stroke-linecap:round;stroke-width:1.44;"/>
   </g>
   <g id="line2d_115">
    <path clip-path="url(#p57364a26f3)" d="M 1144.971337 309.050385 
L 1144.971337 305.626024 
" style="fill:none;stroke:#ccb974;stroke-linecap:round;stroke-width:1.44;"/>
   </g>
   <g id="line2d_116">
    <path clip-path="url(#p57364a26f3)" d="M 1251.163138 356.978803 
L 1251.163138 354.993185 
" style="fill:none;stroke:#ccb974;stroke-linecap:round;stroke-width:1.44;"/>
   </g>
   <g id="line2d_117">
    <path clip-path="url(#p57364a26f3)" d="M 1357.354939 373.921813 
L 1357.354939 371.980171 
" style="fill:none;stroke:#ccb974;stroke-linecap:round;stroke-width:1.44;"/>
   </g>
  </g>
  <g id="legend_1">
   <g id="text_25">
    <!-- Algorithm -->
    <defs>
     <path d="M 47.21875 21.234375 
L 12.40625 21.234375 
L 4.5 0 
L 1.609375 0 
L 28.21875 71.09375 
L 31.453125 71.09375 
L 58.0625 0 
L 55.171875 0 
z
M 13.375 23.875 
L 46.234375 23.875 
L 29.828125 67.921875 
z
" id="Roboto-Thin-41"/>
     <path d="M 11.03125 40.53125 
Q 13.625 46.6875 18.65625 50.25 
Q 23.6875 53.8125 29.78125 53.8125 
Q 38.28125 53.8125 42.40625 49 
Q 46.53125 44.1875 46.578125 34.46875 
L 46.578125 0 
L 43.953125 0 
L 43.953125 34.578125 
Q 43.890625 43.0625 40.46875 47.140625 
Q 37.0625 51.21875 29.640625 51.21875 
Q 22.796875 51.21875 17.796875 46.359375 
Q 12.796875 41.5 11.03125 33.84375 
L 11.03125 0 
L 8.40625 0 
L 8.40625 75 
L 11.03125 75 
z
" id="Roboto-Thin-68"/>
     <path d="M 46.1875 0 
L 43.5625 0 
L 43.5625 35.5 
Q 43.5 43.453125 40.0625 47.328125 
Q 36.625 51.21875 29.109375 51.21875 
Q 20.40625 51.21875 14.890625 43.5625 
Q 11.625 38.96875 10.546875 33.40625 
L 10.546875 0 
L 7.859375 0 
L 7.859375 52.828125 
L 10.546875 52.828125 
L 10.546875 40.328125 
Q 13.234375 46.78125 18.203125 50.296875 
Q 23.1875 53.8125 29.25 53.8125 
Q 35.890625 53.8125 40.109375 50.875 
Q 44.34375 47.953125 45.65625 41.3125 
Q 48 47.015625 53.265625 50.40625 
Q 58.546875 53.8125 65.09375 53.8125 
Q 73.640625 53.8125 77.8125 48.96875 
Q 81.984375 44.140625 82.03125 34.46875 
L 82.03125 0 
L 79.390625 0 
L 79.390625 34.28125 
Q 79.390625 42.96875 75.890625 47.140625 
Q 72.40625 51.3125 64.9375 51.21875 
Q 55.328125 51.078125 49.703125 43.5625 
Q 46.484375 39.203125 46.1875 35.15625 
z
" id="Roboto-Thin-6d"/>
    </defs>
    <g style="fill:#262626;" transform="translate(1471.86298 157.274992)scale(0.187 -0.187)">
     <use xlink:href="#Roboto-Thin-41"/>
     <use x="59.716797" xlink:href="#Roboto-Thin-6c"/>
     <use x="80.322266" xlink:href="#Roboto-Thin-67"/>
     <use x="135.15625" xlink:href="#Roboto-Thin-6f"/>
     <use x="190.185547" xlink:href="#Roboto-Thin-72"/>
     <use x="223.632812" xlink:href="#Roboto-Thin-69"/>
     <use x="244.238281" xlink:href="#Roboto-Thin-74"/>
     <use x="275.878906" xlink:href="#Roboto-Thin-68"/>
     <use x="330.615234" xlink:href="#Roboto-Thin-6d"/>
    </g>
   </g>
   <g id="PathCollection_16">
    <path d="M 1441.895215 186.421825 
C 1443.331108 186.421825 1444.708385 185.851338 1445.723715 184.836008 
C 1446.739045 183.820678 1447.309532 182.443401 1447.309532 181.007508 
C 1447.309532 179.571614 1446.739045 178.194338 1445.723715 177.179007 
C 1444.708385 176.163677 1443.331108 175.593191 1441.895215 175.593191 
C 1440.459321 175.593191 1439.082045 176.163677 1438.066714 177.179007 
C 1437.051384 178.194338 1436.480898 179.571614 1436.480898 181.007508 
C 1436.480898 182.443401 1437.051384 183.820678 1438.066714 184.836008 
C 1439.082045 185.851338 1440.459321 186.421825 1441.895215 186.421825 
z
" style="fill:#4c72b0;stroke:#4c72b0;stroke-width:1.08;"/>
   </g>
   <g id="text_26">
    <!-- Epidemic -->
    <defs>
     <path d="M 48.046875 35.25 
L 12.40625 35.25 
L 12.40625 2.640625 
L 53.03125 2.640625 
L 53.03125 0 
L 9.765625 0 
L 9.765625 71.09375 
L 53.03125 71.09375 
L 53.03125 68.453125 
L 12.40625 68.453125 
L 12.40625 37.890625 
L 48.046875 37.890625 
z
" id="Roboto-Thin-45"/>
     <path d="M 48.78125 25.921875 
Q 48.78125 13.578125 43.453125 6.296875 
Q 38.140625 -0.984375 28.953125 -0.984375 
Q 22.953125 -0.984375 18.265625 1.453125 
Q 13.578125 3.90625 10.9375 8.203125 
L 10.9375 -20.3125 
L 8.296875 -20.3125 
L 8.296875 52.828125 
L 10.9375 52.828125 
L 10.9375 43.40625 
Q 13.671875 48.4375 18.3125 51.125 
Q 22.953125 53.8125 28.859375 53.8125 
Q 38.140625 53.8125 43.453125 46.703125 
Q 48.78125 39.59375 48.78125 26.765625 
z
M 46.09375 26.953125 
Q 46.09375 38.328125 41.578125 44.75 
Q 37.0625 51.171875 28.90625 51.171875 
Q 22.265625 51.171875 17.625 47.71875 
Q 12.984375 44.28125 10.9375 37.84375 
L 10.9375 13.140625 
Q 12.984375 7.671875 17.640625 4.65625 
Q 22.3125 1.65625 29 1.65625 
Q 37.109375 1.65625 41.59375 8.09375 
Q 46.09375 14.546875 46.09375 26.953125 
z
" id="Roboto-Thin-70"/>
    </defs>
    <g style="fill:#262626;" transform="translate(1477.895215 186.257508)scale(0.2 -0.2)">
     <use xlink:href="#Roboto-Thin-45"/>
     <use x="56.933594" xlink:href="#Roboto-Thin-70"/>
     <use x="111.669922" xlink:href="#Roboto-Thin-69"/>
     <use x="132.275391" xlink:href="#Roboto-Thin-64"/>
     <use x="187.011719" xlink:href="#Roboto-Thin-65"/>
     <use x="237.402344" xlink:href="#Roboto-Thin-6d"/>
     <use x="327.050781" xlink:href="#Roboto-Thin-69"/>
     <use x="347.65625" xlink:href="#Roboto-Thin-63"/>
    </g>
   </g>
   <g id="PathCollection_17">
    <path d="M 1436.480898 215.484325 
L 1447.309532 215.484325 
L 1447.309532 204.655691 
L 1436.480898 204.655691 
z
" style="fill:#55a868;stroke:#55a868;stroke-width:1.08;"/>
   </g>
   <g id="text_27">
    <!-- SprayAndWait -->
    <defs>
     <path d="M 52.34375 17.046875 
Q 52.34375 21.578125 50.21875 24.71875 
Q 48.09375 27.875 43.53125 30.296875 
Q 38.96875 32.71875 29.734375 35.25 
Q 20.515625 37.796875 15.890625 40.375 
Q 11.28125 42.96875 9.125 46.390625 
Q 6.984375 49.8125 6.984375 54.6875 
Q 6.984375 62.453125 13.515625 67.265625 
Q 20.0625 72.078125 30.5625 72.078125 
Q 37.40625 72.078125 42.84375 69.40625 
Q 48.296875 66.75 51.265625 61.9375 
Q 54.25 57.125 54.25 51.078125 
L 51.609375 51.078125 
Q 51.609375 59.03125 45.75 64.234375 
Q 39.890625 69.4375 30.5625 69.4375 
Q 21.1875 69.4375 15.40625 65.25 
Q 9.625 61.078125 9.625 54.78125 
Q 9.625 48.390625 14.640625 44.484375 
Q 19.671875 40.578125 31.25 37.578125 
Q 42.828125 34.578125 48.1875 30.609375 
Q 55.03125 25.59375 55.03125 17.140625 
Q 55.03125 11.765625 52 7.640625 
Q 48.96875 3.515625 43.40625 1.265625 
Q 37.84375 -0.984375 30.90625 -0.984375 
Q 23.1875 -0.984375 17.03125 1.578125 
Q 10.890625 4.15625 7.78125 8.890625 
Q 4.6875 13.625 4.6875 20.0625 
L 7.328125 20.0625 
Q 7.328125 11.328125 13.859375 6.484375 
Q 20.40625 1.65625 30.90625 1.65625 
Q 40.234375 1.65625 46.28125 5.921875 
Q 52.34375 10.203125 52.34375 17.046875 
z
" id="Roboto-Thin-53"/>
     <path d="M 23.875 4.390625 
L 27.09375 16.109375 
L 43.890625 71.09375 
L 46.828125 71.09375 
L 63.53125 16.109375 
L 66.703125 4.390625 
L 70.015625 16.109375 
L 84.671875 71.09375 
L 87.546875 71.09375 
L 68.40625 0 
L 65.4375 0 
L 47.796875 59.28125 
L 45.3125 66.796875 
L 42.921875 59.28125 
L 25.140625 0 
L 22.171875 0 
L 2.984375 71.09375 
L 5.90625 71.09375 
L 20.65625 16.109375 
z
" id="Roboto-Thin-57"/>
    </defs>
    <g style="fill:#262626;" transform="translate(1477.895215 215.320008)scale(0.2 -0.2)">
     <use xlink:href="#Roboto-Thin-53"/>
     <use x="59.130859" xlink:href="#Roboto-Thin-70"/>
     <use x="113.867188" xlink:href="#Roboto-Thin-72"/>
     <use x="147.314453" xlink:href="#Roboto-Thin-61"/>
     <use x="200.097656" xlink:href="#Roboto-Thin-79"/>
     <use x="247.851562" xlink:href="#Roboto-Thin-41"/>
     <use x="307.568359" xlink:href="#Roboto-Thin-6e"/>
     <use x="362.304688" xlink:href="#Roboto-Thin-64"/>
     <use x="417.041016" xlink:href="#Roboto-Thin-57"/>
     <use x="507.617188" xlink:href="#Roboto-Thin-61"/>
     <use x="560.400391" xlink:href="#Roboto-Thin-69"/>
     <use x="581.005859" xlink:href="#Roboto-Thin-74"/>
    </g>
   </g>
   <g id="PathCollection_18">
    <path d="M 1441.895215 233.924441 
L 1436.480898 244.753075 
L 1447.309532 244.753075 
z
" style="fill:#c44e52;stroke:#c44e52;stroke-width:1.08;"/>
   </g>
   <g id="text_28">
    <!-- Prophet -->
    <defs>
     <path d="M 12.40625 30.03125 
L 12.40625 0 
L 9.765625 0 
L 9.765625 71.09375 
L 31.984375 71.09375 
Q 42.875 71.09375 48.90625 65.59375 
Q 54.9375 60.109375 54.9375 50.34375 
Q 54.9375 40.671875 49.046875 35.390625 
Q 43.171875 30.125 32.328125 30.03125 
z
M 12.40625 32.671875 
L 31.984375 32.671875 
Q 41.609375 32.671875 46.953125 37.296875 
Q 52.296875 41.9375 52.296875 50.25 
Q 52.296875 58.84375 46.953125 63.640625 
Q 41.609375 68.453125 31.984375 68.453125 
L 12.40625 68.453125 
z
" id="Roboto-Thin-50"/>
    </defs>
    <g style="fill:#262626;" transform="translate(1477.895215 244.588758)scale(0.2 -0.2)">
     <use xlink:href="#Roboto-Thin-50"/>
     <use x="60.058594" xlink:href="#Roboto-Thin-72"/>
     <use x="93.505859" xlink:href="#Roboto-Thin-6f"/>
     <use x="148.535156" xlink:href="#Roboto-Thin-70"/>
     <use x="203.271484" xlink:href="#Roboto-Thin-68"/>
     <use x="258.007812" xlink:href="#Roboto-Thin-65"/>
     <use x="308.398438" xlink:href="#Roboto-Thin-74"/>
    </g>
   </g>
   <g id="PathCollection_19">
    <path d="M 1441.895215 273.815575 
L 1447.309532 262.986941 
L 1436.480898 262.986941 
z
" style="fill:#8172b2;stroke:#8172b2;stroke-width:1.08;"/>
   </g>
   <g id="text_29">
    <!-- Seer -->
    <g style="fill:#262626;" transform="translate(1477.895215 273.651258)scale(0.2 -0.2)">
     <use xlink:href="#Roboto-Thin-53"/>
     <use x="59.130859" xlink:href="#Roboto-Thin-65"/>
     <use x="109.521484" xlink:href="#Roboto-Thin-65"/>
     <use x="159.912109" xlink:href="#Roboto-Thin-72"/>
    </g>
   </g>
   <g id="PathCollection_20">
    <path d="M 1436.480898 297.463758 
L 1447.309532 302.878075 
L 1447.309532 292.049441 
z
" style="fill:#ccb974;stroke:#ccb974;stroke-width:1.08;"/>
   </g>
   <g id="text_30">
    <!-- BFGMP -->
    <defs>
     <path d="M 9.765625 0 
L 9.765625 71.09375 
L 28.46875 71.09375 
Q 39.9375 71.09375 45.8125 66.421875 
Q 51.703125 61.765625 51.703125 52.875 
Q 51.703125 46.4375 48.4375 42.1875 
Q 45.171875 37.9375 39.203125 36.765625 
Q 45.953125 35.890625 50.4375 30.9375 
Q 54.9375 25.984375 54.9375 19.578125 
Q 54.9375 10.5 49.046875 5.25 
Q 43.171875 0 32.671875 0 
z
M 12.40625 35.109375 
L 12.40625 2.640625 
L 32.953125 2.640625 
Q 42 2.640625 47.140625 7.109375 
Q 52.296875 11.578125 52.296875 19.484375 
Q 52.296875 26.21875 47.3125 30.59375 
Q 42.328125 34.96875 33.984375 35.109375 
z
M 12.40625 37.75 
L 29.4375 37.75 
Q 39.15625 37.75 44.09375 41.484375 
Q 49.03125 45.21875 49.03125 53.078125 
Q 49.03125 68.21875 29.046875 68.453125 
L 12.40625 68.453125 
z
" id="Roboto-Thin-42"/>
     <path d="M 48.828125 34.96875 
L 12.40625 34.96875 
L 12.40625 0 
L 9.765625 0 
L 9.765625 71.09375 
L 53.8125 71.09375 
L 53.8125 68.453125 
L 12.40625 68.453125 
L 12.40625 37.703125 
L 48.828125 37.703125 
z
" id="Roboto-Thin-46"/>
     <path d="M 59.859375 7.625 
Q 57.171875 3.90625 50.4375 1.453125 
Q 43.703125 -0.984375 35.59375 -0.984375 
Q 27.6875 -0.984375 21.484375 2.875 
Q 15.28125 6.734375 11.78125 13.765625 
Q 8.296875 20.796875 8.203125 29.6875 
L 8.203125 41.890625 
Q 8.203125 50.640625 11.5625 57.5625 
Q 14.9375 64.5 21.046875 68.28125 
Q 27.15625 72.078125 34.765625 72.078125 
Q 45.359375 72.078125 52.015625 66.65625 
Q 58.6875 61.234375 59.765625 51.859375 
L 57.125 51.859375 
Q 55.8125 60.359375 50.046875 64.890625 
Q 44.28125 69.4375 34.765625 69.4375 
Q 24.03125 69.4375 17.4375 61.765625 
Q 10.84375 54.109375 10.84375 41.609375 
L 10.84375 30.28125 
Q 10.84375 21.921875 13.9375 15.375 
Q 17.046875 8.84375 22.6875 5.25 
Q 28.328125 1.65625 35.59375 1.65625 
Q 42.71875 1.65625 48.828125 3.75 
Q 54.9375 5.859375 57.234375 8.84375 
L 57.234375 29.546875 
L 35.5 29.546875 
L 35.5 32.234375 
L 59.859375 32.234375 
z
" id="Roboto-Thin-47"/>
    </defs>
    <g style="fill:#262626;" transform="translate(1477.895215 302.713758)scale(0.2 -0.2)">
     <use xlink:href="#Roboto-Thin-42"/>
     <use x="60.302734" xlink:href="#Roboto-Thin-46"/>
     <use x="117.529297" xlink:href="#Roboto-Thin-47"/>
     <use x="186.181641" xlink:href="#Roboto-Thin-4d"/>
     <use x="271.923828" xlink:href="#Roboto-Thin-50"/>
    </g>
   </g>
  </g>
 </g>
 <defs>
  <clipPath id="pd68a6b4974">
   <rect height="361.16" width="424.767204" x="84.472188" y="30.635"/>
  </clipPath>
  <clipPath id="p62d77db411">
   <rect height="361.16" width="424.767204" x="535.077912" y="30.635"/>
  </clipPath>
  <clipPath id="p57364a26f3">
   <rect height="361.16" width="424.767204" x="985.683636" y="30.635"/>
  </clipPath>
 </defs>
</svg>
