<?xml version="1.0" encoding="utf-8" standalone="no"?>
<!DOCTYPE svg PUBLIC "-//W3C//DTD SVG 1.1//EN"
  "http://www.w3.org/Graphics/SVG/1.1/DTD/svg11.dtd">
<!-- Created with matplotlib (http://matplotlib.org/) -->
<svg height="450pt" version="1.1" viewBox="0 0 1619 450" width="1619pt" xmlns="http://www.w3.org/2000/svg" xmlns:xlink="http://www.w3.org/1999/xlink">
 <defs>
  <style type="text/css">
*{stroke-linecap:butt;stroke-linejoin:round;}
  </style>
 </defs>
 <g id="figure_1">
  <g id="patch_1">
   <path d="M 0 450.02625 
L 1619.415993 450.02625 
L 1619.415993 0 
L 0 0 
z
" style="fill:#ffffff;"/>
  </g>
  <g id="axes_1">
   <g id="patch_2">
    <path d="M 65.35 391.795 
L 496.791118 391.795 
L 496.791118 30.635 
L 65.35 30.635 
z
" style="fill:#ffffff;"/>
   </g>
   <g id="matplotlib.axis_1">
    <g id="xtick_1">
     <g id="line2d_1"/>
     <g id="text_1">
      <!-- 100 -->
      <defs>
       <path d="M 32.171875 0 
L 29.546875 0 
L 29.546875 67.78125 
L 9.125 60.109375 
L 9.125 62.984375 
L 31.640625 71.296875 
L 32.171875 71.296875 
z
" id="Roboto-Thin-31"/>
       <path d="M 48.640625 29 
Q 48.640625 14.703125 43.0625 6.859375 
Q 37.5 -0.984375 27.4375 -0.984375 
Q 17.4375 -0.984375 11.765625 6.921875 
Q 6.109375 14.84375 6.109375 29.203125 
L 6.109375 42.09375 
Q 6.109375 56.25 11.6875 64.1875 
Q 17.28125 72.125 27.34375 72.125 
Q 37.453125 72.125 43.046875 64.1875 
Q 48.640625 56.25 48.640625 41.890625 
z
M 46 42.09375 
Q 46 55.03125 41.140625 62.25 
Q 36.28125 69.484375 27.34375 69.484375 
Q 18.359375 69.484375 13.546875 62.234375 
Q 8.734375 54.984375 8.734375 41.84375 
L 8.734375 29.109375 
Q 8.734375 16.21875 13.671875 8.9375 
Q 18.609375 1.65625 27.4375 1.65625 
Q 36.328125 1.65625 41.15625 8.9375 
Q 46 16.21875 46 29.34375 
z
" id="Roboto-Thin-30"/>
      </defs>
      <g style="fill:#262626;" transform="translate(102.859827 413.795)scale(0.2 -0.2)">
       <use xlink:href="#Roboto-Thin-31"/>
       <use x="54.736328" xlink:href="#Roboto-Thin-30"/>
       <use x="109.472656" xlink:href="#Roboto-Thin-30"/>
      </g>
     </g>
    </g>
    <g id="xtick_2">
     <g id="line2d_2"/>
     <g id="text_2">
      <!-- 200 -->
      <defs>
       <path d="M 50 0 
L 7.46875 0 
L 7.46875 2.640625 
L 31.734375 30.609375 
Q 37.703125 37.59375 40.59375 43.015625 
Q 43.5 48.4375 43.5 52.984375 
Q 43.5 60.796875 38.953125 65.109375 
Q 34.421875 69.4375 26.171875 69.4375 
Q 21.1875 69.4375 17.078125 67.046875 
Q 12.984375 64.65625 10.65625 60.421875 
Q 8.34375 56.203125 8.34375 51.03125 
L 5.71875 51.03125 
Q 5.71875 56.734375 8.34375 61.609375 
Q 10.984375 66.5 15.671875 69.28125 
Q 20.359375 72.078125 26.171875 72.078125 
Q 35.640625 72.078125 40.90625 67.046875 
Q 46.1875 62.015625 46.1875 52.984375 
Q 46.1875 44.671875 36.859375 33.109375 
L 32.421875 27.6875 
L 10.9375 2.640625 
L 50 2.640625 
z
" id="Roboto-Thin-32"/>
      </defs>
      <g style="fill:#262626;" transform="translate(210.720107 413.795)scale(0.2 -0.2)">
       <use xlink:href="#Roboto-Thin-32"/>
       <use x="54.736328" xlink:href="#Roboto-Thin-30"/>
       <use x="109.472656" xlink:href="#Roboto-Thin-30"/>
      </g>
     </g>
    </g>
    <g id="xtick_3">
     <g id="line2d_3"/>
     <g id="text_3">
      <!-- 400 -->
      <defs>
       <path d="M 41.109375 22.015625 
L 53.421875 22.015625 
L 53.421875 19.390625 
L 41.109375 19.390625 
L 41.109375 0 
L 38.484375 0 
L 38.484375 19.390625 
L 4 19.390625 
L 4 20.84375 
L 37.9375 71.09375 
L 41.109375 71.09375 
z
M 8.109375 22.015625 
L 38.484375 22.015625 
L 38.484375 67.921875 
L 34.375 61.1875 
z
" id="Roboto-Thin-34"/>
      </defs>
      <g style="fill:#262626;" transform="translate(318.580386 413.795)scale(0.2 -0.2)">
       <use xlink:href="#Roboto-Thin-34"/>
       <use x="54.736328" xlink:href="#Roboto-Thin-30"/>
       <use x="109.472656" xlink:href="#Roboto-Thin-30"/>
      </g>
     </g>
    </g>
    <g id="xtick_4">
     <g id="line2d_4"/>
     <g id="text_4">
      <!-- 600 -->
      <defs>
       <path d="M 41.015625 72.078125 
L 41.015625 69.4375 
Q 26.078125 69.4375 17.828125 60.59375 
Q 9.578125 51.765625 8.9375 35.796875 
Q 11.765625 40.828125 17.140625 43.78125 
Q 22.515625 46.734375 28.90625 46.734375 
Q 38.28125 46.734375 43.875 40.328125 
Q 49.46875 33.9375 49.46875 23.4375 
Q 49.46875 16.65625 46.921875 11.03125 
Q 44.390625 5.421875 39.75 2.21875 
Q 35.109375 -0.984375 29.390625 -0.984375 
Q 22.859375 -0.984375 17.578125 2.046875 
Q 12.3125 5.078125 9.328125 10.6875 
Q 6.34375 16.3125 6.25 23.484375 
L 6.25 32.234375 
Q 6.25 51.171875 15.1875 61.625 
Q 24.125 72.078125 41.015625 72.078125 
z
M 28.5625 44.09375 
Q 21.734375 44.09375 16.046875 40.15625 
Q 10.359375 36.234375 8.890625 30.328125 
L 8.890625 24.078125 
Q 8.890625 14.015625 14.59375 7.8125 
Q 20.3125 1.609375 29.390625 1.609375 
Q 36.96875 1.609375 41.890625 7.9375 
Q 46.828125 14.265625 46.828125 23.4375 
Q 46.828125 32.90625 41.9375 38.5 
Q 37.0625 44.09375 28.5625 44.09375 
z
" id="Roboto-Thin-36"/>
      </defs>
      <g style="fill:#262626;" transform="translate(426.440666 413.795)scale(0.2 -0.2)">
       <use xlink:href="#Roboto-Thin-36"/>
       <use x="54.736328" xlink:href="#Roboto-Thin-30"/>
       <use x="109.472656" xlink:href="#Roboto-Thin-30"/>
      </g>
     </g>
    </g>
    <g id="text_5">
     <!-- Nodes -->
     <defs>
      <path d="M 60.984375 0 
L 58.34375 0 
L 12.453125 66.609375 
L 12.453125 0 
L 9.765625 0 
L 9.765625 71.09375 
L 12.453125 71.09375 
L 58.34375 4.640625 
L 58.34375 71.09375 
L 60.984375 71.09375 
z
" id="Roboto-Thin-4e"/>
      <path d="M 4.390625 27.4375 
Q 4.390625 35.015625 7.296875 41.046875 
Q 10.203125 47.078125 15.5 50.4375 
Q 20.796875 53.8125 27.484375 53.8125 
Q 34.125 53.8125 39.390625 50.53125 
Q 44.671875 47.265625 47.625 41.25 
Q 50.59375 35.25 50.640625 27.734375 
L 50.640625 25.390625 
Q 50.640625 17.78125 47.75 11.765625 
Q 44.875 5.765625 39.578125 2.390625 
Q 34.28125 -0.984375 27.59375 -0.984375 
Q 20.90625 -0.984375 15.59375 2.34375 
Q 10.296875 5.671875 7.359375 11.640625 
Q 4.4375 17.625 4.390625 25.09375 
z
M 7.03125 25.390625 
Q 7.03125 18.796875 9.640625 13.296875 
Q 12.25 7.8125 16.90625 4.734375 
Q 21.578125 1.65625 27.59375 1.65625 
Q 36.625 1.65625 42.3125 8.4375 
Q 48 15.234375 48 25.921875 
L 48 27.4375 
Q 48 33.9375 45.359375 39.453125 
Q 42.71875 44.96875 38.0625 48.0625 
Q 33.40625 51.171875 27.484375 51.171875 
Q 18.453125 51.171875 12.734375 44.28125 
Q 7.03125 37.40625 7.03125 26.953125 
z
" id="Roboto-Thin-6f"/>
      <path d="M 5.953125 26.953125 
Q 5.953125 39.59375 11.28125 46.703125 
Q 16.609375 53.8125 25.875 53.8125 
Q 31.84375 53.8125 36.40625 51.125 
Q 40.96875 48.4375 43.796875 43.109375 
L 43.796875 75 
L 46.4375 75 
L 46.4375 0 
L 43.796875 0 
L 43.796875 8.453125 
Q 41.109375 3.953125 36.421875 1.484375 
Q 31.734375 -0.984375 25.78125 -0.984375 
Q 16.609375 -0.984375 11.28125 6.296875 
Q 5.953125 13.578125 5.953125 26.265625 
z
M 8.6875 25.921875 
Q 8.6875 14.703125 13.125 8.171875 
Q 17.578125 1.65625 25.734375 1.65625 
Q 32.28125 1.65625 36.90625 4.5625 
Q 41.546875 7.46875 43.796875 13.09375 
L 43.796875 37.84375 
Q 39.265625 51.171875 25.828125 51.171875 
Q 17.71875 51.171875 13.203125 44.765625 
Q 8.6875 38.375 8.6875 25.921875 
z
" id="Roboto-Thin-64"/>
      <path d="M 27.390625 -0.984375 
Q 21 -0.984375 15.640625 2.453125 
Q 10.296875 5.90625 7.265625 11.90625 
Q 4.25 17.921875 4.25 25.25 
L 4.25 27.4375 
Q 4.25 34.765625 7.171875 40.859375 
Q 10.109375 46.96875 15.234375 50.390625 
Q 20.359375 53.8125 26.421875 53.8125 
Q 35.25 53.8125 40.859375 47.515625 
Q 46.484375 41.21875 46.484375 30.953125 
L 46.484375 28.171875 
L 6.890625 28.171875 
L 6.890625 25.296875 
Q 6.890625 18.84375 9.59375 13.34375 
Q 12.3125 7.859375 17.0625 4.734375 
Q 21.828125 1.609375 27.390625 1.609375 
Q 32.71875 1.609375 36.453125 3.390625 
Q 40.1875 5.171875 43.0625 8.890625 
L 44.921875 7.5625 
Q 39.015625 -0.984375 27.390625 -0.984375 
z
M 26.421875 51.171875 
Q 18.703125 51.171875 13.328125 45.4375 
Q 7.953125 39.703125 7.03125 30.8125 
L 43.84375 30.8125 
L 43.84375 31.453125 
Q 43.84375 36.8125 41.578125 41.421875 
Q 39.3125 46.046875 35.328125 48.609375 
Q 31.34375 51.171875 26.421875 51.171875 
z
" id="Roboto-Thin-65"/>
      <path d="M 40.96875 12.9375 
Q 40.96875 22.5625 24.5625 26.03125 
Q 14.703125 28.125 10.84375 31.421875 
Q 6.984375 34.71875 6.984375 40.484375 
Q 6.984375 46.296875 11.890625 50.046875 
Q 16.796875 53.8125 24.65625 53.8125 
Q 33.203125 53.8125 38.375 49.734375 
Q 43.5625 45.65625 43.5625 38.71875 
L 40.875 38.71875 
Q 40.875 44.046875 36.375 47.609375 
Q 31.890625 51.171875 24.65625 51.171875 
Q 17.71875 51.171875 13.671875 48.140625 
Q 9.625 45.125 9.625 40.578125 
Q 9.625 37.015625 11.125 34.984375 
Q 12.640625 32.953125 16.0625 31.3125 
Q 19.484375 29.6875 26.015625 28.171875 
Q 32.5625 26.65625 36.375 24.609375 
Q 40.1875 22.5625 41.890625 19.75 
Q 43.609375 16.9375 43.609375 12.890625 
Q 43.609375 6.640625 38.46875 2.828125 
Q 33.34375 -0.984375 25.046875 -0.984375 
Q 16.15625 -0.984375 10.71875 3.046875 
Q 5.28125 7.078125 5.28125 13.421875 
L 7.90625 13.421875 
Q 8.296875 7.859375 12.8125 4.75 
Q 17.328125 1.65625 25.046875 1.65625 
Q 32.125 1.65625 36.546875 4.953125 
Q 40.96875 8.25 40.96875 12.9375 
z
" id="Roboto-Thin-73"/>
     </defs>
     <g style="fill:#262626;" transform="translate(250.198372 438.3575)scale(0.22 -0.22)">
      <use xlink:href="#Roboto-Thin-4e"/>
      <use x="70.751953" xlink:href="#Roboto-Thin-6f"/>
      <use x="125.78125" xlink:href="#Roboto-Thin-64"/>
      <use x="180.517578" xlink:href="#Roboto-Thin-65"/>
      <use x="230.908203" xlink:href="#Roboto-Thin-73"/>
     </g>
    </g>
   </g>
   <g id="matplotlib.axis_2">
    <g id="ytick_1">
     <g id="line2d_5">
      <path clip-path="url(#pe944725a78)" d="M 65.35 352.133472 
L 496.791118 352.133472 
" style="fill:none;stroke:#cccccc;stroke-linecap:round;"/>
     </g>
     <g id="line2d_6"/>
     <g id="text_6">
      <!-- 0.5 -->
      <defs>
       <path d="M 7.171875 2.390625 
Q 7.171875 3.515625 7.953125 4.3125 
Q 8.734375 5.125 9.859375 5.125 
Q 10.984375 5.125 11.78125 4.3125 
Q 12.59375 3.515625 12.59375 2.390625 
Q 12.59375 1.265625 11.78125 0.484375 
Q 10.984375 -0.296875 9.859375 -0.296875 
Q 8.734375 -0.296875 7.953125 0.484375 
Q 7.171875 1.265625 7.171875 2.390625 
z
" id="Roboto-Thin-2e"/>
       <path d="M 11.28125 37.203125 
L 14.59375 71.09375 
L 49.265625 71.09375 
L 49.265625 68.5 
L 17 68.5 
L 14.109375 39.984375 
Q 16.65625 42.09375 20.828125 43.40625 
Q 25 44.734375 29 44.734375 
Q 38.578125 44.734375 44.28125 38.671875 
Q 50 32.625 50 22.65625 
Q 50 11.078125 44.828125 5.046875 
Q 39.65625 -0.984375 29.984375 -0.984375 
Q 20.84375 -0.984375 15.234375 4.234375 
Q 9.625 9.46875 8.890625 18.703125 
L 11.578125 18.703125 
Q 12.359375 10.359375 17.046875 6 
Q 21.734375 1.65625 29.984375 1.65625 
Q 38.765625 1.65625 43.03125 6.953125 
Q 47.3125 12.25 47.3125 22.5625 
Q 47.3125 31.453125 42.359375 36.765625 
Q 37.40625 42.09375 29.046875 42.09375 
Q 23.921875 42.09375 20.109375 40.71875 
Q 16.3125 39.359375 13.28125 36.421875 
z
" id="Roboto-Thin-35"/>
      </defs>
      <g style="fill:#262626;" transform="translate(32.16875 359.633472)scale(0.2 -0.2)">
       <use xlink:href="#Roboto-Thin-30"/>
       <use x="54.736328" xlink:href="#Roboto-Thin-2e"/>
       <use x="76.171875" xlink:href="#Roboto-Thin-35"/>
      </g>
     </g>
    </g>
    <g id="ytick_2">
     <g id="line2d_7">
      <path clip-path="url(#pe944725a78)" d="M 65.35 280.708896 
L 496.791118 280.708896 
" style="fill:none;stroke:#cccccc;stroke-linecap:round;"/>
     </g>
     <g id="line2d_8"/>
     <g id="text_7">
      <!-- 0.6 -->
      <g style="fill:#262626;" transform="translate(32.16875 288.208896)scale(0.2 -0.2)">
       <use xlink:href="#Roboto-Thin-30"/>
       <use x="54.736328" xlink:href="#Roboto-Thin-2e"/>
       <use x="76.171875" xlink:href="#Roboto-Thin-36"/>
      </g>
     </g>
    </g>
    <g id="ytick_3">
     <g id="line2d_9">
      <path clip-path="url(#pe944725a78)" d="M 65.35 209.28432 
L 496.791118 209.28432 
" style="fill:none;stroke:#cccccc;stroke-linecap:round;"/>
     </g>
     <g id="line2d_10"/>
     <g id="text_8">
      <!-- 0.7 -->
      <defs>
       <path d="M 49.171875 69.4375 
L 17.875 0 
L 15.1875 0 
L 46.140625 68.453125 
L 3.765625 68.453125 
L 3.765625 71.09375 
L 49.171875 71.09375 
z
" id="Roboto-Thin-37"/>
      </defs>
      <g style="fill:#262626;" transform="translate(32.16875 216.78432)scale(0.2 -0.2)">
       <use xlink:href="#Roboto-Thin-30"/>
       <use x="54.736328" xlink:href="#Roboto-Thin-2e"/>
       <use x="76.171875" xlink:href="#Roboto-Thin-37"/>
      </g>
     </g>
    </g>
    <g id="ytick_4">
     <g id="line2d_11">
      <path clip-path="url(#pe944725a78)" d="M 65.35 137.859743 
L 496.791118 137.859743 
" style="fill:none;stroke:#cccccc;stroke-linecap:round;"/>
     </g>
     <g id="line2d_12"/>
     <g id="text_9">
      <!-- 0.8 -->
      <defs>
       <path d="M 48.140625 53.03125 
Q 48.140625 47.078125 44.453125 42.609375 
Q 40.765625 38.140625 34.90625 36.375 
Q 41.890625 34.515625 46.046875 29.625 
Q 50.203125 24.75 50.203125 18.5 
Q 50.203125 9.46875 44.015625 4.234375 
Q 37.84375 -0.984375 27.59375 -0.984375 
Q 17.140625 -0.984375 11.015625 4.234375 
Q 4.890625 9.46875 4.890625 18.5 
Q 4.890625 24.8125 8.90625 29.65625 
Q 12.9375 34.515625 19.921875 36.375 
Q 14.0625 38.140625 10.46875 42.609375 
Q 6.890625 47.078125 6.890625 53.03125 
Q 6.890625 61.8125 12.53125 66.9375 
Q 18.171875 72.078125 27.390625 72.078125 
Q 36.671875 72.078125 42.40625 66.84375 
Q 48.140625 61.625 48.140625 53.03125 
z
M 47.515625 18.265625 
Q 47.515625 25.59375 41.890625 30.328125 
Q 36.28125 35.0625 27.484375 35.0625 
Q 18.65625 35.0625 13.078125 30.34375 
Q 7.515625 25.640625 7.515625 18.265625 
Q 7.515625 10.75 12.953125 6.203125 
Q 18.40625 1.65625 27.59375 1.65625 
Q 36.578125 1.65625 42.046875 6.21875 
Q 47.515625 10.796875 47.515625 18.265625 
z
M 45.515625 53.265625 
Q 45.515625 60.203125 40.28125 64.8125 
Q 35.0625 69.4375 27.390625 69.4375 
Q 19.53125 69.4375 14.515625 64.984375 
Q 9.515625 60.546875 9.515625 53.265625 
Q 9.515625 46.34375 14.5 42.015625 
Q 19.484375 37.703125 27.484375 37.703125 
Q 35.40625 37.703125 40.453125 42.0625 
Q 45.515625 46.4375 45.515625 53.265625 
z
" id="Roboto-Thin-38"/>
      </defs>
      <g style="fill:#262626;" transform="translate(32.16875 145.359743)scale(0.2 -0.2)">
       <use xlink:href="#Roboto-Thin-30"/>
       <use x="54.736328" xlink:href="#Roboto-Thin-2e"/>
       <use x="76.171875" xlink:href="#Roboto-Thin-38"/>
      </g>
     </g>
    </g>
    <g id="ytick_5">
     <g id="line2d_13">
      <path clip-path="url(#pe944725a78)" d="M 65.35 66.435167 
L 496.791118 66.435167 
" style="fill:none;stroke:#cccccc;stroke-linecap:round;"/>
     </g>
     <g id="line2d_14"/>
     <g id="text_10">
      <!-- 0.9 -->
      <defs>
       <path d="M 45.84375 35.359375 
Q 43.265625 29.734375 37.8125 26.296875 
Q 32.375 22.859375 25.53125 22.859375 
Q 19.671875 22.859375 14.984375 26 
Q 10.296875 29.15625 7.65625 34.671875 
Q 5.03125 40.1875 5.03125 46.78125 
Q 5.03125 53.765625 7.71875 59.59375 
Q 10.40625 65.4375 15.234375 68.75 
Q 20.0625 72.078125 25.921875 72.078125 
Q 36.921875 72.078125 42.671875 64.921875 
Q 48.4375 57.765625 48.484375 44.28125 
L 48.484375 36.140625 
Q 48.484375 18.109375 40.46875 8.65625 
Q 32.46875 -0.78125 16.890625 -0.984375 
L 14.546875 -0.984375 
L 14.65625 1.65625 
L 16.75 1.65625 
Q 31 1.8125 38.421875 10.34375 
Q 45.84375 18.890625 45.84375 35.359375 
z
M 25.53125 25.484375 
Q 32.765625 25.484375 38.328125 29.734375 
Q 43.890625 33.984375 45.84375 41.015625 
L 45.84375 44.046875 
Q 45.84375 56.390625 40.734375 62.90625 
Q 35.640625 69.4375 26.125 69.4375 
Q 20.90625 69.4375 16.65625 66.359375 
Q 12.40625 63.28125 10.03125 57.984375 
Q 7.671875 52.6875 7.671875 46.78125 
Q 7.671875 40.96875 9.953125 36.015625 
Q 12.25 31.0625 16.296875 28.265625 
Q 20.359375 25.484375 25.53125 25.484375 
z
" id="Roboto-Thin-39"/>
      </defs>
      <g style="fill:#262626;" transform="translate(32.16875 73.935167)scale(0.2 -0.2)">
       <use xlink:href="#Roboto-Thin-30"/>
       <use x="54.736328" xlink:href="#Roboto-Thin-2e"/>
       <use x="76.171875" xlink:href="#Roboto-Thin-39"/>
      </g>
     </g>
    </g>
    <g id="text_11">
     <!-- PDR -->
     <defs>
      <path d="M 12.40625 30.03125 
L 12.40625 0 
L 9.765625 0 
L 9.765625 71.09375 
L 31.984375 71.09375 
Q 42.875 71.09375 48.90625 65.59375 
Q 54.9375 60.109375 54.9375 50.34375 
Q 54.9375 40.671875 49.046875 35.390625 
Q 43.171875 30.125 32.328125 30.03125 
z
M 12.40625 32.671875 
L 31.984375 32.671875 
Q 41.609375 32.671875 46.953125 37.296875 
Q 52.296875 41.9375 52.296875 50.25 
Q 52.296875 58.84375 46.953125 63.640625 
Q 41.609375 68.453125 31.984375 68.453125 
L 12.40625 68.453125 
z
" id="Roboto-Thin-50"/>
      <path d="M 9.765625 0 
L 9.765625 71.09375 
L 29.4375 71.09375 
Q 37.703125 71.09375 44.390625 67.1875 
Q 51.078125 63.28125 54.875 56.21875 
Q 58.6875 49.171875 58.796875 40.4375 
L 58.796875 31.203125 
Q 58.796875 22.3125 55.046875 15.1875 
Q 51.3125 8.0625 44.625 4.046875 
Q 37.9375 0.046875 29.6875 0 
z
M 12.40625 68.453125 
L 12.40625 2.640625 
L 29.4375 2.640625 
Q 36.921875 2.640625 43.046875 6.265625 
Q 49.171875 9.90625 52.640625 16.421875 
Q 56.109375 22.953125 56.15625 30.90625 
L 56.15625 40.046875 
Q 56.15625 48 52.75 54.484375 
Q 49.359375 60.984375 43.28125 64.671875 
Q 37.203125 68.359375 29.828125 68.453125 
z
" id="Roboto-Thin-44"/>
      <path d="M 36.8125 30.421875 
L 12.15625 30.421875 
L 12.15625 0 
L 9.515625 0 
L 9.515625 71.09375 
L 32.171875 71.09375 
Q 42.875 71.09375 49.1875 65.578125 
Q 55.515625 60.0625 55.515625 50.59375 
Q 55.515625 43.3125 51 37.859375 
Q 46.484375 32.421875 39.5 31.109375 
L 58.5 0.6875 
L 58.5 0 
L 55.71875 0 
z
M 12.15625 33.0625 
L 34.578125 33.0625 
Q 42.78125 33.0625 47.828125 38.03125 
Q 52.875 43.015625 52.875 50.59375 
Q 52.875 58.890625 47.28125 63.671875 
Q 41.703125 68.453125 31.984375 68.453125 
L 12.15625 68.453125 
z
" id="Roboto-Thin-52"/>
     </defs>
     <g style="fill:#262626;" transform="translate(23.7 232.218125)rotate(-90)scale(0.22 -0.22)">
      <use xlink:href="#Roboto-Thin-50"/>
      <use x="60.058594" xlink:href="#Roboto-Thin-44"/>
      <use x="125.488281" xlink:href="#Roboto-Thin-52"/>
     </g>
    </g>
   </g>
   <g id="PathCollection_1">
    <defs>
     <path d="M 0 5 
C 1.326016 5 2.597899 4.473168 3.535534 3.535534 
C 4.473168 2.597899 5 1.326016 5 0 
C 5 -1.326016 4.473168 -2.597899 3.535534 -3.535534 
C 2.597899 -4.473168 1.326016 -5 0 -5 
C -1.326016 -5 -2.597899 -4.473168 -3.535534 -3.535534 
C -4.473168 -2.597899 -5 -1.326016 -5 0 
C -5 1.326016 -4.473168 2.597899 -3.535534 3.535534 
C -2.597899 4.473168 -1.326016 5 0 5 
z
" id="C0_0_030b12e03d"/>
    </defs>
    <g clip-path="url(#pe944725a78)">
     <use style="fill:#4c72b0;stroke:#4c72b0;stroke-width:1.08;" x="119.28014" xlink:href="#C0_0_030b12e03d" y="371.158122"/>
    </g>
    <g clip-path="url(#pe944725a78)">
     <use style="fill:#4c72b0;stroke:#4c72b0;stroke-width:1.08;" x="227.140419" xlink:href="#C0_0_030b12e03d" y="321.173775"/>
    </g>
    <g clip-path="url(#pe944725a78)">
     <use style="fill:#4c72b0;stroke:#4c72b0;stroke-width:1.08;" x="335.000699" xlink:href="#C0_0_030b12e03d" y="295.886618"/>
    </g>
    <g clip-path="url(#pe944725a78)">
     <use style="fill:#4c72b0;stroke:#4c72b0;stroke-width:1.08;" x="442.860978" xlink:href="#C0_0_030b12e03d" y="286.094309"/>
    </g>
   </g>
   <g id="line2d_15">
    <path clip-path="url(#pe944725a78)" d="M 119.28014 371.158122 
L 227.140419 321.173775 
L 335.000699 295.886618 
L 442.860978 286.094309 
" style="fill:none;stroke:#4c72b0;stroke-linecap:round;stroke-width:1.44;"/>
   </g>
   <g id="line2d_16">
    <path clip-path="url(#pe944725a78)" d="M 119.28014 374.595966 
L 119.28014 367.786132 
" style="fill:none;stroke:#4c72b0;stroke-linecap:round;stroke-width:1.44;"/>
   </g>
   <g id="line2d_17">
    <path clip-path="url(#pe944725a78)" d="M 227.140419 323.566677 
L 227.140419 319.009575 
" style="fill:none;stroke:#4c72b0;stroke-linecap:round;stroke-width:1.44;"/>
   </g>
   <g id="line2d_18">
    <path clip-path="url(#pe944725a78)" d="M 335.000699 297.658412 
L 335.000699 294.106718 
" style="fill:none;stroke:#4c72b0;stroke-linecap:round;stroke-width:1.44;"/>
   </g>
   <g id="line2d_19">
    <path clip-path="url(#pe944725a78)" d="M 442.860978 287.687077 
L 442.860978 284.611392 
" style="fill:none;stroke:#4c72b0;stroke-linecap:round;stroke-width:1.44;"/>
   </g>
   <g id="PathCollection_2">
    <path clip-path="url(#pe944725a78)" d="M 114.28014 223.598084 
L 124.28014 223.598084 
L 124.28014 213.598084 
L 114.28014 213.598084 
z
" style="fill:#55a868;stroke:#55a868;stroke-width:1.08;"/>
    <path clip-path="url(#pe944725a78)" d="M 222.140419 183.530326 
L 232.140419 183.530326 
L 232.140419 173.530326 
L 222.140419 173.530326 
z
" style="fill:#55a868;stroke:#55a868;stroke-width:1.08;"/>
    <path clip-path="url(#pe944725a78)" d="M 330.000699 176.133597 
L 340.000699 176.133597 
L 340.000699 166.133597 
L 330.000699 166.133597 
z
" style="fill:#55a868;stroke:#55a868;stroke-width:1.08;"/>
    <path clip-path="url(#pe944725a78)" d="M 437.860978 170.508197 
L 447.860978 170.508197 
L 447.860978 160.508197 
L 437.860978 160.508197 
z
" style="fill:#55a868;stroke:#55a868;stroke-width:1.08;"/>
   </g>
   <g id="line2d_20">
    <path clip-path="url(#pe944725a78)" d="M 119.28014 218.598084 
L 227.140419 178.530326 
L 335.000699 171.133597 
L 442.860978 165.508197 
" style="fill:none;stroke:#55a868;stroke-linecap:round;stroke-width:1.44;"/>
   </g>
   <g id="line2d_21">
    <path clip-path="url(#pe944725a78)" d="M 119.28014 222.211775 
L 119.28014 215.025106 
" style="fill:none;stroke:#55a868;stroke-linecap:round;stroke-width:1.44;"/>
   </g>
   <g id="line2d_22">
    <path clip-path="url(#pe944725a78)" d="M 227.140419 180.825519 
L 227.140419 176.42805 
" style="fill:none;stroke:#55a868;stroke-linecap:round;stroke-width:1.44;"/>
   </g>
   <g id="line2d_23">
    <path clip-path="url(#pe944725a78)" d="M 335.000699 172.808539 
L 335.000699 169.498474 
" style="fill:none;stroke:#55a868;stroke-linecap:round;stroke-width:1.44;"/>
   </g>
   <g id="line2d_24">
    <path clip-path="url(#pe944725a78)" d="M 442.860978 167.355236 
L 442.860978 163.659515 
" style="fill:none;stroke:#55a868;stroke-linecap:round;stroke-width:1.44;"/>
   </g>
   <g id="patch_3">
    <path d="M 65.35 391.795 
L 65.35 30.635 
" style="fill:none;stroke:#cccccc;stroke-linecap:square;stroke-linejoin:miter;"/>
   </g>
   <g id="patch_4">
    <path d="M 65.35 391.795 
L 496.791118 391.795 
" style="fill:none;stroke:#cccccc;stroke-linecap:square;stroke-linejoin:miter;"/>
   </g>
   <g id="PathCollection_3">
    <path clip-path="url(#pe944725a78)" d="M 119.28014 367.100927 
L 114.28014 377.100927 
L 124.28014 377.100927 
z
" style="fill:#c44e52;stroke:#c44e52;stroke-width:1.08;"/>
    <path clip-path="url(#pe944725a78)" d="M 227.140419 322.871972 
L 222.140419 332.871972 
L 232.140419 332.871972 
z
" style="fill:#c44e52;stroke:#c44e52;stroke-width:1.08;"/>
    <path clip-path="url(#pe944725a78)" d="M 335.000699 300.444655 
L 330.000699 310.444655 
L 340.000699 310.444655 
z
" style="fill:#c44e52;stroke:#c44e52;stroke-width:1.08;"/>
    <path clip-path="url(#pe944725a78)" d="M 442.860978 298.943311 
L 437.860978 308.943311 
L 447.860978 308.943311 
z
" style="fill:#c44e52;stroke:#c44e52;stroke-width:1.08;"/>
   </g>
   <g id="line2d_25">
    <path clip-path="url(#pe944725a78)" d="M 119.28014 372.100927 
L 227.140419 327.871972 
L 335.000699 305.444655 
L 442.860978 303.943311 
" style="fill:none;stroke:#c44e52;stroke-linecap:round;stroke-width:1.44;"/>
   </g>
   <g id="line2d_26">
    <path clip-path="url(#pe944725a78)" d="M 119.28014 375.378636 
L 119.28014 369.178947 
" style="fill:none;stroke:#c44e52;stroke-linecap:round;stroke-width:1.44;"/>
   </g>
   <g id="line2d_27">
    <path clip-path="url(#pe944725a78)" d="M 227.140419 330.136524 
L 227.140419 325.461179 
" style="fill:none;stroke:#c44e52;stroke-linecap:round;stroke-width:1.44;"/>
   </g>
   <g id="line2d_28">
    <path clip-path="url(#pe944725a78)" d="M 335.000699 307.363191 
L 335.000699 303.342987 
" style="fill:none;stroke:#c44e52;stroke-linecap:round;stroke-width:1.44;"/>
   </g>
   <g id="line2d_29">
    <path clip-path="url(#pe944725a78)" d="M 442.860978 306.138331 
L 442.860978 301.880426 
" style="fill:none;stroke:#c44e52;stroke-linecap:round;stroke-width:1.44;"/>
   </g>
   <g id="text_12">
    <!-- Message creation interval (s) = 5,25 -->
    <defs>
     <path d="M 13.53125 71.09375 
L 42.78125 3.859375 
L 72.125 71.09375 
L 75.984375 71.09375 
L 75.984375 0 
L 73.34375 0 
L 73.34375 67.1875 
L 43.84375 0 
L 41.75 0 
L 12.40625 66.84375 
L 12.40625 0 
L 9.765625 0 
L 9.765625 71.09375 
z
" id="Roboto-Thin-4d"/>
     <path d="M 42.53125 0 
Q 41.546875 3.375 41.546875 9.671875 
Q 38.421875 4.59375 33 1.796875 
Q 27.59375 -0.984375 20.75 -0.984375 
Q 13.421875 -0.984375 8.953125 3 
Q 4.5 6.984375 4.5 13.375 
Q 4.5 20.65625 11.0625 25.015625 
Q 17.625 29.390625 28.515625 29.5 
L 41.546875 29.5 
L 41.546875 37.203125 
Q 41.546875 43.84375 37.375 47.5 
Q 33.203125 51.171875 25.4375 51.171875 
Q 18.21875 51.171875 13.375 47.453125 
Q 8.546875 43.75 8.546875 38.28125 
L 5.90625 38.375 
Q 5.90625 44.828125 11.5625 49.3125 
Q 17.234375 53.8125 25.4375 53.8125 
Q 33.984375 53.8125 39.015625 49.53125 
Q 44.046875 45.265625 44.1875 37.5 
L 44.1875 12.25 
Q 44.1875 3.5625 45.5625 0.4375 
L 45.5625 0 
z
M 20.75 1.609375 
Q 28.171875 1.609375 33.515625 4.921875 
Q 38.875 8.25 41.546875 14.265625 
L 41.546875 26.8125 
L 29.34375 26.8125 
Q 18.015625 26.8125 12.015625 22.3125 
Q 7.125 18.65625 7.125 13.1875 
Q 7.125 8.34375 10.984375 4.96875 
Q 14.84375 1.609375 20.75 1.609375 
z
" id="Roboto-Thin-61"/>
     <path d="M 5.90625 26.953125 
Q 5.90625 39.59375 11.21875 46.703125 
Q 16.546875 53.8125 25.828125 53.8125 
Q 31.734375 53.8125 36.328125 51.09375 
Q 40.921875 48.390625 43.703125 43.171875 
L 43.703125 52.828125 
L 46.390625 52.828125 
L 46.390625 0.921875 
Q 46.390625 -9.515625 41.015625 -15.40625 
Q 35.640625 -21.296875 26.421875 -21.296875 
Q 21.09375 -21.296875 16.671875 -19 
Q 12.25 -16.703125 9.125 -12.40625 
L 10.984375 -10.640625 
Q 14.0625 -14.546875 17.71875 -16.625 
Q 21.390625 -18.703125 26.3125 -18.703125 
Q 34.46875 -18.703125 39.015625 -13.75 
Q 43.5625 -8.796875 43.703125 0.25 
L 43.703125 8.34375 
Q 40.96875 3.859375 36.296875 1.4375 
Q 31.640625 -0.984375 25.734375 -0.984375 
Q 16.546875 -0.984375 11.21875 6.296875 
Q 5.90625 13.578125 5.90625 26.265625 
z
M 8.59375 25.921875 
Q 8.59375 14.59375 13.078125 8.125 
Q 17.578125 1.65625 25.6875 1.65625 
Q 32.375 1.65625 37.0625 4.75 
Q 41.75 7.859375 43.703125 13.484375 
L 43.703125 37.453125 
Q 39.40625 51.171875 25.78125 51.171875 
Q 17.625 51.171875 13.109375 44.765625 
Q 8.59375 38.375 8.59375 25.921875 
z
" id="Roboto-Thin-67"/>
     <path id="Roboto-Thin-20"/>
     <path d="M 26.3125 1.65625 
Q 33.5 1.65625 38.15625 5.46875 
Q 42.828125 9.28125 43.265625 16.015625 
L 45.90625 16.015625 
Q 45.515625 8.34375 39.984375 3.671875 
Q 34.46875 -0.984375 26.3125 -0.984375 
Q 16.40625 -0.984375 10.5625 6.1875 
Q 4.734375 13.375 4.734375 25.6875 
L 4.734375 27.4375 
Q 4.734375 39.453125 10.5625 46.625 
Q 16.40625 53.8125 26.21875 53.8125 
Q 34.625 53.8125 40.09375 48.78125 
Q 45.5625 43.75 45.90625 35.40625 
L 43.265625 35.40625 
Q 42.921875 42.53125 38.25 46.84375 
Q 33.59375 51.171875 26.21875 51.171875 
Q 17.390625 51.171875 12.375 44.796875 
Q 7.375 38.421875 7.375 27.09375 
L 7.375 25.390625 
Q 7.375 14.3125 12.421875 7.984375 
Q 17.484375 1.65625 26.3125 1.65625 
z
" id="Roboto-Thin-63"/>
     <path d="M 31.6875 50.921875 
L 28.265625 51.21875 
Q 21.53125 51.21875 16.984375 46.84375 
Q 12.453125 42.484375 11.03125 34.625 
L 11.03125 0 
L 8.40625 0 
L 8.40625 52.828125 
L 11.03125 52.828125 
L 11.03125 41.84375 
Q 13.1875 47.359375 17.484375 50.578125 
Q 21.78125 53.8125 28.265625 53.8125 
Q 30.5625 53.8125 31.984375 53.265625 
z
" id="Roboto-Thin-72"/>
     <path d="M 14.3125 67.09375 
L 14.3125 52.828125 
L 26.3125 52.828125 
L 26.3125 50.140625 
L 14.3125 50.140625 
L 14.3125 12.640625 
Q 14.3125 7.03125 16.140625 4.34375 
Q 17.96875 1.65625 22.265625 1.65625 
Q 24.421875 1.65625 27.484375 2.09375 
L 27.9375 -0.390625 
Q 26.3125 -0.984375 22.40625 -0.984375 
Q 16.65625 -0.984375 14.15625 2.21875 
Q 11.671875 5.421875 11.625 12.3125 
L 11.625 50.140625 
L 1.859375 50.140625 
L 1.859375 52.828125 
L 11.625 52.828125 
L 11.625 67.09375 
z
" id="Roboto-Thin-74"/>
     <path d="M 11.671875 0 
L 9.03125 0 
L 9.03125 52.828125 
L 11.671875 52.828125 
z
M 7.671875 69.34375 
Q 7.671875 70.453125 8.453125 71.265625 
Q 9.234375 72.078125 10.34375 72.078125 
Q 11.46875 72.078125 12.28125 71.265625 
Q 13.09375 70.453125 13.09375 69.328125 
Q 13.09375 68.21875 12.28125 67.4375 
Q 11.46875 66.65625 10.34375 66.65625 
Q 9.234375 66.65625 8.453125 67.4375 
Q 7.671875 68.21875 7.671875 69.34375 
z
" id="Roboto-Thin-69"/>
     <path d="M 11.03125 40.53125 
Q 13.625 46.6875 18.65625 50.25 
Q 23.6875 53.8125 29.78125 53.8125 
Q 38.28125 53.8125 42.40625 49 
Q 46.53125 44.1875 46.578125 34.46875 
L 46.578125 0 
L 43.953125 0 
L 43.953125 34.578125 
Q 43.890625 43.0625 40.46875 47.140625 
Q 37.0625 51.21875 29.640625 51.21875 
Q 22.796875 51.21875 17.796875 46.359375 
Q 12.796875 41.5 11.03125 33.84375 
L 11.03125 0 
L 8.40625 0 
L 8.40625 52.828125 
L 11.03125 52.828125 
z
" id="Roboto-Thin-6e"/>
     <path d="M 23.921875 4.203125 
L 42.921875 52.828125 
L 45.75 52.828125 
L 25.203125 0 
L 22.609375 0 
L 2.09375 52.828125 
L 4.9375 52.828125 
z
" id="Roboto-Thin-76"/>
     <path d="M 11.671875 0 
L 9.03125 0 
L 9.03125 75 
L 11.671875 75 
z
" id="Roboto-Thin-6c"/>
     <path d="M 7.234375 28.609375 
Q 7.234375 39.15625 9.8125 49.359375 
Q 12.40625 59.578125 17.15625 67.671875 
Q 21.921875 75.78125 27.4375 79.25 
L 28.375 77.15625 
Q 23.578125 73.96875 19.328125 66.546875 
Q 15.09375 59.125 12.546875 49.359375 
Q 10.015625 39.59375 9.859375 30.078125 
L 9.859375 27.546875 
Q 9.859375 17.875 12.296875 7.9375 
Q 14.75 -2 19.09375 -9.78125 
Q 23.4375 -17.578125 28.375 -20.84375 
L 27.4375 -22.953125 
Q 21.78125 -19.390625 17.109375 -11.640625 
Q 12.453125 -3.90625 9.84375 6.375 
Q 7.234375 16.65625 7.234375 28.609375 
z
" id="Roboto-Thin-28"/>
     <path d="M 22.515625 27.640625 
Q 22.515625 16.65625 19.890625 6.375 
Q 17.28125 -3.90625 12.609375 -11.640625 
Q 7.953125 -19.390625 2.296875 -22.953125 
L 1.375 -20.84375 
Q 6.453125 -17.4375 10.796875 -9.515625 
Q 15.140625 -1.609375 17.5 8.15625 
Q 19.875 17.921875 19.875 28.8125 
Q 19.875 38.671875 17.375 48.609375 
Q 14.890625 58.546875 10.5625 66.234375 
Q 6.25 73.921875 1.375 77.15625 
L 2.296875 79.25 
Q 7.8125 75.78125 12.5625 67.671875 
Q 17.328125 59.578125 19.921875 49.359375 
Q 22.515625 39.15625 22.515625 27.640625 
z
" id="Roboto-Thin-29"/>
     <path d="M 47.90625 41.15625 
L 7.171875 41.15625 
L 7.171875 43.796875 
L 47.90625 43.796875 
z
M 47.90625 21.296875 
L 7.171875 21.296875 
L 7.171875 23.921875 
L 47.90625 23.921875 
z
" id="Roboto-Thin-3d"/>
     <path d="M 6.296875 -12.453125 
L 4.5 -10.890625 
Q 8.453125 -5.8125 8.796875 -0.390625 
L 8.84375 7.765625 
L 11.46875 7.765625 
L 11.46875 0.640625 
Q 11.28125 -7.125 6.296875 -12.453125 
z
" id="Roboto-Thin-2c"/>
    </defs>
    <g style="fill:#262626;" transform="translate(113.531965 24.635)scale(0.22 -0.22)">
     <use xlink:href="#Roboto-Thin-4d"/>
     <use x="85.742188" xlink:href="#Roboto-Thin-65"/>
     <use x="136.132812" xlink:href="#Roboto-Thin-73"/>
     <use x="185.888672" xlink:href="#Roboto-Thin-73"/>
     <use x="235.644531" xlink:href="#Roboto-Thin-61"/>
     <use x="288.427734" xlink:href="#Roboto-Thin-67"/>
     <use x="343.261719" xlink:href="#Roboto-Thin-65"/>
     <use x="393.652344" xlink:href="#Roboto-Thin-20"/>
     <use x="417.578125" xlink:href="#Roboto-Thin-63"/>
     <use x="468.310547" xlink:href="#Roboto-Thin-72"/>
     <use x="501.757812" xlink:href="#Roboto-Thin-65"/>
     <use x="552.148438" xlink:href="#Roboto-Thin-61"/>
     <use x="604.931641" xlink:href="#Roboto-Thin-74"/>
     <use x="636.572266" xlink:href="#Roboto-Thin-69"/>
     <use x="657.177734" xlink:href="#Roboto-Thin-6f"/>
     <use x="712.207031" xlink:href="#Roboto-Thin-6e"/>
     <use x="766.943359" xlink:href="#Roboto-Thin-20"/>
     <use x="790.869141" xlink:href="#Roboto-Thin-69"/>
     <use x="811.474609" xlink:href="#Roboto-Thin-6e"/>
     <use x="866.210938" xlink:href="#Roboto-Thin-74"/>
     <use x="897.851562" xlink:href="#Roboto-Thin-65"/>
     <use x="948.242188" xlink:href="#Roboto-Thin-72"/>
     <use x="981.689453" xlink:href="#Roboto-Thin-76"/>
     <use x="1029.443359" xlink:href="#Roboto-Thin-61"/>
     <use x="1082.226562" xlink:href="#Roboto-Thin-6c"/>
     <use x="1102.832031" xlink:href="#Roboto-Thin-20"/>
     <use x="1126.757812" xlink:href="#Roboto-Thin-28"/>
     <use x="1156.396484" xlink:href="#Roboto-Thin-73"/>
     <use x="1206.152344" xlink:href="#Roboto-Thin-29"/>
     <use x="1236.572266" xlink:href="#Roboto-Thin-20"/>
     <use x="1260.498047" xlink:href="#Roboto-Thin-3d"/>
     <use x="1316.259766" xlink:href="#Roboto-Thin-20"/>
     <use x="1340.185547" xlink:href="#Roboto-Thin-35"/>
     <use x="1394.921875" xlink:href="#Roboto-Thin-2c"/>
     <use x="1413.623047" xlink:href="#Roboto-Thin-32"/>
     <use x="1468.359375" xlink:href="#Roboto-Thin-35"/>
    </g>
   </g>
   <g id="PathCollection_4">
    <path clip-path="url(#pe944725a78)" d="M 119.28014 331.467765 
L 124.28014 321.467765 
L 114.28014 321.467765 
z
" style="fill:#8172b2;stroke:#8172b2;stroke-width:1.08;"/>
    <path clip-path="url(#pe944725a78)" d="M 227.140419 219.2269 
L 232.140419 209.2269 
L 222.140419 209.2269 
z
" style="fill:#8172b2;stroke:#8172b2;stroke-width:1.08;"/>
    <path clip-path="url(#pe944725a78)" d="M 335.000699 132.698883 
L 340.000699 122.698883 
L 330.000699 122.698883 
z
" style="fill:#8172b2;stroke:#8172b2;stroke-width:1.08;"/>
    <path clip-path="url(#pe944725a78)" d="M 442.860978 98.466512 
L 447.860978 88.466512 
L 437.860978 88.466512 
z
" style="fill:#8172b2;stroke:#8172b2;stroke-width:1.08;"/>
   </g>
   <g id="line2d_30">
    <path clip-path="url(#pe944725a78)" d="M 119.28014 326.467765 
L 227.140419 214.2269 
L 335.000699 127.698883 
L 442.860978 93.466512 
" style="fill:none;stroke:#8172b2;stroke-linecap:round;stroke-width:1.44;"/>
   </g>
   <g id="line2d_31">
    <path clip-path="url(#pe944725a78)" d="M 119.28014 329.839576 
L 119.28014 323.127488 
" style="fill:none;stroke:#8172b2;stroke-linecap:round;stroke-width:1.44;"/>
   </g>
   <g id="line2d_32">
    <path clip-path="url(#pe944725a78)" d="M 227.140419 216.454133 
L 227.140419 211.892674 
" style="fill:none;stroke:#8172b2;stroke-linecap:round;stroke-width:1.44;"/>
   </g>
   <g id="line2d_33">
    <path clip-path="url(#pe944725a78)" d="M 335.000699 128.977847 
L 335.000699 126.392778 
" style="fill:none;stroke:#8172b2;stroke-linecap:round;stroke-width:1.44;"/>
   </g>
   <g id="line2d_34">
    <path clip-path="url(#pe944725a78)" d="M 442.860978 94.755012 
L 442.860978 92.143551 
" style="fill:none;stroke:#8172b2;stroke-linecap:round;stroke-width:1.44;"/>
   </g>
   <g id="PathCollection_5">
    <path clip-path="url(#pe944725a78)" d="M 114.28014 237.375606 
L 124.28014 242.375606 
L 124.28014 232.375606 
z
" style="fill:#ccb974;stroke:#ccb974;stroke-width:1.08;"/>
    <path clip-path="url(#pe944725a78)" d="M 222.140419 126.710367 
L 232.140419 131.710367 
L 232.140419 121.710367 
z
" style="fill:#ccb974;stroke:#ccb974;stroke-width:1.08;"/>
    <path clip-path="url(#pe944725a78)" d="M 330.000699 77.645969 
L 340.000699 82.645969 
L 340.000699 72.645969 
z
" style="fill:#ccb974;stroke:#ccb974;stroke-width:1.08;"/>
    <path clip-path="url(#pe944725a78)" d="M 437.860978 58.019924 
L 447.860978 63.019924 
L 447.860978 53.019924 
z
" style="fill:#ccb974;stroke:#ccb974;stroke-width:1.08;"/>
   </g>
   <g id="line2d_35">
    <path clip-path="url(#pe944725a78)" d="M 119.28014 237.375606 
L 227.140419 126.710367 
L 335.000699 77.645969 
L 442.860978 58.019924 
" style="fill:none;stroke:#ccb974;stroke-linecap:round;stroke-width:1.44;"/>
   </g>
   <g id="line2d_36">
    <path clip-path="url(#pe944725a78)" d="M 119.28014 240.581676 
L 119.28014 234.361953 
" style="fill:none;stroke:#ccb974;stroke-linecap:round;stroke-width:1.44;"/>
   </g>
   <g id="line2d_37">
    <path clip-path="url(#pe944725a78)" d="M 227.140419 128.330384 
L 227.140419 124.956679 
" style="fill:none;stroke:#ccb974;stroke-linecap:round;stroke-width:1.44;"/>
   </g>
   <g id="line2d_38">
    <path clip-path="url(#pe944725a78)" d="M 335.000699 78.844723 
L 335.000699 76.447429 
" style="fill:none;stroke:#ccb974;stroke-linecap:round;stroke-width:1.44;"/>
   </g>
   <g id="line2d_39">
    <path clip-path="url(#pe944725a78)" d="M 442.860978 58.907231 
L 442.860978 57.141223 
" style="fill:none;stroke:#ccb974;stroke-linecap:round;stroke-width:1.44;"/>
   </g>
  </g>
  <g id="axes_2">
   <g id="patch_5">
    <path d="M 522.676187 391.795 
L 954.117306 391.795 
L 954.117306 30.635 
L 522.676187 30.635 
z
" style="fill:#ffffff;"/>
   </g>
   <g id="matplotlib.axis_3">
    <g id="xtick_5">
     <g id="line2d_40"/>
     <g id="text_13">
      <!-- 100 -->
      <g style="fill:#262626;" transform="translate(560.186015 413.795)scale(0.2 -0.2)">
       <use xlink:href="#Roboto-Thin-31"/>
       <use x="54.736328" xlink:href="#Roboto-Thin-30"/>
       <use x="109.472656" xlink:href="#Roboto-Thin-30"/>
      </g>
     </g>
    </g>
    <g id="xtick_6">
     <g id="line2d_41"/>
     <g id="text_14">
      <!-- 200 -->
      <g style="fill:#262626;" transform="translate(668.046294 413.795)scale(0.2 -0.2)">
       <use xlink:href="#Roboto-Thin-32"/>
       <use x="54.736328" xlink:href="#Roboto-Thin-30"/>
       <use x="109.472656" xlink:href="#Roboto-Thin-30"/>
      </g>
     </g>
    </g>
    <g id="xtick_7">
     <g id="line2d_42"/>
     <g id="text_15">
      <!-- 400 -->
      <g style="fill:#262626;" transform="translate(775.906574 413.795)scale(0.2 -0.2)">
       <use xlink:href="#Roboto-Thin-34"/>
       <use x="54.736328" xlink:href="#Roboto-Thin-30"/>
       <use x="109.472656" xlink:href="#Roboto-Thin-30"/>
      </g>
     </g>
    </g>
    <g id="xtick_8">
     <g id="line2d_43"/>
     <g id="text_16">
      <!-- 600 -->
      <g style="fill:#262626;" transform="translate(883.766853 413.795)scale(0.2 -0.2)">
       <use xlink:href="#Roboto-Thin-36"/>
       <use x="54.736328" xlink:href="#Roboto-Thin-30"/>
       <use x="109.472656" xlink:href="#Roboto-Thin-30"/>
      </g>
     </g>
    </g>
    <g id="text_17">
     <!-- Nodes -->
     <g style="fill:#262626;" transform="translate(707.524559 438.3575)scale(0.22 -0.22)">
      <use xlink:href="#Roboto-Thin-4e"/>
      <use x="70.751953" xlink:href="#Roboto-Thin-6f"/>
      <use x="125.78125" xlink:href="#Roboto-Thin-64"/>
      <use x="180.517578" xlink:href="#Roboto-Thin-65"/>
      <use x="230.908203" xlink:href="#Roboto-Thin-73"/>
     </g>
    </g>
   </g>
   <g id="matplotlib.axis_4">
    <g id="ytick_6">
     <g id="line2d_44">
      <path clip-path="url(#p9633f73b39)" d="M 522.676187 352.133472 
L 954.117306 352.133472 
" style="fill:none;stroke:#cccccc;stroke-linecap:round;"/>
     </g>
     <g id="line2d_45"/>
    </g>
    <g id="ytick_7">
     <g id="line2d_46">
      <path clip-path="url(#p9633f73b39)" d="M 522.676187 280.708896 
L 954.117306 280.708896 
" style="fill:none;stroke:#cccccc;stroke-linecap:round;"/>
     </g>
     <g id="line2d_47"/>
    </g>
    <g id="ytick_8">
     <g id="line2d_48">
      <path clip-path="url(#p9633f73b39)" d="M 522.676187 209.28432 
L 954.117306 209.28432 
" style="fill:none;stroke:#cccccc;stroke-linecap:round;"/>
     </g>
     <g id="line2d_49"/>
    </g>
    <g id="ytick_9">
     <g id="line2d_50">
      <path clip-path="url(#p9633f73b39)" d="M 522.676187 137.859743 
L 954.117306 137.859743 
" style="fill:none;stroke:#cccccc;stroke-linecap:round;"/>
     </g>
     <g id="line2d_51"/>
    </g>
    <g id="ytick_10">
     <g id="line2d_52">
      <path clip-path="url(#p9633f73b39)" d="M 522.676187 66.435167 
L 954.117306 66.435167 
" style="fill:none;stroke:#cccccc;stroke-linecap:round;"/>
     </g>
     <g id="line2d_53"/>
    </g>
   </g>
   <g id="PathCollection_6">
    <defs>
     <path d="M 0 5 
C 1.326016 5 2.597899 4.473168 3.535534 3.535534 
C 4.473168 2.597899 5 1.326016 5 0 
C 5 -1.326016 4.473168 -2.597899 3.535534 -3.535534 
C 2.597899 -4.473168 1.326016 -5 0 -5 
C -1.326016 -5 -2.597899 -4.473168 -3.535534 -3.535534 
C -4.473168 -2.597899 -5 -1.326016 -5 0 
C -5 1.326016 -4.473168 2.597899 -3.535534 3.535534 
C -2.597899 4.473168 -1.326016 5 0 5 
z
" id="C1_0_fb704367ac"/>
    </defs>
    <g clip-path="url(#p9633f73b39)">
     <use style="fill:#4c72b0;stroke:#4c72b0;stroke-width:1.08;" x="576.606327" xlink:href="#C1_0_fb704367ac" y="334.7873"/>
    </g>
    <g clip-path="url(#p9633f73b39)">
     <use style="fill:#4c72b0;stroke:#4c72b0;stroke-width:1.08;" x="684.466607" xlink:href="#C1_0_fb704367ac" y="265.684022"/>
    </g>
    <g clip-path="url(#p9633f73b39)">
     <use style="fill:#4c72b0;stroke:#4c72b0;stroke-width:1.08;" x="792.326886" xlink:href="#C1_0_fb704367ac" y="246.356532"/>
    </g>
    <g clip-path="url(#p9633f73b39)">
     <use style="fill:#4c72b0;stroke:#4c72b0;stroke-width:1.08;" x="900.187166" xlink:href="#C1_0_fb704367ac" y="231.143097"/>
    </g>
   </g>
   <g id="line2d_54">
    <path clip-path="url(#p9633f73b39)" d="M 576.606327 334.7873 
L 684.466607 265.684022 
L 792.326886 246.356532 
L 900.187166 231.143097 
" style="fill:none;stroke:#4c72b0;stroke-linecap:round;stroke-width:1.44;"/>
   </g>
   <g id="line2d_55">
    <path clip-path="url(#p9633f73b39)" d="M 576.606327 337.796524 
L 576.606327 331.333136 
" style="fill:none;stroke:#4c72b0;stroke-linecap:round;stroke-width:1.44;"/>
   </g>
   <g id="line2d_56">
    <path clip-path="url(#p9633f73b39)" d="M 684.466607 268.520078 
L 684.466607 263.086989 
" style="fill:none;stroke:#4c72b0;stroke-linecap:round;stroke-width:1.44;"/>
   </g>
   <g id="line2d_57">
    <path clip-path="url(#p9633f73b39)" d="M 792.326886 248.613048 
L 792.326886 243.888456 
" style="fill:none;stroke:#4c72b0;stroke-linecap:round;stroke-width:1.44;"/>
   </g>
   <g id="line2d_58">
    <path clip-path="url(#p9633f73b39)" d="M 900.187166 233.442433 
L 900.187166 228.692663 
" style="fill:none;stroke:#4c72b0;stroke-linecap:round;stroke-width:1.44;"/>
   </g>
   <g id="PathCollection_7">
    <path clip-path="url(#p9633f73b39)" d="M 571.606327 204.396301 
L 581.606327 204.396301 
L 581.606327 194.396301 
L 571.606327 194.396301 
z
" style="fill:#55a868;stroke:#55a868;stroke-width:1.08;"/>
    <path clip-path="url(#p9633f73b39)" d="M 679.466607 179.903386 
L 689.466607 179.903386 
L 689.466607 169.903386 
L 679.466607 169.903386 
z
" style="fill:#55a868;stroke:#55a868;stroke-width:1.08;"/>
    <path clip-path="url(#p9633f73b39)" d="M 787.326886 175.602198 
L 797.326886 175.602198 
L 797.326886 165.602198 
L 787.326886 165.602198 
z
" style="fill:#55a868;stroke:#55a868;stroke-width:1.08;"/>
    <path clip-path="url(#p9633f73b39)" d="M 895.187166 176.163595 
L 905.187166 176.163595 
L 905.187166 166.163595 
L 895.187166 166.163595 
z
" style="fill:#55a868;stroke:#55a868;stroke-width:1.08;"/>
   </g>
   <g id="line2d_59">
    <path clip-path="url(#p9633f73b39)" d="M 576.606327 199.396301 
L 684.466607 174.903386 
L 792.326886 170.602198 
L 900.187166 171.163595 
" style="fill:none;stroke:#55a868;stroke-linecap:round;stroke-width:1.44;"/>
   </g>
   <g id="line2d_60">
    <path clip-path="url(#p9633f73b39)" d="M 576.606327 202.926104 
L 576.606327 196.131663 
" style="fill:none;stroke:#55a868;stroke-linecap:round;stroke-width:1.44;"/>
   </g>
   <g id="line2d_61">
    <path clip-path="url(#p9633f73b39)" d="M 684.466607 178.189452 
L 684.466607 171.910232 
" style="fill:none;stroke:#55a868;stroke-linecap:round;stroke-width:1.44;"/>
   </g>
   <g id="line2d_62">
    <path clip-path="url(#p9633f73b39)" d="M 792.326886 172.952745 
L 792.326886 168.18944 
" style="fill:none;stroke:#55a868;stroke-linecap:round;stroke-width:1.44;"/>
   </g>
   <g id="line2d_63">
    <path clip-path="url(#p9633f73b39)" d="M 900.187166 173.599566 
L 900.187166 168.881972 
" style="fill:none;stroke:#55a868;stroke-linecap:round;stroke-width:1.44;"/>
   </g>
   <g id="patch_6">
    <path d="M 522.676187 391.795 
L 522.676187 30.635 
" style="fill:none;stroke:#cccccc;stroke-linecap:square;stroke-linejoin:miter;"/>
   </g>
   <g id="patch_7">
    <path d="M 522.676187 391.795 
L 954.117306 391.795 
" style="fill:none;stroke:#cccccc;stroke-linecap:square;stroke-linejoin:miter;"/>
   </g>
   <g id="PathCollection_8">
    <path clip-path="url(#p9633f73b39)" d="M 576.606327 333.787076 
L 571.606327 343.787076 
L 581.606327 343.787076 
z
" style="fill:#c44e52;stroke:#c44e52;stroke-width:1.08;"/>
    <path clip-path="url(#p9633f73b39)" d="M 684.466607 271.617696 
L 679.466607 281.617696 
L 689.466607 281.617696 
z
" style="fill:#c44e52;stroke:#c44e52;stroke-width:1.08;"/>
    <path clip-path="url(#p9633f73b39)" d="M 792.326886 237.052487 
L 787.326886 247.052487 
L 797.326886 247.052487 
z
" style="fill:#c44e52;stroke:#c44e52;stroke-width:1.08;"/>
    <path clip-path="url(#p9633f73b39)" d="M 900.187166 226.351657 
L 895.187166 236.351657 
L 905.187166 236.351657 
z
" style="fill:#c44e52;stroke:#c44e52;stroke-width:1.08;"/>
   </g>
   <g id="line2d_64">
    <path clip-path="url(#p9633f73b39)" d="M 576.606327 338.787076 
L 684.466607 276.617696 
L 792.326886 242.052487 
L 900.187166 231.351657 
" style="fill:none;stroke:#c44e52;stroke-linecap:round;stroke-width:1.44;"/>
   </g>
   <g id="line2d_65">
    <path clip-path="url(#p9633f73b39)" d="M 576.606327 341.871511 
L 576.606327 335.685749 
" style="fill:none;stroke:#c44e52;stroke-linecap:round;stroke-width:1.44;"/>
   </g>
   <g id="line2d_66">
    <path clip-path="url(#p9633f73b39)" d="M 684.466607 278.886248 
L 684.466607 274.366358 
" style="fill:none;stroke:#c44e52;stroke-linecap:round;stroke-width:1.44;"/>
   </g>
   <g id="line2d_67">
    <path clip-path="url(#p9633f73b39)" d="M 792.326886 244.604308 
L 792.326886 239.871787 
" style="fill:none;stroke:#c44e52;stroke-linecap:round;stroke-width:1.44;"/>
   </g>
   <g id="line2d_68">
    <path clip-path="url(#p9633f73b39)" d="M 900.187166 233.608673 
L 900.187166 229.325806 
" style="fill:none;stroke:#c44e52;stroke-linecap:round;stroke-width:1.44;"/>
   </g>
   <g id="text_18">
    <!-- Message creation interval (s) = 25,35 -->
    <defs>
     <path d="M 20.359375 37.59375 
L 26.3125 37.59375 
Q 34.671875 37.75 39.8125 42.046875 
Q 44.96875 46.34375 44.96875 52.984375 
Q 44.96875 60.546875 40.359375 64.984375 
Q 35.75 69.4375 27.546875 69.4375 
Q 19.53125 69.4375 14.359375 64.75 
Q 9.1875 60.0625 9.1875 52.4375 
L 6.546875 52.4375 
Q 6.546875 58.109375 9.28125 62.59375 
Q 12.015625 67.09375 16.84375 69.578125 
Q 21.6875 72.078125 27.546875 72.078125 
Q 36.765625 72.078125 42.1875 66.875 
Q 47.609375 61.671875 47.609375 52.78125 
Q 47.609375 47.125 44.015625 42.671875 
Q 40.4375 38.234375 34.328125 36.375 
Q 41.3125 34.765625 45.234375 30.3125 
Q 49.171875 25.875 49.171875 18.84375 
Q 49.171875 9.765625 43.359375 4.390625 
Q 37.546875 -0.984375 27.984375 -0.984375 
Q 21.53125 -0.984375 16.0625 1.796875 
Q 10.59375 4.59375 7.8125 9.171875 
Q 5.03125 13.765625 5.03125 19.78125 
L 7.671875 19.78125 
Q 7.671875 11.96875 13.421875 6.8125 
Q 19.1875 1.65625 27.984375 1.65625 
Q 36.71875 1.65625 41.625 6.171875 
Q 46.53125 10.6875 46.53125 18.65625 
Q 46.53125 26.515625 41.28125 30.65625 
Q 36.03125 34.8125 25.921875 34.859375 
L 20.359375 34.859375 
z
" id="Roboto-Thin-33"/>
    </defs>
    <g style="fill:#262626;" transform="translate(564.837371 24.635)scale(0.22 -0.22)">
     <use xlink:href="#Roboto-Thin-4d"/>
     <use x="85.742188" xlink:href="#Roboto-Thin-65"/>
     <use x="136.132812" xlink:href="#Roboto-Thin-73"/>
     <use x="185.888672" xlink:href="#Roboto-Thin-73"/>
     <use x="235.644531" xlink:href="#Roboto-Thin-61"/>
     <use x="288.427734" xlink:href="#Roboto-Thin-67"/>
     <use x="343.261719" xlink:href="#Roboto-Thin-65"/>
     <use x="393.652344" xlink:href="#Roboto-Thin-20"/>
     <use x="417.578125" xlink:href="#Roboto-Thin-63"/>
     <use x="468.310547" xlink:href="#Roboto-Thin-72"/>
     <use x="501.757812" xlink:href="#Roboto-Thin-65"/>
     <use x="552.148438" xlink:href="#Roboto-Thin-61"/>
     <use x="604.931641" xlink:href="#Roboto-Thin-74"/>
     <use x="636.572266" xlink:href="#Roboto-Thin-69"/>
     <use x="657.177734" xlink:href="#Roboto-Thin-6f"/>
     <use x="712.207031" xlink:href="#Roboto-Thin-6e"/>
     <use x="766.943359" xlink:href="#Roboto-Thin-20"/>
     <use x="790.869141" xlink:href="#Roboto-Thin-69"/>
     <use x="811.474609" xlink:href="#Roboto-Thin-6e"/>
     <use x="866.210938" xlink:href="#Roboto-Thin-74"/>
     <use x="897.851562" xlink:href="#Roboto-Thin-65"/>
     <use x="948.242188" xlink:href="#Roboto-Thin-72"/>
     <use x="981.689453" xlink:href="#Roboto-Thin-76"/>
     <use x="1029.443359" xlink:href="#Roboto-Thin-61"/>
     <use x="1082.226562" xlink:href="#Roboto-Thin-6c"/>
     <use x="1102.832031" xlink:href="#Roboto-Thin-20"/>
     <use x="1126.757812" xlink:href="#Roboto-Thin-28"/>
     <use x="1156.396484" xlink:href="#Roboto-Thin-73"/>
     <use x="1206.152344" xlink:href="#Roboto-Thin-29"/>
     <use x="1236.572266" xlink:href="#Roboto-Thin-20"/>
     <use x="1260.498047" xlink:href="#Roboto-Thin-3d"/>
     <use x="1316.259766" xlink:href="#Roboto-Thin-20"/>
     <use x="1340.185547" xlink:href="#Roboto-Thin-32"/>
     <use x="1394.921875" xlink:href="#Roboto-Thin-35"/>
     <use x="1449.658203" xlink:href="#Roboto-Thin-2c"/>
     <use x="1468.359375" xlink:href="#Roboto-Thin-33"/>
     <use x="1523.095703" xlink:href="#Roboto-Thin-35"/>
    </g>
   </g>
   <g id="PathCollection_9">
    <path clip-path="url(#p9633f73b39)" d="M 576.606327 271.168281 
L 581.606327 261.168281 
L 571.606327 261.168281 
z
" style="fill:#8172b2;stroke:#8172b2;stroke-width:1.08;"/>
    <path clip-path="url(#p9633f73b39)" d="M 684.466607 158.203171 
L 689.466607 148.203171 
L 679.466607 148.203171 
z
" style="fill:#8172b2;stroke:#8172b2;stroke-width:1.08;"/>
    <path clip-path="url(#p9633f73b39)" d="M 792.326886 94.989564 
L 797.326886 84.989564 
L 787.326886 84.989564 
z
" style="fill:#8172b2;stroke:#8172b2;stroke-width:1.08;"/>
    <path clip-path="url(#p9633f73b39)" d="M 900.187166 74.690699 
L 905.187166 64.690699 
L 895.187166 64.690699 
z
" style="fill:#8172b2;stroke:#8172b2;stroke-width:1.08;"/>
   </g>
   <g id="line2d_69">
    <path clip-path="url(#p9633f73b39)" d="M 576.606327 266.168281 
L 684.466607 153.203171 
L 792.326886 89.989564 
L 900.187166 69.690699 
" style="fill:none;stroke:#8172b2;stroke-linecap:round;stroke-width:1.44;"/>
   </g>
   <g id="line2d_70">
    <path clip-path="url(#p9633f73b39)" d="M 576.606327 269.621302 
L 576.606327 262.833574 
" style="fill:none;stroke:#8172b2;stroke-linecap:round;stroke-width:1.44;"/>
   </g>
   <g id="line2d_71">
    <path clip-path="url(#p9633f73b39)" d="M 684.466607 155.783562 
L 684.466607 150.578675 
" style="fill:none;stroke:#8172b2;stroke-linecap:round;stroke-width:1.44;"/>
   </g>
   <g id="line2d_72">
    <path clip-path="url(#p9633f73b39)" d="M 792.326886 91.7695 
L 792.326886 88.345299 
" style="fill:none;stroke:#8172b2;stroke-linecap:round;stroke-width:1.44;"/>
   </g>
   <g id="line2d_73">
    <path clip-path="url(#p9633f73b39)" d="M 900.187166 70.967771 
L 900.187166 68.491731 
" style="fill:none;stroke:#8172b2;stroke-linecap:round;stroke-width:1.44;"/>
   </g>
   <g id="PathCollection_10">
    <path clip-path="url(#p9633f73b39)" d="M 571.606327 191.192475 
L 581.606327 196.192475 
L 581.606327 186.192475 
z
" style="fill:#ccb974;stroke:#ccb974;stroke-width:1.08;"/>
    <path clip-path="url(#p9633f73b39)" d="M 679.466607 104.697313 
L 689.466607 109.697313 
L 689.466607 99.697313 
z
" style="fill:#ccb974;stroke:#ccb974;stroke-width:1.08;"/>
    <path clip-path="url(#p9633f73b39)" d="M 787.326886 65.559502 
L 797.326886 70.559502 
L 797.326886 60.559502 
z
" style="fill:#ccb974;stroke:#ccb974;stroke-width:1.08;"/>
    <path clip-path="url(#p9633f73b39)" d="M 895.187166 53.444465 
L 905.187166 58.444465 
L 905.187166 48.444465 
z
" style="fill:#ccb974;stroke:#ccb974;stroke-width:1.08;"/>
   </g>
   <g id="line2d_74">
    <path clip-path="url(#p9633f73b39)" d="M 576.606327 191.192475 
L 684.466607 104.697313 
L 792.326886 65.559502 
L 900.187166 53.444465 
" style="fill:none;stroke:#ccb974;stroke-linecap:round;stroke-width:1.44;"/>
   </g>
   <g id="line2d_75">
    <path clip-path="url(#p9633f73b39)" d="M 576.606327 194.370404 
L 576.606327 188.014045 
" style="fill:none;stroke:#ccb974;stroke-linecap:round;stroke-width:1.44;"/>
   </g>
   <g id="line2d_76">
    <path clip-path="url(#p9633f73b39)" d="M 684.466607 106.398253 
L 684.466607 102.974552 
" style="fill:none;stroke:#ccb974;stroke-linecap:round;stroke-width:1.44;"/>
   </g>
   <g id="line2d_77">
    <path clip-path="url(#p9633f73b39)" d="M 792.326886 66.969923 
L 792.326886 64.085441 
" style="fill:none;stroke:#ccb974;stroke-linecap:round;stroke-width:1.44;"/>
   </g>
   <g id="line2d_78">
    <path clip-path="url(#p9633f73b39)" d="M 900.187166 54.58158 
L 900.187166 52.251175 
" style="fill:none;stroke:#ccb974;stroke-linecap:round;stroke-width:1.44;"/>
   </g>
  </g>
  <g id="axes_3">
   <g id="patch_8">
    <path d="M 980.002375 391.795 
L 1411.443493 391.795 
L 1411.443493 30.635 
L 980.002375 30.635 
z
" style="fill:#ffffff;"/>
   </g>
   <g id="matplotlib.axis_5">
    <g id="xtick_9">
     <g id="line2d_79"/>
     <g id="text_19">
      <!-- 100 -->
      <g style="fill:#262626;" transform="translate(1017.512202 413.795)scale(0.2 -0.2)">
       <use xlink:href="#Roboto-Thin-31"/>
       <use x="54.736328" xlink:href="#Roboto-Thin-30"/>
       <use x="109.472656" xlink:href="#Roboto-Thin-30"/>
      </g>
     </g>
    </g>
    <g id="xtick_10">
     <g id="line2d_80"/>
     <g id="text_20">
      <!-- 200 -->
      <g style="fill:#262626;" transform="translate(1125.372481 413.795)scale(0.2 -0.2)">
       <use xlink:href="#Roboto-Thin-32"/>
       <use x="54.736328" xlink:href="#Roboto-Thin-30"/>
       <use x="109.472656" xlink:href="#Roboto-Thin-30"/>
      </g>
     </g>
    </g>
    <g id="xtick_11">
     <g id="line2d_81"/>
     <g id="text_21">
      <!-- 400 -->
      <g style="fill:#262626;" transform="translate(1233.232761 413.795)scale(0.2 -0.2)">
       <use xlink:href="#Roboto-Thin-34"/>
       <use x="54.736328" xlink:href="#Roboto-Thin-30"/>
       <use x="109.472656" xlink:href="#Roboto-Thin-30"/>
      </g>
     </g>
    </g>
    <g id="xtick_12">
     <g id="line2d_82"/>
     <g id="text_22">
      <!-- 600 -->
      <g style="fill:#262626;" transform="translate(1341.093041 413.795)scale(0.2 -0.2)">
       <use xlink:href="#Roboto-Thin-36"/>
       <use x="54.736328" xlink:href="#Roboto-Thin-30"/>
       <use x="109.472656" xlink:href="#Roboto-Thin-30"/>
      </g>
     </g>
    </g>
    <g id="text_23">
     <!-- Nodes -->
     <g style="fill:#262626;" transform="translate(1164.850746 438.3575)scale(0.22 -0.22)">
      <use xlink:href="#Roboto-Thin-4e"/>
      <use x="70.751953" xlink:href="#Roboto-Thin-6f"/>
      <use x="125.78125" xlink:href="#Roboto-Thin-64"/>
      <use x="180.517578" xlink:href="#Roboto-Thin-65"/>
      <use x="230.908203" xlink:href="#Roboto-Thin-73"/>
     </g>
    </g>
   </g>
   <g id="matplotlib.axis_6">
    <g id="ytick_11">
     <g id="line2d_83">
      <path clip-path="url(#p74b18c3706)" d="M 980.002375 352.133472 
L 1411.443493 352.133472 
" style="fill:none;stroke:#cccccc;stroke-linecap:round;"/>
     </g>
     <g id="line2d_84"/>
    </g>
    <g id="ytick_12">
     <g id="line2d_85">
      <path clip-path="url(#p74b18c3706)" d="M 980.002375 280.708896 
L 1411.443493 280.708896 
" style="fill:none;stroke:#cccccc;stroke-linecap:round;"/>
     </g>
     <g id="line2d_86"/>
    </g>
    <g id="ytick_13">
     <g id="line2d_87">
      <path clip-path="url(#p74b18c3706)" d="M 980.002375 209.28432 
L 1411.443493 209.28432 
" style="fill:none;stroke:#cccccc;stroke-linecap:round;"/>
     </g>
     <g id="line2d_88"/>
    </g>
    <g id="ytick_14">
     <g id="line2d_89">
      <path clip-path="url(#p74b18c3706)" d="M 980.002375 137.859743 
L 1411.443493 137.859743 
" style="fill:none;stroke:#cccccc;stroke-linecap:round;"/>
     </g>
     <g id="line2d_90"/>
    </g>
    <g id="ytick_15">
     <g id="line2d_91">
      <path clip-path="url(#p74b18c3706)" d="M 980.002375 66.435167 
L 1411.443493 66.435167 
" style="fill:none;stroke:#cccccc;stroke-linecap:round;"/>
     </g>
     <g id="line2d_92"/>
    </g>
   </g>
   <g id="PathCollection_11">
    <defs>
     <path d="M 0 5 
C 1.326016 5 2.597899 4.473168 3.535534 3.535534 
C 4.473168 2.597899 5 1.326016 5 0 
C 5 -1.326016 4.473168 -2.597899 3.535534 -3.535534 
C 2.597899 -4.473168 1.326016 -5 0 -5 
C -1.326016 -5 -2.597899 -4.473168 -3.535534 -3.535534 
C -4.473168 -2.597899 -5 -1.326016 -5 0 
C -5 1.326016 -4.473168 2.597899 -3.535534 3.535534 
C -2.597899 4.473168 -1.326016 5 0 5 
z
" id="C2_0_0d4d34ff21"/>
    </defs>
    <g clip-path="url(#p74b18c3706)">
     <use style="fill:#4c72b0;stroke:#4c72b0;stroke-width:1.08;" x="1033.932514" xlink:href="#C2_0_0d4d34ff21" y="246.583662"/>
    </g>
    <g clip-path="url(#p74b18c3706)">
     <use style="fill:#4c72b0;stroke:#4c72b0;stroke-width:1.08;" x="1141.792794" xlink:href="#C2_0_0d4d34ff21" y="138.391142"/>
    </g>
    <g clip-path="url(#p74b18c3706)">
     <use style="fill:#4c72b0;stroke:#4c72b0;stroke-width:1.08;" x="1249.653073" xlink:href="#C2_0_0d4d34ff21" y="63.283915"/>
    </g>
    <g clip-path="url(#p74b18c3706)">
     <use style="fill:#4c72b0;stroke:#4c72b0;stroke-width:1.08;" x="1357.513353" xlink:href="#C2_0_0d4d34ff21" y="60.282654"/>
    </g>
   </g>
   <g id="line2d_93">
    <path clip-path="url(#p74b18c3706)" d="M 1033.932514 246.583662 
L 1141.792794 138.391142 
L 1249.653073 63.283915 
L 1357.513353 60.282654 
" style="fill:none;stroke:#4c72b0;stroke-linecap:round;stroke-width:1.44;"/>
   </g>
   <g id="line2d_94">
    <path clip-path="url(#p74b18c3706)" d="M 1033.932514 251.127729 
L 1033.932514 242.215335 
" style="fill:none;stroke:#4c72b0;stroke-linecap:round;stroke-width:1.44;"/>
   </g>
   <g id="line2d_95">
    <path clip-path="url(#p74b18c3706)" d="M 1141.792794 140.89111 
L 1141.792794 135.827071 
" style="fill:none;stroke:#4c72b0;stroke-linecap:round;stroke-width:1.44;"/>
   </g>
   <g id="line2d_96">
    <path clip-path="url(#p74b18c3706)" d="M 1249.653073 65.238127 
L 1249.653073 61.269635 
" style="fill:none;stroke:#4c72b0;stroke-linecap:round;stroke-width:1.44;"/>
   </g>
   <g id="line2d_97">
    <path clip-path="url(#p74b18c3706)" d="M 1357.513353 61.899564 
L 1357.513353 58.608462 
" style="fill:none;stroke:#4c72b0;stroke-linecap:round;stroke-width:1.44;"/>
   </g>
   <g id="PathCollection_12">
    <path clip-path="url(#p74b18c3706)" d="M 1028.932514 198.822327 
L 1038.932514 198.822327 
L 1038.932514 188.822327 
L 1028.932514 188.822327 
z
" style="fill:#55a868;stroke:#55a868;stroke-width:1.08;"/>
    <path clip-path="url(#p74b18c3706)" d="M 1136.792794 187.138695 
L 1146.792794 187.138695 
L 1146.792794 177.138695 
L 1136.792794 177.138695 
z
" style="fill:#55a868;stroke:#55a868;stroke-width:1.08;"/>
    <path clip-path="url(#p74b18c3706)" d="M 1244.653073 177.897784 
L 1254.653073 177.897784 
L 1254.653073 167.897784 
L 1244.653073 167.897784 
z
" style="fill:#55a868;stroke:#55a868;stroke-width:1.08;"/>
    <path clip-path="url(#p74b18c3706)" d="M 1352.513353 179.976239 
L 1362.513353 179.976239 
L 1362.513353 169.976239 
L 1352.513353 169.976239 
z
" style="fill:#55a868;stroke:#55a868;stroke-width:1.08;"/>
   </g>
   <g id="line2d_98">
    <path clip-path="url(#p74b18c3706)" d="M 1033.932514 193.822327 
L 1141.792794 182.138695 
L 1249.653073 172.897784 
L 1357.513353 174.976239 
" style="fill:none;stroke:#55a868;stroke-linecap:round;stroke-width:1.44;"/>
   </g>
   <g id="line2d_99">
    <path clip-path="url(#p74b18c3706)" d="M 1033.932514 198.727767 
L 1033.932514 188.509696 
" style="fill:none;stroke:#55a868;stroke-linecap:round;stroke-width:1.44;"/>
   </g>
   <g id="line2d_100">
    <path clip-path="url(#p74b18c3706)" d="M 1141.792794 186.075546 
L 1141.792794 178.090315 
" style="fill:none;stroke:#55a868;stroke-linecap:round;stroke-width:1.44;"/>
   </g>
   <g id="line2d_101">
    <path clip-path="url(#p74b18c3706)" d="M 1249.653073 177.05048 
L 1249.653073 168.57224 
" style="fill:none;stroke:#55a868;stroke-linecap:round;stroke-width:1.44;"/>
   </g>
   <g id="line2d_102">
    <path clip-path="url(#p74b18c3706)" d="M 1357.513353 178.323337 
L 1357.513353 171.509218 
" style="fill:none;stroke:#55a868;stroke-linecap:round;stroke-width:1.44;"/>
   </g>
   <g id="patch_9">
    <path d="M 980.002375 391.795 
L 980.002375 30.635 
" style="fill:none;stroke:#cccccc;stroke-linecap:square;stroke-linejoin:miter;"/>
   </g>
   <g id="patch_10">
    <path d="M 980.002375 391.795 
L 1411.443493 391.795 
" style="fill:none;stroke:#cccccc;stroke-linecap:square;stroke-linejoin:miter;"/>
   </g>
   <g id="PathCollection_13">
    <path clip-path="url(#p74b18c3706)" d="M 1033.932514 256.997086 
L 1028.932514 266.997086 
L 1038.932514 266.997086 
z
" style="fill:#c44e52;stroke:#c44e52;stroke-width:1.08;"/>
    <path clip-path="url(#p74b18c3706)" d="M 1141.792794 173.871735 
L 1136.792794 183.871735 
L 1146.792794 183.871735 
z
" style="fill:#c44e52;stroke:#c44e52;stroke-width:1.08;"/>
    <path clip-path="url(#p74b18c3706)" d="M 1249.653073 93.439091 
L 1244.653073 103.439091 
L 1254.653073 103.439091 
z
" style="fill:#c44e52;stroke:#c44e52;stroke-width:1.08;"/>
    <path clip-path="url(#p74b18c3706)" d="M 1357.513353 67.717673 
L 1352.513353 77.717673 
L 1362.513353 77.717673 
z
" style="fill:#c44e52;stroke:#c44e52;stroke-width:1.08;"/>
   </g>
   <g id="line2d_103">
    <path clip-path="url(#p74b18c3706)" d="M 1033.932514 261.997086 
L 1141.792794 178.871735 
L 1249.653073 98.439091 
L 1357.513353 72.717673 
" style="fill:none;stroke:#c44e52;stroke-linecap:round;stroke-width:1.44;"/>
   </g>
   <g id="line2d_104">
    <path clip-path="url(#p74b18c3706)" d="M 1033.932514 266.311058 
L 1033.932514 257.981417 
" style="fill:none;stroke:#c44e52;stroke-linecap:round;stroke-width:1.44;"/>
   </g>
   <g id="line2d_105">
    <path clip-path="url(#p74b18c3706)" d="M 1141.792794 182.863012 
L 1141.792794 175.121838 
" style="fill:none;stroke:#c44e52;stroke-linecap:round;stroke-width:1.44;"/>
   </g>
   <g id="line2d_106">
    <path clip-path="url(#p74b18c3706)" d="M 1249.653073 100.756105 
L 1249.653073 96.122114 
" style="fill:none;stroke:#c44e52;stroke-linecap:round;stroke-width:1.44;"/>
   </g>
   <g id="line2d_107">
    <path clip-path="url(#p74b18c3706)" d="M 1357.513353 74.691848 
L 1357.513353 70.507761 
" style="fill:none;stroke:#c44e52;stroke-linecap:round;stroke-width:1.44;"/>
   </g>
   <g id="text_24">
    <!-- Message creation interval (s) = 60, 120 -->
    <g style="fill:#262626;" transform="translate(1013.511371 24.635)scale(0.22 -0.22)">
     <use xlink:href="#Roboto-Thin-4d"/>
     <use x="85.742188" xlink:href="#Roboto-Thin-65"/>
     <use x="136.132812" xlink:href="#Roboto-Thin-73"/>
     <use x="185.888672" xlink:href="#Roboto-Thin-73"/>
     <use x="235.644531" xlink:href="#Roboto-Thin-61"/>
     <use x="288.427734" xlink:href="#Roboto-Thin-67"/>
     <use x="343.261719" xlink:href="#Roboto-Thin-65"/>
     <use x="393.652344" xlink:href="#Roboto-Thin-20"/>
     <use x="417.578125" xlink:href="#Roboto-Thin-63"/>
     <use x="468.310547" xlink:href="#Roboto-Thin-72"/>
     <use x="501.757812" xlink:href="#Roboto-Thin-65"/>
     <use x="552.148438" xlink:href="#Roboto-Thin-61"/>
     <use x="604.931641" xlink:href="#Roboto-Thin-74"/>
     <use x="636.572266" xlink:href="#Roboto-Thin-69"/>
     <use x="657.177734" xlink:href="#Roboto-Thin-6f"/>
     <use x="712.207031" xlink:href="#Roboto-Thin-6e"/>
     <use x="766.943359" xlink:href="#Roboto-Thin-20"/>
     <use x="790.869141" xlink:href="#Roboto-Thin-69"/>
     <use x="811.474609" xlink:href="#Roboto-Thin-6e"/>
     <use x="866.210938" xlink:href="#Roboto-Thin-74"/>
     <use x="897.851562" xlink:href="#Roboto-Thin-65"/>
     <use x="948.242188" xlink:href="#Roboto-Thin-72"/>
     <use x="981.689453" xlink:href="#Roboto-Thin-76"/>
     <use x="1029.443359" xlink:href="#Roboto-Thin-61"/>
     <use x="1082.226562" xlink:href="#Roboto-Thin-6c"/>
     <use x="1102.832031" xlink:href="#Roboto-Thin-20"/>
     <use x="1126.757812" xlink:href="#Roboto-Thin-28"/>
     <use x="1156.396484" xlink:href="#Roboto-Thin-73"/>
     <use x="1206.152344" xlink:href="#Roboto-Thin-29"/>
     <use x="1236.572266" xlink:href="#Roboto-Thin-20"/>
     <use x="1260.498047" xlink:href="#Roboto-Thin-3d"/>
     <use x="1316.259766" xlink:href="#Roboto-Thin-20"/>
     <use x="1340.185547" xlink:href="#Roboto-Thin-36"/>
     <use x="1394.921875" xlink:href="#Roboto-Thin-30"/>
     <use x="1449.658203" xlink:href="#Roboto-Thin-2c"/>
     <use x="1468.359375" xlink:href="#Roboto-Thin-20"/>
     <use x="1492.285156" xlink:href="#Roboto-Thin-31"/>
     <use x="1547.021484" xlink:href="#Roboto-Thin-32"/>
     <use x="1601.757812" xlink:href="#Roboto-Thin-30"/>
    </g>
   </g>
   <g id="PathCollection_14">
    <path clip-path="url(#p74b18c3706)" d="M 1033.932514 170.839607 
L 1038.932514 160.839607 
L 1028.932514 160.839607 
z
" style="fill:#8172b2;stroke:#8172b2;stroke-width:1.08;"/>
    <path clip-path="url(#p74b18c3706)" d="M 1141.792794 97.212297 
L 1146.792794 87.212297 
L 1136.792794 87.212297 
z
" style="fill:#8172b2;stroke:#8172b2;stroke-width:1.08;"/>
    <path clip-path="url(#p74b18c3706)" d="M 1249.653073 64.079864 
L 1254.653073 54.079864 
L 1244.653073 54.079864 
z
" style="fill:#8172b2;stroke:#8172b2;stroke-width:1.08;"/>
    <path clip-path="url(#p74b18c3706)" d="M 1357.513353 56.493146 
L 1362.513353 46.493146 
L 1352.513353 46.493146 
z
" style="fill:#8172b2;stroke:#8172b2;stroke-width:1.08;"/>
   </g>
   <g id="line2d_108">
    <path clip-path="url(#p74b18c3706)" d="M 1033.932514 165.839607 
L 1141.792794 92.212297 
L 1249.653073 59.079864 
L 1357.513353 51.493146 
" style="fill:none;stroke:#8172b2;stroke-linecap:round;stroke-width:1.44;"/>
   </g>
   <g id="line2d_109">
    <path clip-path="url(#p74b18c3706)" d="M 1033.932514 169.910879 
L 1033.932514 161.8839 
" style="fill:none;stroke:#8172b2;stroke-linecap:round;stroke-width:1.44;"/>
   </g>
   <g id="line2d_110">
    <path clip-path="url(#p74b18c3706)" d="M 1141.792794 94.894932 
L 1141.792794 89.413882 
" style="fill:none;stroke:#8172b2;stroke-linecap:round;stroke-width:1.44;"/>
   </g>
   <g id="line2d_111">
    <path clip-path="url(#p74b18c3706)" d="M 1249.653073 61.091216 
L 1249.653073 57.005695 
" style="fill:none;stroke:#8172b2;stroke-linecap:round;stroke-width:1.44;"/>
   </g>
   <g id="line2d_112">
    <path clip-path="url(#p74b18c3706)" d="M 1357.513353 52.930208 
L 1357.513353 50.056048 
" style="fill:none;stroke:#8172b2;stroke-linecap:round;stroke-width:1.44;"/>
   </g>
   <g id="PathCollection_15">
    <path clip-path="url(#p74b18c3706)" d="M 1028.932514 135.497018 
L 1038.932514 140.497018 
L 1038.932514 130.497018 
z
" style="fill:#ccb974;stroke:#ccb974;stroke-width:1.08;"/>
    <path clip-path="url(#p74b18c3706)" d="M 1136.792794 80.662943 
L 1146.792794 85.662943 
L 1146.792794 75.662943 
z
" style="fill:#ccb974;stroke:#ccb974;stroke-width:1.08;"/>
    <path clip-path="url(#p74b18c3706)" d="M 1244.653073 53.208764 
L 1254.653073 58.208764 
L 1254.653073 48.208764 
z
" style="fill:#ccb974;stroke:#ccb974;stroke-width:1.08;"/>
    <path clip-path="url(#p74b18c3706)" d="M 1352.513353 48.677589 
L 1362.513353 53.677589 
L 1362.513353 43.677589 
z
" style="fill:#ccb974;stroke:#ccb974;stroke-width:1.08;"/>
   </g>
   <g id="line2d_113">
    <path clip-path="url(#p74b18c3706)" d="M 1033.932514 135.497018 
L 1141.792794 80.662943 
L 1249.653073 53.208764 
L 1357.513353 48.677589 
" style="fill:none;stroke:#ccb974;stroke-linecap:round;stroke-width:1.44;"/>
   </g>
   <g id="line2d_114">
    <path clip-path="url(#p74b18c3706)" d="M 1033.932514 139.269772 
L 1033.932514 131.487171 
" style="fill:none;stroke:#ccb974;stroke-linecap:round;stroke-width:1.44;"/>
   </g>
   <g id="line2d_115">
    <path clip-path="url(#p74b18c3706)" d="M 1141.792794 82.987134 
L 1141.792794 78.401605 
" style="fill:none;stroke:#ccb974;stroke-linecap:round;stroke-width:1.44;"/>
   </g>
   <g id="line2d_116">
    <path clip-path="url(#p74b18c3706)" d="M 1249.653073 55.04734 
L 1249.653073 51.48886 
" style="fill:none;stroke:#ccb974;stroke-linecap:round;stroke-width:1.44;"/>
   </g>
   <g id="line2d_117">
    <path clip-path="url(#p74b18c3706)" d="M 1357.513353 50.236109 
L 1357.513353 47.176352 
" style="fill:none;stroke:#ccb974;stroke-linecap:round;stroke-width:1.44;"/>
   </g>
  </g>
  <g id="legend_1">
   <g id="text_25">
    <!-- Algorithm -->
    <defs>
     <path d="M 47.21875 21.234375 
L 12.40625 21.234375 
L 4.5 0 
L 1.609375 0 
L 28.21875 71.09375 
L 31.453125 71.09375 
L 58.0625 0 
L 55.171875 0 
z
M 13.375 23.875 
L 46.234375 23.875 
L 29.828125 67.921875 
z
" id="Roboto-Thin-41"/>
     <path d="M 11.03125 40.53125 
Q 13.625 46.6875 18.65625 50.25 
Q 23.6875 53.8125 29.78125 53.8125 
Q 38.28125 53.8125 42.40625 49 
Q 46.53125 44.1875 46.578125 34.46875 
L 46.578125 0 
L 43.953125 0 
L 43.953125 34.578125 
Q 43.890625 43.0625 40.46875 47.140625 
Q 37.0625 51.21875 29.640625 51.21875 
Q 22.796875 51.21875 17.796875 46.359375 
Q 12.796875 41.5 11.03125 33.84375 
L 11.03125 0 
L 8.40625 0 
L 8.40625 75 
L 11.03125 75 
z
" id="Roboto-Thin-68"/>
     <path d="M 46.1875 0 
L 43.5625 0 
L 43.5625 35.5 
Q 43.5 43.453125 40.0625 47.328125 
Q 36.625 51.21875 29.109375 51.21875 
Q 20.40625 51.21875 14.890625 43.5625 
Q 11.625 38.96875 10.546875 33.40625 
L 10.546875 0 
L 7.859375 0 
L 7.859375 52.828125 
L 10.546875 52.828125 
L 10.546875 40.328125 
Q 13.234375 46.78125 18.203125 50.296875 
Q 23.1875 53.8125 29.25 53.8125 
Q 35.890625 53.8125 40.109375 50.875 
Q 44.34375 47.953125 45.65625 41.3125 
Q 48 47.015625 53.265625 50.40625 
Q 58.546875 53.8125 65.09375 53.8125 
Q 73.640625 53.8125 77.8125 48.96875 
Q 81.984375 44.140625 82.03125 34.46875 
L 82.03125 0 
L 79.390625 0 
L 79.390625 34.28125 
Q 79.390625 42.96875 75.890625 47.140625 
Q 72.40625 51.3125 64.9375 51.21875 
Q 55.328125 51.078125 49.703125 43.5625 
Q 46.484375 39.203125 46.1875 35.15625 
z
" id="Roboto-Thin-6d"/>
    </defs>
    <g style="fill:#262626;" transform="translate(1472.855633 157.274992)scale(0.187 -0.187)">
     <use xlink:href="#Roboto-Thin-41"/>
     <use x="59.716797" xlink:href="#Roboto-Thin-6c"/>
     <use x="80.322266" xlink:href="#Roboto-Thin-67"/>
     <use x="135.15625" xlink:href="#Roboto-Thin-6f"/>
     <use x="190.185547" xlink:href="#Roboto-Thin-72"/>
     <use x="223.632812" xlink:href="#Roboto-Thin-69"/>
     <use x="244.238281" xlink:href="#Roboto-Thin-74"/>
     <use x="275.878906" xlink:href="#Roboto-Thin-68"/>
     <use x="330.615234" xlink:href="#Roboto-Thin-6d"/>
    </g>
   </g>
   <g id="PathCollection_16">
    <path d="M 1442.887868 186.421825 
C 1444.323761 186.421825 1445.701038 185.851338 1446.716368 184.836008 
C 1447.731698 183.820678 1448.302185 182.443401 1448.302185 181.007508 
C 1448.302185 179.571614 1447.731698 178.194338 1446.716368 177.179007 
C 1445.701038 176.163677 1444.323761 175.593191 1442.887868 175.593191 
C 1441.451974 175.593191 1440.074698 176.163677 1439.059367 177.179007 
C 1438.044037 178.194338 1437.473551 179.571614 1437.473551 181.007508 
C 1437.473551 182.443401 1438.044037 183.820678 1439.059367 184.836008 
C 1440.074698 185.851338 1441.451974 186.421825 1442.887868 186.421825 
z
" style="fill:#4c72b0;stroke:#4c72b0;stroke-width:1.08;"/>
   </g>
   <g id="text_26">
    <!-- Epidemic -->
    <defs>
     <path d="M 48.046875 35.25 
L 12.40625 35.25 
L 12.40625 2.640625 
L 53.03125 2.640625 
L 53.03125 0 
L 9.765625 0 
L 9.765625 71.09375 
L 53.03125 71.09375 
L 53.03125 68.453125 
L 12.40625 68.453125 
L 12.40625 37.890625 
L 48.046875 37.890625 
z
" id="Roboto-Thin-45"/>
     <path d="M 48.78125 25.921875 
Q 48.78125 13.578125 43.453125 6.296875 
Q 38.140625 -0.984375 28.953125 -0.984375 
Q 22.953125 -0.984375 18.265625 1.453125 
Q 13.578125 3.90625 10.9375 8.203125 
L 10.9375 -20.3125 
L 8.296875 -20.3125 
L 8.296875 52.828125 
L 10.9375 52.828125 
L 10.9375 43.40625 
Q 13.671875 48.4375 18.3125 51.125 
Q 22.953125 53.8125 28.859375 53.8125 
Q 38.140625 53.8125 43.453125 46.703125 
Q 48.78125 39.59375 48.78125 26.765625 
z
M 46.09375 26.953125 
Q 46.09375 38.328125 41.578125 44.75 
Q 37.0625 51.171875 28.90625 51.171875 
Q 22.265625 51.171875 17.625 47.71875 
Q 12.984375 44.28125 10.9375 37.84375 
L 10.9375 13.140625 
Q 12.984375 7.671875 17.640625 4.65625 
Q 22.3125 1.65625 29 1.65625 
Q 37.109375 1.65625 41.59375 8.09375 
Q 46.09375 14.546875 46.09375 26.953125 
z
" id="Roboto-Thin-70"/>
    </defs>
    <g style="fill:#262626;" transform="translate(1478.887868 186.257508)scale(0.2 -0.2)">
     <use xlink:href="#Roboto-Thin-45"/>
     <use x="56.933594" xlink:href="#Roboto-Thin-70"/>
     <use x="111.669922" xlink:href="#Roboto-Thin-69"/>
     <use x="132.275391" xlink:href="#Roboto-Thin-64"/>
     <use x="187.011719" xlink:href="#Roboto-Thin-65"/>
     <use x="237.402344" xlink:href="#Roboto-Thin-6d"/>
     <use x="327.050781" xlink:href="#Roboto-Thin-69"/>
     <use x="347.65625" xlink:href="#Roboto-Thin-63"/>
    </g>
   </g>
   <g id="PathCollection_17">
    <path d="M 1437.473551 215.484325 
L 1448.302185 215.484325 
L 1448.302185 204.655691 
L 1437.473551 204.655691 
z
" style="fill:#55a868;stroke:#55a868;stroke-width:1.08;"/>
   </g>
   <g id="text_27">
    <!-- SprayAndWait -->
    <defs>
     <path d="M 52.34375 17.046875 
Q 52.34375 21.578125 50.21875 24.71875 
Q 48.09375 27.875 43.53125 30.296875 
Q 38.96875 32.71875 29.734375 35.25 
Q 20.515625 37.796875 15.890625 40.375 
Q 11.28125 42.96875 9.125 46.390625 
Q 6.984375 49.8125 6.984375 54.6875 
Q 6.984375 62.453125 13.515625 67.265625 
Q 20.0625 72.078125 30.5625 72.078125 
Q 37.40625 72.078125 42.84375 69.40625 
Q 48.296875 66.75 51.265625 61.9375 
Q 54.25 57.125 54.25 51.078125 
L 51.609375 51.078125 
Q 51.609375 59.03125 45.75 64.234375 
Q 39.890625 69.4375 30.5625 69.4375 
Q 21.1875 69.4375 15.40625 65.25 
Q 9.625 61.078125 9.625 54.78125 
Q 9.625 48.390625 14.640625 44.484375 
Q 19.671875 40.578125 31.25 37.578125 
Q 42.828125 34.578125 48.1875 30.609375 
Q 55.03125 25.59375 55.03125 17.140625 
Q 55.03125 11.765625 52 7.640625 
Q 48.96875 3.515625 43.40625 1.265625 
Q 37.84375 -0.984375 30.90625 -0.984375 
Q 23.1875 -0.984375 17.03125 1.578125 
Q 10.890625 4.15625 7.78125 8.890625 
Q 4.6875 13.625 4.6875 20.0625 
L 7.328125 20.0625 
Q 7.328125 11.328125 13.859375 6.484375 
Q 20.40625 1.65625 30.90625 1.65625 
Q 40.234375 1.65625 46.28125 5.921875 
Q 52.34375 10.203125 52.34375 17.046875 
z
" id="Roboto-Thin-53"/>
     <path d="M 24.5625 4.109375 
L 24.90625 5.078125 
L 43.171875 52.828125 
L 46.09375 52.828125 
L 22.46875 -9.1875 
L 21.296875 -12.109375 
Q 17.484375 -21.34375 8.6875 -21.34375 
Q 5.859375 -21.34375 4.78125 -20.796875 
L 4.734375 -18.3125 
Q 6.296875 -18.75 8.296875 -18.75 
Q 12.453125 -18.75 15.1875 -16.328125 
Q 17.921875 -13.921875 19.921875 -8.453125 
L 23.140625 0.296875 
L 2.09375 52.828125 
L 4.984375 52.828125 
z
" id="Roboto-Thin-79"/>
     <path d="M 23.875 4.390625 
L 27.09375 16.109375 
L 43.890625 71.09375 
L 46.828125 71.09375 
L 63.53125 16.109375 
L 66.703125 4.390625 
L 70.015625 16.109375 
L 84.671875 71.09375 
L 87.546875 71.09375 
L 68.40625 0 
L 65.4375 0 
L 47.796875 59.28125 
L 45.3125 66.796875 
L 42.921875 59.28125 
L 25.140625 0 
L 22.171875 0 
L 2.984375 71.09375 
L 5.90625 71.09375 
L 20.65625 16.109375 
z
" id="Roboto-Thin-57"/>
    </defs>
    <g style="fill:#262626;" transform="translate(1478.887868 215.320008)scale(0.2 -0.2)">
     <use xlink:href="#Roboto-Thin-53"/>
     <use x="59.130859" xlink:href="#Roboto-Thin-70"/>
     <use x="113.867188" xlink:href="#Roboto-Thin-72"/>
     <use x="147.314453" xlink:href="#Roboto-Thin-61"/>
     <use x="200.097656" xlink:href="#Roboto-Thin-79"/>
     <use x="247.851562" xlink:href="#Roboto-Thin-41"/>
     <use x="307.568359" xlink:href="#Roboto-Thin-6e"/>
     <use x="362.304688" xlink:href="#Roboto-Thin-64"/>
     <use x="417.041016" xlink:href="#Roboto-Thin-57"/>
     <use x="507.617188" xlink:href="#Roboto-Thin-61"/>
     <use x="560.400391" xlink:href="#Roboto-Thin-69"/>
     <use x="581.005859" xlink:href="#Roboto-Thin-74"/>
    </g>
   </g>
   <g id="PathCollection_18">
    <path d="M 1442.887868 233.924441 
L 1437.473551 244.753075 
L 1448.302185 244.753075 
z
" style="fill:#c44e52;stroke:#c44e52;stroke-width:1.08;"/>
   </g>
   <g id="text_28">
    <!-- Prophet -->
    <g style="fill:#262626;" transform="translate(1478.887868 244.588758)scale(0.2 -0.2)">
     <use xlink:href="#Roboto-Thin-50"/>
     <use x="60.058594" xlink:href="#Roboto-Thin-72"/>
     <use x="93.505859" xlink:href="#Roboto-Thin-6f"/>
     <use x="148.535156" xlink:href="#Roboto-Thin-70"/>
     <use x="203.271484" xlink:href="#Roboto-Thin-68"/>
     <use x="258.007812" xlink:href="#Roboto-Thin-65"/>
     <use x="308.398438" xlink:href="#Roboto-Thin-74"/>
    </g>
   </g>
   <g id="PathCollection_19">
    <path d="M 1442.887868 273.815575 
L 1448.302185 262.986941 
L 1437.473551 262.986941 
z
" style="fill:#8172b2;stroke:#8172b2;stroke-width:1.08;"/>
   </g>
   <g id="text_29">
    <!-- Seer -->
    <g style="fill:#262626;" transform="translate(1478.887868 273.651258)scale(0.2 -0.2)">
     <use xlink:href="#Roboto-Thin-53"/>
     <use x="59.130859" xlink:href="#Roboto-Thin-65"/>
     <use x="109.521484" xlink:href="#Roboto-Thin-65"/>
     <use x="159.912109" xlink:href="#Roboto-Thin-72"/>
    </g>
   </g>
   <g id="PathCollection_20">
    <path d="M 1437.473551 297.463758 
L 1448.302185 302.878075 
L 1448.302185 292.049441 
z
" style="fill:#ccb974;stroke:#ccb974;stroke-width:1.08;"/>
   </g>
   <g id="text_30">
    <!-- BFGMP -->
    <defs>
     <path d="M 9.765625 0 
L 9.765625 71.09375 
L 28.46875 71.09375 
Q 39.9375 71.09375 45.8125 66.421875 
Q 51.703125 61.765625 51.703125 52.875 
Q 51.703125 46.4375 48.4375 42.1875 
Q 45.171875 37.9375 39.203125 36.765625 
Q 45.953125 35.890625 50.4375 30.9375 
Q 54.9375 25.984375 54.9375 19.578125 
Q 54.9375 10.5 49.046875 5.25 
Q 43.171875 0 32.671875 0 
z
M 12.40625 35.109375 
L 12.40625 2.640625 
L 32.953125 2.640625 
Q 42 2.640625 47.140625 7.109375 
Q 52.296875 11.578125 52.296875 19.484375 
Q 52.296875 26.21875 47.3125 30.59375 
Q 42.328125 34.96875 33.984375 35.109375 
z
M 12.40625 37.75 
L 29.4375 37.75 
Q 39.15625 37.75 44.09375 41.484375 
Q 49.03125 45.21875 49.03125 53.078125 
Q 49.03125 68.21875 29.046875 68.453125 
L 12.40625 68.453125 
z
" id="Roboto-Thin-42"/>
     <path d="M 48.828125 34.96875 
L 12.40625 34.96875 
L 12.40625 0 
L 9.765625 0 
L 9.765625 71.09375 
L 53.8125 71.09375 
L 53.8125 68.453125 
L 12.40625 68.453125 
L 12.40625 37.703125 
L 48.828125 37.703125 
z
" id="Roboto-Thin-46"/>
     <path d="M 59.859375 7.625 
Q 57.171875 3.90625 50.4375 1.453125 
Q 43.703125 -0.984375 35.59375 -0.984375 
Q 27.6875 -0.984375 21.484375 2.875 
Q 15.28125 6.734375 11.78125 13.765625 
Q 8.296875 20.796875 8.203125 29.6875 
L 8.203125 41.890625 
Q 8.203125 50.640625 11.5625 57.5625 
Q 14.9375 64.5 21.046875 68.28125 
Q 27.15625 72.078125 34.765625 72.078125 
Q 45.359375 72.078125 52.015625 66.65625 
Q 58.6875 61.234375 59.765625 51.859375 
L 57.125 51.859375 
Q 55.8125 60.359375 50.046875 64.890625 
Q 44.28125 69.4375 34.765625 69.4375 
Q 24.03125 69.4375 17.4375 61.765625 
Q 10.84375 54.109375 10.84375 41.609375 
L 10.84375 30.28125 
Q 10.84375 21.921875 13.9375 15.375 
Q 17.046875 8.84375 22.6875 5.25 
Q 28.328125 1.65625 35.59375 1.65625 
Q 42.71875 1.65625 48.828125 3.75 
Q 54.9375 5.859375 57.234375 8.84375 
L 57.234375 29.546875 
L 35.5 29.546875 
L 35.5 32.234375 
L 59.859375 32.234375 
z
" id="Roboto-Thin-47"/>
    </defs>
    <g style="fill:#262626;" transform="translate(1478.887868 302.713758)scale(0.2 -0.2)">
     <use xlink:href="#Roboto-Thin-42"/>
     <use x="60.302734" xlink:href="#Roboto-Thin-46"/>
     <use x="117.529297" xlink:href="#Roboto-Thin-47"/>
     <use x="186.181641" xlink:href="#Roboto-Thin-4d"/>
     <use x="271.923828" xlink:href="#Roboto-Thin-50"/>
    </g>
   </g>
  </g>
 </g>
 <defs>
  <clipPath id="pe944725a78">
   <rect height="361.16" width="431.441118" x="65.35" y="30.635"/>
  </clipPath>
  <clipPath id="p9633f73b39">
   <rect height="361.16" width="431.441118" x="522.676187" y="30.635"/>
  </clipPath>
  <clipPath id="p74b18c3706">
   <rect height="361.16" width="431.441118" x="980.002375" y="30.635"/>
  </clipPath>
 </defs>
</svg>
